<?xml version="1.0" encoding="utf-8" standalone="no"?>
<!DOCTYPE svg PUBLIC "-//W3C//DTD SVG 1.1//EN"
  "http://www.w3.org/Graphics/SVG/1.1/DTD/svg11.dtd">
<svg xmlns:xlink="http://www.w3.org/1999/xlink" width="686.88pt" height="305.568pt" viewBox="0 0 686.88 305.568" xmlns="http://www.w3.org/2000/svg" version="1.1">
 <metadata>
  <rdf:RDF xmlns:dc="http://purl.org/dc/elements/1.1/" xmlns:cc="http://creativecommons.org/ns#" xmlns:rdf="http://www.w3.org/1999/02/22-rdf-syntax-ns#">
   <cc:Work>
    <dc:type rdf:resource="http://purl.org/dc/dcmitype/StillImage"/>
    <dc:date>2026-09-23T07:32:06.913843</dc:date>
    <dc:format>image/svg+xml</dc:format>
    <dc:creator>
     <cc:Agent>
      <dc:title>Matplotlib v3.11.0, https://matplotlib.org/</dc:title>
     </cc:Agent>
    </dc:creator>
   </cc:Work>
  </rdf:RDF>
 </metadata>
 <defs>
  <style type="text/css">*{stroke-linejoin: round; stroke-linecap: butt}</style>
 </defs>
 <g id="figure_1">
  <g id="patch_1">
   <path d="M 0 305.568 
L 686.88 305.568 
L 686.88 0 
L 0 0 
z
" style="fill: #ffffff"/>
  </g>
  <g id="axes_1">
   <g id="line2d_1">
    <path d="M 584.496 95.1264 
L 638.064 95.1264 
L 638.064 221.97312 
" clip-path="url(#p6bf86f6c4b)" style="fill: none; stroke: #2e7d32; stroke-width: 1.8; stroke-linecap: square"/>
   </g>
   <g id="line2d_2">
    <path d="M 638.064 221.97312 
L 62.208 221.97312 
L 62.208 221.97312 
" clip-path="url(#p6bf86f6c4b)" style="fill: none; stroke: #2e7d32; stroke-width: 1.8; stroke-linecap: square"/>
   </g>
   <g id="patch_2">
    <path d="M 46.1376 281.360448 
L 640.7424 281.360448 
Q 651.456 281.360448 651.456 276.74784 
L 651.456 265.21632 
Q 651.456 260.603712 640.7424 260.603712 
L 46.1376 260.603712 
Q 35.424 260.603712 35.424 265.21632 
L 35.424 276.74784 
Q 35.424 281.360448 46.1376 281.360448 
z
" clip-path="url(#p6bf86f6c4b)" style="fill: #e8f6f7"/>
   </g>
   <g id="patch_3">
    <path d="M 46.4724 115.450704 
L 150.93 115.450704 
Q 165.6612 115.450704 165.6612 109.108368 
L 165.6612 84.3156 
Q 165.6612 77.973264 150.93 77.973264 
L 46.4724 77.973264 
Q 31.7412 77.973264 31.7412 84.3156 
L 31.7412 109.108368 
Q 31.7412 115.450704 46.4724 115.450704 
z
" clip-path="url(#p6bf86f6c4b)" style="fill-opacity: 0.078431"/>
   </g>
   <g id="patch_4">
    <path d="M 233.9604 115.450704 
L 351.81 115.450704 
Q 366.5412 115.450704 366.5412 109.108368 
L 366.5412 84.3156 
Q 366.5412 77.973264 351.81 77.973264 
L 233.9604 77.973264 
Q 219.2292 77.973264 219.2292 84.3156 
L 219.2292 109.108368 
Q 219.2292 115.450704 233.9604 115.450704 
z
" clip-path="url(#p6bf86f6c4b)" style="fill-opacity: 0.078431"/>
   </g>
   <g id="patch_5">
    <path d="M 227.2644 187.522704 
L 358.506 187.522704 
Q 373.2372 187.522704 373.2372 181.180368 
L 373.2372 162.15336 
Q 373.2372 155.811024 358.506 155.811024 
L 227.2644 155.811024 
Q 212.5332 155.811024 212.5332 162.15336 
L 212.5332 181.180368 
Q 212.5332 187.522704 227.2644 187.522704 
z
" clip-path="url(#p6bf86f6c4b)" style="fill-opacity: 0.078431"/>
   </g>
   <g id="patch_6">
    <path d="M 454.9284 115.450704 
L 572.778 115.450704 
Q 587.5092 115.450704 587.5092 109.108368 
L 587.5092 84.3156 
Q 587.5092 77.973264 572.778 77.973264 
L 454.9284 77.973264 
Q 440.1972 77.973264 440.1972 84.3156 
L 440.1972 109.108368 
Q 440.1972 115.450704 454.9284 115.450704 
z
" clip-path="url(#p6bf86f6c4b)" style="fill-opacity: 0.078431"/>
   </g>
   <g id="patch_7">
    <path d="M 448.2324 187.522704 
L 579.474 187.522704 
Q 594.2052 187.522704 594.2052 181.180368 
L 594.2052 162.15336 
Q 594.2052 155.811024 579.474 155.811024 
L 448.2324 155.811024 
Q 433.5012 155.811024 433.5012 162.15336 
L 433.5012 181.180368 
Q 433.5012 187.522704 448.2324 187.522704 
z
" clip-path="url(#p6bf86f6c4b)" style="fill-opacity: 0.078431"/>
   </g>
   <g id="patch_8">
    <path d="M 66.5604 242.297424 
L 171.018 242.297424 
Q 185.7492 242.297424 185.7492 235.955088 
L 185.7492 211.16232 
Q 185.7492 204.819984 171.018 204.819984 
L 66.5604 204.819984 
Q 51.8292 204.819984 51.8292 211.16232 
L 51.8292 235.955088 
Q 51.8292 242.297424 66.5604 242.297424 
z
" clip-path="url(#p6bf86f6c4b)" style="fill-opacity: 0.078431"/>
   </g>
   <g id="patch_9">
    <path d="M 227.2644 242.297424 
L 331.722 242.297424 
Q 346.4532 242.297424 346.4532 235.955088 
L 346.4532 211.16232 
Q 346.4532 204.819984 331.722 204.819984 
L 227.2644 204.819984 
Q 212.5332 204.819984 212.5332 211.16232 
L 212.5332 235.955088 
Q 212.5332 242.297424 227.2644 242.297424 
z
" clip-path="url(#p6bf86f6c4b)" style="fill-opacity: 0.078431"/>
   </g>
   <g id="patch_10">
    <path d="M 387.9684 242.297424 
L 492.426 242.297424 
Q 507.1572 242.297424 507.1572 235.955088 
L 507.1572 211.16232 
Q 507.1572 204.819984 492.426 204.819984 
L 387.9684 204.819984 
Q 373.2372 204.819984 373.2372 211.16232 
L 373.2372 235.955088 
Q 373.2372 242.297424 387.9684 242.297424 
z
" clip-path="url(#p6bf86f6c4b)" style="fill-opacity: 0.078431"/>
   </g>
   <g id="patch_11">
    <path d="M 548.6724 242.297424 
L 653.13 242.297424 
Q 667.8612 242.297424 667.8612 235.955088 
L 667.8612 211.16232 
Q 667.8612 204.819984 653.13 204.819984 
L 548.6724 204.819984 
Q 533.9412 204.819984 533.9412 211.16232 
L 533.9412 235.955088 
Q 533.9412 242.297424 548.6724 242.297424 
z
" clip-path="url(#p6bf86f6c4b)" style="fill-opacity: 0.078431"/>
   </g>
   <g id="patch_12">
    <path d="M 43.4592 113.86512 
L 147.9168 113.86512 
Q 162.648 113.86512 162.648 107.522784 
L 162.648 82.730016 
Q 162.648 76.38768 147.9168 76.38768 
L 43.4592 76.38768 
Q 28.728 76.38768 28.728 82.730016 
L 28.728 107.522784 
Q 28.728 113.86512 43.4592 113.86512 
z
" clip-path="url(#p6bf86f6c4b)" style="fill: #e8f6f7; stroke: #0a9396; stroke-width: 1.7; stroke-linejoin: miter"/>
   </g>
   <g id="patch_13">
    <path d="M 230.9472 113.86512 
L 348.7968 113.86512 
Q 363.528 113.86512 363.528 107.522784 
L 363.528 82.730016 
Q 363.528 76.38768 348.7968 76.38768 
L 230.9472 76.38768 
Q 216.216 76.38768 216.216 82.730016 
L 216.216 107.522784 
Q 216.216 113.86512 230.9472 113.86512 
z
" clip-path="url(#p6bf86f6c4b)" style="fill: #fdf1e7; stroke: #b5651d; stroke-width: 1.7; stroke-linejoin: miter"/>
   </g>
   <g id="patch_14">
    <path d="M 224.2512 185.93712 
L 355.4928 185.93712 
Q 370.224 185.93712 370.224 179.594784 
L 370.224 160.567776 
Q 370.224 154.22544 355.4928 154.22544 
L 224.2512 154.22544 
Q 209.52 154.22544 209.52 160.567776 
L 209.52 179.594784 
Q 209.52 185.93712 224.2512 185.93712 
z
" clip-path="url(#p6bf86f6c4b)" style="fill: #fdeaea; stroke: #c0392b; stroke-width: 1.7; stroke-linejoin: miter"/>
   </g>
   <g id="patch_15">
    <path d="M 451.9152 113.86512 
L 569.7648 113.86512 
Q 584.496 113.86512 584.496 107.522784 
L 584.496 82.730016 
Q 584.496 76.38768 569.7648 76.38768 
L 451.9152 76.38768 
Q 437.184 76.38768 437.184 82.730016 
L 437.184 107.522784 
Q 437.184 113.86512 451.9152 113.86512 
z
" clip-path="url(#p6bf86f6c4b)" style="fill: #fdf1e7; stroke: #b5651d; stroke-width: 1.7; stroke-linejoin: miter"/>
   </g>
   <g id="patch_16">
    <path d="M 445.2192 185.93712 
L 576.4608 185.93712 
Q 591.192 185.93712 591.192 179.594784 
L 591.192 160.567776 
Q 591.192 154.22544 576.4608 154.22544 
L 445.2192 154.22544 
Q 430.488 154.22544 430.488 160.567776 
L 430.488 179.594784 
Q 430.488 185.93712 445.2192 185.93712 
z
" clip-path="url(#p6bf86f6c4b)" style="fill: #eef2ff; stroke: #4054b2; stroke-width: 1.7; stroke-linejoin: miter"/>
   </g>
   <g id="patch_17">
    <path d="M 63.5472 240.71184 
L 168.0048 240.71184 
Q 182.736 240.71184 182.736 234.369504 
L 182.736 209.576736 
Q 182.736 203.2344 168.0048 203.2344 
L 63.5472 203.2344 
Q 48.816 203.2344 48.816 209.576736 
L 48.816 234.369504 
Q 48.816 240.71184 63.5472 240.71184 
z
" clip-path="url(#p6bf86f6c4b)" style="fill: #e8f6f7; stroke: #0a9396; stroke-width: 1.7; stroke-linejoin: miter"/>
   </g>
   <g id="patch_18">
    <path d="M 224.2512 240.71184 
L 328.7088 240.71184 
Q 343.44 240.71184 343.44 234.369504 
L 343.44 209.576736 
Q 343.44 203.2344 328.7088 203.2344 
L 224.2512 203.2344 
Q 209.52 203.2344 209.52 209.576736 
L 209.52 234.369504 
Q 209.52 240.71184 224.2512 240.71184 
z
" clip-path="url(#p6bf86f6c4b)" style="fill: #e8f6f7; stroke: #0a9396; stroke-width: 1.7; stroke-linejoin: miter"/>
   </g>
   <g id="patch_19">
    <path d="M 384.9552 240.71184 
L 489.4128 240.71184 
Q 504.144 240.71184 504.144 234.369504 
L 504.144 209.576736 
Q 504.144 203.2344 489.4128 203.2344 
L 384.9552 203.2344 
Q 370.224 203.2344 370.224 209.576736 
L 370.224 234.369504 
Q 370.224 240.71184 384.9552 240.71184 
z
" clip-path="url(#p6bf86f6c4b)" style="fill: #eaf4ea; stroke: #2e7d32; stroke-width: 1.7; stroke-linejoin: miter"/>
   </g>
   <g id="patch_20">
    <path d="M 545.6592 240.71184 
L 650.1168 240.71184 
Q 664.848 240.71184 664.848 234.369504 
L 664.848 209.576736 
Q 664.848 203.2344 650.1168 203.2344 
L 545.6592 203.2344 
Q 530.928 203.2344 530.928 209.576736 
L 530.928 234.369504 
Q 530.928 240.71184 545.6592 240.71184 
z
" clip-path="url(#p6bf86f6c4b)" style="fill: #eaf4ea; stroke: #2e7d32; stroke-width: 1.7; stroke-linejoin: miter"/>
   </g>
   <g id="text_1">
    <!-- Gereksinimi projeye aktarma kararı -->
    <g style="fill: #006d77" transform="translate(152.956094 37.491431) scale(0.19 -0.19)">
     <defs>
      <path id="DejaVuSans-Bold-2a" d="M 4781 347 
Q 4331 128 3847 18 
Q 3363 -91 2847 -91 
Q 1681 -91 1000 561 
Q 319 1213 319 2328 
Q 319 3456 1012 4103 
Q 1706 4750 2913 4750 
Q 3378 4750 3804 4662 
Q 4231 4575 4609 4403 
L 4609 3438 
Q 4219 3659 3833 3768 
Q 3447 3878 3059 3878 
Q 2341 3878 1952 3476 
Q 1563 3075 1563 2328 
Q 1563 1588 1938 1184 
Q 2313 781 3003 781 
Q 3191 781 3352 804 
Q 3513 828 3641 878 
L 3641 1784 
L 2906 1784 
L 2906 2591 
L 4781 2591 
L 4781 347 
z
" transform="scale(0.015625)"/>
      <path id="DejaVuSans-Bold-48" d="M 4031 1759 
L 4031 1441 
L 1416 1441 
Q 1456 1047 1700 850 
Q 1944 653 2381 653 
Q 2734 653 3104 758 
Q 3475 863 3866 1075 
L 3866 213 
Q 3469 63 3072 -14 
Q 2675 -91 2278 -91 
Q 1328 -91 801 392 
Q 275 875 275 1747 
Q 275 2603 792 3093 
Q 1309 3584 2216 3584 
Q 3041 3584 3536 3087 
Q 4031 2591 4031 1759 
z
M 2881 2131 
Q 2881 2450 2695 2645 
Q 2509 2841 2209 2841 
Q 1884 2841 1681 2658 
Q 1478 2475 1428 2131 
L 2881 2131 
z
" transform="scale(0.015625)"/>
      <path id="DejaVuSans-Bold-55" d="M 3138 2547 
Q 2991 2616 2845 2648 
Q 2700 2681 2553 2681 
Q 2122 2681 1889 2404 
Q 1656 2128 1656 1613 
L 1656 0 
L 538 0 
L 538 3500 
L 1656 3500 
L 1656 2925 
Q 1872 3269 2151 3426 
Q 2431 3584 2822 3584 
Q 2878 3584 2943 3579 
Q 3009 3575 3134 3559 
L 3138 2547 
z
" transform="scale(0.015625)"/>
      <path id="DejaVuSans-Bold-4e" d="M 538 4863 
L 1656 4863 
L 1656 2216 
L 2944 3500 
L 4244 3500 
L 2534 1894 
L 4378 0 
L 3022 0 
L 1656 1459 
L 1656 0 
L 538 0 
L 538 4863 
z
" transform="scale(0.015625)"/>
      <path id="DejaVuSans-Bold-56" d="M 3272 3391 
L 3272 2541 
Q 2913 2691 2578 2766 
Q 2244 2841 1947 2841 
Q 1628 2841 1473 2761 
Q 1319 2681 1319 2516 
Q 1319 2381 1436 2309 
Q 1553 2238 1856 2203 
L 2053 2175 
Q 2913 2066 3209 1816 
Q 3506 1566 3506 1031 
Q 3506 472 3093 190 
Q 2681 -91 1863 -91 
Q 1516 -91 1145 -36 
Q 775 19 384 128 
L 384 978 
Q 719 816 1070 734 
Q 1422 653 1784 653 
Q 2113 653 2278 743 
Q 2444 834 2444 1013 
Q 2444 1163 2330 1236 
Q 2216 1309 1875 1350 
L 1678 1375 
Q 931 1469 631 1722 
Q 331 1975 331 2491 
Q 331 3047 712 3315 
Q 1094 3584 1881 3584 
Q 2191 3584 2531 3537 
Q 2872 3491 3272 3391 
z
" transform="scale(0.015625)"/>
      <path id="DejaVuSans-Bold-4c" d="M 538 3500 
L 1656 3500 
L 1656 0 
L 538 0 
L 538 3500 
z
M 538 4863 
L 1656 4863 
L 1656 3950 
L 538 3950 
L 538 4863 
z
" transform="scale(0.015625)"/>
      <path id="DejaVuSans-Bold-51" d="M 4056 2131 
L 4056 0 
L 2931 0 
L 2931 347 
L 2931 1631 
Q 2931 2084 2911 2256 
Q 2891 2428 2841 2509 
Q 2775 2619 2662 2680 
Q 2550 2741 2406 2741 
Q 2056 2741 1856 2470 
Q 1656 2200 1656 1722 
L 1656 0 
L 538 0 
L 538 3500 
L 1656 3500 
L 1656 2988 
Q 1909 3294 2193 3439 
Q 2478 3584 2822 3584 
Q 3428 3584 3742 3212 
Q 4056 2841 4056 2131 
z
" transform="scale(0.015625)"/>
      <path id="DejaVuSans-Bold-50" d="M 3781 2919 
Q 3994 3244 4286 3414 
Q 4578 3584 4928 3584 
Q 5531 3584 5847 3212 
Q 6163 2841 6163 2131 
L 6163 0 
L 5038 0 
L 5038 1825 
Q 5041 1866 5042 1909 
Q 5044 1953 5044 2034 
Q 5044 2406 4934 2573 
Q 4825 2741 4581 2741 
Q 4263 2741 4089 2478 
Q 3916 2216 3909 1719 
L 3909 0 
L 2784 0 
L 2784 1825 
Q 2784 2406 2684 2573 
Q 2584 2741 2328 2741 
Q 2006 2741 1831 2477 
Q 1656 2213 1656 1722 
L 1656 0 
L 531 0 
L 531 3500 
L 1656 3500 
L 1656 2988 
Q 1863 3284 2130 3434 
Q 2397 3584 2719 3584 
Q 3081 3584 3359 3409 
Q 3638 3234 3781 2919 
z
" transform="scale(0.015625)"/>
      <path id="DejaVuSans-Bold-3" transform="scale(0.015625)"/>
      <path id="DejaVuSans-Bold-53" d="M 1656 506 
L 1656 -1331 
L 538 -1331 
L 538 3500 
L 1656 3500 
L 1656 2988 
Q 1888 3294 2169 3439 
Q 2450 3584 2816 3584 
Q 3463 3584 3878 3070 
Q 4294 2556 4294 1747 
Q 4294 938 3878 423 
Q 3463 -91 2816 -91 
Q 2450 -91 2169 54 
Q 1888 200 1656 506 
z
M 2400 2772 
Q 2041 2772 1848 2508 
Q 1656 2244 1656 1747 
Q 1656 1250 1848 986 
Q 2041 722 2400 722 
Q 2759 722 2948 984 
Q 3138 1247 3138 1747 
Q 3138 2247 2948 2509 
Q 2759 2772 2400 2772 
z
" transform="scale(0.015625)"/>
      <path id="DejaVuSans-Bold-52" d="M 2203 2784 
Q 1831 2784 1636 2517 
Q 1441 2250 1441 1747 
Q 1441 1244 1636 976 
Q 1831 709 2203 709 
Q 2569 709 2762 976 
Q 2956 1244 2956 1747 
Q 2956 2250 2762 2517 
Q 2569 2784 2203 2784 
z
M 2203 3584 
Q 3106 3584 3614 3096 
Q 4122 2609 4122 1747 
Q 4122 884 3614 396 
Q 3106 -91 2203 -91 
Q 1297 -91 786 396 
Q 275 884 275 1747 
Q 275 2609 786 3096 
Q 1297 3584 2203 3584 
z
" transform="scale(0.015625)"/>
      <path id="DejaVuSans-Bold-4d" d="M 538 3500 
L 1656 3500 
L 1656 63 
Q 1656 -641 1318 -1011 
Q 981 -1381 341 -1381 
L -213 -1381 
L -213 -647 
L -19 -647 
Q 300 -647 419 -503 
Q 538 -359 538 63 
L 538 3500 
z
M 538 4863 
L 1656 4863 
L 1656 3950 
L 538 3950 
L 538 4863 
z
" transform="scale(0.015625)"/>
      <path id="DejaVuSans-Bold-5c" d="M 78 3500 
L 1197 3500 
L 2138 1125 
L 2938 3500 
L 4056 3500 
L 2584 -331 
Q 2363 -916 2067 -1148 
Q 1772 -1381 1288 -1381 
L 641 -1381 
L 641 -647 
L 991 -647 
Q 1275 -647 1404 -556 
Q 1534 -466 1606 -231 
L 1638 -134 
L 78 3500 
z
" transform="scale(0.015625)"/>
      <path id="DejaVuSans-Bold-44" d="M 2106 1575 
Q 1756 1575 1579 1456 
Q 1403 1338 1403 1106 
Q 1403 894 1545 773 
Q 1688 653 1941 653 
Q 2256 653 2472 879 
Q 2688 1106 2688 1447 
L 2688 1575 
L 2106 1575 
z
M 3816 1997 
L 3816 0 
L 2688 0 
L 2688 519 
Q 2463 200 2181 54 
Q 1900 -91 1497 -91 
Q 953 -91 614 226 
Q 275 544 275 1050 
Q 275 1666 698 1953 
Q 1122 2241 2028 2241 
L 2688 2241 
L 2688 2328 
Q 2688 2594 2478 2717 
Q 2269 2841 1825 2841 
Q 1466 2841 1156 2769 
Q 847 2697 581 2553 
L 581 3406 
Q 941 3494 1303 3539 
Q 1666 3584 2028 3584 
Q 2975 3584 3395 3211 
Q 3816 2838 3816 1997 
z
" transform="scale(0.015625)"/>
      <path id="DejaVuSans-Bold-57" d="M 1759 4494 
L 1759 3500 
L 2913 3500 
L 2913 2700 
L 1759 2700 
L 1759 1216 
Q 1759 972 1856 886 
Q 1953 800 2241 800 
L 2816 800 
L 2816 0 
L 1856 0 
Q 1194 0 917 276 
Q 641 553 641 1216 
L 641 2700 
L 84 2700 
L 84 3500 
L 641 3500 
L 641 4494 
L 1759 4494 
z
" transform="scale(0.015625)"/>
      <path id="DejaVuSans-Bold-f3" d="M 538 3500 
L 1656 3500 
L 1656 0 
L 538 0 
L 538 3500 
z
" transform="scale(0.015625)"/>
     </defs>
     <use xlink:href="#DejaVuSans-Bold-2a"/>
     <use xlink:href="#DejaVuSans-Bold-48" transform="translate(82.078125 0)"/>
     <use xlink:href="#DejaVuSans-Bold-55" transform="translate(149.90625 0)"/>
     <use xlink:href="#DejaVuSans-Bold-48" transform="translate(199.21875 0)"/>
     <use xlink:href="#DejaVuSans-Bold-4e" transform="translate(267.046875 0)"/>
     <use xlink:href="#DejaVuSans-Bold-56" transform="translate(333.546875 0)"/>
     <use xlink:href="#DejaVuSans-Bold-4c" transform="translate(393.0625 0)"/>
     <use xlink:href="#DejaVuSans-Bold-51" transform="translate(427.34375 0)"/>
     <use xlink:href="#DejaVuSans-Bold-4c" transform="translate(498.53125 0)"/>
     <use xlink:href="#DejaVuSans-Bold-50" transform="translate(532.8125 0)"/>
     <use xlink:href="#DejaVuSans-Bold-4c" transform="translate(637.015625 0)"/>
     <use xlink:href="#DejaVuSans-Bold-3" transform="translate(671.296875 0)"/>
     <use xlink:href="#DejaVuSans-Bold-53" transform="translate(706.109375 0)"/>
     <use xlink:href="#DejaVuSans-Bold-55" transform="translate(777.6875 0)"/>
     <use xlink:href="#DejaVuSans-Bold-52" transform="translate(827 0)"/>
     <use xlink:href="#DejaVuSans-Bold-4d" transform="translate(895.703125 0)"/>
     <use xlink:href="#DejaVuSans-Bold-48" transform="translate(929.984375 0)"/>
     <use xlink:href="#DejaVuSans-Bold-5c" transform="translate(997.8125 0)"/>
     <use xlink:href="#DejaVuSans-Bold-48" transform="translate(1063 0)"/>
     <use xlink:href="#DejaVuSans-Bold-3" transform="translate(1130.828125 0)"/>
     <use xlink:href="#DejaVuSans-Bold-44" transform="translate(1165.640625 0)"/>
     <use xlink:href="#DejaVuSans-Bold-4e" transform="translate(1233.125 0)"/>
     <use xlink:href="#DejaVuSans-Bold-57" transform="translate(1299.625 0)"/>
     <use xlink:href="#DejaVuSans-Bold-44" transform="translate(1347.421875 0)"/>
     <use xlink:href="#DejaVuSans-Bold-55" transform="translate(1414.90625 0)"/>
     <use xlink:href="#DejaVuSans-Bold-50" transform="translate(1464.21875 0)"/>
     <use xlink:href="#DejaVuSans-Bold-44" transform="translate(1568.421875 0)"/>
     <use xlink:href="#DejaVuSans-Bold-3" transform="translate(1635.90625 0)"/>
     <use xlink:href="#DejaVuSans-Bold-4e" transform="translate(1670.71875 0)"/>
     <use xlink:href="#DejaVuSans-Bold-44" transform="translate(1737.21875 0)"/>
     <use xlink:href="#DejaVuSans-Bold-55" transform="translate(1804.703125 0)"/>
     <use xlink:href="#DejaVuSans-Bold-44" transform="translate(1854.015625 0)"/>
     <use xlink:href="#DejaVuSans-Bold-55" transform="translate(1921.5 0)"/>
     <use xlink:href="#DejaVuSans-Bold-f3" transform="translate(1970.8125 0)"/>
    </g>
   </g>
   <g id="text_2">
    <!-- her gereksinim için aynı soruları sor -->
    <g style="fill: #6b7280" transform="translate(235.8975 54.082413) scale(0.12 -0.12)">
     <defs>
      <path id="DejaVuSans-4b" d="M 3513 2113 
L 3513 0 
L 2938 0 
L 2938 2094 
Q 2938 2591 2744 2837 
Q 2550 3084 2163 3084 
Q 1697 3084 1428 2787 
Q 1159 2491 1159 1978 
L 1159 0 
L 581 0 
L 581 4863 
L 1159 4863 
L 1159 2956 
Q 1366 3272 1645 3428 
Q 1925 3584 2291 3584 
Q 2894 3584 3203 3211 
Q 3513 2838 3513 2113 
z
" transform="scale(0.015625)"/>
      <path id="DejaVuSans-48" d="M 3597 1894 
L 3597 1613 
L 953 1613 
Q 991 1019 1311 708 
Q 1631 397 2203 397 
Q 2534 397 2845 478 
Q 3156 559 3463 722 
L 3463 178 
Q 3153 47 2828 -22 
Q 2503 -91 2169 -91 
Q 1331 -91 842 396 
Q 353 884 353 1716 
Q 353 2575 817 3079 
Q 1281 3584 2069 3584 
Q 2775 3584 3186 3129 
Q 3597 2675 3597 1894 
z
M 3022 2063 
Q 3016 2534 2758 2815 
Q 2500 3097 2075 3097 
Q 1594 3097 1305 2825 
Q 1016 2553 972 2059 
L 3022 2063 
z
" transform="scale(0.015625)"/>
      <path id="DejaVuSans-55" d="M 2631 2963 
Q 2534 3019 2420 3045 
Q 2306 3072 2169 3072 
Q 1681 3072 1420 2755 
Q 1159 2438 1159 1844 
L 1159 0 
L 581 0 
L 581 3500 
L 1159 3500 
L 1159 2956 
Q 1341 3275 1631 3429 
Q 1922 3584 2338 3584 
Q 2397 3584 2469 3576 
Q 2541 3569 2628 3553 
L 2631 2963 
z
" transform="scale(0.015625)"/>
      <path id="DejaVuSans-3" transform="scale(0.015625)"/>
      <path id="DejaVuSans-4a" d="M 2906 1791 
Q 2906 2416 2648 2759 
Q 2391 3103 1925 3103 
Q 1463 3103 1205 2759 
Q 947 2416 947 1791 
Q 947 1169 1205 825 
Q 1463 481 1925 481 
Q 2391 481 2648 825 
Q 2906 1169 2906 1791 
z
M 3481 434 
Q 3481 -459 3084 -895 
Q 2688 -1331 1869 -1331 
Q 1566 -1331 1297 -1286 
Q 1028 -1241 775 -1147 
L 775 -588 
Q 1028 -725 1275 -790 
Q 1522 -856 1778 -856 
Q 2344 -856 2625 -561 
Q 2906 -266 2906 331 
L 2906 616 
Q 2728 306 2450 153 
Q 2172 0 1784 0 
Q 1141 0 747 490 
Q 353 981 353 1791 
Q 353 2603 747 3093 
Q 1141 3584 1784 3584 
Q 2172 3584 2450 3431 
Q 2728 3278 2906 2969 
L 2906 3500 
L 3481 3500 
L 3481 434 
z
" transform="scale(0.015625)"/>
      <path id="DejaVuSans-4e" d="M 581 4863 
L 1159 4863 
L 1159 1991 
L 2875 3500 
L 3609 3500 
L 1753 1863 
L 3688 0 
L 2938 0 
L 1159 1709 
L 1159 0 
L 581 0 
L 581 4863 
z
" transform="scale(0.015625)"/>
      <path id="DejaVuSans-56" d="M 2834 3397 
L 2834 2853 
Q 2591 2978 2328 3040 
Q 2066 3103 1784 3103 
Q 1356 3103 1142 2972 
Q 928 2841 928 2578 
Q 928 2378 1081 2264 
Q 1234 2150 1697 2047 
L 1894 2003 
Q 2506 1872 2764 1633 
Q 3022 1394 3022 966 
Q 3022 478 2636 193 
Q 2250 -91 1575 -91 
Q 1294 -91 989 -36 
Q 684 19 347 128 
L 347 722 
Q 666 556 975 473 
Q 1284 391 1588 391 
Q 1994 391 2212 530 
Q 2431 669 2431 922 
Q 2431 1156 2273 1281 
Q 2116 1406 1581 1522 
L 1381 1569 
Q 847 1681 609 1914 
Q 372 2147 372 2553 
Q 372 3047 722 3315 
Q 1072 3584 1716 3584 
Q 2034 3584 2315 3537 
Q 2597 3491 2834 3397 
z
" transform="scale(0.015625)"/>
      <path id="DejaVuSans-4c" d="M 603 3500 
L 1178 3500 
L 1178 0 
L 603 0 
L 603 3500 
z
M 603 4863 
L 1178 4863 
L 1178 4134 
L 603 4134 
L 603 4863 
z
" transform="scale(0.015625)"/>
      <path id="DejaVuSans-51" d="M 3513 2113 
L 3513 0 
L 2938 0 
L 2938 2094 
Q 2938 2591 2744 2837 
Q 2550 3084 2163 3084 
Q 1697 3084 1428 2787 
Q 1159 2491 1159 1978 
L 1159 0 
L 581 0 
L 581 3500 
L 1159 3500 
L 1159 2956 
Q 1366 3272 1645 3428 
Q 1925 3584 2291 3584 
Q 2894 3584 3203 3211 
Q 3513 2838 3513 2113 
z
" transform="scale(0.015625)"/>
      <path id="DejaVuSans-50" d="M 3328 2828 
Q 3544 3216 3844 3400 
Q 4144 3584 4550 3584 
Q 5097 3584 5394 3201 
Q 5691 2819 5691 2113 
L 5691 0 
L 5113 0 
L 5113 2094 
Q 5113 2597 4934 2840 
Q 4756 3084 4391 3084 
Q 3944 3084 3684 2787 
Q 3425 2491 3425 1978 
L 3425 0 
L 2847 0 
L 2847 2094 
Q 2847 2600 2669 2842 
Q 2491 3084 2119 3084 
Q 1678 3084 1418 2786 
Q 1159 2488 1159 1978 
L 1159 0 
L 581 0 
L 581 3500 
L 1159 3500 
L 1159 2956 
Q 1356 3278 1631 3431 
Q 1906 3584 2284 3584 
Q 2666 3584 2933 3390 
Q 3200 3197 3328 2828 
z
" transform="scale(0.015625)"/>
      <path id="DejaVuSans-a9" d="M 3122 3366 
L 3122 2828 
Q 2878 2963 2633 3030 
Q 2388 3097 2138 3097 
Q 1578 3097 1268 2742 
Q 959 2388 959 1747 
Q 959 1106 1268 751 
Q 1578 397 2138 397 
Q 2388 397 2633 464 
Q 2878 531 3122 666 
L 3122 134 
Q 2881 22 2623 -34 
Q 2366 -91 2075 -91 
Q 1284 -91 818 406 
Q 353 903 353 1747 
Q 353 2603 823 3093 
Q 1294 3584 2113 3584 
Q 2378 3584 2631 3529 
Q 2884 3475 3122 3366 
z
M 2310 0 
Q 2481 -194 2565 -358 
Q 2650 -522 2650 -672 
Q 2650 -950 2462 -1092 
Q 2275 -1234 1906 -1234 
Q 1763 -1234 1627 -1215 
Q 1491 -1197 1356 -1159 
L 1356 -750 
Q 1463 -803 1578 -826 
Q 1694 -850 1841 -850 
Q 2025 -850 2119 -775 
Q 2213 -700 2213 -556 
Q 2213 -463 2145 -327 
Q 2078 -191 1938 0 
L 2310 0 
z
" transform="scale(0.015625)"/>
      <path id="DejaVuSans-44" d="M 2194 1759 
Q 1497 1759 1228 1600 
Q 959 1441 959 1056 
Q 959 750 1161 570 
Q 1363 391 1709 391 
Q 2188 391 2477 730 
Q 2766 1069 2766 1631 
L 2766 1759 
L 2194 1759 
z
M 3341 1997 
L 3341 0 
L 2766 0 
L 2766 531 
Q 2569 213 2275 61 
Q 1981 -91 1556 -91 
Q 1019 -91 701 211 
Q 384 513 384 1019 
Q 384 1609 779 1909 
Q 1175 2209 1959 2209 
L 2766 2209 
L 2766 2266 
Q 2766 2663 2505 2880 
Q 2244 3097 1772 3097 
Q 1472 3097 1187 3025 
Q 903 2953 641 2809 
L 641 3341 
Q 956 3463 1253 3523 
Q 1550 3584 1831 3584 
Q 2591 3584 2966 3190 
Q 3341 2797 3341 1997 
z
" transform="scale(0.015625)"/>
      <path id="DejaVuSans-5c" d="M 2059 -325 
Q 1816 -950 1584 -1140 
Q 1353 -1331 966 -1331 
L 506 -1331 
L 506 -850 
L 844 -850 
Q 1081 -850 1212 -737 
Q 1344 -625 1503 -206 
L 1606 56 
L 191 3500 
L 800 3500 
L 1894 763 
L 2988 3500 
L 3597 3500 
L 2059 -325 
z
" transform="scale(0.015625)"/>
      <path id="DejaVuSans-f3" d="M 603 3500 
L 1178 3500 
L 1178 0 
L 603 0 
L 603 3500 
z
M 891 3584 
L 891 3584 
z
" transform="scale(0.015625)"/>
      <path id="DejaVuSans-52" d="M 1959 3097 
Q 1497 3097 1228 2736 
Q 959 2375 959 1747 
Q 959 1119 1226 758 
Q 1494 397 1959 397 
Q 2419 397 2687 759 
Q 2956 1122 2956 1747 
Q 2956 2369 2687 2733 
Q 2419 3097 1959 3097 
z
M 1959 3584 
Q 2709 3584 3137 3096 
Q 3566 2609 3566 1747 
Q 3566 888 3137 398 
Q 2709 -91 1959 -91 
Q 1206 -91 779 398 
Q 353 888 353 1747 
Q 353 2609 779 3096 
Q 1206 3584 1959 3584 
z
" transform="scale(0.015625)"/>
      <path id="DejaVuSans-58" d="M 544 1381 
L 544 3500 
L 1119 3500 
L 1119 1403 
Q 1119 906 1312 657 
Q 1506 409 1894 409 
Q 2359 409 2629 706 
Q 2900 1003 2900 1516 
L 2900 3500 
L 3475 3500 
L 3475 0 
L 2900 0 
L 2900 538 
Q 2691 219 2414 64 
Q 2138 -91 1772 -91 
Q 1169 -91 856 284 
Q 544 659 544 1381 
z
M 1991 3584 
L 1991 3584 
z
" transform="scale(0.015625)"/>
      <path id="DejaVuSans-4f" d="M 603 4863 
L 1178 4863 
L 1178 0 
L 603 0 
L 603 4863 
z
" transform="scale(0.015625)"/>
     </defs>
     <use xlink:href="#DejaVuSans-4b"/>
     <use xlink:href="#DejaVuSans-48" transform="translate(63.375 0)"/>
     <use xlink:href="#DejaVuSans-55" transform="translate(124.90625 0)"/>
     <use xlink:href="#DejaVuSans-3" transform="translate(166.015625 0)"/>
     <use xlink:href="#DejaVuSans-4a" transform="translate(197.796875 0)"/>
     <use xlink:href="#DejaVuSans-48" transform="translate(261.28125 0)"/>
     <use xlink:href="#DejaVuSans-55" transform="translate(322.8125 0)"/>
     <use xlink:href="#DejaVuSans-48" transform="translate(361.71875 0)"/>
     <use xlink:href="#DejaVuSans-4e" transform="translate(423.25 0)"/>
     <use xlink:href="#DejaVuSans-56" transform="translate(481.15625 0)"/>
     <use xlink:href="#DejaVuSans-4c" transform="translate(533.25 0)"/>
     <use xlink:href="#DejaVuSans-51" transform="translate(561.03125 0)"/>
     <use xlink:href="#DejaVuSans-4c" transform="translate(624.40625 0)"/>
     <use xlink:href="#DejaVuSans-50" transform="translate(652.1875 0)"/>
     <use xlink:href="#DejaVuSans-3" transform="translate(749.59375 0)"/>
     <use xlink:href="#DejaVuSans-4c" transform="translate(781.375 0)"/>
     <use xlink:href="#DejaVuSans-a9" transform="translate(809.15625 0)"/>
     <use xlink:href="#DejaVuSans-4c" transform="translate(864.140625 0)"/>
     <use xlink:href="#DejaVuSans-51" transform="translate(891.921875 0)"/>
     <use xlink:href="#DejaVuSans-3" transform="translate(955.296875 0)"/>
     <use xlink:href="#DejaVuSans-44" transform="translate(987.078125 0)"/>
     <use xlink:href="#DejaVuSans-5c" transform="translate(1048.359375 0)"/>
     <use xlink:href="#DejaVuSans-51" transform="translate(1107.546875 0)"/>
     <use xlink:href="#DejaVuSans-f3" transform="translate(1170.921875 0)"/>
     <use xlink:href="#DejaVuSans-3" transform="translate(1198.703125 0)"/>
     <use xlink:href="#DejaVuSans-56" transform="translate(1230.484375 0)"/>
     <use xlink:href="#DejaVuSans-52" transform="translate(1282.578125 0)"/>
     <use xlink:href="#DejaVuSans-55" transform="translate(1343.765625 0)"/>
     <use xlink:href="#DejaVuSans-58" transform="translate(1384.875 0)"/>
     <use xlink:href="#DejaVuSans-4f" transform="translate(1448.25 0)"/>
     <use xlink:href="#DejaVuSans-44" transform="translate(1476.03125 0)"/>
     <use xlink:href="#DejaVuSans-55" transform="translate(1537.3125 0)"/>
     <use xlink:href="#DejaVuSans-f3" transform="translate(1578.421875 0)"/>
     <use xlink:href="#DejaVuSans-3" transform="translate(1606.203125 0)"/>
     <use xlink:href="#DejaVuSans-56" transform="translate(1637.984375 0)"/>
     <use xlink:href="#DejaVuSans-52" transform="translate(1690.078125 0)"/>
     <use xlink:href="#DejaVuSans-55" transform="translate(1751.265625 0)"/>
    </g>
   </g>
   <g id="patch_21">
    <path d="M 318.6648 71.486784 
L 368.2152 71.486784 
Q 370.224 71.486784 370.224 70.62192 
L 370.224 70.62192 
Q 370.224 69.757056 368.2152 69.757056 
L 318.6648 69.757056 
Q 316.656 69.757056 316.656 70.62192 
L 316.656 70.62192 
Q 316.656 71.486784 318.6648 71.486784 
z
" clip-path="url(#p6bf86f6c4b)" style="fill: #9ed6d7"/>
   </g>
   <g id="text_3">
    <!-- Gereksinim seti -->
    <g style="fill: #1f2933" transform="translate(47.21925 97.984252) scale(0.11 -0.11)">
     <use xlink:href="#DejaVuSans-Bold-2a"/>
     <use xlink:href="#DejaVuSans-Bold-48" transform="translate(82.078125 0)"/>
     <use xlink:href="#DejaVuSans-Bold-55" transform="translate(149.90625 0)"/>
     <use xlink:href="#DejaVuSans-Bold-48" transform="translate(199.21875 0)"/>
     <use xlink:href="#DejaVuSans-Bold-4e" transform="translate(267.046875 0)"/>
     <use xlink:href="#DejaVuSans-Bold-56" transform="translate(333.546875 0)"/>
     <use xlink:href="#DejaVuSans-Bold-4c" transform="translate(393.0625 0)"/>
     <use xlink:href="#DejaVuSans-Bold-51" transform="translate(427.34375 0)"/>
     <use xlink:href="#DejaVuSans-Bold-4c" transform="translate(498.53125 0)"/>
     <use xlink:href="#DejaVuSans-Bold-50" transform="translate(532.8125 0)"/>
     <use xlink:href="#DejaVuSans-Bold-3" transform="translate(637.015625 0)"/>
     <use xlink:href="#DejaVuSans-Bold-56" transform="translate(671.828125 0)"/>
     <use xlink:href="#DejaVuSans-Bold-48" transform="translate(731.34375 0)"/>
     <use xlink:href="#DejaVuSans-Bold-57" transform="translate(799.171875 0)"/>
     <use xlink:href="#DejaVuSans-Bold-4c" transform="translate(846.96875 0)"/>
    </g>
   </g>
   <g id="text_4">
    <!-- Uygulanır mı? -->
    <g style="fill: #1f2933" transform="translate(245.193602 98.114154) scale(0.115 -0.115)">
     <defs>
      <path id="DejaVuSans-Bold-38" d="M 588 4666 
L 1791 4666 
L 1791 1869 
Q 1791 1291 1980 1042 
Q 2169 794 2597 794 
Q 3028 794 3217 1042 
Q 3406 1291 3406 1869 
L 3406 4666 
L 4609 4666 
L 4609 1869 
Q 4609 878 4112 393 
Q 3616 -91 2597 -91 
Q 1581 -91 1084 393 
Q 588 878 588 1869 
L 588 4666 
z
" transform="scale(0.015625)"/>
      <path id="DejaVuSans-Bold-4a" d="M 2919 594 
Q 2688 288 2409 144 
Q 2131 0 1766 0 
Q 1125 0 706 504 
Q 288 1009 288 1791 
Q 288 2575 706 3076 
Q 1125 3578 1766 3578 
Q 2131 3578 2409 3434 
Q 2688 3291 2919 2981 
L 2919 3500 
L 4044 3500 
L 4044 353 
Q 4044 -491 3511 -936 
Q 2978 -1381 1966 -1381 
Q 1638 -1381 1331 -1331 
Q 1025 -1281 716 -1178 
L 716 -306 
Q 1009 -475 1290 -558 
Q 1572 -641 1856 -641 
Q 2406 -641 2662 -400 
Q 2919 -159 2919 353 
L 2919 594 
z
M 2181 2772 
Q 1834 2772 1640 2515 
Q 1447 2259 1447 1791 
Q 1447 1309 1634 1061 
Q 1822 813 2181 813 
Q 2531 813 2725 1069 
Q 2919 1325 2919 1791 
Q 2919 2259 2725 2515 
Q 2531 2772 2181 2772 
z
" transform="scale(0.015625)"/>
      <path id="DejaVuSans-Bold-58" d="M 500 1363 
L 500 3500 
L 1625 3500 
L 1625 3150 
Q 1625 2866 1622 2436 
Q 1619 2006 1619 1863 
Q 1619 1441 1641 1255 
Q 1663 1069 1716 984 
Q 1784 875 1895 815 
Q 2006 756 2150 756 
Q 2500 756 2700 1025 
Q 2900 1294 2900 1772 
L 2900 3500 
L 4019 3500 
L 4019 0 
L 2900 0 
L 2900 506 
Q 2647 200 2364 54 
Q 2081 -91 1741 -91 
Q 1134 -91 817 281 
Q 500 653 500 1363 
z
" transform="scale(0.015625)"/>
      <path id="DejaVuSans-Bold-4f" d="M 538 4863 
L 1656 4863 
L 1656 0 
L 538 0 
L 538 4863 
z
" transform="scale(0.015625)"/>
      <path id="DejaVuSans-Bold-22" d="M 2216 1575 
L 1088 1575 
L 1088 1728 
Q 1088 1984 1191 2182 
Q 1294 2381 1625 2688 
L 1825 2869 
Q 2003 3031 2086 3175 
Q 2169 3319 2169 3463 
Q 2169 3681 2019 3804 
Q 1869 3928 1600 3928 
Q 1347 3928 1053 3823 
Q 759 3719 441 3513 
L 441 4494 
Q 819 4625 1131 4687 
Q 1444 4750 1734 4750 
Q 2497 4750 2897 4439 
Q 3297 4128 3297 3531 
Q 3297 3225 3175 2983 
Q 3053 2741 2759 2463 
L 2559 2284 
Q 2347 2091 2281 1973 
Q 2216 1856 2216 1716 
L 2216 1575 
z
M 1088 1113 
L 2216 1113 
L 2216 0 
L 1088 0 
L 1088 1113 
z
" transform="scale(0.015625)"/>
     </defs>
     <use xlink:href="#DejaVuSans-Bold-38"/>
     <use xlink:href="#DejaVuSans-Bold-5c" transform="translate(81.203125 0)"/>
     <use xlink:href="#DejaVuSans-Bold-4a" transform="translate(146.390625 0)"/>
     <use xlink:href="#DejaVuSans-Bold-58" transform="translate(217.96875 0)"/>
     <use xlink:href="#DejaVuSans-Bold-4f" transform="translate(289.15625 0)"/>
     <use xlink:href="#DejaVuSans-Bold-44" transform="translate(323.4375 0)"/>
     <use xlink:href="#DejaVuSans-Bold-51" transform="translate(390.921875 0)"/>
     <use xlink:href="#DejaVuSans-Bold-f3" transform="translate(462.109375 0)"/>
     <use xlink:href="#DejaVuSans-Bold-55" transform="translate(496.390625 0)"/>
     <use xlink:href="#DejaVuSans-Bold-3" transform="translate(545.703125 0)"/>
     <use xlink:href="#DejaVuSans-Bold-50" transform="translate(580.515625 0)"/>
     <use xlink:href="#DejaVuSans-Bold-f3" transform="translate(684.71875 0)"/>
     <use xlink:href="#DejaVuSans-Bold-22" transform="translate(719 0)"/>
    </g>
   </g>
   <g id="text_5">
    <!-- Gerekçe yaz -->
    <g style="fill: #1f2933" transform="translate(252.123094 172.939132) scale(0.11 -0.11)">
     <defs>
      <path id="DejaVuSans-Bold-a9" d="M 3366 3391 
L 3366 2478 
Q 3138 2634 2908 2709 
Q 2678 2784 2431 2784 
Q 1963 2784 1702 2511 
Q 1441 2238 1441 1747 
Q 1441 1256 1702 982 
Q 1963 709 2431 709 
Q 2694 709 2930 787 
Q 3166 866 3366 1019 
L 3366 103 
Q 3103 6 2833 -42 
Q 2563 -91 2291 -91 
Q 1344 -91 809 395 
Q 275 881 275 1747 
Q 275 2613 809 3098 
Q 1344 3584 2291 3584 
Q 2566 3584 2833 3536 
Q 3100 3488 3366 3391 
z
M 2456 0 
Q 2638 -194 2723 -359 
Q 2809 -525 2809 -672 
Q 2809 -969 2617 -1111 
Q 2425 -1253 2028 -1253 
Q 1878 -1253 1718 -1233 
Q 1559 -1213 1397 -1172 
L 1394 -697 
Q 1550 -747 1679 -770 
Q 1809 -794 1913 -794 
Q 2094 -794 2195 -722 
Q 2297 -650 2297 -525 
Q 2297 -444 2230 -316 
Q 2163 -188 2022 0 
L 2456 0 
z
" transform="scale(0.015625)"/>
      <path id="DejaVuSans-Bold-5d" d="M 366 3500 
L 3419 3500 
L 3419 2719 
L 1575 800 
L 3419 800 
L 3419 0 
L 288 0 
L 288 781 
L 2131 2700 
L 366 2700 
L 366 3500 
z
" transform="scale(0.015625)"/>
     </defs>
     <use xlink:href="#DejaVuSans-Bold-2a"/>
     <use xlink:href="#DejaVuSans-Bold-48" transform="translate(82.078125 0)"/>
     <use xlink:href="#DejaVuSans-Bold-55" transform="translate(149.90625 0)"/>
     <use xlink:href="#DejaVuSans-Bold-48" transform="translate(199.21875 0)"/>
     <use xlink:href="#DejaVuSans-Bold-4e" transform="translate(267.046875 0)"/>
     <use xlink:href="#DejaVuSans-Bold-a9" transform="translate(333.546875 0)"/>
     <use xlink:href="#DejaVuSans-Bold-48" transform="translate(392.828125 0)"/>
     <use xlink:href="#DejaVuSans-Bold-3" transform="translate(460.65625 0)"/>
     <use xlink:href="#DejaVuSans-Bold-5c" transform="translate(495.46875 0)"/>
     <use xlink:href="#DejaVuSans-Bold-44" transform="translate(560.65625 0)"/>
     <use xlink:href="#DejaVuSans-Bold-5d" transform="translate(628.140625 0)"/>
    </g>
   </g>
   <g id="text_6">
    <!-- Sorumlu kim? -->
    <g style="fill: #1f2933" transform="translate(466.63957 98.114154) scale(0.115 -0.115)">
     <defs>
      <path id="DejaVuSans-Bold-36" d="M 3834 4519 
L 3834 3531 
Q 3450 3703 3084 3790 
Q 2719 3878 2394 3878 
Q 1963 3878 1756 3759 
Q 1550 3641 1550 3391 
Q 1550 3203 1689 3098 
Q 1828 2994 2194 2919 
L 2706 2816 
Q 3484 2659 3812 2340 
Q 4141 2022 4141 1434 
Q 4141 663 3683 286 
Q 3225 -91 2284 -91 
Q 1841 -91 1394 -6 
Q 947 78 500 244 
L 500 1259 
Q 947 1022 1364 901 
Q 1781 781 2169 781 
Q 2563 781 2772 912 
Q 2981 1044 2981 1288 
Q 2981 1506 2839 1625 
Q 2697 1744 2272 1838 
L 1806 1941 
Q 1106 2091 782 2419 
Q 459 2747 459 3303 
Q 459 4000 909 4375 
Q 1359 4750 2203 4750 
Q 2588 4750 2994 4692 
Q 3400 4634 3834 4519 
z
" transform="scale(0.015625)"/>
     </defs>
     <use xlink:href="#DejaVuSans-Bold-36"/>
     <use xlink:href="#DejaVuSans-Bold-52" transform="translate(72.015625 0)"/>
     <use xlink:href="#DejaVuSans-Bold-55" transform="translate(140.71875 0)"/>
     <use xlink:href="#DejaVuSans-Bold-58" transform="translate(190.03125 0)"/>
     <use xlink:href="#DejaVuSans-Bold-50" transform="translate(261.21875 0)"/>
     <use xlink:href="#DejaVuSans-Bold-4f" transform="translate(365.421875 0)"/>
     <use xlink:href="#DejaVuSans-Bold-58" transform="translate(399.703125 0)"/>
     <use xlink:href="#DejaVuSans-Bold-3" transform="translate(470.890625 0)"/>
     <use xlink:href="#DejaVuSans-Bold-4e" transform="translate(505.703125 0)"/>
     <use xlink:href="#DejaVuSans-Bold-4c" transform="translate(572.203125 0)"/>
     <use xlink:href="#DejaVuSans-Bold-50" transform="translate(606.484375 0)"/>
     <use xlink:href="#DejaVuSans-Bold-22" transform="translate(710.6875 0)"/>
    </g>
   </g>
   <g id="text_7">
    <!-- S14: devredilen -->
    <g style="fill: #1f2933" transform="translate(462.062734 172.939132) scale(0.11 -0.11)">
     <defs>
      <path id="DejaVuSans-Bold-14" d="M 750 831 
L 1813 831 
L 1813 3847 
L 722 3622 
L 722 4441 
L 1806 4666 
L 2950 4666 
L 2950 831 
L 4013 831 
L 4013 0 
L 750 0 
L 750 831 
z
" transform="scale(0.015625)"/>
      <path id="DejaVuSans-Bold-17" d="M 2356 3675 
L 1038 1722 
L 2356 1722 
L 2356 3675 
z
M 2156 4666 
L 3494 4666 
L 3494 1722 
L 4159 1722 
L 4159 850 
L 3494 850 
L 3494 0 
L 2356 0 
L 2356 850 
L 288 850 
L 288 1881 
L 2156 4666 
z
" transform="scale(0.015625)"/>
      <path id="DejaVuSans-Bold-1d" d="M 716 3500 
L 1844 3500 
L 1844 2291 
L 716 2291 
L 716 3500 
z
M 716 1209 
L 1844 1209 
L 1844 0 
L 716 0 
L 716 1209 
z
" transform="scale(0.015625)"/>
      <path id="DejaVuSans-Bold-47" d="M 2919 2988 
L 2919 4863 
L 4044 4863 
L 4044 0 
L 2919 0 
L 2919 506 
Q 2688 197 2409 53 
Q 2131 -91 1766 -91 
Q 1119 -91 703 423 
Q 288 938 288 1747 
Q 288 2556 703 3070 
Q 1119 3584 1766 3584 
Q 2128 3584 2408 3439 
Q 2688 3294 2919 2988 
z
M 2181 722 
Q 2541 722 2730 984 
Q 2919 1247 2919 1747 
Q 2919 2247 2730 2509 
Q 2541 2772 2181 2772 
Q 1825 2772 1636 2509 
Q 1447 2247 1447 1747 
Q 1447 1247 1636 984 
Q 1825 722 2181 722 
z
" transform="scale(0.015625)"/>
      <path id="DejaVuSans-Bold-59" d="M 97 3500 
L 1216 3500 
L 2088 1081 
L 2956 3500 
L 4078 3500 
L 2700 0 
L 1472 0 
L 97 3500 
z
" transform="scale(0.015625)"/>
     </defs>
     <use xlink:href="#DejaVuSans-Bold-36"/>
     <use xlink:href="#DejaVuSans-Bold-14" transform="translate(72.015625 0)"/>
     <use xlink:href="#DejaVuSans-Bold-17" transform="translate(141.59375 0)"/>
     <use xlink:href="#DejaVuSans-Bold-1d" transform="translate(211.171875 0)"/>
     <use xlink:href="#DejaVuSans-Bold-3" transform="translate(251.15625 0)"/>
     <use xlink:href="#DejaVuSans-Bold-47" transform="translate(285.96875 0)"/>
     <use xlink:href="#DejaVuSans-Bold-48" transform="translate(357.546875 0)"/>
     <use xlink:href="#DejaVuSans-Bold-59" transform="translate(425.375 0)"/>
     <use xlink:href="#DejaVuSans-Bold-55" transform="translate(490.5625 0)"/>
     <use xlink:href="#DejaVuSans-Bold-48" transform="translate(539.875 0)"/>
     <use xlink:href="#DejaVuSans-Bold-47" transform="translate(607.703125 0)"/>
     <use xlink:href="#DejaVuSans-Bold-4c" transform="translate(679.28125 0)"/>
     <use xlink:href="#DejaVuSans-Bold-4f" transform="translate(713.5625 0)"/>
     <use xlink:href="#DejaVuSans-Bold-48" transform="translate(747.84375 0)"/>
     <use xlink:href="#DejaVuSans-Bold-51" transform="translate(815.671875 0)"/>
    </g>
   </g>
   <g id="text_8">
    <!-- biz -->
    <g style="fill: #2e7d32" transform="translate(658.152 97.620525) scale(0.096 -0.096)">
     <defs>
      <path id="DejaVuSans-45" d="M 3116 1747 
Q 3116 2381 2855 2742 
Q 2594 3103 2138 3103 
Q 1681 3103 1420 2742 
Q 1159 2381 1159 1747 
Q 1159 1113 1420 752 
Q 1681 391 2138 391 
Q 2594 391 2855 752 
Q 3116 1113 3116 1747 
z
M 1159 2969 
Q 1341 3281 1617 3432 
Q 1894 3584 2278 3584 
Q 2916 3584 3314 3078 
Q 3713 2572 3713 1747 
Q 3713 922 3314 415 
Q 2916 -91 2278 -91 
Q 1894 -91 1617 61 
Q 1341 213 1159 525 
L 1159 0 
L 581 0 
L 581 4863 
L 1159 4863 
L 1159 2969 
z
" transform="scale(0.015625)"/>
      <path id="DejaVuSans-5d" d="M 353 3500 
L 3084 3500 
L 3084 2975 
L 922 459 
L 3084 459 
L 3084 0 
L 275 0 
L 275 525 
L 2438 3041 
L 353 3041 
L 353 3500 
z
" transform="scale(0.015625)"/>
     </defs>
     <use xlink:href="#DejaVuSans-45"/>
     <use xlink:href="#DejaVuSans-4c" transform="translate(63.484375 0)"/>
     <use xlink:href="#DejaVuSans-5d" transform="translate(91.265625 0)"/>
    </g>
   </g>
   <g id="text_9">
    <!-- Varlık + tehdit -->
    <g style="fill: #1f2933" transform="translate(72.439391 217.808138) scale(0.106 -0.106)">
     <defs>
      <path id="DejaVuSans-Bold-39" d="M 31 4666 
L 1241 4666 
L 2478 1222 
L 3713 4666 
L 4922 4666 
L 3194 0 
L 1759 0 
L 31 4666 
z
" transform="scale(0.015625)"/>
      <path id="DejaVuSans-Bold-e" d="M 3053 4013 
L 3053 2375 
L 4684 2375 
L 4684 1638 
L 3053 1638 
L 3053 0 
L 2309 0 
L 2309 1638 
L 678 1638 
L 678 2375 
L 2309 2375 
L 2309 4013 
L 3053 4013 
z
" transform="scale(0.015625)"/>
      <path id="DejaVuSans-Bold-4b" d="M 4056 2131 
L 4056 0 
L 2931 0 
L 2931 347 
L 2931 1625 
Q 2931 2084 2911 2256 
Q 2891 2428 2841 2509 
Q 2775 2619 2662 2680 
Q 2550 2741 2406 2741 
Q 2056 2741 1856 2470 
Q 1656 2200 1656 1722 
L 1656 0 
L 538 0 
L 538 4863 
L 1656 4863 
L 1656 2988 
Q 1909 3294 2193 3439 
Q 2478 3584 2822 3584 
Q 3428 3584 3742 3212 
Q 4056 2841 4056 2131 
z
" transform="scale(0.015625)"/>
     </defs>
     <use xlink:href="#DejaVuSans-Bold-39"/>
     <use xlink:href="#DejaVuSans-Bold-44" transform="translate(71.921875 0)"/>
     <use xlink:href="#DejaVuSans-Bold-55" transform="translate(139.40625 0)"/>
     <use xlink:href="#DejaVuSans-Bold-4f" transform="translate(188.71875 0)"/>
     <use xlink:href="#DejaVuSans-Bold-f3" transform="translate(223 0)"/>
     <use xlink:href="#DejaVuSans-Bold-4e" transform="translate(257.28125 0)"/>
     <use xlink:href="#DejaVuSans-Bold-3" transform="translate(323.78125 0)"/>
     <use xlink:href="#DejaVuSans-Bold-e" transform="translate(358.59375 0)"/>
     <use xlink:href="#DejaVuSans-Bold-3" transform="translate(442.390625 0)"/>
     <use xlink:href="#DejaVuSans-Bold-57" transform="translate(477.203125 0)"/>
     <use xlink:href="#DejaVuSans-Bold-48" transform="translate(525 0)"/>
     <use xlink:href="#DejaVuSans-Bold-4b" transform="translate(592.828125 0)"/>
     <use xlink:href="#DejaVuSans-Bold-47" transform="translate(664.015625 0)"/>
     <use xlink:href="#DejaVuSans-Bold-4c" transform="translate(735.59375 0)"/>
     <use xlink:href="#DejaVuSans-Bold-57" transform="translate(769.875 0)"/>
    </g>
   </g>
   <g id="text_10">
    <!-- (S4, S5) -->
    <g style="fill: #1f2933" transform="translate(97.568625 231.281876) scale(0.092 -0.092)">
     <defs>
      <path id="DejaVuSans-b" d="M 1984 4856 
Q 1566 4138 1362 3434 
Q 1159 2731 1159 2009 
Q 1159 1288 1364 580 
Q 1569 -128 1984 -844 
L 1484 -844 
Q 1016 -109 783 600 
Q 550 1309 550 2009 
Q 550 2706 781 3412 
Q 1013 4119 1484 4856 
L 1984 4856 
z
" transform="scale(0.015625)"/>
      <path id="DejaVuSans-36" d="M 3425 4513 
L 3425 3897 
Q 3066 4069 2747 4153 
Q 2428 4238 2131 4238 
Q 1616 4238 1336 4038 
Q 1056 3838 1056 3469 
Q 1056 3159 1242 3001 
Q 1428 2844 1947 2747 
L 2328 2669 
Q 3034 2534 3370 2195 
Q 3706 1856 3706 1288 
Q 3706 609 3251 259 
Q 2797 -91 1919 -91 
Q 1588 -91 1214 -16 
Q 841 59 441 206 
L 441 856 
Q 825 641 1194 531 
Q 1563 422 1919 422 
Q 2459 422 2753 634 
Q 3047 847 3047 1241 
Q 3047 1584 2836 1778 
Q 2625 1972 2144 2069 
L 1759 2144 
Q 1053 2284 737 2584 
Q 422 2884 422 3419 
Q 422 4038 858 4394 
Q 1294 4750 2059 4750 
Q 2388 4750 2728 4690 
Q 3069 4631 3425 4513 
z
" transform="scale(0.015625)"/>
      <path id="DejaVuSans-17" d="M 2419 4116 
L 825 1625 
L 2419 1625 
L 2419 4116 
z
M 2253 4666 
L 3047 4666 
L 3047 1625 
L 3713 1625 
L 3713 1100 
L 3047 1100 
L 3047 0 
L 2419 0 
L 2419 1100 
L 313 1100 
L 313 1709 
L 2253 4666 
z
" transform="scale(0.015625)"/>
      <path id="DejaVuSans-f" d="M 750 794 
L 1409 794 
L 1409 256 
L 897 -744 
L 494 -744 
L 750 256 
L 750 794 
z
" transform="scale(0.015625)"/>
      <path id="DejaVuSans-18" d="M 691 4666 
L 3169 4666 
L 3169 4134 
L 1269 4134 
L 1269 2991 
Q 1406 3038 1543 3061 
Q 1681 3084 1819 3084 
Q 2600 3084 3056 2656 
Q 3513 2228 3513 1497 
Q 3513 744 3044 326 
Q 2575 -91 1722 -91 
Q 1428 -91 1123 -41 
Q 819 9 494 109 
L 494 744 
Q 775 591 1075 516 
Q 1375 441 1709 441 
Q 2250 441 2565 725 
Q 2881 1009 2881 1497 
Q 2881 1984 2565 2268 
Q 2250 2553 1709 2553 
Q 1456 2553 1204 2497 
Q 953 2441 691 2322 
L 691 4666 
z
" transform="scale(0.015625)"/>
      <path id="DejaVuSans-c" d="M 513 4856 
L 1013 4856 
Q 1481 4119 1714 3412 
Q 1947 2706 1947 2009 
Q 1947 1309 1714 600 
Q 1481 -109 1013 -844 
L 513 -844 
Q 928 -128 1133 580 
Q 1338 1288 1338 2009 
Q 1338 2731 1133 3434 
Q 928 4138 513 4856 
z
" transform="scale(0.015625)"/>
     </defs>
     <use xlink:href="#DejaVuSans-b"/>
     <use xlink:href="#DejaVuSans-36" transform="translate(39.015625 0)"/>
     <use xlink:href="#DejaVuSans-17" transform="translate(102.5 0)"/>
     <use xlink:href="#DejaVuSans-f" transform="translate(166.125 0)"/>
     <use xlink:href="#DejaVuSans-3" transform="translate(197.90625 0)"/>
     <use xlink:href="#DejaVuSans-36" transform="translate(229.6875 0)"/>
     <use xlink:href="#DejaVuSans-18" transform="translate(293.171875 0)"/>
     <use xlink:href="#DejaVuSans-c" transform="translate(356.796875 0)"/>
    </g>
   </g>
   <g id="text_11">
    <!-- Önlem kartı -->
    <g style="fill: #1f2933" transform="translate(241.356734 218.695888) scale(0.106 -0.106)">
     <defs>
      <path id="DejaVuSans-Bold-98" d="M 2719 3878 
Q 2169 3878 1866 3472 
Q 1563 3066 1563 2328 
Q 1563 1594 1866 1187 
Q 2169 781 2719 781 
Q 3272 781 3575 1187 
Q 3878 1594 3878 2328 
Q 3878 3066 3575 3472 
Q 3272 3878 2719 3878 
z
M 2719 4750 
Q 3844 4750 4481 4106 
Q 5119 3463 5119 2328 
Q 5119 1197 4481 553 
Q 3844 -91 2719 -91 
Q 1597 -91 958 553 
Q 319 1197 319 2328 
Q 319 3463 958 4106 
Q 1597 4750 2719 4750 
z
M 1735 5935 
L 2469 5935 
L 2469 5166 
L 1735 5166 
L 1735 5935 
z
M 2969 5935 
L 3703 5935 
L 3703 5166 
L 2969 5166 
L 2969 5935 
z
" transform="scale(0.015625)"/>
     </defs>
     <use xlink:href="#DejaVuSans-Bold-98"/>
     <use xlink:href="#DejaVuSans-Bold-51" transform="translate(85.015625 0)"/>
     <use xlink:href="#DejaVuSans-Bold-4f" transform="translate(156.203125 0)"/>
     <use xlink:href="#DejaVuSans-Bold-48" transform="translate(190.484375 0)"/>
     <use xlink:href="#DejaVuSans-Bold-50" transform="translate(258.3125 0)"/>
     <use xlink:href="#DejaVuSans-Bold-3" transform="translate(362.515625 0)"/>
     <use xlink:href="#DejaVuSans-Bold-4e" transform="translate(397.328125 0)"/>
     <use xlink:href="#DejaVuSans-Bold-44" transform="translate(463.828125 0)"/>
     <use xlink:href="#DejaVuSans-Bold-55" transform="translate(531.3125 0)"/>
     <use xlink:href="#DejaVuSans-Bold-57" transform="translate(580.625 0)"/>
     <use xlink:href="#DejaVuSans-Bold-f3" transform="translate(628.421875 0)"/>
    </g>
   </g>
   <g id="text_12">
    <!-- (S6–S13) -->
    <g style="fill: #1f2933" transform="translate(255.96975 231.281876) scale(0.092 -0.092)">
     <defs>
      <path id="DejaVuSans-19" d="M 2113 2584 
Q 1688 2584 1439 2293 
Q 1191 2003 1191 1497 
Q 1191 994 1439 701 
Q 1688 409 2113 409 
Q 2538 409 2786 701 
Q 3034 994 3034 1497 
Q 3034 2003 2786 2293 
Q 2538 2584 2113 2584 
z
M 3366 4563 
L 3366 3988 
Q 3128 4100 2886 4159 
Q 2644 4219 2406 4219 
Q 1781 4219 1451 3797 
Q 1122 3375 1075 2522 
Q 1259 2794 1537 2939 
Q 1816 3084 2150 3084 
Q 2853 3084 3261 2657 
Q 3669 2231 3669 1497 
Q 3669 778 3244 343 
Q 2819 -91 2113 -91 
Q 1303 -91 875 529 
Q 447 1150 447 2328 
Q 447 3434 972 4092 
Q 1497 4750 2381 4750 
Q 2619 4750 2861 4703 
Q 3103 4656 3366 4563 
z
" transform="scale(0.015625)"/>
      <path id="DejaVuSans-af5" d="M 313 1978 
L 2888 1978 
L 2888 1528 
L 313 1528 
L 313 1978 
z
" transform="scale(0.015625)"/>
      <path id="DejaVuSans-14" d="M 794 531 
L 1825 531 
L 1825 4091 
L 703 3866 
L 703 4441 
L 1819 4666 
L 2450 4666 
L 2450 531 
L 3481 531 
L 3481 0 
L 794 0 
L 794 531 
z
" transform="scale(0.015625)"/>
      <path id="DejaVuSans-16" d="M 2597 2516 
Q 3050 2419 3304 2112 
Q 3559 1806 3559 1356 
Q 3559 666 3084 287 
Q 2609 -91 1734 -91 
Q 1441 -91 1130 -33 
Q 819 25 488 141 
L 488 750 
Q 750 597 1062 519 
Q 1375 441 1716 441 
Q 2309 441 2620 675 
Q 2931 909 2931 1356 
Q 2931 1769 2642 2001 
Q 2353 2234 1838 2234 
L 1294 2234 
L 1294 2753 
L 1863 2753 
Q 2328 2753 2575 2939 
Q 2822 3125 2822 3475 
Q 2822 3834 2567 4026 
Q 2313 4219 1838 4219 
Q 1578 4219 1281 4162 
Q 984 4106 628 3988 
L 628 4550 
Q 988 4650 1302 4700 
Q 1616 4750 1894 4750 
Q 2613 4750 3031 4423 
Q 3450 4097 3450 3541 
Q 3450 3153 3228 2886 
Q 3006 2619 2597 2516 
z
" transform="scale(0.015625)"/>
     </defs>
     <use xlink:href="#DejaVuSans-b"/>
     <use xlink:href="#DejaVuSans-36" transform="translate(39.015625 0)"/>
     <use xlink:href="#DejaVuSans-19" transform="translate(102.5 0)"/>
     <use xlink:href="#DejaVuSans-af5" transform="translate(166.125 0)"/>
     <use xlink:href="#DejaVuSans-36" transform="translate(216.125 0)"/>
     <use xlink:href="#DejaVuSans-14" transform="translate(279.609375 0)"/>
     <use xlink:href="#DejaVuSans-16" transform="translate(343.234375 0)"/>
     <use xlink:href="#DejaVuSans-c" transform="translate(406.859375 0)"/>
    </g>
   </g>
   <g id="text_13">
    <!-- Doğrulama -->
    <g style="fill: #1f2933" transform="translate(404.46975 217.937325) scale(0.106 -0.106)">
     <defs>
      <path id="DejaVuSans-Bold-27" d="M 1791 3756 
L 1791 909 
L 2222 909 
Q 2959 909 3348 1275 
Q 3738 1641 3738 2338 
Q 3738 3031 3350 3393 
Q 2963 3756 2222 3756 
L 1791 3756 
z
M 588 4666 
L 1856 4666 
Q 2919 4666 3439 4514 
Q 3959 4363 4331 4000 
Q 4659 3684 4818 3271 
Q 4978 2859 4978 2338 
Q 4978 1809 4818 1395 
Q 4659 981 4331 666 
Q 3956 303 3431 151 
Q 2906 0 1856 0 
L 588 0 
L 588 4666 
z
" transform="scale(0.015625)"/>
      <path id="DejaVuSans-Bold-e1" d="M 2919 594 
Q 2688 288 2409 144 
Q 2131 0 1766 0 
Q 1125 0 706 504 
Q 288 1009 288 1791 
Q 288 2575 706 3076 
Q 1125 3578 1766 3578 
Q 2131 3578 2409 3434 
Q 2688 3291 2919 2981 
L 2919 3500 
L 4044 3500 
L 4044 353 
Q 4044 -491 3511 -936 
Q 2978 -1381 1966 -1381 
Q 1638 -1381 1331 -1331 
Q 1025 -1281 716 -1178 
L 716 -306 
Q 1009 -475 1290 -558 
Q 1572 -641 1856 -641 
Q 2406 -641 2662 -400 
Q 2919 -159 2919 353 
L 2919 594 
z
M 2181 2772 
Q 1834 2772 1640 2515 
Q 1447 2259 1447 1791 
Q 1447 1309 1634 1061 
Q 1822 813 2181 813 
Q 2531 813 2725 1069 
Q 2919 1325 2919 1791 
Q 2919 2259 2725 2515 
Q 2531 2772 2181 2772 
z
M 1241 5019 
L 1688 5019 
Q 1722 4800 1877 4684 
Q 2032 4569 2291 4569 
Q 2550 4569 2705 4684 
Q 2860 4800 2894 5019 
L 3341 5019 
Q 3322 4569 3050 4330 
Q 2779 4091 2291 4091 
Q 1804 4091 1532 4330 
Q 1260 4569 1241 5019 
z
" transform="scale(0.015625)"/>
     </defs>
     <use xlink:href="#DejaVuSans-Bold-27"/>
     <use xlink:href="#DejaVuSans-Bold-52" transform="translate(83.015625 0)"/>
     <use xlink:href="#DejaVuSans-Bold-e1" transform="translate(151.71875 0)"/>
     <use xlink:href="#DejaVuSans-Bold-55" transform="translate(223.296875 0)"/>
     <use xlink:href="#DejaVuSans-Bold-58" transform="translate(272.609375 0)"/>
     <use xlink:href="#DejaVuSans-Bold-4f" transform="translate(343.796875 0)"/>
     <use xlink:href="#DejaVuSans-Bold-44" transform="translate(378.078125 0)"/>
     <use xlink:href="#DejaVuSans-Bold-50" transform="translate(445.5625 0)"/>
     <use xlink:href="#DejaVuSans-Bold-44" transform="translate(549.765625 0)"/>
    </g>
   </g>
   <g id="text_14">
    <!-- (S16) -->
    <g style="fill: #1f2933" transform="translate(424.820781 231.281876) scale(0.092 -0.092)">
     <use xlink:href="#DejaVuSans-b"/>
     <use xlink:href="#DejaVuSans-36" transform="translate(39.015625 0)"/>
     <use xlink:href="#DejaVuSans-14" transform="translate(102.5 0)"/>
     <use xlink:href="#DejaVuSans-19" transform="translate(166.125 0)"/>
     <use xlink:href="#DejaVuSans-c" transform="translate(229.75 0)"/>
    </g>
   </g>
   <g id="text_15">
    <!-- Uyum matrisi -->
    <g style="fill: #1f2933" transform="translate(557.954156 217.808138) scale(0.106 -0.106)">
     <use xlink:href="#DejaVuSans-Bold-38"/>
     <use xlink:href="#DejaVuSans-Bold-5c" transform="translate(81.203125 0)"/>
     <use xlink:href="#DejaVuSans-Bold-58" transform="translate(146.390625 0)"/>
     <use xlink:href="#DejaVuSans-Bold-50" transform="translate(217.578125 0)"/>
     <use xlink:href="#DejaVuSans-Bold-3" transform="translate(321.78125 0)"/>
     <use xlink:href="#DejaVuSans-Bold-50" transform="translate(356.59375 0)"/>
     <use xlink:href="#DejaVuSans-Bold-44" transform="translate(460.796875 0)"/>
     <use xlink:href="#DejaVuSans-Bold-57" transform="translate(528.28125 0)"/>
     <use xlink:href="#DejaVuSans-Bold-55" transform="translate(576.078125 0)"/>
     <use xlink:href="#DejaVuSans-Bold-4c" transform="translate(625.390625 0)"/>
     <use xlink:href="#DejaVuSans-Bold-56" transform="translate(659.671875 0)"/>
     <use xlink:href="#DejaVuSans-Bold-4c" transform="translate(719.1875 0)"/>
    </g>
   </g>
   <g id="text_16">
    <!-- (S17) -->
    <g style="fill: #1f2933" transform="translate(585.524781 231.281876) scale(0.092 -0.092)">
     <defs>
      <path id="DejaVuSans-1a" d="M 525 4666 
L 3525 4666 
L 3525 4397 
L 1831 0 
L 1172 0 
L 2766 4134 
L 525 4134 
L 525 4666 
z
" transform="scale(0.015625)"/>
     </defs>
     <use xlink:href="#DejaVuSans-b"/>
     <use xlink:href="#DejaVuSans-36" transform="translate(39.015625 0)"/>
     <use xlink:href="#DejaVuSans-14" transform="translate(102.5 0)"/>
     <use xlink:href="#DejaVuSans-1a" transform="translate(166.125 0)"/>
     <use xlink:href="#DejaVuSans-c" transform="translate(229.75 0)"/>
    </g>
   </g>
   <g id="text_17">
    <!-- Devredilen gereksinim de yazılır: kime, neden, karşı taraf nasıl karşılayacak. -->
    <g style="fill: #006d77" transform="translate(114.33 274.099736) scale(0.12 -0.12)">
     <defs>
      <path id="DejaVuSans-27" d="M 1259 4147 
L 1259 519 
L 2022 519 
Q 2988 519 3436 956 
Q 3884 1394 3884 2338 
Q 3884 3275 3436 3711 
Q 2988 4147 2022 4147 
L 1259 4147 
z
M 628 4666 
L 1925 4666 
Q 3281 4666 3915 4102 
Q 4550 3538 4550 2338 
Q 4550 1131 3912 565 
Q 3275 0 1925 0 
L 628 0 
L 628 4666 
z
" transform="scale(0.015625)"/>
      <path id="DejaVuSans-59" d="M 191 3500 
L 800 3500 
L 1894 563 
L 2988 3500 
L 3597 3500 
L 2284 0 
L 1503 0 
L 191 3500 
z
" transform="scale(0.015625)"/>
      <path id="DejaVuSans-47" d="M 2906 2969 
L 2906 4863 
L 3481 4863 
L 3481 0 
L 2906 0 
L 2906 525 
Q 2725 213 2448 61 
Q 2172 -91 1784 -91 
Q 1150 -91 751 415 
Q 353 922 353 1747 
Q 353 2572 751 3078 
Q 1150 3584 1784 3584 
Q 2172 3584 2448 3432 
Q 2725 3281 2906 2969 
z
M 947 1747 
Q 947 1113 1208 752 
Q 1469 391 1925 391 
Q 2381 391 2643 752 
Q 2906 1113 2906 1747 
Q 2906 2381 2643 2742 
Q 2381 3103 1925 3103 
Q 1469 3103 1208 2742 
Q 947 2381 947 1747 
z
" transform="scale(0.015625)"/>
      <path id="DejaVuSans-1d" d="M 750 794 
L 1409 794 
L 1409 0 
L 750 0 
L 750 794 
z
M 750 3309 
L 1409 3309 
L 1409 2516 
L 750 2516 
L 750 3309 
z
" transform="scale(0.015625)"/>
      <path id="DejaVuSans-121" d="M 2834 3397 
L 2834 2853 
Q 2591 2978 2328 3040 
Q 2066 3103 1784 3103 
Q 1356 3103 1142 2972 
Q 928 2841 928 2578 
Q 928 2378 1081 2264 
Q 1234 2150 1697 2047 
L 1894 2003 
Q 2506 1872 2764 1633 
Q 3022 1394 3022 966 
Q 3022 478 2636 193 
Q 2250 -91 1575 -91 
Q 1294 -91 989 -36 
Q 684 19 347 128 
L 347 722 
Q 666 556 975 473 
Q 1284 391 1588 391 
Q 1994 391 2212 530 
Q 2431 669 2431 922 
Q 2431 1156 2273 1281 
Q 2116 1406 1581 1522 
L 1381 1569 
Q 847 1681 609 1914 
Q 372 2147 372 2553 
Q 372 3047 722 3315 
Q 1072 3584 1716 3584 
Q 2034 3584 2315 3537 
Q 2597 3491 2834 3397 
z
M 1935 0 
Q 2106 -194 2190 -358 
Q 2275 -522 2275 -672 
Q 2275 -950 2087 -1092 
Q 1900 -1234 1531 -1234 
Q 1388 -1234 1252 -1215 
Q 1116 -1197 981 -1159 
L 981 -750 
Q 1088 -803 1203 -826 
Q 1319 -850 1466 -850 
Q 1650 -850 1744 -775 
Q 1838 -700 1838 -556 
Q 1838 -463 1770 -327 
Q 1703 -191 1563 0 
L 1935 0 
z
" transform="scale(0.015625)"/>
      <path id="DejaVuSans-57" d="M 1172 4494 
L 1172 3500 
L 2356 3500 
L 2356 3053 
L 1172 3053 
L 1172 1153 
Q 1172 725 1289 603 
Q 1406 481 1766 481 
L 2356 481 
L 2356 0 
L 1766 0 
Q 1100 0 847 248 
Q 594 497 594 1153 
L 594 3053 
L 172 3053 
L 172 3500 
L 594 3500 
L 594 4494 
L 1172 4494 
z
" transform="scale(0.015625)"/>
      <path id="DejaVuSans-49" d="M 2375 4863 
L 2375 4384 
L 1825 4384 
Q 1516 4384 1395 4259 
Q 1275 4134 1275 3809 
L 1275 3500 
L 2222 3500 
L 2222 3053 
L 1275 3053 
L 1275 0 
L 697 0 
L 697 3053 
L 147 3053 
L 147 3500 
L 697 3500 
L 697 3744 
Q 697 4328 969 4595 
Q 1241 4863 1831 4863 
L 2375 4863 
z
" transform="scale(0.015625)"/>
      <path id="DejaVuSans-46" d="M 3122 3366 
L 3122 2828 
Q 2878 2963 2633 3030 
Q 2388 3097 2138 3097 
Q 1578 3097 1268 2742 
Q 959 2388 959 1747 
Q 959 1106 1268 751 
Q 1578 397 2138 397 
Q 2388 397 2633 464 
Q 2878 531 3122 666 
L 3122 134 
Q 2881 22 2623 -34 
Q 2366 -91 2075 -91 
Q 1284 -91 818 406 
Q 353 903 353 1747 
Q 353 2603 823 3093 
Q 1294 3584 2113 3584 
Q 2378 3584 2631 3529 
Q 2884 3475 3122 3366 
z
" transform="scale(0.015625)"/>
      <path id="DejaVuSans-11" d="M 684 794 
L 1344 794 
L 1344 0 
L 684 0 
L 684 794 
z
" transform="scale(0.015625)"/>
     </defs>
     <use xlink:href="#DejaVuSans-27"/>
     <use xlink:href="#DejaVuSans-48" transform="translate(77 0)"/>
     <use xlink:href="#DejaVuSans-59" transform="translate(138.53125 0)"/>
     <use xlink:href="#DejaVuSans-55" transform="translate(197.71875 0)"/>
     <use xlink:href="#DejaVuSans-48" transform="translate(236.625 0)"/>
     <use xlink:href="#DejaVuSans-47" transform="translate(298.15625 0)"/>
     <use xlink:href="#DejaVuSans-4c" transform="translate(361.640625 0)"/>
     <use xlink:href="#DejaVuSans-4f" transform="translate(389.421875 0)"/>
     <use xlink:href="#DejaVuSans-48" transform="translate(417.203125 0)"/>
     <use xlink:href="#DejaVuSans-51" transform="translate(478.734375 0)"/>
     <use xlink:href="#DejaVuSans-3" transform="translate(542.109375 0)"/>
     <use xlink:href="#DejaVuSans-4a" transform="translate(573.890625 0)"/>
     <use xlink:href="#DejaVuSans-48" transform="translate(637.375 0)"/>
     <use xlink:href="#DejaVuSans-55" transform="translate(698.90625 0)"/>
     <use xlink:href="#DejaVuSans-48" transform="translate(737.8125 0)"/>
     <use xlink:href="#DejaVuSans-4e" transform="translate(799.34375 0)"/>
     <use xlink:href="#DejaVuSans-56" transform="translate(857.25 0)"/>
     <use xlink:href="#DejaVuSans-4c" transform="translate(909.34375 0)"/>
     <use xlink:href="#DejaVuSans-51" transform="translate(937.125 0)"/>
     <use xlink:href="#DejaVuSans-4c" transform="translate(1000.5 0)"/>
     <use xlink:href="#DejaVuSans-50" transform="translate(1028.28125 0)"/>
     <use xlink:href="#DejaVuSans-3" transform="translate(1125.6875 0)"/>
     <use xlink:href="#DejaVuSans-47" transform="translate(1157.46875 0)"/>
     <use xlink:href="#DejaVuSans-48" transform="translate(1220.953125 0)"/>
     <use xlink:href="#DejaVuSans-3" transform="translate(1282.484375 0)"/>
     <use xlink:href="#DejaVuSans-5c" transform="translate(1314.265625 0)"/>
     <use xlink:href="#DejaVuSans-44" transform="translate(1373.453125 0)"/>
     <use xlink:href="#DejaVuSans-5d" transform="translate(1434.734375 0)"/>
     <use xlink:href="#DejaVuSans-f3" transform="translate(1487.21875 0)"/>
     <use xlink:href="#DejaVuSans-4f" transform="translate(1515 0)"/>
     <use xlink:href="#DejaVuSans-f3" transform="translate(1542.78125 0)"/>
     <use xlink:href="#DejaVuSans-55" transform="translate(1570.5625 0)"/>
     <use xlink:href="#DejaVuSans-1d" transform="translate(1609.921875 0)"/>
     <use xlink:href="#DejaVuSans-3" transform="translate(1643.609375 0)"/>
     <use xlink:href="#DejaVuSans-4e" transform="translate(1675.390625 0)"/>
     <use xlink:href="#DejaVuSans-4c" transform="translate(1733.296875 0)"/>
     <use xlink:href="#DejaVuSans-50" transform="translate(1761.078125 0)"/>
     <use xlink:href="#DejaVuSans-48" transform="translate(1858.484375 0)"/>
     <use xlink:href="#DejaVuSans-f" transform="translate(1920.015625 0)"/>
     <use xlink:href="#DejaVuSans-3" transform="translate(1951.796875 0)"/>
     <use xlink:href="#DejaVuSans-51" transform="translate(1983.578125 0)"/>
     <use xlink:href="#DejaVuSans-48" transform="translate(2046.953125 0)"/>
     <use xlink:href="#DejaVuSans-47" transform="translate(2108.484375 0)"/>
     <use xlink:href="#DejaVuSans-48" transform="translate(2171.96875 0)"/>
     <use xlink:href="#DejaVuSans-51" transform="translate(2233.5 0)"/>
     <use xlink:href="#DejaVuSans-f" transform="translate(2296.875 0)"/>
     <use xlink:href="#DejaVuSans-3" transform="translate(2328.65625 0)"/>
     <use xlink:href="#DejaVuSans-4e" transform="translate(2360.4375 0)"/>
     <use xlink:href="#DejaVuSans-44" transform="translate(2416.59375 0)"/>
     <use xlink:href="#DejaVuSans-55" transform="translate(2477.875 0)"/>
     <use xlink:href="#DejaVuSans-121" transform="translate(2518.984375 0)"/>
     <use xlink:href="#DejaVuSans-f3" transform="translate(2571.078125 0)"/>
     <use xlink:href="#DejaVuSans-3" transform="translate(2598.859375 0)"/>
     <use xlink:href="#DejaVuSans-57" transform="translate(2630.640625 0)"/>
     <use xlink:href="#DejaVuSans-44" transform="translate(2669.84375 0)"/>
     <use xlink:href="#DejaVuSans-55" transform="translate(2731.125 0)"/>
     <use xlink:href="#DejaVuSans-44" transform="translate(2772.234375 0)"/>
     <use xlink:href="#DejaVuSans-49" transform="translate(2833.515625 0)"/>
     <use xlink:href="#DejaVuSans-3" transform="translate(2868.71875 0)"/>
     <use xlink:href="#DejaVuSans-51" transform="translate(2900.5 0)"/>
     <use xlink:href="#DejaVuSans-44" transform="translate(2963.875 0)"/>
     <use xlink:href="#DejaVuSans-56" transform="translate(3025.15625 0)"/>
     <use xlink:href="#DejaVuSans-f3" transform="translate(3077.25 0)"/>
     <use xlink:href="#DejaVuSans-4f" transform="translate(3105.03125 0)"/>
     <use xlink:href="#DejaVuSans-3" transform="translate(3132.8125 0)"/>
     <use xlink:href="#DejaVuSans-4e" transform="translate(3164.59375 0)"/>
     <use xlink:href="#DejaVuSans-44" transform="translate(3220.75 0)"/>
     <use xlink:href="#DejaVuSans-55" transform="translate(3282.03125 0)"/>
     <use xlink:href="#DejaVuSans-121" transform="translate(3323.140625 0)"/>
     <use xlink:href="#DejaVuSans-f3" transform="translate(3375.234375 0)"/>
     <use xlink:href="#DejaVuSans-4f" transform="translate(3403.015625 0)"/>
     <use xlink:href="#DejaVuSans-44" transform="translate(3430.796875 0)"/>
     <use xlink:href="#DejaVuSans-5c" transform="translate(3492.078125 0)"/>
     <use xlink:href="#DejaVuSans-44" transform="translate(3551.265625 0)"/>
     <use xlink:href="#DejaVuSans-46" transform="translate(3612.546875 0)"/>
     <use xlink:href="#DejaVuSans-44" transform="translate(3667.53125 0)"/>
     <use xlink:href="#DejaVuSans-4e" transform="translate(3728.8125 0)"/>
     <use xlink:href="#DejaVuSans-11" transform="translate(3786.71875 0)"/>
    </g>
   </g>
   <g id="patch_22">
    <path d="M 165.996 95.1264 
Q 184.41 95.1264 200.364325 95.1264 
" clip-path="url(#p6bf86f6c4b)" style="fill: none; stroke: #6b7280; stroke-width: 2.2; stroke-linecap: round"/>
    <path d="M 193.964325 91.9264 
L 200.364325 95.1264 
L 193.964325 98.3264 
z
" clip-path="url(#p6bf86f6c4b)" style="fill: #6b7280; stroke: #6b7280; stroke-width: 2.2; stroke-linecap: round"/>
   </g>
   <g id="patch_23">
    <path d="M 289.872 113.86512 
Q 289.872 134.04528 289.872 151.765765 
" clip-path="url(#p6bf86f6c4b)" style="fill: none; stroke: #c0392b; stroke-width: 2.2; stroke-linecap: round"/>
    <path d="M 293.072 145.365765 
L 289.872 151.765765 
L 286.672 145.365765 
z
" clip-path="url(#p6bf86f6c4b)" style="fill: #c0392b; stroke: #c0392b; stroke-width: 2.2; stroke-linecap: round"/>
   </g>
   <g id="patch_24">
    <path d="M 363.528 95.1264 
Q 400.356 95.1264 434.724325 95.1264 
" clip-path="url(#p6bf86f6c4b)" style="fill: none; stroke: #2e7d32; stroke-width: 2.2; stroke-linecap: round"/>
    <path d="M 428.324325 91.9264 
L 434.724325 95.1264 
L 428.324325 98.3264 
z
" clip-path="url(#p6bf86f6c4b)" style="fill: #2e7d32; stroke: #2e7d32; stroke-width: 2.2; stroke-linecap: round"/>
   </g>
   <g id="patch_25">
    <path d="M 510.84 113.86512 
Q 510.84 134.04528 510.84 151.765765 
" clip-path="url(#p6bf86f6c4b)" style="fill: none; stroke: #4054b2; stroke-width: 2.2; stroke-linecap: round"/>
    <path d="M 514.04 145.365765 
L 510.84 151.765765 
L 507.64 145.365765 
z
" clip-path="url(#p6bf86f6c4b)" style="fill: #4054b2; stroke: #4054b2; stroke-width: 2.2; stroke-linecap: round"/>
   </g>
   <g id="patch_26">
    <path d="M 182.736 221.97312 
Q 196.128 221.97312 207.842949 221.97312 
" clip-path="url(#p6bf86f6c4b)" style="fill: none; stroke: #6b7280; stroke-width: 1.5; stroke-linecap: round"/>
    <path d="M 201.442949 218.77312 
L 207.842949 221.97312 
L 201.442949 225.17312 
z
" clip-path="url(#p6bf86f6c4b)" style="fill: #6b7280; stroke: #6b7280; stroke-width: 1.5; stroke-linecap: round"/>
   </g>
   <g id="patch_27">
    <path d="M 343.44 221.97312 
Q 356.832 221.97312 368.546949 221.97312 
" clip-path="url(#p6bf86f6c4b)" style="fill: none; stroke: #6b7280; stroke-width: 1.5; stroke-linecap: round"/>
    <path d="M 362.146949 218.77312 
L 368.546949 221.97312 
L 362.146949 225.17312 
z
" clip-path="url(#p6bf86f6c4b)" style="fill: #6b7280; stroke: #6b7280; stroke-width: 1.5; stroke-linecap: round"/>
   </g>
   <g id="patch_28">
    <path d="M 504.144 221.97312 
Q 517.536 221.97312 529.250949 221.97312 
" clip-path="url(#p6bf86f6c4b)" style="fill: none; stroke: #6b7280; stroke-width: 1.5; stroke-linecap: round"/>
    <path d="M 522.850949 218.77312 
L 529.250949 221.97312 
L 522.850949 225.17312 
z
" clip-path="url(#p6bf86f6c4b)" style="fill: #6b7280; stroke: #6b7280; stroke-width: 1.5; stroke-linecap: round"/>
   </g>
   <g id="text_18">
    <path d="M 283.296156 121.302198 
L 283.296156 124.339636 
L 282.469594 124.339636 
L 282.469594 121.329511 
Q 282.469594 120.615073 282.190719 120.261448 
Q 281.911844 119.906386 281.355531 119.906386 
Q 280.685656 119.906386 280.298969 120.333323 
Q 279.912281 120.758823 279.912281 121.496261 
L 279.912281 124.339636 
L 279.081406 124.339636 
L 279.081406 117.349073 
L 279.912281 117.349073 
L 279.912281 120.090386 
Q 280.209844 119.636136 280.610906 119.411886 
Q 281.013406 119.187636 281.539531 119.187636 
Q 282.406344 119.187636 282.850531 119.723823 
Q 283.296156 120.260011 283.296156 121.302198 
z
M 287.230594 121.811073 
Q 286.228656 121.811073 285.841969 122.039636 
Q 285.455281 122.268198 285.455281 122.821636 
Q 285.455281 123.261511 285.745656 123.520261 
Q 286.036031 123.777573 286.533406 123.777573 
Q 287.221969 123.777573 287.637406 123.290261 
Q 288.052844 122.802948 288.052844 121.995073 
L 288.052844 121.811073 
L 287.230594 121.811073 
z
M 288.879406 121.468948 
L 288.879406 124.339636 
L 288.052844 124.339636 
L 288.052844 123.576323 
Q 287.769656 124.033448 287.347031 124.251948 
Q 286.924406 124.470448 286.313469 124.470448 
Q 285.541531 124.470448 285.084406 124.036323 
Q 284.628719 123.602198 284.628719 122.874823 
Q 284.628719 122.026698 285.196531 121.595448 
Q 285.765781 121.164198 286.892781 121.164198 
L 288.052844 121.164198 
L 288.052844 121.082261 
Q 288.052844 120.511573 287.677656 120.199636 
Q 287.302469 119.887698 286.623969 119.887698 
Q 286.192719 119.887698 285.783031 119.991198 
Q 285.374781 120.094698 284.998156 120.301698 
L 284.998156 119.536948 
Q 285.450969 119.361573 285.877906 119.275323 
Q 286.304844 119.187636 286.708781 119.187636 
Q 287.801281 119.187636 288.340344 119.754011 
Q 288.879406 120.318948 288.879406 121.468948 
z
M 292.674406 124.806823 
Q 292.325094 125.705261 291.991594 125.978386 
Q 291.659531 126.252948 291.103219 126.252948 
L 290.441969 126.252948 
L 290.441969 125.561511 
L 290.927844 125.561511 
Q 291.268531 125.561511 291.456844 125.399073 
Q 291.646594 125.238073 291.875156 124.635761 
L 292.023219 124.259136 
L 289.989156 119.308386 
L 290.864594 119.308386 
L 292.437219 123.242823 
L 294.009844 119.308386 
L 294.885281 119.308386 
L 292.674406 124.806823 
z
M 296.026656 119.308386 
L 296.853219 119.308386 
L 296.853219 124.339636 
L 296.026656 124.339636 
L 296.026656 119.308386 
z
M 296.440656 119.187636 
L 296.440656 119.187636 
z
M 301.497781 120.080323 
Q 301.358344 119.999823 301.194469 119.962448 
Q 301.030594 119.923636 300.833656 119.923636 
Q 300.132156 119.923636 299.756969 120.379323 
Q 299.381781 120.835011 299.381781 121.688886 
L 299.381781 124.339636 
L 298.550906 124.339636 
L 298.550906 119.308386 
L 299.381781 119.308386 
L 299.381781 120.090386 
Q 299.643406 119.631823 300.060281 119.410448 
Q 300.478594 119.187636 301.076594 119.187636 
Q 301.161406 119.187636 301.264906 119.199136 
Q 301.368406 119.209198 301.493469 119.232198 
L 301.497781 120.080323 
z
" style="fill: #c0392b; stroke: #ffffff; stroke-width: 3"/>
    <path d="M 283.296156 121.302198 
L 283.296156 124.339636 
L 282.469594 124.339636 
L 282.469594 121.329511 
Q 282.469594 120.615073 282.190719 120.261448 
Q 281.911844 119.906386 281.355531 119.906386 
Q 280.685656 119.906386 280.298969 120.333323 
Q 279.912281 120.758823 279.912281 121.496261 
L 279.912281 124.339636 
L 279.081406 124.339636 
L 279.081406 117.349073 
L 279.912281 117.349073 
L 279.912281 120.090386 
Q 280.209844 119.636136 280.610906 119.411886 
Q 281.013406 119.187636 281.539531 119.187636 
Q 282.406344 119.187636 282.850531 119.723823 
Q 283.296156 120.260011 283.296156 121.302198 
z
M 287.230594 121.811073 
Q 286.228656 121.811073 285.841969 122.039636 
Q 285.455281 122.268198 285.455281 122.821636 
Q 285.455281 123.261511 285.745656 123.520261 
Q 286.036031 123.777573 286.533406 123.777573 
Q 287.221969 123.777573 287.637406 123.290261 
Q 288.052844 122.802948 288.052844 121.995073 
L 288.052844 121.811073 
L 287.230594 121.811073 
z
M 288.879406 121.468948 
L 288.879406 124.339636 
L 288.052844 124.339636 
L 288.052844 123.576323 
Q 287.769656 124.033448 287.347031 124.251948 
Q 286.924406 124.470448 286.313469 124.470448 
Q 285.541531 124.470448 285.084406 124.036323 
Q 284.628719 123.602198 284.628719 122.874823 
Q 284.628719 122.026698 285.196531 121.595448 
Q 285.765781 121.164198 286.892781 121.164198 
L 288.052844 121.164198 
L 288.052844 121.082261 
Q 288.052844 120.511573 287.677656 120.199636 
Q 287.302469 119.887698 286.623969 119.887698 
Q 286.192719 119.887698 285.783031 119.991198 
Q 285.374781 120.094698 284.998156 120.301698 
L 284.998156 119.536948 
Q 285.450969 119.361573 285.877906 119.275323 
Q 286.304844 119.187636 286.708781 119.187636 
Q 287.801281 119.187636 288.340344 119.754011 
Q 288.879406 120.318948 288.879406 121.468948 
z
M 292.674406 124.806823 
Q 292.325094 125.705261 291.991594 125.978386 
Q 291.659531 126.252948 291.103219 126.252948 
L 290.441969 126.252948 
L 290.441969 125.561511 
L 290.927844 125.561511 
Q 291.268531 125.561511 291.456844 125.399073 
Q 291.646594 125.238073 291.875156 124.635761 
L 292.023219 124.259136 
L 289.989156 119.308386 
L 290.864594 119.308386 
L 292.437219 123.242823 
L 294.009844 119.308386 
L 294.885281 119.308386 
L 292.674406 124.806823 
z
M 296.026656 119.308386 
L 296.853219 119.308386 
L 296.853219 124.339636 
L 296.026656 124.339636 
L 296.026656 119.308386 
z
M 296.440656 119.187636 
L 296.440656 119.187636 
z
M 301.497781 120.080323 
Q 301.358344 119.999823 301.194469 119.962448 
Q 301.030594 119.923636 300.833656 119.923636 
Q 300.132156 119.923636 299.756969 120.379323 
Q 299.381781 120.835011 299.381781 121.688886 
L 299.381781 124.339636 
L 298.550906 124.339636 
L 298.550906 119.308386 
L 299.381781 119.308386 
L 299.381781 120.090386 
Q 299.643406 119.631823 300.060281 119.410448 
Q 300.478594 119.187636 301.076594 119.187636 
Q 301.161406 119.187636 301.264906 119.199136 
Q 301.368406 119.209198 301.493469 119.232198 
L 301.497781 120.080323 
z
" style="fill: #c0392b"/>
   </g>
   <g id="text_19">
    <path d="M 395.339844 82.698131 
L 395.339844 83.102068 
L 391.539094 83.102068 
Q 391.593719 83.955943 392.053719 84.403006 
Q 392.513719 84.850068 393.335969 84.850068 
Q 393.811781 84.850068 394.258844 84.733631 
Q 394.705906 84.617193 395.147219 84.382881 
L 395.147219 85.164881 
Q 394.701594 85.353193 394.234406 85.452381 
Q 393.767219 85.551568 393.287094 85.551568 
Q 392.082469 85.551568 391.379531 84.851506 
Q 390.676594 84.150006 390.676594 82.954006 
Q 390.676594 81.719193 391.343594 80.994693 
Q 392.010594 80.268756 393.143344 80.268756 
Q 394.158219 80.268756 394.749031 80.922818 
Q 395.339844 81.575443 395.339844 82.698131 
z
M 394.513281 82.455193 
Q 394.504656 81.778131 394.133781 81.374193 
Q 393.762906 80.968818 393.151969 80.968818 
Q 392.460531 80.968818 392.045094 81.359818 
Q 391.629656 81.750818 391.566406 82.460943 
L 394.513281 82.455193 
z
M 396.104594 80.389506 
L 396.980031 80.389506 
L 398.552656 84.611443 
L 400.125281 80.389506 
L 401.000719 80.389506 
L 399.113281 85.420756 
L 397.990594 85.420756 
L 396.104594 80.389506 
z
M 406.445969 82.698131 
L 406.445969 83.102068 
L 402.645219 83.102068 
Q 402.699844 83.955943 403.159844 84.403006 
Q 403.619844 84.850068 404.442094 84.850068 
Q 404.917906 84.850068 405.364969 84.733631 
Q 405.812031 84.617193 406.253344 84.382881 
L 406.253344 85.164881 
Q 405.807719 85.353193 405.340531 85.452381 
Q 404.873344 85.551568 404.393219 85.551568 
Q 403.188594 85.551568 402.485656 84.851506 
Q 401.782719 84.150006 401.782719 82.954006 
Q 401.782719 81.719193 402.449719 80.994693 
Q 403.116719 80.268756 404.249469 80.268756 
Q 405.264344 80.268756 405.855156 80.922818 
Q 406.445969 81.575443 406.445969 82.698131 
z
M 405.619406 82.455193 
Q 405.610781 81.778131 405.239906 81.374193 
Q 404.869031 80.968818 404.258094 80.968818 
Q 403.566656 80.968818 403.151219 81.359818 
Q 402.735781 81.750818 402.672531 82.460943 
L 405.619406 82.455193 
z
M 408.620906 78.960631 
L 408.620906 80.389506 
L 410.322906 80.389506 
L 410.322906 81.032068 
L 408.620906 81.032068 
L 408.620906 83.763318 
Q 408.620906 84.378568 408.789094 84.553943 
Q 408.957281 84.729318 409.474781 84.729318 
L 410.322906 84.729318 
L 410.322906 85.420756 
L 409.474781 85.420756 
Q 408.517406 85.420756 408.153719 85.064256 
Q 407.790031 84.706318 407.790031 83.763318 
L 407.790031 81.032068 
L 407.183406 81.032068 
L 407.183406 80.389506 
L 407.790031 80.389506 
L 407.790031 78.960631 
L 408.620906 78.960631 
z
" style="fill: #2e7d32; stroke: #ffffff; stroke-width: 3"/>
    <path d="M 395.339844 82.698131 
L 395.339844 83.102068 
L 391.539094 83.102068 
Q 391.593719 83.955943 392.053719 84.403006 
Q 392.513719 84.850068 393.335969 84.850068 
Q 393.811781 84.850068 394.258844 84.733631 
Q 394.705906 84.617193 395.147219 84.382881 
L 395.147219 85.164881 
Q 394.701594 85.353193 394.234406 85.452381 
Q 393.767219 85.551568 393.287094 85.551568 
Q 392.082469 85.551568 391.379531 84.851506 
Q 390.676594 84.150006 390.676594 82.954006 
Q 390.676594 81.719193 391.343594 80.994693 
Q 392.010594 80.268756 393.143344 80.268756 
Q 394.158219 80.268756 394.749031 80.922818 
Q 395.339844 81.575443 395.339844 82.698131 
z
M 394.513281 82.455193 
Q 394.504656 81.778131 394.133781 81.374193 
Q 393.762906 80.968818 393.151969 80.968818 
Q 392.460531 80.968818 392.045094 81.359818 
Q 391.629656 81.750818 391.566406 82.460943 
L 394.513281 82.455193 
z
M 396.104594 80.389506 
L 396.980031 80.389506 
L 398.552656 84.611443 
L 400.125281 80.389506 
L 401.000719 80.389506 
L 399.113281 85.420756 
L 397.990594 85.420756 
L 396.104594 80.389506 
z
M 406.445969 82.698131 
L 406.445969 83.102068 
L 402.645219 83.102068 
Q 402.699844 83.955943 403.159844 84.403006 
Q 403.619844 84.850068 404.442094 84.850068 
Q 404.917906 84.850068 405.364969 84.733631 
Q 405.812031 84.617193 406.253344 84.382881 
L 406.253344 85.164881 
Q 405.807719 85.353193 405.340531 85.452381 
Q 404.873344 85.551568 404.393219 85.551568 
Q 403.188594 85.551568 402.485656 84.851506 
Q 401.782719 84.150006 401.782719 82.954006 
Q 401.782719 81.719193 402.449719 80.994693 
Q 403.116719 80.268756 404.249469 80.268756 
Q 405.264344 80.268756 405.855156 80.922818 
Q 406.445969 81.575443 406.445969 82.698131 
z
M 405.619406 82.455193 
Q 405.610781 81.778131 405.239906 81.374193 
Q 404.869031 80.968818 404.258094 80.968818 
Q 403.566656 80.968818 403.151219 81.359818 
Q 402.735781 81.750818 402.672531 82.460943 
L 405.619406 82.455193 
z
M 408.620906 78.960631 
L 408.620906 80.389506 
L 410.322906 80.389506 
L 410.322906 81.032068 
L 408.620906 81.032068 
L 408.620906 83.763318 
Q 408.620906 84.378568 408.789094 84.553943 
Q 408.957281 84.729318 409.474781 84.729318 
L 410.322906 84.729318 
L 410.322906 85.420756 
L 409.474781 85.420756 
Q 408.517406 85.420756 408.153719 85.064256 
Q 407.790031 84.706318 407.790031 83.763318 
L 407.790031 81.032068 
L 407.183406 81.032068 
L 407.183406 80.389506 
L 407.790031 80.389506 
L 407.790031 78.960631 
L 408.620906 78.960631 
z
" style="fill: #2e7d32"/>
   </g>
   <g id="text_20">
    <path d="M 500.120563 120.071698 
L 500.120563 117.349073 
L 500.947125 117.349073 
L 500.947125 124.339636 
L 500.120563 124.339636 
L 500.120563 123.584948 
Q 499.860375 124.033448 499.462188 124.251948 
Q 499.065438 124.470448 498.507688 124.470448 
Q 497.596313 124.470448 497.02275 123.743073 
Q 496.450625 123.014261 496.450625 121.828323 
Q 496.450625 120.642386 497.02275 119.915011 
Q 497.596313 119.187636 498.507688 119.187636 
Q 499.065438 119.187636 499.462188 119.406136 
Q 499.860375 119.623198 500.120563 120.071698 
z
M 497.3045 121.828323 
Q 497.3045 122.739698 497.679688 123.258636 
Q 498.054875 123.777573 498.710375 123.777573 
Q 499.365875 123.777573 499.7425 123.258636 
Q 500.120563 122.739698 500.120563 121.828323 
Q 500.120563 120.916948 499.7425 120.398011 
Q 499.365875 119.879073 498.710375 119.879073 
Q 498.054875 119.879073 497.679688 120.398011 
Q 497.3045 120.916948 497.3045 121.828323 
z
M 506.954438 121.617011 
L 506.954438 122.020948 
L 503.153688 122.020948 
Q 503.208313 122.874823 503.668313 123.321886 
Q 504.128312 123.768948 504.950563 123.768948 
Q 505.426375 123.768948 505.873438 123.652511 
Q 506.3205 123.536073 506.761813 123.301761 
L 506.761813 124.083761 
Q 506.316188 124.272073 505.849 124.371261 
Q 505.381813 124.470448 504.901688 124.470448 
Q 503.697063 124.470448 502.994125 123.770386 
Q 502.291188 123.068886 502.291188 121.872886 
Q 502.291188 120.638073 502.958188 119.913573 
Q 503.625188 119.187636 504.757938 119.187636 
Q 505.772813 119.187636 506.363625 119.841698 
Q 506.954438 120.494323 506.954438 121.617011 
z
M 506.127875 121.374073 
Q 506.11925 120.697011 505.748375 120.293073 
Q 505.3775 119.887698 504.766563 119.887698 
Q 504.075125 119.887698 503.659688 120.278698 
Q 503.24425 120.669698 503.181 121.379823 
L 506.127875 121.374073 
z
M 507.719188 119.308386 
L 508.594625 119.308386 
L 510.16725 123.530323 
L 511.739875 119.308386 
L 512.615313 119.308386 
L 510.727875 124.339636 
L 509.605187 124.339636 
L 507.719188 119.308386 
z
M 516.671938 120.080323 
Q 516.5325 119.999823 516.368625 119.962448 
Q 516.20475 119.923636 516.007812 119.923636 
Q 515.306312 119.923636 514.931125 120.379323 
Q 514.555938 120.835011 514.555938 121.688886 
L 514.555938 124.339636 
L 513.725063 124.339636 
L 513.725063 119.308386 
L 514.555938 119.308386 
L 514.555938 120.090386 
Q 514.817563 119.631823 515.234438 119.410448 
Q 515.65275 119.187636 516.25075 119.187636 
Q 516.335563 119.187636 516.439062 119.199136 
Q 516.542563 119.209198 516.667625 119.232198 
L 516.671938 120.080323 
z
M 521.639937 121.617011 
L 521.639937 122.020948 
L 517.839187 122.020948 
Q 517.893812 122.874823 518.353813 123.321886 
Q 518.813813 123.768948 519.636062 123.768948 
Q 520.111875 123.768948 520.558938 123.652511 
Q 521.006 123.536073 521.447313 123.301761 
L 521.447313 124.083761 
Q 521.001688 124.272073 520.5345 124.371261 
Q 520.067313 124.470448 519.587188 124.470448 
Q 518.382563 124.470448 517.679625 123.770386 
Q 516.976688 123.068886 516.976688 121.872886 
Q 516.976688 120.638073 517.643688 119.913573 
Q 518.310687 119.187636 519.443438 119.187636 
Q 520.458313 119.187636 521.049125 119.841698 
Q 521.639937 120.494323 521.639937 121.617011 
z
M 520.813375 121.374073 
Q 520.80475 120.697011 520.433875 120.293073 
Q 520.063 119.887698 519.452063 119.887698 
Q 518.760625 119.887698 518.345188 120.278698 
Q 517.92975 120.669698 517.8665 121.379823 
L 520.813375 121.374073 
z
M 523.814875 117.879511 
L 523.814875 119.308386 
L 525.516875 119.308386 
L 525.516875 119.950948 
L 523.814875 119.950948 
L 523.814875 122.682198 
Q 523.814875 123.297448 523.983063 123.472823 
Q 524.15125 123.648198 524.66875 123.648198 
L 525.516875 123.648198 
L 525.516875 124.339636 
L 524.66875 124.339636 
Q 523.711375 124.339636 523.347688 123.983136 
Q 522.984 123.625198 522.984 122.682198 
L 522.984 119.950948 
L 522.377375 119.950948 
L 522.377375 119.308386 
L 522.984 119.308386 
L 522.984 117.879511 
L 523.814875 117.879511 
z
" style="fill: #4054b2; stroke: #ffffff; stroke-width: 3"/>
    <path d="M 500.120563 120.071698 
L 500.120563 117.349073 
L 500.947125 117.349073 
L 500.947125 124.339636 
L 500.120563 124.339636 
L 500.120563 123.584948 
Q 499.860375 124.033448 499.462188 124.251948 
Q 499.065438 124.470448 498.507688 124.470448 
Q 497.596313 124.470448 497.02275 123.743073 
Q 496.450625 123.014261 496.450625 121.828323 
Q 496.450625 120.642386 497.02275 119.915011 
Q 497.596313 119.187636 498.507688 119.187636 
Q 499.065438 119.187636 499.462188 119.406136 
Q 499.860375 119.623198 500.120563 120.071698 
z
M 497.3045 121.828323 
Q 497.3045 122.739698 497.679688 123.258636 
Q 498.054875 123.777573 498.710375 123.777573 
Q 499.365875 123.777573 499.7425 123.258636 
Q 500.120563 122.739698 500.120563 121.828323 
Q 500.120563 120.916948 499.7425 120.398011 
Q 499.365875 119.879073 498.710375 119.879073 
Q 498.054875 119.879073 497.679688 120.398011 
Q 497.3045 120.916948 497.3045 121.828323 
z
M 506.954438 121.617011 
L 506.954438 122.020948 
L 503.153688 122.020948 
Q 503.208313 122.874823 503.668313 123.321886 
Q 504.128312 123.768948 504.950563 123.768948 
Q 505.426375 123.768948 505.873438 123.652511 
Q 506.3205 123.536073 506.761813 123.301761 
L 506.761813 124.083761 
Q 506.316188 124.272073 505.849 124.371261 
Q 505.381813 124.470448 504.901688 124.470448 
Q 503.697063 124.470448 502.994125 123.770386 
Q 502.291188 123.068886 502.291188 121.872886 
Q 502.291188 120.638073 502.958188 119.913573 
Q 503.625188 119.187636 504.757938 119.187636 
Q 505.772813 119.187636 506.363625 119.841698 
Q 506.954438 120.494323 506.954438 121.617011 
z
M 506.127875 121.374073 
Q 506.11925 120.697011 505.748375 120.293073 
Q 505.3775 119.887698 504.766563 119.887698 
Q 504.075125 119.887698 503.659688 120.278698 
Q 503.24425 120.669698 503.181 121.379823 
L 506.127875 121.374073 
z
M 507.719188 119.308386 
L 508.594625 119.308386 
L 510.16725 123.530323 
L 511.739875 119.308386 
L 512.615313 119.308386 
L 510.727875 124.339636 
L 509.605187 124.339636 
L 507.719188 119.308386 
z
M 516.671938 120.080323 
Q 516.5325 119.999823 516.368625 119.962448 
Q 516.20475 119.923636 516.007812 119.923636 
Q 515.306312 119.923636 514.931125 120.379323 
Q 514.555938 120.835011 514.555938 121.688886 
L 514.555938 124.339636 
L 513.725063 124.339636 
L 513.725063 119.308386 
L 514.555938 119.308386 
L 514.555938 120.090386 
Q 514.817563 119.631823 515.234438 119.410448 
Q 515.65275 119.187636 516.25075 119.187636 
Q 516.335563 119.187636 516.439062 119.199136 
Q 516.542563 119.209198 516.667625 119.232198 
L 516.671938 120.080323 
z
M 521.639937 121.617011 
L 521.639937 122.020948 
L 517.839187 122.020948 
Q 517.893812 122.874823 518.353813 123.321886 
Q 518.813813 123.768948 519.636062 123.768948 
Q 520.111875 123.768948 520.558938 123.652511 
Q 521.006 123.536073 521.447313 123.301761 
L 521.447313 124.083761 
Q 521.001688 124.272073 520.5345 124.371261 
Q 520.067313 124.470448 519.587188 124.470448 
Q 518.382563 124.470448 517.679625 123.770386 
Q 516.976688 123.068886 516.976688 121.872886 
Q 516.976688 120.638073 517.643688 119.913573 
Q 518.310687 119.187636 519.443438 119.187636 
Q 520.458313 119.187636 521.049125 119.841698 
Q 521.639937 120.494323 521.639937 121.617011 
z
M 520.813375 121.374073 
Q 520.80475 120.697011 520.433875 120.293073 
Q 520.063 119.887698 519.452063 119.887698 
Q 518.760625 119.887698 518.345188 120.278698 
Q 517.92975 120.669698 517.8665 121.379823 
L 520.813375 121.374073 
z
M 523.814875 117.879511 
L 523.814875 119.308386 
L 525.516875 119.308386 
L 525.516875 119.950948 
L 523.814875 119.950948 
L 523.814875 122.682198 
Q 523.814875 123.297448 523.983063 123.472823 
Q 524.15125 123.648198 524.66875 123.648198 
L 525.516875 123.648198 
L 525.516875 124.339636 
L 524.66875 124.339636 
Q 523.711375 124.339636 523.347688 123.983136 
Q 522.984 123.625198 522.984 122.682198 
L 522.984 119.950948 
L 522.377375 119.950948 
L 522.377375 119.308386 
L 522.984 119.308386 
L 522.984 117.879511 
L 523.814875 117.879511 
z
" style="fill: #4054b2"/>
   </g>
  </g>
 </g>
 <defs>
  <clipPath id="p6bf86f6c4b">
   <rect x="8.64" y="8.64" width="669.6" height="288.288"/>
  </clipPath>
 </defs>
</svg>
