<?xml version="1.0" encoding="UTF-8"?>
<svg xmlns="http://www.w3.org/2000/svg" xmlns:xlink="http://www.w3.org/1999/xlink" width="451.517pt" height="257.408pt" viewBox="0 0 451.517 257.408" version="1.2">
<defs>
<g>
<symbol overflow="visible" id="glyph0-0">
<path style="stroke:none;" d=""/>
</symbol>
<symbol overflow="visible" id="glyph0-1">
<path style="stroke:none;" d="M 8.546875 0 L 4.703125 -4.953125 L 8.171875 -8.6875 L 6.0625 -8.6875 L 2.671875 -4.875 L 2.671875 -8.6875 L 0.875 -8.6875 L 0.875 0 L 2.671875 0 L 2.671875 -2.90625 L 3.5625 -3.84375 L 6.40625 0 Z M 8.546875 0 "/>
</symbol>
<symbol overflow="visible" id="glyph0-2">
<path style="stroke:none;" d="M 6.78125 -3.171875 C 6.78125 -5.359375 5.609375 -6.546875 3.59375 -6.546875 C 1.625 -6.546875 0.421875 -5.328125 0.421875 -3.21875 C 0.421875 -1.09375 1.625 0.109375 3.59375 0.109375 C 5.5625 0.109375 6.78125 -1.109375 6.78125 -3.171875 Z M 5.109375 -3.1875 C 5.109375 -1.984375 4.5 -1.234375 3.59375 -1.234375 C 2.6875 -1.234375 2.09375 -1.984375 2.09375 -3.21875 C 2.09375 -4.453125 2.6875 -5.203125 3.59375 -5.203125 C 4.515625 -5.203125 5.109375 -4.453125 5.109375 -3.1875 Z M 3.234375 -7.375 L 3.234375 -8.734375 L 1.734375 -8.734375 L 1.734375 -7.375 Z M 5.5625 -7.375 L 5.5625 -8.734375 L 4.046875 -8.734375 L 4.046875 -7.375 Z M 5.5625 -7.375 "/>
</symbol>
<symbol overflow="visible" id="glyph0-3">
<path style="stroke:none;" d="M 3.59375 0 L 3.59375 -1.171875 C 3.421875 -1.140625 3.328125 -1.125 3.203125 -1.125 C 2.765625 -1.125 2.65625 -1.265625 2.65625 -1.84375 L 2.65625 -5.203125 L 3.59375 -5.203125 L 3.59375 -6.3125 L 2.65625 -6.3125 L 2.65625 -8.03125 L 0.984375 -8.03125 L 0.984375 -6.3125 L 0.171875 -6.3125 L 0.171875 -5.203125 L 0.984375 -5.203125 L 0.984375 -1.390625 C 0.984375 -0.375 1.53125 0.046875 2.625 0.046875 C 3 0.046875 3.296875 0.015625 3.59375 0 Z M 3.59375 0 "/>
</symbol>
<symbol overflow="visible" id="glyph0-4">
<path style="stroke:none;" d="M 6.453125 0 L 6.453125 -6.4375 L 4.78125 -6.4375 L 4.78125 -2.578125 C 4.78125 -1.8125 4.25 -1.3125 3.4375 -1.3125 C 2.71875 -1.3125 2.359375 -1.6875 2.359375 -2.46875 L 2.359375 -6.4375 L 0.6875 -6.4375 L 0.6875 -2.125 C 0.6875 -0.703125 1.484375 0.109375 2.84375 0.109375 C 3.71875 0.109375 4.296875 -0.21875 4.78125 -0.84375 L 4.78125 0 Z M 3.234375 -7.375 L 3.234375 -8.734375 L 1.734375 -8.734375 L 1.734375 -7.375 Z M 5.5625 -7.375 L 5.5625 -8.734375 L 4.046875 -8.734375 L 4.046875 -7.375 Z M 5.5625 -7.375 "/>
</symbol>
<symbol overflow="visible" id="glyph0-5">
<path style="stroke:none;" d="M 6.453125 0.21875 L 6.453125 -6.4375 L 4.859375 -6.4375 L 4.859375 -5.453125 C 4.359375 -6.21875 3.8125 -6.546875 3.078125 -6.546875 C 1.546875 -6.546875 0.40625 -5.140625 0.40625 -3.140625 C 0.40625 -1.140625 1.453125 0.109375 3.046875 0.109375 C 3.796875 0.109375 4.25 -0.125 4.859375 -0.734375 L 4.859375 0.21875 C 4.859375 0.984375 4.28125 1.53125 3.453125 1.53125 C 2.8125 1.53125 2.390625 1.265625 2.265625 0.78125 L 0.53125 0.78125 C 0.5625 1.828125 1.625 2.59375 3.390625 2.59375 C 5.328125 2.59375 6.453125 1.734375 6.453125 0.21875 Z M 4.890625 -3.171875 C 4.890625 -2 4.28125 -1.28125 3.40625 -1.28125 C 2.625 -1.28125 2.078125 -2 2.078125 -3.171875 C 2.078125 -4.390625 2.625 -5.15625 3.4375 -5.15625 C 4.265625 -5.15625 4.890625 -4.359375 4.890625 -3.171875 Z M 4.890625 -3.171875 "/>
</symbol>
<symbol overflow="visible" id="glyph0-6">
<path style="stroke:none;" d="M 6.265625 -2.984375 C 6.265625 -5.203125 5.140625 -6.546875 3.25 -6.546875 C 1.390625 -6.546875 0.265625 -5.296875 0.265625 -3.140625 C 0.265625 -1.078125 1.390625 0.109375 3.203125 0.109375 C 4.65625 0.109375 5.8125 -0.546875 6.1875 -1.8125 L 4.546875 -1.8125 C 4.40625 -1.34375 3.875 -1.171875 3.265625 -1.171875 C 2.484375 -1.171875 1.984375 -1.53125 1.9375 -2.78125 L 6.25 -2.78125 Z M 4.515625 -3.890625 L 1.953125 -3.890625 C 2.0625 -4.78125 2.484375 -5.265625 3.21875 -5.265625 C 3.9375 -5.265625 4.4375 -4.796875 4.515625 -3.890625 Z M 4.515625 -3.890625 "/>
</symbol>
<symbol overflow="visible" id="glyph0-7">
<path style="stroke:none;" d="M 4.40625 -4.84375 L 4.40625 -6.53125 C 4.3125 -6.546875 4.25 -6.546875 4.203125 -6.546875 C 3.453125 -6.546875 2.78125 -6.046875 2.421875 -5.171875 L 2.421875 -6.4375 L 0.75 -6.4375 L 0.75 0 L 2.421875 0 L 2.421875 -3.421875 C 2.421875 -4.40625 2.90625 -4.890625 3.890625 -4.890625 C 4.0625 -4.890625 4.1875 -4.875 4.40625 -4.84375 Z M 4.40625 -4.84375 "/>
</symbol>
<symbol overflow="visible" id="glyph0-8">
<path style="stroke:none;" d="M 6.53125 0 L 4.1875 -4 L 6.375 -6.4375 L 4.484375 -6.4375 L 2.375 -3.9375 L 2.375 -8.6875 L 0.703125 -8.6875 L 0.703125 0 L 2.375 0 L 2.375 -2.109375 L 3.046875 -2.84375 L 4.578125 0 Z M 6.53125 0 "/>
</symbol>
<symbol overflow="visible" id="glyph0-9">
<path style="stroke:none;" d="M 6.203125 -1.90625 L 6.203125 -1.984375 C 6.203125 -2.734375 5.78125 -3.28125 4.9375 -3.53125 L 2.828125 -4.140625 C 2.359375 -4.265625 2.234375 -4.375 2.234375 -4.640625 C 2.234375 -5 2.625 -5.234375 3.203125 -5.234375 C 4 -5.234375 4.40625 -4.953125 4.40625 -4.359375 L 6.015625 -4.359375 C 6 -5.71875 4.953125 -6.546875 3.21875 -6.546875 C 1.578125 -6.546875 0.578125 -5.71875 0.578125 -4.40625 C 0.578125 -3.609375 0.78125 -3.1875 1.984375 -2.8125 L 3.96875 -2.1875 C 4.390625 -2.0625 4.53125 -1.9375 4.53125 -1.75 C 4.53125 -1.359375 4.0625 -1.203125 3.296875 -1.203125 C 2.53125 -1.203125 2.125 -1.34375 1.984375 -2.03125 L 0.34375 -2.03125 C 0.390625 -0.625 1.4375 0.109375 3.390625 0.109375 C 5.203125 0.109375 6.203125 -0.609375 6.203125 -1.90625 Z M 6.203125 -1.90625 "/>
</symbol>
<symbol overflow="visible" id="glyph0-10">
<path style="stroke:none;" d="M 2.46875 0 L 2.46875 -6.4375 L 0.796875 -6.4375 L 0.796875 0 Z M 2.484375 -7.21875 L 2.484375 -8.875 L 0.828125 -8.875 L 0.828125 -7.21875 Z M 2.484375 -7.21875 "/>
</symbol>
<symbol overflow="visible" id="glyph0-11">
<path style="stroke:none;" d="M 6.515625 0 L 6.515625 -4.3125 C 6.515625 -5.734375 5.71875 -6.546875 4.34375 -6.546875 C 3.484375 -6.546875 2.890625 -6.21875 2.421875 -5.515625 L 2.421875 -6.4375 L 0.75 -6.4375 L 0.75 0 L 2.421875 0 L 2.421875 -3.859375 C 2.421875 -4.625 2.953125 -5.125 3.765625 -5.125 C 4.484375 -5.125 4.84375 -4.734375 4.84375 -3.96875 L 4.84375 0 Z M 6.515625 0 "/>
</symbol>
<symbol overflow="visible" id="glyph0-12">
<path style="stroke:none;" d="M 9.828125 0 L 9.828125 -4.546875 C 9.828125 -5.8125 9.0625 -6.546875 7.765625 -6.546875 C 6.96875 -6.546875 6.390625 -6.265625 5.890625 -5.59375 C 5.578125 -6.203125 4.9375 -6.546875 4.140625 -6.546875 C 3.390625 -6.546875 2.921875 -6.296875 2.375 -5.640625 L 2.375 -6.4375 L 0.71875 -6.4375 L 0.71875 0 L 2.390625 0 L 2.390625 -3.859375 C 2.390625 -4.65625 2.8125 -5.125 3.53125 -5.125 C 4.09375 -5.125 4.4375 -4.796875 4.4375 -4.296875 L 4.4375 0 L 6.109375 0 L 6.109375 -3.859375 C 6.109375 -4.65625 6.53125 -5.125 7.25 -5.125 C 7.8125 -5.125 8.15625 -4.796875 8.15625 -4.296875 L 8.15625 0 Z M 9.828125 0 "/>
</symbol>
<symbol overflow="visible" id="glyph0-13">
<path style="stroke:none;" d="M 6.40625 -6.4375 L 4.703125 -6.4375 L 3.359375 -1.75 L 1.9375 -6.4375 L 0.109375 -6.4375 L 2.5 0.28125 L 2.5 0.3125 C 2.5 0.921875 2.046875 1.390625 1.46875 1.390625 C 1.328125 1.390625 1.234375 1.375 1.03125 1.3125 L 1.03125 2.5625 C 1.28125 2.59375 1.421875 2.609375 1.625 2.609375 C 2.734375 2.609375 3.328125 2.40625 3.765625 1.1875 Z M 6.40625 -6.4375 "/>
</symbol>
<symbol overflow="visible" id="glyph1-0">
<path style="stroke:none;" d=""/>
</symbol>
<symbol overflow="visible" id="glyph1-1">
<path style="stroke:none;" d="M 9.9375 -2.734375 C 9.28125 -2.234375 8.96875 -1.75 8.875 -1.59375 C 8.328125 -0.78125 8.234375 -0.03125 8.234375 -0.015625 C 8.234375 0.125 8.375 0.125 8.46875 0.125 C 8.671875 0.125 8.6875 0.109375 8.734375 -0.109375 C 9.015625 -1.28125 9.71875 -2.28125 11.0625 -2.828125 C 11.203125 -2.875 11.25 -2.890625 11.25 -2.984375 C 11.25 -3.0625 11.171875 -3.09375 11.140625 -3.109375 C 10.625 -3.3125 9.1875 -3.90625 8.734375 -5.90625 C 8.6875 -6.0625 8.671875 -6.09375 8.46875 -6.09375 C 8.375 -6.09375 8.234375 -6.09375 8.234375 -5.953125 C 8.234375 -5.921875 8.34375 -5.171875 8.84375 -4.375 C 9.078125 -4.015625 9.4375 -3.59375 9.9375 -3.21875 L 1.078125 -3.21875 C 0.875 -3.21875 0.65625 -3.21875 0.65625 -2.984375 C 0.65625 -2.734375 0.875 -2.734375 1.078125 -2.734375 Z M 9.9375 -2.734375 "/>
</symbol>
<symbol overflow="visible" id="glyph2-0">
<path style="stroke:none;" d=""/>
</symbol>
<symbol overflow="visible" id="glyph2-1">
<path style="stroke:none;" d="M 2.3125 -4.078125 L 2.3125 -4.6875 L 1.53125 -4.6875 L 1.53125 -5.421875 C 1.53125 -5.734375 1.703125 -5.90625 2.046875 -5.90625 C 2.109375 -5.90625 2.140625 -5.90625 2.3125 -5.890625 L 2.3125 -6.515625 C 2.140625 -6.546875 2.046875 -6.546875 1.890625 -6.546875 C 1.203125 -6.546875 0.78125 -6.15625 0.78125 -5.484375 L 0.78125 -4.6875 L 0.15625 -4.6875 L 0.15625 -4.078125 L 0.78125 -4.078125 L 0.78125 0 L 1.53125 0 L 1.53125 -4.078125 Z M 2.3125 -4.078125 "/>
</symbol>
<symbol overflow="visible" id="glyph2-2">
<path style="stroke:none;" d="M 4.796875 -0.015625 L 4.796875 -0.578125 C 4.703125 -0.5625 4.671875 -0.5625 4.625 -0.5625 C 4.375 -0.5625 4.21875 -0.703125 4.21875 -0.9375 L 4.21875 -3.546875 C 4.21875 -4.375 3.609375 -4.828125 2.46875 -4.828125 C 1.328125 -4.828125 0.625 -4.390625 0.578125 -3.296875 L 1.328125 -3.296875 C 1.390625 -3.875 1.734375 -4.140625 2.4375 -4.140625 C 3.109375 -4.140625 3.484375 -3.890625 3.484375 -3.4375 L 3.484375 -3.234375 C 3.484375 -2.921875 3.296875 -2.796875 2.703125 -2.71875 C 1.640625 -2.59375 1.484375 -2.546875 1.203125 -2.4375 C 0.65625 -2.21875 0.375 -1.796875 0.375 -1.21875 C 0.375 -0.359375 0.96875 0.140625 1.921875 0.140625 C 2.515625 0.140625 3.09375 -0.109375 3.515625 -0.5625 C 3.59375 -0.203125 3.90625 0.0625 4.28125 0.0625 C 4.4375 0.0625 4.546875 0.046875 4.796875 -0.015625 Z M 3.484375 -1.625 C 3.484375 -0.953125 2.796875 -0.515625 2.078125 -0.515625 C 1.5 -0.515625 1.15625 -0.71875 1.15625 -1.234375 C 1.15625 -1.734375 1.484375 -1.9375 2.28125 -2.0625 C 3.078125 -2.171875 3.234375 -2.203125 3.484375 -2.3125 Z M 3.484375 -1.625 "/>
</symbol>
<symbol overflow="visible" id="glyph2-3">
<path style="stroke:none;" d="M 2.875 -4.03125 L 2.875 -4.796875 C 2.75 -4.8125 2.6875 -4.828125 2.59375 -4.828125 C 2.109375 -4.828125 1.734375 -4.546875 1.3125 -3.84375 L 1.3125 -4.6875 L 0.625 -4.6875 L 0.625 0 L 1.375 0 L 1.375 -2.4375 C 1.375 -3.484375 1.71875 -4.015625 2.875 -4.03125 Z M 2.875 -4.03125 "/>
</symbol>
<symbol overflow="visible" id="glyph2-4">
<path style="stroke:none;" d="M 4.5 0 L 2.578125 -3.078125 L 4.203125 -4.6875 L 3.25 -4.6875 L 1.265625 -2.703125 L 1.265625 -6.53125 L 0.515625 -6.53125 L 0.515625 0 L 1.265625 0 L 1.265625 -1.828125 L 1.984375 -2.546875 L 3.578125 0 Z M 4.5 0 "/>
</symbol>
<symbol overflow="visible" id="glyph2-5">
<path style="stroke:none;" d="M 1.703125 0 L 1.703125 -0.9375 L 0.78125 -0.9375 L 0.78125 0 Z M 1.703125 -3.765625 L 1.703125 -4.6875 L 0.78125 -4.6875 L 0.78125 -3.765625 Z M 1.703125 -3.765625 "/>
</symbol>
<symbol overflow="visible" id="glyph2-6">
<path style="stroke:none;" d="M 4.5625 -2.3125 C 4.5625 -3.9375 3.78125 -4.828125 2.4375 -4.828125 C 1.125 -4.828125 0.328125 -3.921875 0.328125 -2.34375 C 0.328125 -0.765625 1.109375 0.140625 2.4375 0.140625 C 3.765625 0.140625 4.5625 -0.765625 4.5625 -2.3125 Z M 3.78125 -2.3125 C 3.78125 -1.21875 3.265625 -0.5625 2.4375 -0.5625 C 1.609375 -0.5625 1.09375 -1.203125 1.09375 -2.34375 C 1.09375 -3.46875 1.609375 -4.140625 2.4375 -4.140625 C 3.28125 -4.140625 3.78125 -3.484375 3.78125 -2.3125 Z M 2.171875 -5.40625 L 2.171875 -6.328125 L 1.359375 -6.328125 L 1.359375 -5.40625 Z M 3.609375 -5.40625 L 3.609375 -6.328125 L 2.796875 -6.328125 L 2.796875 -5.40625 Z M 3.609375 -5.40625 "/>
</symbol>
<symbol overflow="visible" id="glyph2-7">
<path style="stroke:none;" d="M 1.359375 0 L 1.359375 -6.53125 L 0.609375 -6.53125 L 0.609375 0 Z M 1.359375 0 "/>
</symbol>
<symbol overflow="visible" id="glyph2-8">
<path style="stroke:none;" d="M 4.265625 -1.609375 L 3.515625 -1.609375 C 3.390625 -0.859375 3.015625 -0.5625 2.375 -0.5625 C 1.546875 -0.5625 1.0625 -1.1875 1.0625 -2.296875 C 1.0625 -3.46875 1.546875 -4.140625 2.359375 -4.140625 C 2.984375 -4.140625 3.375 -3.765625 3.46875 -3.109375 L 4.21875 -3.109375 C 4.125 -4.265625 3.40625 -4.828125 2.359375 -4.828125 C 1.09375 -4.828125 0.28125 -3.859375 0.28125 -2.296875 C 0.28125 -0.875 1 0.03125 2.171875 0.125 L 1.859375 0.828125 L 2.015625 0.9375 C 2.125 0.90625 2.1875 0.890625 2.296875 0.890625 C 2.546875 0.890625 2.703125 1.078125 2.703125 1.296875 C 2.703125 1.515625 2.5 1.6875 2.21875 1.6875 C 1.984375 1.6875 1.828125 1.640625 1.421875 1.4375 L 1.34375 1.390625 L 1.15625 1.75 C 1.703125 2 1.921875 2.0625 2.28125 2.0625 C 2.953125 2.0625 3.375 1.734375 3.375 1.234375 C 3.375 0.84375 3.109375 0.484375 2.671875 0.484375 L 2.46875 0.484375 L 2.609375 0.125 C 3.578125 0.03125 4.1875 -0.625 4.265625 -1.609375 Z M 4.265625 -1.609375 "/>
</symbol>
<symbol overflow="visible" id="glyph2-9">
<path style="stroke:none;" d="M 4.3125 0 L 4.3125 -4.6875 L 3.578125 -4.6875 L 3.578125 -2.109375 C 3.578125 -1.140625 3.078125 -0.515625 2.296875 -0.515625 C 1.703125 -0.515625 1.328125 -0.875 1.328125 -1.4375 L 1.328125 -4.6875 L 0.578125 -4.6875 L 0.578125 -1.140625 C 0.578125 -0.359375 1.15625 0.140625 2.078125 0.140625 C 2.765625 0.140625 3.203125 -0.109375 3.640625 -0.71875 L 3.640625 0 Z M 2.171875 -5.40625 L 2.171875 -6.328125 L 1.359375 -6.328125 L 1.359375 -5.40625 Z M 3.609375 -5.40625 L 3.609375 -6.328125 L 2.796875 -6.328125 L 2.796875 -5.40625 Z M 3.609375 -5.40625 "/>
</symbol>
<symbol overflow="visible" id="glyph2-10">
<path style="stroke:none;" d="M 4.59375 -2.125 C 4.59375 -2.8125 4.546875 -3.234375 4.40625 -3.59375 C 4.09375 -4.359375 3.390625 -4.828125 2.5 -4.828125 C 1.203125 -4.828125 0.359375 -3.859375 0.359375 -2.3125 C 0.359375 -0.78125 1.171875 0.140625 2.484375 0.140625 C 3.5625 0.140625 4.3125 -0.46875 4.5 -1.421875 L 3.75 -1.421875 C 3.53125 -0.8125 3.109375 -0.5625 2.515625 -0.5625 C 1.734375 -0.5625 1.15625 -1.0625 1.140625 -2.125 Z M 3.796875 -2.796875 C 3.796875 -2.796875 3.796875 -2.75 3.78125 -2.734375 L 1.15625 -2.734375 C 1.21875 -3.578125 1.75 -4.140625 2.5 -4.140625 C 3.234375 -4.140625 3.796875 -3.53125 3.796875 -2.796875 Z M 3.796875 -2.796875 "/>
</symbol>
<symbol overflow="visible" id="glyph2-11">
<path style="stroke:none;" d="M 4.6875 -2.40625 C 4.6875 -3.921875 3.90625 -4.828125 2.671875 -4.828125 C 2.03125 -4.828125 1.578125 -4.578125 1.234375 -4.0625 L 1.234375 -6.53125 L 0.484375 -6.53125 L 0.484375 0 L 1.15625 0 L 1.15625 -0.671875 C 1.515625 -0.125 1.984375 0.140625 2.640625 0.140625 C 3.875 0.140625 4.6875 -0.875 4.6875 -2.40625 Z M 3.90625 -2.359375 C 3.90625 -1.296875 3.34375 -0.5625 2.53125 -0.5625 C 1.75 -0.5625 1.234375 -1.28125 1.234375 -2.34375 C 1.234375 -3.453125 1.75 -4.15625 2.53125 -4.125 C 3.359375 -4.125 3.90625 -3.40625 3.90625 -2.359375 Z M 3.90625 -2.359375 "/>
</symbol>
<symbol overflow="visible" id="glyph2-12">
<path style="stroke:none;" d="M 1.375 0 L 1.375 -4.6875 L 0.625 -4.6875 L 0.625 0 Z M 1.46875 -5.40625 L 1.46875 -6.328125 L 0.53125 -6.328125 L 0.53125 -5.40625 Z M 1.46875 -5.40625 "/>
</symbol>
<symbol overflow="visible" id="glyph2-13">
<path style="stroke:none;" d="M 4.4375 0 L 4.4375 -6.53125 L 3.6875 -6.53125 L 3.6875 -4.09375 C 3.375 -4.578125 2.875 -4.828125 2.25 -4.828125 C 1.03125 -4.828125 0.234375 -3.890625 0.234375 -2.390625 C 0.234375 -0.8125 1.015625 0.140625 2.28125 0.140625 C 2.921875 0.140625 3.359375 -0.109375 3.765625 -0.6875 L 3.765625 0 Z M 3.6875 -2.328125 C 3.6875 -1.25 3.171875 -0.5625 2.375 -0.5625 C 1.5625 -0.5625 1.015625 -1.25 1.015625 -2.34375 C 1.015625 -3.4375 1.5625 -4.125 2.375 -4.125 C 3.171875 -4.125 3.6875 -3.40625 3.6875 -2.328125 Z M 3.6875 -2.328125 "/>
</symbol>
<symbol overflow="visible" id="glyph2-14">
<path style="stroke:none;" d="M 4.28125 -4.6875 L 3.46875 -4.6875 L 2.171875 -1.03125 L 0.96875 -4.6875 L 0.171875 -4.6875 L 1.765625 0.015625 L 1.484375 0.765625 C 1.359375 1.09375 1.203125 1.21875 0.875 1.21875 C 0.765625 1.21875 0.640625 1.203125 0.484375 1.15625 L 0.484375 1.828125 C 0.640625 1.921875 0.78125 1.953125 0.984375 1.953125 C 1.515625 1.953125 1.9375 1.65625 2.1875 0.984375 Z M 4.28125 -4.6875 "/>
</symbol>
<symbol overflow="visible" id="glyph2-15">
<path style="stroke:none;" d="M 4.359375 0 L 4.359375 -3.546875 C 4.359375 -4.328125 3.78125 -4.828125 2.875 -4.828125 C 2.171875 -4.828125 1.734375 -4.5625 1.3125 -3.90625 L 1.3125 -4.6875 L 0.625 -4.6875 L 0.625 0 L 1.375 0 L 1.375 -2.59375 C 1.375 -3.546875 1.890625 -4.171875 2.65625 -4.171875 C 3.234375 -4.171875 3.609375 -3.8125 3.609375 -3.25 L 3.609375 0 Z M 4.359375 0 "/>
</symbol>
<symbol overflow="visible" id="glyph2-16">
<path style="stroke:none;" d="M 4.34375 -4.6875 L 3.515625 -4.6875 L 2.1875 -0.890625 L 0.9375 -4.6875 L 0.09375 -4.6875 L 1.734375 0 L 2.546875 0 Z M 4.34375 -4.6875 "/>
</symbol>
<symbol overflow="visible" id="glyph2-17">
<path style="stroke:none;" d="M 2.28125 0 L 2.28125 -0.625 C 2.171875 -0.59375 2.0625 -0.59375 1.921875 -0.59375 C 1.59375 -0.59375 1.5 -0.6875 1.5 -1.015625 L 1.5 -4.078125 L 2.28125 -4.078125 L 2.28125 -4.6875 L 1.5 -4.6875 L 1.5 -5.984375 L 0.765625 -5.984375 L 0.765625 -4.6875 L 0.125 -4.6875 L 0.125 -4.078125 L 0.765625 -4.078125 L 0.765625 -0.6875 C 0.765625 -0.203125 1.078125 0.0625 1.671875 0.0625 C 1.84375 0.0625 2.015625 0.046875 2.28125 0 Z M 2.28125 0 "/>
</symbol>
<symbol overflow="visible" id="glyph2-18">
<path style="stroke:none;" d="M 1.40625 -5.625 L 1.40625 -6.53125 L 0.578125 -6.53125 L 0.578125 -5.59375 L 1 -5.59375 C 1 -5.078125 0.890625 -4.828125 0.578125 -4.796875 L 0.578125 -4.453125 C 1.109375 -4.5 1.40625 -4.90625 1.40625 -5.625 Z M 1.40625 -5.625 "/>
</symbol>
<symbol overflow="visible" id="glyph2-19">
<path style="stroke:none;" d="M 5.78125 -1.984375 L 5.78125 -6.53125 L 4.9375 -6.53125 L 4.9375 -1.984375 C 4.9375 -1.109375 4.3125 -0.578125 3.265625 -0.578125 C 2.28125 -0.578125 1.59375 -1.03125 1.59375 -1.984375 L 1.59375 -6.53125 L 0.765625 -6.53125 L 0.765625 -1.984375 C 0.765625 -0.65625 1.703125 0.15625 3.265625 0.15625 C 4.796875 0.15625 5.78125 -0.6875 5.78125 -1.984375 Z M 5.78125 -1.984375 "/>
</symbol>
<symbol overflow="visible" id="glyph2-20">
<path style="stroke:none;" d="M 4.375 -0.765625 L 4.375 -4.6875 L 3.6875 -4.6875 L 3.6875 -4.015625 C 3.3125 -4.5625 2.859375 -4.828125 2.25 -4.828125 C 1.0625 -4.828125 0.265625 -3.828125 0.265625 -2.296875 C 0.265625 -0.828125 1.09375 0.140625 2.1875 0.140625 C 2.78125 0.140625 3.203125 -0.109375 3.6875 -0.703125 L 3.6875 -0.390625 C 3.6875 0.84375 3.171875 1.328125 2.3125 1.328125 C 1.71875 1.328125 1.265625 1.109375 1.171875 0.53125 L 0.40625 0.53125 C 0.5 1.421875 1.1875 1.953125 2.28125 1.953125 C 3.75 1.953125 4.375 1.296875 4.375 -0.765625 Z M 3.609375 -2.3125 C 3.609375 -1.203125 3.140625 -0.5625 2.34375 -0.5625 C 1.53125 -0.5625 1.03125 -1.203125 1.03125 -2.34375 C 1.03125 -3.46875 1.546875 -4.140625 2.34375 -4.140625 C 3.140625 -4.140625 3.609375 -3.453125 3.609375 -2.3125 Z M 3.609375 -2.3125 "/>
</symbol>
<symbol overflow="visible" id="glyph2-21">
<path style="stroke:none;" d="M 4.3125 0 L 4.3125 -4.6875 L 3.578125 -4.6875 L 3.578125 -2.109375 C 3.578125 -1.140625 3.078125 -0.515625 2.296875 -0.515625 C 1.703125 -0.515625 1.328125 -0.875 1.328125 -1.4375 L 1.328125 -4.6875 L 0.578125 -4.6875 L 0.578125 -1.140625 C 0.578125 -0.359375 1.15625 0.140625 2.078125 0.140625 C 2.765625 0.140625 3.203125 -0.109375 3.640625 -0.71875 L 3.640625 0 Z M 4.3125 0 "/>
</symbol>
<symbol overflow="visible" id="glyph2-22">
<path style="stroke:none;" d="M 6.796875 0 L 6.796875 -3.515625 C 6.796875 -4.359375 6.34375 -4.828125 5.46875 -4.828125 C 4.828125 -4.828125 4.453125 -4.640625 4.015625 -4.109375 C 3.75 -4.609375 3.359375 -4.828125 2.75 -4.828125 C 2.125 -4.828125 1.71875 -4.59375 1.3125 -4.03125 L 1.3125 -4.6875 L 0.640625 -4.6875 L 0.640625 0 L 1.375 0 L 1.375 -2.953125 C 1.375 -3.625 1.875 -4.171875 2.484375 -4.171875 C 3.03125 -4.171875 3.34375 -3.828125 3.34375 -3.234375 L 3.34375 0 L 4.09375 0 L 4.09375 -2.953125 C 4.09375 -3.625 4.59375 -4.171875 5.203125 -4.171875 C 5.75 -4.171875 6.0625 -3.828125 6.0625 -3.234375 L 6.0625 0 Z M 6.796875 0 "/>
</symbol>
<symbol overflow="visible" id="glyph2-23">
<path style="stroke:none;" d="M 4.5625 -2.3125 C 4.5625 -3.9375 3.78125 -4.828125 2.4375 -4.828125 C 1.125 -4.828125 0.328125 -3.921875 0.328125 -2.34375 C 0.328125 -0.765625 1.109375 0.140625 2.4375 0.140625 C 3.765625 0.140625 4.5625 -0.765625 4.5625 -2.3125 Z M 3.78125 -2.3125 C 3.78125 -1.21875 3.265625 -0.5625 2.4375 -0.5625 C 1.609375 -0.5625 1.09375 -1.203125 1.09375 -2.34375 C 1.09375 -3.46875 1.609375 -4.140625 2.4375 -4.140625 C 3.28125 -4.140625 3.78125 -3.484375 3.78125 -2.3125 Z M 3.78125 -2.3125 "/>
</symbol>
<symbol overflow="visible" id="glyph2-24">
<path style="stroke:none;" d="M 1.375 0 L 1.375 -4.6875 L 0.625 -4.6875 L 0.625 0 Z M 1.375 0 "/>
</symbol>
<symbol overflow="visible" id="glyph2-25">
<path style="stroke:none;" d="M 5.84375 0 L 3.546875 -6.53125 L 2.484375 -6.53125 L 0.15625 0 L 1.03125 0 L 1.734375 -1.953125 L 4.25 -1.953125 L 4.921875 0 Z M 4.015625 -2.65625 L 1.9375 -2.65625 L 3.015625 -5.625 Z M 4.015625 -2.65625 "/>
</symbol>
<symbol overflow="visible" id="glyph2-26">
<path style="stroke:none;" d="M 4.34375 0 L 4.34375 -3.546875 C 4.34375 -4.328125 3.78125 -4.828125 2.875 -4.828125 C 2.21875 -4.828125 1.8125 -4.625 1.375 -4.046875 L 1.375 -6.53125 L 0.625 -6.53125 L 0.625 0 L 1.375 0 L 1.375 -2.59375 C 1.375 -3.546875 1.875 -4.171875 2.640625 -4.171875 C 3.171875 -4.171875 3.609375 -3.875 3.609375 -3.25 L 3.609375 0 Z M 4.34375 0 "/>
</symbol>
<symbol overflow="visible" id="glyph2-27">
<path style="stroke:none;" d="M 5.78125 -6.53125 L 4.890625 -6.53125 L 3.078125 -1 L 1.15625 -6.53125 L 0.265625 -6.53125 L 2.609375 0 L 3.515625 0 Z M 5.78125 -6.53125 "/>
</symbol>
<symbol overflow="visible" id="glyph2-28">
<path style="stroke:none;" d="M 4.109375 -1.3125 C 4.109375 -2.015625 3.71875 -2.359375 2.78125 -2.59375 L 2.0625 -2.75 C 1.453125 -2.90625 1.203125 -3.09375 1.203125 -3.421875 C 1.203125 -3.859375 1.578125 -4.140625 2.1875 -4.140625 C 2.796875 -4.140625 3.109375 -3.875 3.140625 -3.390625 L 3.921875 -3.390625 C 3.90625 -4.3125 3.296875 -4.828125 2.21875 -4.828125 C 1.125 -4.828125 0.421875 -4.265625 0.421875 -3.390625 C 0.421875 -2.65625 0.796875 -2.3125 1.90625 -2.046875 L 2.609375 -1.875 C 3.125 -1.75 3.328125 -1.59375 3.328125 -1.25 C 3.328125 -0.8125 2.890625 -0.5625 2.234375 -0.5625 C 1.5625 -0.5625 1.1875 -0.71875 1.09375 -1.4375 L 0.296875 -1.4375 C 0.34375 -0.34375 0.953125 0.140625 2.171875 0.140625 C 3.359375 0.140625 4.109375 -0.40625 4.109375 -1.3125 Z M 4.109375 -1.3125 "/>
</symbol>
<symbol overflow="visible" id="glyph2-29">
<path style="stroke:none;" d="M 4.375 -0.765625 L 4.375 -4.6875 L 3.6875 -4.6875 L 3.6875 -4.015625 C 3.3125 -4.5625 2.859375 -4.828125 2.25 -4.828125 C 1.0625 -4.828125 0.265625 -3.828125 0.265625 -2.296875 C 0.265625 -0.828125 1.09375 0.140625 2.1875 0.140625 C 2.78125 0.140625 3.203125 -0.109375 3.6875 -0.703125 L 3.6875 -0.390625 C 3.6875 0.84375 3.171875 1.328125 2.3125 1.328125 C 1.71875 1.328125 1.265625 1.109375 1.171875 0.53125 L 0.40625 0.53125 C 0.5 1.421875 1.1875 1.953125 2.28125 1.953125 C 3.75 1.953125 4.375 1.296875 4.375 -0.765625 Z M 3.609375 -2.3125 C 3.609375 -1.203125 3.140625 -0.5625 2.34375 -0.5625 C 1.53125 -0.5625 1.03125 -1.203125 1.03125 -2.34375 C 1.03125 -3.46875 1.546875 -4.140625 2.34375 -4.140625 C 3.140625 -4.140625 3.609375 -3.453125 3.609375 -2.3125 Z M 3.828125 -6.46875 L 3.34375 -6.46875 C 3.203125 -6.109375 2.84375 -5.875 2.46875 -5.875 C 2.078125 -5.875 1.734375 -6.109375 1.578125 -6.46875 L 1.09375 -6.46875 C 1.09375 -5.78125 1.734375 -5.265625 2.46875 -5.265625 C 3.1875 -5.265625 3.828125 -5.78125 3.828125 -6.46875 Z M 3.828125 -6.46875 "/>
</symbol>
<symbol overflow="visible" id="glyph2-30">
<path style="stroke:none;" d="M 4.09375 0 L 4.09375 -0.65625 L 1.1875 -0.65625 L 3.96875 -4.03125 L 3.96875 -4.6875 L 0.46875 -4.6875 L 0.46875 -4.03125 L 3.078125 -4.03125 L 0.28125 -0.671875 L 0.28125 0 Z M 4.09375 0 "/>
</symbol>
<symbol overflow="visible" id="glyph2-31">
<path style="stroke:none;" d="M 6.0625 -2.375 L 5.203125 -2.375 C 5 -1.140625 4.484375 -0.578125 3.390625 -0.578125 C 2.09375 -0.578125 1.265625 -1.5625 1.265625 -3.203125 C 1.265625 -4.875 2.046875 -5.953125 3.3125 -5.953125 C 4.328125 -5.953125 4.875 -5.5 5.078125 -4.5 L 5.921875 -4.5 C 5.671875 -5.9375 4.84375 -6.6875 3.40625 -6.6875 C 1.4375 -6.6875 0.4375 -5.09375 0.4375 -3.1875 C 0.4375 -1.28125 1.453125 0.15625 3.375 0.15625 C 4.96875 0.15625 5.859375 -0.6875 6.0625 -2.375 Z M 6.0625 -2.375 "/>
</symbol>
<symbol overflow="visible" id="glyph2-32">
<path style="stroke:none;" d="M 3.109375 0 L 3.109375 -6.34375 L 2.59375 -6.34375 C 2.3125 -5.375 2.125 -5.234375 0.90625 -5.078125 L 0.90625 -4.515625 L 2.3125 -4.515625 L 2.3125 0 Z M 3.109375 0 "/>
</symbol>
<symbol overflow="visible" id="glyph2-33">
<path style="stroke:none;" d="M 4.578125 -4.484375 C 4.578125 -5.5625 3.75 -6.34375 2.546875 -6.34375 C 1.25 -6.34375 0.5 -5.6875 0.453125 -4.140625 L 1.234375 -4.140625 C 1.296875 -5.203125 1.734375 -5.65625 2.515625 -5.65625 C 3.234375 -5.65625 3.765625 -5.140625 3.765625 -4.46875 C 3.765625 -3.96875 3.46875 -3.53125 2.90625 -3.21875 L 2.09375 -2.75 C 0.765625 -2 0.375 -1.390625 0.296875 0 L 4.53125 0 L 4.53125 -0.78125 L 1.1875 -0.78125 C 1.265625 -1.296875 1.5625 -1.625 2.34375 -2.09375 L 3.234375 -2.5625 C 4.125 -3.046875 4.578125 -3.703125 4.578125 -4.484375 Z M 4.578125 -4.484375 "/>
</symbol>
<symbol overflow="visible" id="glyph2-34">
<path style="stroke:none;" d="M 4.59375 -1.796875 C 4.59375 -2.5 4.234375 -2.984375 3.5 -3.34375 C 4.15625 -3.734375 4.375 -4.0625 4.375 -4.65625 C 4.375 -5.65625 3.59375 -6.34375 2.46875 -6.34375 C 1.34375 -6.34375 0.5625 -5.65625 0.5625 -4.65625 C 0.5625 -4.0625 0.765625 -3.75 1.421875 -3.34375 C 0.6875 -2.984375 0.328125 -2.5 0.328125 -1.796875 C 0.328125 -0.640625 1.203125 0.140625 2.46875 0.140625 C 3.71875 0.140625 4.59375 -0.640625 4.59375 -1.796875 Z M 3.5625 -4.640625 C 3.5625 -4.046875 3.125 -3.65625 2.46875 -3.65625 C 1.796875 -3.65625 1.359375 -4.046875 1.359375 -4.640625 C 1.359375 -5.25 1.796875 -5.65625 2.46875 -5.65625 C 3.140625 -5.65625 3.5625 -5.25 3.5625 -4.640625 Z M 3.78125 -1.78125 C 3.78125 -1.03125 3.25 -0.5625 2.4375 -0.5625 C 1.671875 -0.5625 1.140625 -1.03125 1.140625 -1.78125 C 1.140625 -2.53125 1.671875 -2.984375 2.46875 -2.984375 C 3.25 -2.984375 3.78125 -2.53125 3.78125 -1.78125 Z M 3.78125 -1.78125 "/>
</symbol>
<symbol overflow="visible" id="glyph2-35">
<path style="stroke:none;" d="M 5.484375 0 L 5.484375 -0.734375 L 1.640625 -0.734375 L 1.640625 -2.96875 L 5.1875 -2.96875 L 5.1875 -3.703125 L 1.640625 -3.703125 L 1.640625 -5.796875 L 5.328125 -5.796875 L 5.328125 -6.53125 L 0.8125 -6.53125 L 0.8125 0 Z M 5.484375 0 "/>
</symbol>
<symbol overflow="visible" id="glyph2-36">
<path style="stroke:none;" d="M 5.5625 -1.796875 C 5.5625 -2.59375 5.0625 -3.1875 4.171875 -3.421875 L 2.53125 -3.875 C 1.75 -4.078125 1.453125 -4.328125 1.453125 -4.828125 C 1.453125 -5.5 2.046875 -5.984375 2.921875 -5.984375 C 3.953125 -5.984375 4.546875 -5.515625 4.546875 -4.671875 L 5.34375 -4.671875 C 5.34375 -5.9375 4.453125 -6.6875 2.953125 -6.6875 C 1.515625 -6.6875 0.625 -5.90625 0.625 -4.71875 C 0.625 -3.921875 1.046875 -3.421875 1.90625 -3.203125 L 3.53125 -2.765625 C 4.34375 -2.546875 4.734375 -2.21875 4.734375 -1.703125 C 4.734375 -1 4.1875 -0.578125 3.0625 -0.578125 C 1.828125 -0.578125 1.21875 -1.1875 1.21875 -2.125 L 0.4375 -2.125 C 0.4375 -0.578125 1.46875 0.15625 3.015625 0.15625 C 4.671875 0.15625 5.5625 -0.625 5.5625 -1.796875 Z M 5.5625 -1.796875 "/>
</symbol>
<symbol overflow="visible" id="glyph2-37">
<path style="stroke:none;" d="M 2.546875 -2.15625 L 2.546875 -2.796875 L 0.40625 -2.796875 L 0.40625 -2.15625 Z M 2.546875 -2.15625 "/>
</symbol>
<symbol overflow="visible" id="glyph2-38">
<path style="stroke:none;" d="M 6.34375 0 L 6.34375 -3.453125 L 3.625 -3.453125 L 3.625 -2.71875 L 5.609375 -2.71875 L 5.609375 -2.53125 C 5.609375 -1.375 4.75 -0.578125 3.5625 -0.578125 C 2.09375 -0.578125 1.234375 -1.640625 1.234375 -3.234375 C 1.234375 -4.84375 2.140625 -5.953125 3.515625 -5.953125 C 4.515625 -5.953125 5.234375 -5.390625 5.40625 -4.546875 L 6.265625 -4.546875 C 6.03125 -5.875 5.015625 -6.6875 3.53125 -6.6875 C 1.53125 -6.6875 0.390625 -5.140625 0.390625 -3.203125 C 0.390625 -1.1875 1.625 0.15625 3.390625 0.15625 C 4.265625 0.15625 4.984375 -0.15625 5.609375 -0.859375 L 5.8125 0 Z M 6.34375 0 "/>
</symbol>
<symbol overflow="visible" id="glyph2-39">
<path style="stroke:none;" d="M 6.8125 0 L 6.8125 -6.53125 L 5.65625 -6.53125 L 3.765625 -0.84375 L 1.828125 -6.53125 L 0.671875 -6.53125 L 0.671875 0 L 1.453125 0 L 1.453125 -5.46875 L 3.3125 0 L 4.1875 0 L 6.03125 -5.46875 L 6.03125 0 Z M 6.8125 0 "/>
</symbol>
<symbol overflow="visible" id="glyph2-40">
<path style="stroke:none;" d="M 4.109375 -1.3125 C 4.109375 -2.015625 3.71875 -2.359375 2.78125 -2.59375 L 2.0625 -2.75 C 1.453125 -2.90625 1.203125 -3.09375 1.203125 -3.421875 C 1.203125 -3.859375 1.578125 -4.140625 2.1875 -4.140625 C 2.796875 -4.140625 3.109375 -3.875 3.140625 -3.390625 L 3.921875 -3.390625 C 3.90625 -4.3125 3.296875 -4.828125 2.21875 -4.828125 C 1.125 -4.828125 0.421875 -4.265625 0.421875 -3.390625 C 0.421875 -2.65625 0.796875 -2.3125 1.90625 -2.046875 L 2.609375 -1.875 C 3.125 -1.75 3.328125 -1.59375 3.328125 -1.25 C 3.328125 -0.8125 2.890625 -0.5625 2.234375 -0.5625 C 1.5625 -0.5625 1.1875 -0.71875 1.09375 -1.4375 L 0.296875 -1.4375 C 0.34375 -0.40625 0.890625 0.078125 1.984375 0.140625 L 1.6875 0.828125 L 1.828125 0.9375 C 1.953125 0.90625 2 0.890625 2.109375 0.890625 C 2.375 0.890625 2.53125 1.078125 2.53125 1.296875 C 2.53125 1.515625 2.3125 1.6875 2.046875 1.6875 C 1.8125 1.6875 1.65625 1.640625 1.25 1.4375 L 1.15625 1.390625 L 0.96875 1.75 C 1.53125 2 1.75 2.0625 2.09375 2.0625 C 2.78125 2.0625 3.203125 1.734375 3.203125 1.234375 C 3.203125 0.84375 2.9375 0.484375 2.484375 0.484375 L 2.28125 0.484375 L 2.421875 0.125 C 3.46875 0.046875 4.109375 -0.46875 4.109375 -1.3125 Z M 4.109375 -1.3125 "/>
</symbol>
<symbol overflow="visible" id="glyph3-0">
<path style="stroke:none;" d=""/>
</symbol>
<symbol overflow="visible" id="glyph3-1">
<path style="stroke:none;" d="M 6.421875 0 L 3.53125 -3.71875 L 6.140625 -6.53125 L 4.5625 -6.53125 L 2 -3.65625 L 2 -6.53125 L 0.65625 -6.53125 L 0.65625 0 L 2 0 L 2 -2.1875 L 2.671875 -2.890625 L 4.8125 0 Z M 6.421875 0 "/>
</symbol>
<symbol overflow="visible" id="glyph3-2">
<path style="stroke:none;" d="M 6.640625 -3.21875 C 6.640625 -5.1875 5.40625 -6.640625 3.484375 -6.640625 C 1.578125 -6.640625 0.359375 -5.140625 0.359375 -3.265625 C 0.359375 -1.3125 1.578125 0.109375 3.5 0.109375 C 5.40625 0.109375 6.640625 -1.3125 6.640625 -3.21875 Z M 5.296875 -3.234375 C 5.296875 -1.890625 4.578125 -1.03125 3.5 -1.03125 C 2.421875 -1.03125 1.703125 -1.890625 1.703125 -3.265625 C 1.703125 -4.578125 2.421875 -5.484375 3.5 -5.484375 C 4.609375 -5.484375 5.296875 -4.59375 5.296875 -3.234375 Z M 3.1875 -7.140625 L 3.1875 -8.171875 L 2.0625 -8.171875 L 2.0625 -7.140625 Z M 4.9375 -7.140625 L 4.9375 -8.171875 L 3.8125 -8.171875 L 3.8125 -7.140625 Z M 4.9375 -7.140625 "/>
</symbol>
<symbol overflow="visible" id="glyph3-3">
<path style="stroke:none;" d="M 5.359375 -5.40625 L 5.359375 -6.53125 L 0.125 -6.53125 L 0.125 -5.40625 L 2.109375 -5.40625 L 2.109375 0 L 3.453125 0 L 3.453125 -5.40625 Z M 5.359375 -5.40625 "/>
</symbol>
<symbol overflow="visible" id="glyph3-4">
<path style="stroke:none;" d="M 5.859375 -2.203125 L 5.859375 -6.53125 L 4.515625 -6.53125 L 4.515625 -2.203125 C 4.515625 -1.421875 4.109375 -1.03125 3.265625 -1.03125 C 2.421875 -1.03125 2.015625 -1.421875 2.015625 -2.203125 L 2.015625 -6.53125 L 0.6875 -6.53125 L 0.6875 -2.203125 C 0.6875 -0.65625 1.765625 0.109375 3.265625 0.109375 C 4.765625 0.109375 5.859375 -0.65625 5.859375 -2.203125 Z M 2.921875 -7.140625 L 2.921875 -8.171875 L 1.796875 -8.171875 L 1.796875 -7.140625 Z M 4.671875 -7.140625 L 4.671875 -8.171875 L 3.546875 -8.171875 L 3.546875 -7.140625 Z M 4.671875 -7.140625 "/>
</symbol>
<symbol overflow="visible" id="glyph3-5">
<path style="stroke:none;" d="M 1.90625 0 L 1.90625 -6.53125 L 0.5625 -6.53125 L 0.5625 0 Z M 1.875 -7.015625 L 1.875 -8.265625 L 0.625 -8.265625 L 0.625 -7.015625 Z M 1.875 -7.015625 "/>
</symbol>
<symbol overflow="visible" id="glyph3-6">
<path style="stroke:none;" d="M 5.8125 -6.53125 L 4.3125 -6.53125 L 3.078125 -3.640625 L 1.734375 -6.53125 L 0.234375 -6.53125 L 2.40625 -2.421875 L 2.40625 0 L 3.75 0 L 3.75 -2.421875 Z M 5.8125 -6.53125 "/>
</symbol>
<symbol overflow="visible" id="glyph3-7">
<path style="stroke:none;" d="M 5.171875 0 L 5.171875 -1.125 L 1.84375 -1.125 L 5.171875 -5.40625 L 5.171875 -6.53125 L 0.265625 -6.53125 L 0.265625 -5.40625 L 3.609375 -5.40625 L 0.265625 -1.125 L 0.265625 0 Z M 5.171875 0 "/>
</symbol>
<symbol overflow="visible" id="glyph3-8">
<path style="stroke:none;" d="M 4.6875 0 L 4.6875 -0.15625 C 4.46875 -0.359375 4.40625 -0.5 4.40625 -0.75 L 4.40625 -3.421875 C 4.40625 -4.40625 3.734375 -4.921875 2.421875 -4.921875 C 1.125 -4.921875 0.4375 -4.359375 0.359375 -3.234375 L 1.5625 -3.234375 C 1.625 -3.75 1.828125 -3.90625 2.453125 -3.90625 C 2.9375 -3.90625 3.171875 -3.75 3.171875 -3.421875 C 3.171875 -2.90625 2.796875 -2.96875 2.171875 -2.859375 L 1.671875 -2.765625 C 0.71875 -2.59375 0.25 -2.1875 0.25 -1.3125 C 0.25 -0.359375 0.90625 0.078125 1.71875 0.078125 C 2.25 0.078125 2.75 -0.15625 3.1875 -0.609375 C 3.1875 -0.359375 3.21875 -0.140625 3.328125 0 Z M 3.171875 -2.0625 C 3.171875 -1.34375 2.8125 -0.9375 2.1875 -0.9375 C 1.765625 -0.9375 1.5 -1.09375 1.5 -1.453125 C 1.5 -1.8125 1.703125 -1.953125 2.21875 -2.046875 L 2.65625 -2.125 C 2.984375 -2.1875 3.03125 -2.21875 3.171875 -2.28125 Z M 3.171875 -2.0625 "/>
</symbol>
<symbol overflow="visible" id="glyph3-9">
<path style="stroke:none;" d="M 4.8125 -4.828125 L 3.53125 -4.828125 L 2.53125 -1.3125 L 1.453125 -4.828125 L 0.078125 -4.828125 L 1.875 0.203125 L 1.875 0.234375 C 1.875 0.6875 1.546875 1.03125 1.09375 1.03125 C 1 1.03125 0.9375 1.03125 0.765625 0.984375 L 0.765625 1.921875 C 0.953125 1.953125 1.0625 1.953125 1.21875 1.953125 C 2.0625 1.953125 2.5 1.8125 2.828125 0.890625 Z M 4.8125 -4.828125 "/>
</symbol>
<symbol overflow="visible" id="glyph3-10">
<path style="stroke:none;" d="M 1.859375 0 L 1.859375 -4.828125 L 0.59375 -4.828125 L 0.59375 0 Z M 1.859375 0 "/>
</symbol>
<symbol overflow="visible" id="glyph3-11">
<path style="stroke:none;" d="M 2.796875 -3.90625 L 2.796875 -4.734375 L 2.0625 -4.734375 L 2.0625 -5.203125 C 2.0625 -5.46875 2.171875 -5.59375 2.40625 -5.59375 C 2.5 -5.59375 2.65625 -5.578125 2.75 -5.5625 L 2.75 -6.5 C 2.53125 -6.515625 2.21875 -6.53125 2.046875 -6.53125 C 1.203125 -6.53125 0.8125 -6.140625 0.8125 -5.3125 L 0.8125 -4.734375 L 0.125 -4.734375 L 0.125 -3.90625 L 0.8125 -3.90625 L 0.8125 0 L 2.0625 0 L 2.0625 -3.90625 Z M 2.796875 -3.90625 "/>
</symbol>
<symbol overflow="visible" id="glyph3-12">
<path style="stroke:none;" d="M 4.84375 0.15625 L 4.84375 -4.828125 L 3.65625 -4.828125 L 3.65625 -4.09375 C 3.28125 -4.671875 2.859375 -4.921875 2.3125 -4.921875 C 1.15625 -4.921875 0.296875 -3.859375 0.296875 -2.359375 C 0.296875 -0.859375 1.09375 0.078125 2.28125 0.078125 C 2.84375 0.078125 3.1875 -0.09375 3.65625 -0.5625 L 3.65625 0.15625 C 3.65625 0.75 3.21875 1.140625 2.59375 1.140625 C 2.109375 1.140625 1.796875 0.953125 1.703125 0.578125 L 0.40625 0.578125 C 0.421875 1.375 1.21875 1.953125 2.546875 1.953125 C 4 1.953125 4.84375 1.296875 4.84375 0.15625 Z M 3.671875 -2.375 C 3.671875 -1.5 3.21875 -0.96875 2.5625 -0.96875 C 1.96875 -0.96875 1.5625 -1.5 1.5625 -2.375 C 1.5625 -3.296875 1.96875 -3.875 2.578125 -3.875 C 3.203125 -3.875 3.671875 -3.28125 3.671875 -2.375 Z M 3.671875 -2.375 "/>
</symbol>
<symbol overflow="visible" id="glyph3-13">
<path style="stroke:none;" d="M 4.703125 -2.234375 C 4.703125 -3.90625 3.859375 -4.921875 2.4375 -4.921875 C 1.046875 -4.921875 0.203125 -3.96875 0.203125 -2.359375 C 0.203125 -0.8125 1.03125 0.078125 2.40625 0.078125 C 3.484375 0.078125 4.375 -0.40625 4.640625 -1.359375 L 3.40625 -1.359375 C 3.296875 -1.015625 2.90625 -0.875 2.453125 -0.875 C 1.859375 -0.875 1.484375 -1.140625 1.453125 -2.09375 L 4.6875 -2.09375 Z M 3.390625 -2.921875 L 1.46875 -2.921875 C 1.546875 -3.59375 1.859375 -3.953125 2.421875 -3.953125 C 2.953125 -3.953125 3.328125 -3.609375 3.390625 -2.921875 Z M 3.390625 -2.921875 "/>
</symbol>
<symbol overflow="visible" id="glyph3-14">
<path style="stroke:none;" d="M 3.3125 -3.640625 L 3.3125 -4.90625 C 3.234375 -4.921875 3.203125 -4.921875 3.15625 -4.921875 C 2.59375 -4.921875 2.09375 -4.546875 1.8125 -3.890625 L 1.8125 -4.828125 L 0.5625 -4.828125 L 0.5625 0 L 1.8125 0 L 1.8125 -2.5625 C 1.8125 -3.296875 2.1875 -3.671875 2.921875 -3.671875 C 3.046875 -3.671875 3.140625 -3.65625 3.3125 -3.640625 Z M 3.3125 -3.640625 "/>
</symbol>
<symbol overflow="visible" id="glyph3-15">
<path style="stroke:none;" d="M 4.90625 0 L 3.140625 -3.015625 L 4.796875 -4.828125 L 3.359375 -4.828125 L 1.78125 -2.953125 L 1.78125 -6.53125 L 0.53125 -6.53125 L 0.53125 0 L 1.78125 0 L 1.78125 -1.578125 L 2.28125 -2.125 L 3.4375 0 Z M 4.90625 0 "/>
</symbol>
<symbol overflow="visible" id="glyph3-16">
<path style="stroke:none;" d="M 4.65625 -1.4375 L 4.65625 -1.5 C 4.65625 -2.046875 4.34375 -2.46875 3.703125 -2.65625 L 2.125 -3.109375 C 1.765625 -3.203125 1.6875 -3.28125 1.6875 -3.484375 C 1.6875 -3.75 1.96875 -3.9375 2.40625 -3.9375 C 3.015625 -3.9375 3.296875 -3.71875 3.3125 -3.28125 L 4.515625 -3.28125 C 4.5 -4.296875 3.71875 -4.921875 2.421875 -4.921875 C 1.1875 -4.921875 0.4375 -4.296875 0.4375 -3.296875 C 0.4375 -2.71875 0.59375 -2.390625 1.484375 -2.109375 L 2.984375 -1.640625 C 3.296875 -1.546875 3.40625 -1.453125 3.40625 -1.3125 C 3.40625 -1.015625 3.046875 -0.90625 2.46875 -0.90625 C 1.890625 -0.90625 1.59375 -1.015625 1.484375 -1.53125 L 0.265625 -1.53125 C 0.296875 -0.46875 1.078125 0.078125 2.546875 0.078125 C 3.90625 0.078125 4.65625 -0.453125 4.65625 -1.4375 Z M 4.65625 -1.4375 "/>
</symbol>
<symbol overflow="visible" id="glyph3-17">
<path style="stroke:none;" d="M 1.859375 0 L 1.859375 -4.828125 L 0.59375 -4.828125 L 0.59375 0 Z M 1.875 -5.421875 L 1.875 -6.671875 L 0.625 -6.671875 L 0.625 -5.421875 Z M 1.875 -5.421875 "/>
</symbol>
<symbol overflow="visible" id="glyph3-18">
<path style="stroke:none;" d="M 4.890625 0 L 4.890625 -3.234375 C 4.890625 -4.3125 4.296875 -4.921875 3.265625 -4.921875 C 2.609375 -4.921875 2.171875 -4.671875 1.8125 -4.140625 L 1.8125 -4.828125 L 0.5625 -4.828125 L 0.5625 0 L 1.8125 0 L 1.8125 -2.90625 C 1.8125 -3.46875 2.21875 -3.84375 2.828125 -3.84375 C 3.359375 -3.84375 3.640625 -3.546875 3.640625 -2.984375 L 3.640625 0 Z M 4.890625 0 "/>
</symbol>
<symbol overflow="visible" id="glyph3-19">
<path style="stroke:none;" d="M 7.375 0 L 7.375 -3.421875 C 7.375 -4.359375 6.796875 -4.921875 5.84375 -4.921875 C 5.234375 -4.921875 4.796875 -4.703125 4.421875 -4.203125 C 4.1875 -4.65625 3.703125 -4.921875 3.109375 -4.921875 C 2.546875 -4.921875 2.1875 -4.734375 1.78125 -4.234375 L 1.78125 -4.828125 L 0.53125 -4.828125 L 0.53125 0 L 1.796875 0 L 1.796875 -2.90625 C 1.796875 -3.484375 2.109375 -3.84375 2.65625 -3.84375 C 3.078125 -3.84375 3.328125 -3.609375 3.328125 -3.21875 L 3.328125 0 L 4.578125 0 L 4.578125 -2.90625 C 4.578125 -3.484375 4.90625 -3.84375 5.4375 -3.84375 C 5.859375 -3.84375 6.125 -3.609375 6.125 -3.21875 L 6.125 0 Z M 7.375 0 "/>
</symbol>
<symbol overflow="visible" id="glyph3-20">
<path style="stroke:none;" d="M 2.6875 0 L 2.6875 -0.875 C 2.5625 -0.859375 2.5 -0.84375 2.40625 -0.84375 C 2.078125 -0.84375 2 -0.953125 2 -1.375 L 2 -3.90625 L 2.6875 -3.90625 L 2.6875 -4.734375 L 2 -4.734375 L 2 -6.03125 L 0.75 -6.03125 L 0.75 -4.734375 L 0.125 -4.734375 L 0.125 -3.90625 L 0.75 -3.90625 L 0.75 -1.03125 C 0.75 -0.28125 1.140625 0.03125 1.96875 0.03125 C 2.25 0.03125 2.46875 0.015625 2.6875 0 Z M 2.6875 0 "/>
</symbol>
<symbol overflow="visible" id="glyph3-21">
<path style="stroke:none;" d="M 4.875 0 L 4.875 -6.53125 L 3.625 -6.53125 L 3.625 -4.203125 C 3.3125 -4.6875 2.890625 -4.921875 2.296875 -4.921875 C 1.140625 -4.921875 0.265625 -3.875 0.265625 -2.40625 C 0.265625 -1.03125 1.015625 0.078125 2.296875 0.078125 C 2.890625 0.078125 3.3125 -0.140625 3.625 -0.5625 L 3.625 0 Z M 3.625 -2.390625 C 3.625 -1.515625 3.203125 -0.96875 2.5625 -0.96875 C 1.9375 -0.96875 1.515625 -1.515625 1.515625 -2.40625 C 1.515625 -3.296875 1.9375 -3.875 2.5625 -3.875 C 3.203125 -3.875 3.625 -3.3125 3.625 -2.390625 Z M 3.625 -2.390625 "/>
</symbol>
<symbol overflow="visible" id="glyph3-22">
<path style="stroke:none;" d="M 1.859375 0 L 1.859375 -6.53125 L 0.59375 -6.53125 L 0.59375 0 Z M 1.859375 0 "/>
</symbol>
<symbol overflow="visible" id="glyph3-23">
<path style="stroke:none;" d="M 4.1875 0 L 4.1875 -1.015625 L 1.734375 -1.015625 L 4.109375 -3.828125 L 4.109375 -4.828125 L 0.34375 -4.828125 L 0.34375 -3.828125 L 2.578125 -3.828125 L 0.1875 -1.015625 L 0.1875 0 Z M 4.1875 0 "/>
</symbol>
<symbol overflow="visible" id="glyph3-24">
<path style="stroke:none;" d="M 2.171875 -0.078125 L 2.171875 -1.3125 L 0.828125 -1.3125 L 0.828125 0 L 1.59375 0 L 1.59375 0.03125 C 1.59375 0.640625 1.359375 0.953125 0.828125 1.0625 L 0.828125 1.5625 C 1.1875 1.515625 1.4375 1.421875 1.6875 1.234375 C 2.046875 0.953125 2.171875 0.625 2.171875 -0.078125 Z M 2.171875 -3.34375 L 2.171875 -4.65625 L 0.828125 -4.65625 L 0.828125 -3.34375 Z M 2.171875 -3.34375 "/>
</symbol>
<symbol overflow="visible" id="glyph3-25">
<path style="stroke:none;" d="M 4.65625 -1.4375 L 4.65625 -1.5 C 4.65625 -2.046875 4.34375 -2.46875 3.703125 -2.65625 L 2.125 -3.109375 C 1.765625 -3.203125 1.6875 -3.28125 1.6875 -3.484375 C 1.6875 -3.75 1.96875 -3.9375 2.40625 -3.9375 C 3.015625 -3.9375 3.296875 -3.71875 3.3125 -3.28125 L 4.515625 -3.28125 C 4.5 -4.296875 3.71875 -4.921875 2.421875 -4.921875 C 1.1875 -4.921875 0.4375 -4.296875 0.4375 -3.296875 C 0.4375 -2.71875 0.59375 -2.390625 1.484375 -2.109375 L 2.984375 -1.640625 C 3.296875 -1.546875 3.40625 -1.453125 3.40625 -1.3125 C 3.40625 -1.015625 3.046875 -0.90625 2.46875 -0.90625 C 1.890625 -0.90625 1.59375 -1.015625 1.484375 -1.53125 L 0.265625 -1.53125 C 0.296875 -0.578125 0.921875 -0.03125 2.109375 0.0625 L 1.734375 0.875 L 2.296875 0.875 C 2.578125 0.875 2.75 0.96875 2.75 1.15625 C 2.75 1.359375 2.53125 1.515625 2.25 1.515625 C 2 1.515625 1.78125 1.453125 1.3125 1.25 L 1.140625 1.796875 C 1.71875 2 1.984375 2.046875 2.375 2.046875 C 3.109375 2.046875 3.53125 1.671875 3.53125 1.140625 C 3.53125 0.75 3.265625 0.453125 2.84375 0.453125 L 2.484375 0.453125 L 2.671875 0.078125 C 3.953125 0.046875 4.65625 -0.484375 4.65625 -1.4375 Z M 4.65625 -1.4375 "/>
</symbol>
<symbol overflow="visible" id="glyph3-26">
<path style="stroke:none;" d="M 4.84375 0.15625 L 4.84375 -4.828125 L 3.65625 -4.828125 L 3.65625 -4.09375 C 3.28125 -4.671875 2.859375 -4.921875 2.3125 -4.921875 C 1.15625 -4.921875 0.296875 -3.859375 0.296875 -2.359375 C 0.296875 -0.859375 1.09375 0.078125 2.28125 0.078125 C 2.84375 0.078125 3.1875 -0.09375 3.65625 -0.5625 L 3.65625 0.15625 C 3.65625 0.75 3.21875 1.140625 2.59375 1.140625 C 2.109375 1.140625 1.796875 0.953125 1.703125 0.578125 L 0.40625 0.578125 C 0.421875 1.375 1.21875 1.953125 2.546875 1.953125 C 4 1.953125 4.84375 1.296875 4.84375 0.15625 Z M 3.671875 -2.375 C 3.671875 -1.5 3.21875 -0.96875 2.5625 -0.96875 C 1.96875 -0.96875 1.5625 -1.5 1.5625 -2.375 C 1.5625 -3.296875 1.96875 -3.875 2.578125 -3.875 C 3.203125 -3.875 3.671875 -3.28125 3.671875 -2.375 Z M 4.1875 -6.71875 L 3.46875 -6.71875 C 3.46875 -6.34375 3.109375 -6.15625 2.71875 -6.15625 C 2.3125 -6.15625 1.953125 -6.34375 1.953125 -6.71875 L 1.25 -6.71875 C 1.25 -5.96875 1.953125 -5.375 2.71875 -5.375 C 3.46875 -5.375 4.1875 -5.96875 4.1875 -6.71875 Z M 4.1875 -6.71875 "/>
</symbol>
<symbol overflow="visible" id="glyph3-27">
<path style="stroke:none;" d="M 1.921875 0 L 1.921875 -1.3125 L 0.578125 -1.3125 L 0.578125 0 Z M 1.921875 0 "/>
</symbol>
<symbol overflow="visible" id="glyph4-0">
<path style="stroke:none;" d=""/>
</symbol>
<symbol overflow="visible" id="glyph4-1">
<path style="stroke:none;" d="M 7.625 -2.046875 C 6.546875 -1.296875 6.34375 -0.109375 6.34375 -0.015625 C 6.34375 0.109375 6.453125 0.109375 6.53125 0.109375 C 6.640625 0.109375 6.703125 0.109375 6.71875 -0.015625 C 6.96875 -1.0625 7.578125 -1.765625 8.5625 -2.125 C 8.609375 -2.140625 8.6875 -2.171875 8.6875 -2.234375 C 8.6875 -2.3125 8.625 -2.34375 8.5625 -2.359375 C 7.4375 -2.78125 6.9375 -3.578125 6.71875 -4.453125 C 6.703125 -4.578125 6.65625 -4.59375 6.53125 -4.59375 C 6.453125 -4.59375 6.34375 -4.59375 6.34375 -4.46875 C 6.34375 -4.375 6.546875 -3.1875 7.625 -2.4375 L 0.84375 -2.4375 C 0.6875 -2.4375 0.515625 -2.4375 0.515625 -2.25 C 0.515625 -2.046875 0.6875 -2.046875 0.84375 -2.046875 Z M 7.625 -2.046875 "/>
</symbol>
</g>
</defs>
<g id="surface1">
<g style="fill:rgb(0%,42.74292%,46.665955%);fill-opacity:1;">
  <use xlink:href="#glyph0-1" x="11.740709" y="19.942136"/>
</g>
<g style="fill:rgb(0%,42.74292%,46.665955%);fill-opacity:1;">
  <use xlink:href="#glyph0-2" x="19.935086" y="19.942136"/>
</g>
<g style="fill:rgb(0%,42.74292%,46.665955%);fill-opacity:1;">
  <use xlink:href="#glyph0-3" x="27.103674" y="19.942136"/>
  <use xlink:href="#glyph0-4" x="31.075621" y="19.942136"/>
</g>
<g style="fill:rgb(0%,42.74292%,46.665955%);fill-opacity:1;">
  <use xlink:href="#glyph0-5" x="41.679406" y="19.942136"/>
</g>
<g style="fill:rgb(0%,42.74292%,46.665955%);fill-opacity:1;">
  <use xlink:href="#glyph0-6" x="49.08655" y="19.942136"/>
  <use xlink:href="#glyph0-7" x="55.718389" y="19.942136"/>
</g>
<g style="fill:rgb(0%,42.74292%,46.665955%);fill-opacity:1;">
  <use xlink:href="#glyph0-6" x="60.41793" y="19.942136"/>
  <use xlink:href="#glyph0-8" x="67.049769" y="19.942136"/>
</g>
<g style="fill:rgb(0%,42.74292%,46.665955%);fill-opacity:1;">
  <use xlink:href="#glyph0-9" x="73.56233" y="19.942136"/>
  <use xlink:href="#glyph0-10" x="80.194169" y="19.942136"/>
  <use xlink:href="#glyph0-11" x="83.510089" y="19.942136"/>
  <use xlink:href="#glyph0-10" x="90.797955" y="19.942136"/>
  <use xlink:href="#glyph0-12" x="94.113874" y="19.942136"/>
</g>
<g style="fill:rgb(0%,42.74292%,46.665955%);fill-opacity:1;">
  <use xlink:href="#glyph1-1" x="108.033251" y="19.942136"/>
</g>
<g style="fill:rgb(0%,42.74292%,46.665955%);fill-opacity:1;">
  <use xlink:href="#glyph0-10" x="123.277192" y="19.942136"/>
  <use xlink:href="#glyph0-13" x="126.593111" y="19.942136"/>
  <use xlink:href="#glyph0-10" x="133.22495" y="19.942136"/>
</g>
<g style="fill:rgb(0%,42.74292%,46.665955%);fill-opacity:1;">
  <use xlink:href="#glyph0-5" x="139.856789" y="19.942136"/>
</g>
<g style="fill:rgb(0%,42.74292%,46.665955%);fill-opacity:1;">
  <use xlink:href="#glyph0-6" x="147.263933" y="19.942136"/>
  <use xlink:href="#glyph0-7" x="153.895772" y="19.942136"/>
</g>
<g style="fill:rgb(0%,42.74292%,46.665955%);fill-opacity:1;">
  <use xlink:href="#glyph0-6" x="158.595313" y="19.942136"/>
  <use xlink:href="#glyph0-8" x="165.227151" y="19.942136"/>
</g>
<g style="fill:rgb(0%,42.74292%,46.665955%);fill-opacity:1;">
  <use xlink:href="#glyph0-9" x="171.739713" y="19.942136"/>
  <use xlink:href="#glyph0-10" x="178.371552" y="19.942136"/>
  <use xlink:href="#glyph0-11" x="181.687471" y="19.942136"/>
  <use xlink:href="#glyph0-10" x="188.975337" y="19.942136"/>
  <use xlink:href="#glyph0-12" x="192.291257" y="19.942136"/>
</g>
<g style="fill:rgb(41.96167%,44.706726%,50.193787%);fill-opacity:1;">
  <use xlink:href="#glyph2-1" x="11.740709" y="36.197751"/>
</g>
<g style="fill:rgb(41.96167%,44.706726%,50.193787%);fill-opacity:1;">
  <use xlink:href="#glyph2-2" x="14.13819" y="36.197751"/>
  <use xlink:href="#glyph2-3" x="19.11207" y="36.197751"/>
</g>
<g style="fill:rgb(41.96167%,44.706726%,50.193787%);fill-opacity:1;">
  <use xlink:href="#glyph2-4" x="22.135759" y="36.197751"/>
  <use xlink:href="#glyph2-5" x="26.608672" y="36.197751"/>
</g>
<g style="fill:rgb(41.96167%,44.706726%,50.193787%);fill-opacity:1;">
  <use xlink:href="#glyph2-6" x="32.414513" y="36.197751"/>
  <use xlink:href="#glyph2-7" x="37.388392" y="36.197751"/>
  <use xlink:href="#glyph2-8" x="39.374365" y="36.197751"/>
  <use xlink:href="#glyph2-9" x="43.847278" y="36.197751"/>
  <use xlink:href="#glyph2-7" x="48.821157" y="36.197751"/>
  <use xlink:href="#glyph2-10" x="50.807131" y="36.197751"/>
  <use xlink:href="#glyph2-11" x="55.78101" y="36.197751"/>
  <use xlink:href="#glyph2-12" x="60.754889" y="36.197751"/>
  <use xlink:href="#glyph2-7" x="62.740863" y="36.197751"/>
  <use xlink:href="#glyph2-12" x="64.726836" y="36.197751"/>
  <use xlink:href="#glyph2-3" x="66.712809" y="36.197751"/>
</g>
<g style="fill:rgb(41.96167%,44.706726%,50.193787%);fill-opacity:1;">
  <use xlink:href="#glyph2-13" x="72.178709" y="36.197751"/>
  <use xlink:href="#glyph2-2" x="77.152588" y="36.197751"/>
</g>
<g style="fill:rgb(41.96167%,44.706726%,50.193787%);fill-opacity:1;">
  <use xlink:href="#glyph2-14" x="81.902822" y="36.197751"/>
</g>
<g style="fill:rgb(41.96167%,44.706726%,50.193787%);fill-opacity:1;">
  <use xlink:href="#glyph2-2" x="86.196818" y="36.197751"/>
  <use xlink:href="#glyph2-15" x="91.170697" y="36.197751"/>
  <use xlink:href="#glyph2-2" x="96.144577" y="36.197751"/>
  <use xlink:href="#glyph2-4" x="101.118456" y="36.197751"/>
</g>
<g style="fill:rgb(41.96167%,44.706726%,50.193787%);fill-opacity:1;">
  <use xlink:href="#glyph2-16" x="108.078308" y="36.197751"/>
</g>
<g style="fill:rgb(41.96167%,44.706726%,50.193787%);fill-opacity:1;">
  <use xlink:href="#glyph2-10" x="112.372305" y="36.197751"/>
</g>
<g style="fill:rgb(41.96167%,44.706726%,50.193787%);fill-opacity:1;">
  <use xlink:href="#glyph2-17" x="119.833124" y="36.197751"/>
</g>
<g style="fill:rgb(41.96167%,44.706726%,50.193787%);fill-opacity:1;">
  <use xlink:href="#glyph2-10" x="122.185876" y="36.197751"/>
  <use xlink:href="#glyph2-4" x="127.159755" y="36.197751"/>
  <use xlink:href="#glyph2-12" x="131.632668" y="36.197751"/>
  <use xlink:href="#glyph2-7" x="133.618642" y="36.197751"/>
</g>
<g style="fill:rgb(41.96167%,44.706726%,50.193787%);fill-opacity:1;">
  <use xlink:href="#glyph2-12" x="138.091554" y="36.197751"/>
  <use xlink:href="#glyph2-1" x="140.077528" y="36.197751"/>
</g>
<g style="fill:rgb(41.96167%,44.706726%,50.193787%);fill-opacity:1;">
  <use xlink:href="#glyph2-2" x="142.475009" y="36.197751"/>
  <use xlink:href="#glyph2-13" x="147.448888" y="36.197751"/>
  <use xlink:href="#glyph2-10" x="152.422768" y="36.197751"/>
</g>
<path style="fill-rule:nonzero;fill:rgb(99.215698%,91.764832%,91.764832%);fill-opacity:1;stroke-width:0.89664;stroke-linecap:butt;stroke-linejoin:round;stroke:rgb(75.292969%,22.3526%,16.862488%);stroke-opacity:1;stroke-miterlimit:10;" d="M 177.502726 -41.877696 L 3.435347 -41.877696 C 1.787033 -41.877696 0.448023 -43.216706 0.448023 -44.865019 L 0.448023 -174.952577 C 0.448023 -176.604806 1.787033 -177.9399 3.435347 -177.9399 L 177.502726 -177.9399 C 179.154955 -177.9399 180.490049 -176.604806 180.490049 -174.952577 L 180.490049 -44.865019 C 180.490049 -43.216706 179.154955 -41.877696 177.502726 -41.877696 Z M 177.502726 -41.877696 " transform="matrix(0.997705,0,0,-0.997705,8.228786,26.066052)"/>
<g style="fill:rgb(12.156677%,16.07666%,19.999695%);fill-opacity:1;">
  <use xlink:href="#glyph3-1" x="13.646326" y="105.710881"/>
</g>
<g style="fill:rgb(12.156677%,16.07666%,19.999695%);fill-opacity:1;">
  <use xlink:href="#glyph3-2" x="19.613192" y="105.710881"/>
</g>
<g style="fill:rgb(12.156677%,16.07666%,19.999695%);fill-opacity:1;">
  <use xlink:href="#glyph3-3" x="26.394128" y="105.710881"/>
  <use xlink:href="#glyph3-4" x="31.860028" y="105.710881"/>
</g>
<g style="fill:rgb(12.156677%,16.07666%,19.999695%);fill-opacity:1;">
  <use xlink:href="#glyph2-18" x="13.646326" y="122.300727"/>
  <use xlink:href="#glyph2-19" x="15.6323" y="122.300727"/>
  <use xlink:href="#glyph2-14" x="22.091186" y="122.300727"/>
</g>
<g style="fill:rgb(12.156677%,16.07666%,19.999695%);fill-opacity:1;">
  <use xlink:href="#glyph2-20" x="26.429912" y="122.300727"/>
  <use xlink:href="#glyph2-21" x="31.403791" y="122.300727"/>
  <use xlink:href="#glyph2-7" x="36.37767" y="122.300727"/>
  <use xlink:href="#glyph2-2" x="38.363643" y="122.300727"/>
  <use xlink:href="#glyph2-22" x="43.337523" y="122.300727"/>
  <use xlink:href="#glyph2-2" x="50.789396" y="122.300727"/>
</g>
<g style="fill:rgb(12.156677%,16.07666%,19.999695%);fill-opacity:1;">
  <use xlink:href="#glyph2-20" x="58.742235" y="122.300727"/>
  <use xlink:href="#glyph2-9" x="63.716114" y="122.300727"/>
  <use xlink:href="#glyph2-16" x="68.689993" y="122.300727"/>
</g>
<g style="fill:rgb(12.156677%,16.07666%,19.999695%);fill-opacity:1;">
  <use xlink:href="#glyph2-10" x="72.98399" y="122.300727"/>
  <use xlink:href="#glyph2-15" x="77.957869" y="122.300727"/>
  <use xlink:href="#glyph2-7" x="82.931748" y="122.300727"/>
  <use xlink:href="#glyph2-12" x="84.917722" y="122.300727"/>
</g>
<g style="fill:rgb(12.156677%,16.07666%,19.999695%);fill-opacity:1;">
  <use xlink:href="#glyph2-23" x="89.891601" y="122.300727"/>
  <use xlink:href="#glyph2-7" x="94.86548" y="122.300727"/>
  <use xlink:href="#glyph2-22" x="96.851453" y="122.300727"/>
  <use xlink:href="#glyph2-2" x="104.303326" y="122.300727"/>
  <use xlink:href="#glyph2-7" x="109.277206" y="122.300727"/>
  <use xlink:href="#glyph2-24" x="111.263179" y="122.300727"/>
  <use xlink:href="#glyph2-18" x="113.249152" y="122.300727"/>
</g>
<g style="fill:rgb(12.156677%,16.07666%,19.999695%);fill-opacity:1;">
  <use xlink:href="#glyph2-18" x="13.646326" y="136.062078"/>
</g>
<g style="fill:rgb(12.156677%,16.07666%,19.999695%);fill-opacity:1;">
  <use xlink:href="#glyph2-25" x="15.006092" y="136.062078"/>
  <use xlink:href="#glyph2-15" x="20.972958" y="136.062078"/>
  <use xlink:href="#glyph2-2" x="25.946837" y="136.062078"/>
  <use xlink:href="#glyph2-26" x="30.920716" y="136.062078"/>
  <use xlink:href="#glyph2-17" x="35.894595" y="136.062078"/>
  <use xlink:href="#glyph2-2" x="38.381535" y="136.062078"/>
  <use xlink:href="#glyph2-3" x="43.355414" y="136.062078"/>
  <use xlink:href="#glyph2-7" x="46.334374" y="136.062078"/>
  <use xlink:href="#glyph2-2" x="48.320348" y="136.062078"/>
  <use xlink:href="#glyph2-3" x="53.294227" y="136.062078"/>
</g>
<g style="fill:rgb(12.156677%,16.07666%,19.999695%);fill-opacity:1;">
  <use xlink:href="#glyph2-12" x="59.252147" y="136.062078"/>
  <use xlink:href="#glyph2-14" x="61.23812" y="136.062078"/>
  <use xlink:href="#glyph2-12" x="65.711033" y="136.062078"/>
</g>
<g style="fill:rgb(12.156677%,16.07666%,19.999695%);fill-opacity:1;">
  <use xlink:href="#glyph2-14" x="70.684913" y="136.062078"/>
</g>
<g style="fill:rgb(12.156677%,16.07666%,19.999695%);fill-opacity:1;">
  <use xlink:href="#glyph2-6" x="74.978909" y="136.062078"/>
  <use xlink:href="#glyph2-15" x="79.952788" y="136.062078"/>
  <use xlink:href="#glyph2-10" x="84.926667" y="136.062078"/>
</g>
<g style="fill:rgb(12.156677%,16.07666%,19.999695%);fill-opacity:1;">
  <use xlink:href="#glyph2-17" x="89.811088" y="136.062078"/>
  <use xlink:href="#glyph2-12" x="92.298028" y="136.062078"/>
  <use xlink:href="#glyph2-7" x="94.284001" y="136.062078"/>
  <use xlink:href="#glyph2-22" x="96.269975" y="136.062078"/>
  <use xlink:href="#glyph2-10" x="103.721848" y="136.062078"/>
  <use xlink:href="#glyph2-7" x="108.695727" y="136.062078"/>
  <use xlink:href="#glyph2-12" x="110.6817" y="136.062078"/>
  <use xlink:href="#glyph2-18" x="112.667674" y="136.062078"/>
</g>
<g style="fill:rgb(12.156677%,16.07666%,19.999695%);fill-opacity:1;">
  <use xlink:href="#glyph2-18" x="13.646326" y="149.824426"/>
  <use xlink:href="#glyph2-27" x="15.6323" y="149.824426"/>
</g>
<g style="fill:rgb(12.156677%,16.07666%,19.999695%);fill-opacity:1;">
  <use xlink:href="#glyph2-10" x="21.107145" y="149.824426"/>
  <use xlink:href="#glyph2-3" x="26.081024" y="149.824426"/>
  <use xlink:href="#glyph2-12" x="29.059984" y="149.824426"/>
  <use xlink:href="#glyph2-7" x="31.045958" y="149.824426"/>
  <use xlink:href="#glyph2-10" x="33.031931" y="149.824426"/>
  <use xlink:href="#glyph2-3" x="38.00581" y="149.824426"/>
</g>
<g style="fill:rgb(12.156677%,16.07666%,19.999695%);fill-opacity:1;">
  <use xlink:href="#glyph2-21" x="43.96373" y="149.824426"/>
  <use xlink:href="#glyph2-14" x="48.93761" y="149.824426"/>
</g>
<g style="fill:rgb(12.156677%,16.07666%,19.999695%);fill-opacity:1;">
  <use xlink:href="#glyph2-20" x="53.276335" y="149.824426"/>
  <use xlink:href="#glyph2-21" x="58.250214" y="149.824426"/>
  <use xlink:href="#glyph2-15" x="63.224094" y="149.824426"/>
</g>
<g style="fill:rgb(12.156677%,16.07666%,19.999695%);fill-opacity:1;">
  <use xlink:href="#glyph2-28" x="71.185879" y="149.824426"/>
  <use xlink:href="#glyph2-2" x="75.658792" y="149.824426"/>
  <use xlink:href="#glyph2-4" x="80.632671" y="149.824426"/>
  <use xlink:href="#glyph2-7" x="85.105584" y="149.824426"/>
  <use xlink:href="#glyph2-2" x="87.091557" y="149.824426"/>
  <use xlink:href="#glyph2-15" x="92.065437" y="149.824426"/>
  <use xlink:href="#glyph2-22" x="97.039316" y="149.824426"/>
  <use xlink:href="#glyph2-2" x="104.491189" y="149.824426"/>
  <use xlink:href="#glyph2-7" x="109.465068" y="149.824426"/>
  <use xlink:href="#glyph2-24" x="111.451041" y="149.824426"/>
  <use xlink:href="#glyph2-18" x="113.437015" y="149.824426"/>
</g>
<g style="fill:rgb(12.156677%,16.07666%,19.999695%);fill-opacity:1;">
  <use xlink:href="#glyph4-1" x="13.646326" y="172.070264"/>
</g>
<g style="fill:rgb(12.156677%,16.07666%,19.999695%);fill-opacity:1;">
  <use xlink:href="#glyph2-13" x="25.822323" y="172.070264"/>
  <use xlink:href="#glyph2-23" x="30.796203" y="172.070264"/>
  <use xlink:href="#glyph2-29" x="35.770082" y="172.070264"/>
  <use xlink:href="#glyph2-3" x="40.743961" y="172.070264"/>
  <use xlink:href="#glyph2-21" x="43.722921" y="172.070264"/>
  <use xlink:href="#glyph2-7" x="48.6968" y="172.070264"/>
  <use xlink:href="#glyph2-2" x="50.682774" y="172.070264"/>
  <use xlink:href="#glyph2-15" x="55.656653" y="172.070264"/>
  <use xlink:href="#glyph2-2" x="60.630532" y="172.070264"/>
  <use xlink:href="#glyph2-22" x="65.604411" y="172.070264"/>
  <use xlink:href="#glyph2-2" x="73.056284" y="172.070264"/>
  <use xlink:href="#glyph2-30" x="78.030164" y="172.070264"/>
</g>
<path style="fill-rule:nonzero;fill:rgb(91.764832%,95.684814%,91.764832%);fill-opacity:1;stroke-width:0.89664;stroke-linecap:butt;stroke-linejoin:round;stroke:rgb(18.03894%,49.01886%,19.607544%);stroke-opacity:1;stroke-miterlimit:10;" d="M 432.145617 -41.877696 L 258.078237 -41.877696 C 256.429924 -41.877696 255.090914 -43.216706 255.090914 -44.865019 L 255.090914 -174.952577 C 255.090914 -176.604806 256.429924 -177.9399 258.078237 -177.9399 L 432.145617 -177.9399 C 433.797845 -177.9399 435.13294 -176.604806 435.13294 -174.952577 L 435.13294 -44.865019 C 435.13294 -43.216706 433.797845 -41.877696 432.145617 -41.877696 Z M 432.145617 -41.877696 " transform="matrix(0.997705,0,0,-0.997705,8.228786,26.066052)"/>
<g style="fill:rgb(12.156677%,16.07666%,19.999695%);fill-opacity:1;">
  <use xlink:href="#glyph3-5" x="267.701038" y="109.514134"/>
  <use xlink:href="#glyph3-6" x="270.187978" y="109.514134"/>
  <use xlink:href="#glyph3-5" x="276.154844" y="109.514134"/>
</g>
<g style="fill:rgb(12.156677%,16.07666%,19.999695%);fill-opacity:1;">
  <use xlink:href="#glyph2-18" x="267.701038" y="126.10398"/>
  <use xlink:href="#glyph2-31" x="269.687012" y="126.10398"/>
</g>
<g style="fill:rgb(12.156677%,16.07666%,19.999695%);fill-opacity:1;">
  <use xlink:href="#glyph2-28" x="279.124858" y="126.10398"/>
  <use xlink:href="#glyph2-24" x="283.597771" y="126.10398"/>
  <use xlink:href="#glyph2-15" x="285.583744" y="126.10398"/>
  <use xlink:href="#glyph2-24" x="290.557624" y="126.10398"/>
  <use xlink:href="#glyph2-1" x="292.543597" y="126.10398"/>
  <use xlink:href="#glyph2-24" x="295.030537" y="126.10398"/>
</g>
<g style="fill:rgb(12.156677%,16.07666%,19.999695%);fill-opacity:1;">
  <use xlink:href="#glyph2-26" x="300.004416" y="126.10398"/>
  <use xlink:href="#glyph2-10" x="304.978295" y="126.10398"/>
  <use xlink:href="#glyph2-3" x="309.952174" y="126.10398"/>
</g>
<g style="fill:rgb(12.156677%,16.07666%,19.999695%);fill-opacity:1;">
  <use xlink:href="#glyph2-16" x="315.910094" y="126.10398"/>
</g>
<g style="fill:rgb(12.156677%,16.07666%,19.999695%);fill-opacity:1;">
  <use xlink:href="#glyph2-2" x="320.204091" y="126.10398"/>
  <use xlink:href="#glyph2-3" x="325.17797" y="126.10398"/>
  <use xlink:href="#glyph2-7" x="328.15693" y="126.10398"/>
  <use xlink:href="#glyph2-24" x="330.142903" y="126.10398"/>
  <use xlink:href="#glyph2-4" x="332.128877" y="126.10398"/>
</g>
<g style="fill:rgb(12.156677%,16.07666%,19.999695%);fill-opacity:1;">
  <use xlink:href="#glyph2-11" x="339.58075" y="126.10398"/>
  <use xlink:href="#glyph2-10" x="344.554629" y="126.10398"/>
  <use xlink:href="#glyph2-4" x="349.528508" y="126.10398"/>
  <use xlink:href="#glyph2-7" x="354.001421" y="126.10398"/>
  <use xlink:href="#glyph2-10" x="355.987395" y="126.10398"/>
  <use xlink:href="#glyph2-22" x="360.961274" y="126.10398"/>
  <use xlink:href="#glyph2-10" x="368.413147" y="126.10398"/>
  <use xlink:href="#glyph2-13" x="373.387026" y="126.10398"/>
  <use xlink:href="#glyph2-10" x="378.360905" y="126.10398"/>
</g>
<g style="fill:rgb(12.156677%,16.07666%,19.999695%);fill-opacity:1;">
  <use xlink:href="#glyph2-10" x="267.701038" y="137.037833"/>
  <use xlink:href="#glyph2-15" x="272.674918" y="137.037833"/>
</g>
<g style="fill:rgb(12.156677%,16.07666%,19.999695%);fill-opacity:1;">
  <use xlink:href="#glyph2-2" x="280.627757" y="137.037833"/>
  <use xlink:href="#glyph2-30" x="285.601636" y="137.037833"/>
</g>
<g style="fill:rgb(12.156677%,16.07666%,19.999695%);fill-opacity:1;">
  <use xlink:href="#glyph2-32" x="293.062455" y="137.037833"/>
  <use xlink:href="#glyph2-33" x="298.036334" y="137.037833"/>
  <use xlink:href="#glyph2-34" x="303.010213" y="137.037833"/>
</g>
<g style="fill:rgb(12.156677%,16.07666%,19.999695%);fill-opacity:1;">
  <use xlink:href="#glyph2-11" x="310.963053" y="137.037833"/>
  <use xlink:href="#glyph2-12" x="315.936932" y="137.037833"/>
  <use xlink:href="#glyph2-17" x="317.922905" y="137.037833"/>
</g>
<g style="fill:rgb(12.156677%,16.07666%,19.999695%);fill-opacity:1;">
  <use xlink:href="#glyph2-25" x="323.388805" y="137.037833"/>
  <use xlink:href="#glyph2-35" x="329.355671" y="137.037833"/>
  <use xlink:href="#glyph2-36" x="335.322537" y="137.037833"/>
  <use xlink:href="#glyph2-37" x="341.289403" y="137.037833"/>
  <use xlink:href="#glyph2-38" x="344.268363" y="137.037833"/>
  <use xlink:href="#glyph2-31" x="351.228215" y="137.037833"/>
  <use xlink:href="#glyph2-39" x="357.687101" y="137.037833"/>
</g>
<g style="fill:rgb(12.156677%,16.07666%,19.999695%);fill-opacity:1;">
  <use xlink:href="#glyph2-12" x="368.117935" y="137.037833"/>
  <use xlink:href="#glyph2-7" x="370.103908" y="137.037833"/>
  <use xlink:href="#glyph2-10" x="372.089881" y="137.037833"/>
</g>
<g style="fill:rgb(12.156677%,16.07666%,19.999695%);fill-opacity:1;">
  <use xlink:href="#glyph2-40" x="267.701038" y="147.971687"/>
  <use xlink:href="#glyph2-12" x="272.173951" y="147.971687"/>
  <use xlink:href="#glyph2-1" x="274.159925" y="147.971687"/>
  <use xlink:href="#glyph2-3" x="276.646864" y="147.971687"/>
</g>
<g style="fill:rgb(12.156677%,16.07666%,19.999695%);fill-opacity:1;">
  <use xlink:href="#glyph2-10" x="279.536366" y="147.971687"/>
  <use xlink:href="#glyph2-7" x="284.510245" y="147.971687"/>
  <use xlink:href="#glyph2-10" x="286.496219" y="147.971687"/>
  <use xlink:href="#glyph2-15" x="291.470098" y="147.971687"/>
  <use xlink:href="#glyph2-22" x="296.443977" y="147.971687"/>
  <use xlink:href="#glyph2-10" x="303.89585" y="147.971687"/>
  <use xlink:href="#glyph2-7" x="308.869729" y="147.971687"/>
  <use xlink:href="#glyph2-12" x="310.855703" y="147.971687"/>
  <use xlink:href="#glyph2-13" x="312.841676" y="147.971687"/>
  <use xlink:href="#glyph2-12" x="317.815555" y="147.971687"/>
  <use xlink:href="#glyph2-3" x="319.801529" y="147.971687"/>
  <use xlink:href="#glyph2-18" x="322.780489" y="147.971687"/>
</g>
<g style="fill:rgb(12.156677%,16.07666%,19.999695%);fill-opacity:1;">
  <use xlink:href="#glyph4-1" x="267.701038" y="170.217525"/>
</g>
<g style="fill:rgb(12.156677%,16.07666%,19.999695%);fill-opacity:1;">
  <use xlink:href="#glyph2-17" x="279.876038" y="170.217525"/>
</g>
<g style="fill:rgb(12.156677%,16.07666%,19.999695%);fill-opacity:1;">
  <use xlink:href="#glyph2-10" x="282.22879" y="170.217525"/>
  <use xlink:href="#glyph2-28" x="287.202669" y="170.217525"/>
</g>
<g style="fill:rgb(12.156677%,16.07666%,19.999695%);fill-opacity:1;">
  <use xlink:href="#glyph2-17" x="291.630853" y="170.217525"/>
</g>
<g style="fill:rgb(12.156677%,16.07666%,19.999695%);fill-opacity:1;">
  <use xlink:href="#glyph2-10" x="297.096753" y="170.217525"/>
  <use xlink:href="#glyph2-13" x="302.070632" y="170.217525"/>
  <use xlink:href="#glyph2-12" x="307.044511" y="170.217525"/>
  <use xlink:href="#glyph2-7" x="309.030484" y="170.217525"/>
  <use xlink:href="#glyph2-10" x="311.016458" y="170.217525"/>
  <use xlink:href="#glyph2-11" x="315.990337" y="170.217525"/>
  <use xlink:href="#glyph2-12" x="320.964216" y="170.217525"/>
  <use xlink:href="#glyph2-7" x="322.95019" y="170.217525"/>
  <use xlink:href="#glyph2-12" x="324.936163" y="170.217525"/>
  <use xlink:href="#glyph2-3" x="326.922136" y="170.217525"/>
</g>
<path style="fill:none;stroke-width:0.99628;stroke-linecap:butt;stroke-linejoin:round;stroke:rgb(81.176758%,84.70459%,86.274719%);stroke-opacity:1;stroke-miterlimit:10;" d="M 217.790482 -41.427444 L 217.790482 -178.390152 " transform="matrix(0.997705,0,0,-0.997705,8.228786,26.066052)"/>
<path style="fill-rule:nonzero;fill:rgb(90.979004%,96.470642%,96.862793%);fill-opacity:1;stroke-width:0.3985;stroke-linecap:butt;stroke-linejoin:round;stroke:rgb(0%,42.74292%,46.665955%);stroke-opacity:1;stroke-miterlimit:10;" d="M 433.371085 -204.101493 L 2.190302 -204.101493 C 1.090122 -204.101493 0.197448 -204.994166 0.197448 -206.094347 L 0.197448 -221.124929 C 0.197448 -222.22511 1.090122 -223.113868 2.190302 -223.113868 L 433.371085 -223.113868 C 434.471265 -223.113868 435.363939 -222.22511 435.363939 -221.124929 L 435.363939 -206.094347 C 435.363939 -204.994166 434.471265 -204.101493 433.371085 -204.101493 Z M 433.371085 -204.101493 " transform="matrix(0.997705,0,0,-0.997705,8.228786,26.066052)"/>
<g style="fill:rgb(0%,42.74292%,46.665955%);fill-opacity:1;">
  <use xlink:href="#glyph3-7" x="41.240863" y="241.460676"/>
  <use xlink:href="#glyph3-8" x="46.706763" y="241.460676"/>
</g>
<g style="fill:rgb(0%,42.74292%,46.665955%);fill-opacity:1;">
  <use xlink:href="#glyph3-9" x="51.546455" y="241.460676"/>
  <use xlink:href="#glyph3-10" x="56.520334" y="241.460676"/>
  <use xlink:href="#glyph3-11" x="59.007273" y="241.460676"/>
</g>
<g style="fill:rgb(0%,42.74292%,46.665955%);fill-opacity:1;">
  <use xlink:href="#glyph3-12" x="64.965193" y="241.460676"/>
</g>
<g style="fill:rgb(0%,42.74292%,46.665955%);fill-opacity:1;">
  <use xlink:href="#glyph3-13" x="70.520551" y="241.460676"/>
  <use xlink:href="#glyph3-14" x="75.494431" y="241.460676"/>
</g>
<g style="fill:rgb(0%,42.74292%,46.665955%);fill-opacity:1;">
  <use xlink:href="#glyph3-13" x="79.019086" y="241.460676"/>
  <use xlink:href="#glyph3-15" x="83.992965" y="241.460676"/>
</g>
<g style="fill:rgb(0%,42.74292%,46.665955%);fill-opacity:1;">
  <use xlink:href="#glyph3-16" x="88.877386" y="241.460676"/>
  <use xlink:href="#glyph3-17" x="93.851265" y="241.460676"/>
  <use xlink:href="#glyph3-18" x="96.338205" y="241.460676"/>
  <use xlink:href="#glyph3-17" x="101.804105" y="241.460676"/>
  <use xlink:href="#glyph3-19" x="104.291044" y="241.460676"/>
</g>
<g style="fill:rgb(0%,42.74292%,46.665955%);fill-opacity:1;">
  <use xlink:href="#glyph3-20" x="115.231789" y="241.460676"/>
</g>
<g style="fill:rgb(0%,42.74292%,46.665955%);fill-opacity:1;">
  <use xlink:href="#glyph3-13" x="118.16602" y="241.460676"/>
  <use xlink:href="#glyph3-16" x="123.139899" y="241.460676"/>
  <use xlink:href="#glyph3-20" x="128.113779" y="241.460676"/>
</g>
<g style="fill:rgb(0%,42.74292%,46.665955%);fill-opacity:1;">
  <use xlink:href="#glyph3-13" x="134.071699" y="241.460676"/>
  <use xlink:href="#glyph3-21" x="139.045578" y="241.460676"/>
  <use xlink:href="#glyph3-17" x="144.511478" y="241.460676"/>
  <use xlink:href="#glyph3-22" x="146.998417" y="241.460676"/>
  <use xlink:href="#glyph3-13" x="149.485357" y="241.460676"/>
  <use xlink:href="#glyph3-19" x="154.459236" y="241.460676"/>
  <use xlink:href="#glyph3-13" x="162.412075" y="241.460676"/>
  <use xlink:href="#glyph3-23" x="167.385955" y="241.460676"/>
  <use xlink:href="#glyph3-24" x="171.858868" y="241.460676"/>
</g>
<g style="fill:rgb(0%,42.74292%,46.665955%);fill-opacity:1;">
  <use xlink:href="#glyph3-20" x="177.816788" y="241.460676"/>
</g>
<g style="fill:rgb(0%,42.74292%,46.665955%);fill-opacity:1;">
  <use xlink:href="#glyph3-13" x="180.751018" y="241.460676"/>
  <use xlink:href="#glyph3-16" x="185.724898" y="241.460676"/>
  <use xlink:href="#glyph3-20" x="190.698777" y="241.460676"/>
</g>
<g style="fill:rgb(0%,42.74292%,46.665955%);fill-opacity:1;">
  <use xlink:href="#glyph3-13" x="196.656697" y="241.460676"/>
  <use xlink:href="#glyph3-21" x="201.630576" y="241.460676"/>
  <use xlink:href="#glyph3-17" x="207.096476" y="241.460676"/>
  <use xlink:href="#glyph3-22" x="209.583415" y="241.460676"/>
  <use xlink:href="#glyph3-13" x="212.070355" y="241.460676"/>
  <use xlink:href="#glyph3-19" x="217.044234" y="241.460676"/>
  <use xlink:href="#glyph3-13" x="224.997074" y="241.460676"/>
</g>
<g style="fill:rgb(0%,42.74292%,46.665955%);fill-opacity:1;">
  <use xlink:href="#glyph3-9" x="229.836765" y="241.460676"/>
</g>
<g style="fill:rgb(0%,42.74292%,46.665955%);fill-opacity:1;">
  <use xlink:href="#glyph3-13" x="234.676457" y="241.460676"/>
  <use xlink:href="#glyph3-18" x="239.650336" y="241.460676"/>
</g>
<g style="fill:rgb(0%,42.74292%,46.665955%);fill-opacity:1;">
  <use xlink:href="#glyph3-12" x="248.104142" y="241.460676"/>
</g>
<g style="fill:rgb(0%,42.74292%,46.665955%);fill-opacity:1;">
  <use xlink:href="#glyph3-13" x="253.6595" y="241.460676"/>
  <use xlink:href="#glyph3-14" x="258.633379" y="241.460676"/>
</g>
<g style="fill:rgb(0%,42.74292%,46.665955%);fill-opacity:1;">
  <use xlink:href="#glyph3-13" x="262.158035" y="241.460676"/>
  <use xlink:href="#glyph3-15" x="267.131914" y="241.460676"/>
</g>
<g style="fill:rgb(0%,42.74292%,46.665955%);fill-opacity:1;">
  <use xlink:href="#glyph3-16" x="272.016335" y="241.460676"/>
  <use xlink:href="#glyph3-17" x="276.990214" y="241.460676"/>
  <use xlink:href="#glyph3-18" x="279.477154" y="241.460676"/>
  <use xlink:href="#glyph3-17" x="284.943053" y="241.460676"/>
  <use xlink:href="#glyph3-19" x="287.429993" y="241.460676"/>
</g>
<g style="fill:rgb(0%,42.74292%,46.665955%);fill-opacity:1;">
  <use xlink:href="#glyph3-15" x="298.361792" y="241.460676"/>
  <use xlink:href="#glyph3-8" x="303.335671" y="241.460676"/>
  <use xlink:href="#glyph3-14" x="308.30955" y="241.460676"/>
</g>
<g style="fill:rgb(0%,42.74292%,46.665955%);fill-opacity:1;">
  <use xlink:href="#glyph3-25" x="311.834206" y="241.460676"/>
  <use xlink:href="#glyph3-10" x="316.808085" y="241.460676"/>
  <use xlink:href="#glyph3-22" x="319.295025" y="241.460676"/>
  <use xlink:href="#glyph3-8" x="321.781964" y="241.460676"/>
  <use xlink:href="#glyph3-18" x="326.755844" y="241.460676"/>
  <use xlink:href="#glyph3-21" x="332.221743" y="241.460676"/>
  <use xlink:href="#glyph3-10" x="337.687643" y="241.460676"/>
  <use xlink:href="#glyph3-26" x="340.174582" y="241.460676"/>
  <use xlink:href="#glyph3-10" x="345.640482" y="241.460676"/>
</g>
<g style="fill:rgb(0%,42.74292%,46.665955%);fill-opacity:1;">
  <use xlink:href="#glyph3-15" x="351.106382" y="241.460676"/>
  <use xlink:href="#glyph3-8" x="356.080261" y="241.460676"/>
  <use xlink:href="#glyph3-18" x="361.05414" y="241.460676"/>
  <use xlink:href="#glyph3-10" x="366.52004" y="241.460676"/>
  <use xlink:href="#glyph3-20" x="369.006979" y="241.460676"/>
  <use xlink:href="#glyph3-22" x="371.98594" y="241.460676"/>
  <use xlink:href="#glyph3-8" x="374.472879" y="241.460676"/>
  <use xlink:href="#glyph3-18" x="379.446758" y="241.460676"/>
  <use xlink:href="#glyph3-8" x="384.912658" y="241.460676"/>
  <use xlink:href="#glyph3-19" x="389.886537" y="241.460676"/>
  <use xlink:href="#glyph3-8" x="397.839376" y="241.460676"/>
  <use xlink:href="#glyph3-23" x="402.813256" y="241.460676"/>
  <use xlink:href="#glyph3-27" x="407.286169" y="241.460676"/>
</g>
</g>
</svg>
