<?xml version="1.0" encoding="utf-8" standalone="no"?>
<!DOCTYPE svg PUBLIC "-//W3C//DTD SVG 1.1//EN"
  "http://www.w3.org/Graphics/SVG/1.1/DTD/svg11.dtd">
<svg xmlns:xlink="http://www.w3.org/1999/xlink" width="631.08pt" height="316.656pt" viewBox="0 0 631.08 316.656" xmlns="http://www.w3.org/2000/svg" version="1.1">
 <metadata>
  <rdf:RDF xmlns:dc="http://purl.org/dc/elements/1.1/" xmlns:cc="http://creativecommons.org/ns#" xmlns:rdf="http://www.w3.org/1999/02/22-rdf-syntax-ns#">
   <cc:Work>
    <dc:type rdf:resource="http://purl.org/dc/dcmitype/StillImage"/>
    <dc:date>2026-09-23T13:10:41.525149</dc:date>
    <dc:format>image/svg+xml</dc:format>
    <dc:creator>
     <cc:Agent>
      <dc:title>Matplotlib v3.11.0, https://matplotlib.org/</dc:title>
     </cc:Agent>
    </dc:creator>
   </cc:Work>
  </rdf:RDF>
 </metadata>
 <defs>
  <style type="text/css">*{stroke-linejoin: round; stroke-linecap: butt}</style>
 </defs>
 <g id="figure_1">
  <g id="patch_1">
   <path d="M 0 316.656 
L 631.08 316.656 
L 631.08 0 
L 0 0 
z
" style="fill: #ffffff"/>
  </g>
  <g id="axes_1">
   <g id="patch_2">
    <path d="M 43.0128 282.868416 
L 588.0672 282.868416 
Q 597.888 282.868416 597.888 278.0784 
L 597.888 266.10336 
Q 597.888 261.313344 588.0672 261.313344 
L 43.0128 261.313344 
Q 33.192 261.313344 33.192 266.10336 
L 33.192 278.0784 
Q 33.192 282.868416 43.0128 282.868416 
z
" clip-path="url(#p0005d8a24c)" style="fill: #e8f6f7"/>
   </g>
   <g id="patch_3">
    <path d="M 43.3197 103.492296 
L 298.6605 103.492296 
Q 312.1641 103.492296 312.1641 96.906024 
L 312.1641 88.72308 
Q 312.1641 82.136808 298.6605 82.136808 
L 43.3197 82.136808 
Q 29.8161 82.136808 29.8161 88.72308 
L 29.8161 96.906024 
Q 29.8161 103.492296 43.3197 103.492296 
z
" clip-path="url(#p0005d8a24c)" style="fill-opacity: 0.078431"/>
   </g>
   <g id="patch_4">
    <path d="M 43.3197 131.434056 
L 298.6605 131.434056 
Q 312.1641 131.434056 312.1641 124.847784 
L 312.1641 116.66484 
Q 312.1641 110.078568 298.6605 110.078568 
L 43.3197 110.078568 
Q 29.8161 110.078568 29.8161 116.66484 
L 29.8161 124.847784 
Q 29.8161 131.434056 43.3197 131.434056 
z
" clip-path="url(#p0005d8a24c)" style="fill-opacity: 0.078431"/>
   </g>
   <g id="patch_5">
    <path d="M 43.3197 159.375816 
L 298.6605 159.375816 
Q 312.1641 159.375816 312.1641 152.789544 
L 312.1641 144.6066 
Q 312.1641 138.020328 298.6605 138.020328 
L 43.3197 138.020328 
Q 29.8161 138.020328 29.8161 144.6066 
L 29.8161 152.789544 
Q 29.8161 159.375816 43.3197 159.375816 
z
" clip-path="url(#p0005d8a24c)" style="fill-opacity: 0.078431"/>
   </g>
   <g id="patch_6">
    <path d="M 43.3197 187.317576 
L 298.6605 187.317576 
Q 312.1641 187.317576 312.1641 180.731304 
L 312.1641 172.54836 
Q 312.1641 165.962088 298.6605 165.962088 
L 43.3197 165.962088 
Q 29.8161 165.962088 29.8161 172.54836 
L 29.8161 180.731304 
Q 29.8161 187.317576 43.3197 187.317576 
z
" clip-path="url(#p0005d8a24c)" style="fill-opacity: 0.078431"/>
   </g>
   <g id="patch_7">
    <path d="M 43.3197 215.259336 
L 298.6605 215.259336 
Q 312.1641 215.259336 312.1641 208.673064 
L 312.1641 200.49012 
Q 312.1641 193.903848 298.6605 193.903848 
L 43.3197 193.903848 
Q 29.8161 193.903848 29.8161 200.49012 
L 29.8161 208.673064 
Q 29.8161 215.259336 43.3197 215.259336 
z
" clip-path="url(#p0005d8a24c)" style="fill-opacity: 0.078431"/>
   </g>
   <g id="patch_8">
    <path d="M 43.3197 243.201096 
L 298.6605 243.201096 
Q 312.1641 243.201096 312.1641 236.614824 
L 312.1641 228.43188 
Q 312.1641 221.845608 298.6605 221.845608 
L 43.3197 221.845608 
Q 29.8161 221.845608 29.8161 228.43188 
L 29.8161 236.614824 
Q 29.8161 243.201096 43.3197 243.201096 
z
" clip-path="url(#p0005d8a24c)" style="fill-opacity: 0.078431"/>
   </g>
   <g id="patch_9">
    <path d="M 40.5576 101.845728 
L 295.8984 101.845728 
Q 309.402 101.845728 309.402 95.259456 
L 309.402 87.076512 
Q 309.402 80.49024 295.8984 80.49024 
L 40.5576 80.49024 
Q 27.054 80.49024 27.054 87.076512 
L 27.054 95.259456 
Q 27.054 101.845728 40.5576 101.845728 
z
" clip-path="url(#p0005d8a24c)" style="fill: #e8f6f7; stroke: #0a9396; stroke-width: 1.7; stroke-linejoin: miter"/>
   </g>
   <g id="patch_10">
    <path d="M 40.5576 129.787488 
L 295.8984 129.787488 
Q 309.402 129.787488 309.402 123.201216 
L 309.402 115.018272 
Q 309.402 108.432 295.8984 108.432 
L 40.5576 108.432 
Q 27.054 108.432 27.054 115.018272 
L 27.054 123.201216 
Q 27.054 129.787488 40.5576 129.787488 
z
" clip-path="url(#p0005d8a24c)" style="fill: #e8f6f7; stroke: #0a9396; stroke-width: 1.7; stroke-linejoin: miter"/>
   </g>
   <g id="patch_11">
    <path d="M 40.5576 157.729248 
L 295.8984 157.729248 
Q 309.402 157.729248 309.402 151.142976 
L 309.402 142.960032 
Q 309.402 136.37376 295.8984 136.37376 
L 40.5576 136.37376 
Q 27.054 136.37376 27.054 142.960032 
L 27.054 151.142976 
Q 27.054 157.729248 40.5576 157.729248 
z
" clip-path="url(#p0005d8a24c)" style="fill: #eef2ff; stroke: #4054b2; stroke-width: 1.7; stroke-linejoin: miter"/>
   </g>
   <g id="patch_12">
    <path d="M 40.5576 185.671008 
L 295.8984 185.671008 
Q 309.402 185.671008 309.402 179.084736 
L 309.402 170.901792 
Q 309.402 164.31552 295.8984 164.31552 
L 40.5576 164.31552 
Q 27.054 164.31552 27.054 170.901792 
L 27.054 179.084736 
Q 27.054 185.671008 40.5576 185.671008 
z
" clip-path="url(#p0005d8a24c)" style="fill: #e8f6f7; stroke: #0a9396; stroke-width: 1.7; stroke-linejoin: miter"/>
   </g>
   <g id="patch_13">
    <path d="M 40.5576 213.612768 
L 295.8984 213.612768 
Q 309.402 213.612768 309.402 207.026496 
L 309.402 198.843552 
Q 309.402 192.25728 295.8984 192.25728 
L 40.5576 192.25728 
Q 27.054 192.25728 27.054 198.843552 
L 27.054 207.026496 
Q 27.054 213.612768 40.5576 213.612768 
z
" clip-path="url(#p0005d8a24c)" style="fill: #eaf4ea; stroke: #2e7d32; stroke-width: 1.7; stroke-linejoin: miter"/>
   </g>
   <g id="patch_14">
    <path d="M 40.5576 241.554528 
L 295.8984 241.554528 
Q 309.402 241.554528 309.402 234.968256 
L 309.402 226.785312 
Q 309.402 220.19904 295.8984 220.19904 
L 40.5576 220.19904 
Q 27.054 220.19904 27.054 226.785312 
L 27.054 234.968256 
Q 27.054 241.554528 40.5576 241.554528 
z
" clip-path="url(#p0005d8a24c)" style="fill: #fdf1e7; stroke: #b5651d; stroke-width: 1.7; stroke-linejoin: miter"/>
   </g>
   <g id="text_1">
    <!-- Gereksinim bloğunun alanları -->
    <g style="fill: #006d77" transform="translate(157.523828 38.508956) scale(0.19 -0.19)">
     <defs>
      <path id="DejaVuSans-Bold-2a" d="M 4781 347 
Q 4331 128 3847 18 
Q 3363 -91 2847 -91 
Q 1681 -91 1000 561 
Q 319 1213 319 2328 
Q 319 3456 1012 4103 
Q 1706 4750 2913 4750 
Q 3378 4750 3804 4662 
Q 4231 4575 4609 4403 
L 4609 3438 
Q 4219 3659 3833 3768 
Q 3447 3878 3059 3878 
Q 2341 3878 1952 3476 
Q 1563 3075 1563 2328 
Q 1563 1588 1938 1184 
Q 2313 781 3003 781 
Q 3191 781 3352 804 
Q 3513 828 3641 878 
L 3641 1784 
L 2906 1784 
L 2906 2591 
L 4781 2591 
L 4781 347 
z
" transform="scale(0.015625)"/>
      <path id="DejaVuSans-Bold-48" d="M 4031 1759 
L 4031 1441 
L 1416 1441 
Q 1456 1047 1700 850 
Q 1944 653 2381 653 
Q 2734 653 3104 758 
Q 3475 863 3866 1075 
L 3866 213 
Q 3469 63 3072 -14 
Q 2675 -91 2278 -91 
Q 1328 -91 801 392 
Q 275 875 275 1747 
Q 275 2603 792 3093 
Q 1309 3584 2216 3584 
Q 3041 3584 3536 3087 
Q 4031 2591 4031 1759 
z
M 2881 2131 
Q 2881 2450 2695 2645 
Q 2509 2841 2209 2841 
Q 1884 2841 1681 2658 
Q 1478 2475 1428 2131 
L 2881 2131 
z
" transform="scale(0.015625)"/>
      <path id="DejaVuSans-Bold-55" d="M 3138 2547 
Q 2991 2616 2845 2648 
Q 2700 2681 2553 2681 
Q 2122 2681 1889 2404 
Q 1656 2128 1656 1613 
L 1656 0 
L 538 0 
L 538 3500 
L 1656 3500 
L 1656 2925 
Q 1872 3269 2151 3426 
Q 2431 3584 2822 3584 
Q 2878 3584 2943 3579 
Q 3009 3575 3134 3559 
L 3138 2547 
z
" transform="scale(0.015625)"/>
      <path id="DejaVuSans-Bold-4e" d="M 538 4863 
L 1656 4863 
L 1656 2216 
L 2944 3500 
L 4244 3500 
L 2534 1894 
L 4378 0 
L 3022 0 
L 1656 1459 
L 1656 0 
L 538 0 
L 538 4863 
z
" transform="scale(0.015625)"/>
      <path id="DejaVuSans-Bold-56" d="M 3272 3391 
L 3272 2541 
Q 2913 2691 2578 2766 
Q 2244 2841 1947 2841 
Q 1628 2841 1473 2761 
Q 1319 2681 1319 2516 
Q 1319 2381 1436 2309 
Q 1553 2238 1856 2203 
L 2053 2175 
Q 2913 2066 3209 1816 
Q 3506 1566 3506 1031 
Q 3506 472 3093 190 
Q 2681 -91 1863 -91 
Q 1516 -91 1145 -36 
Q 775 19 384 128 
L 384 978 
Q 719 816 1070 734 
Q 1422 653 1784 653 
Q 2113 653 2278 743 
Q 2444 834 2444 1013 
Q 2444 1163 2330 1236 
Q 2216 1309 1875 1350 
L 1678 1375 
Q 931 1469 631 1722 
Q 331 1975 331 2491 
Q 331 3047 712 3315 
Q 1094 3584 1881 3584 
Q 2191 3584 2531 3537 
Q 2872 3491 3272 3391 
z
" transform="scale(0.015625)"/>
      <path id="DejaVuSans-Bold-4c" d="M 538 3500 
L 1656 3500 
L 1656 0 
L 538 0 
L 538 3500 
z
M 538 4863 
L 1656 4863 
L 1656 3950 
L 538 3950 
L 538 4863 
z
" transform="scale(0.015625)"/>
      <path id="DejaVuSans-Bold-51" d="M 4056 2131 
L 4056 0 
L 2931 0 
L 2931 347 
L 2931 1631 
Q 2931 2084 2911 2256 
Q 2891 2428 2841 2509 
Q 2775 2619 2662 2680 
Q 2550 2741 2406 2741 
Q 2056 2741 1856 2470 
Q 1656 2200 1656 1722 
L 1656 0 
L 538 0 
L 538 3500 
L 1656 3500 
L 1656 2988 
Q 1909 3294 2193 3439 
Q 2478 3584 2822 3584 
Q 3428 3584 3742 3212 
Q 4056 2841 4056 2131 
z
" transform="scale(0.015625)"/>
      <path id="DejaVuSans-Bold-50" d="M 3781 2919 
Q 3994 3244 4286 3414 
Q 4578 3584 4928 3584 
Q 5531 3584 5847 3212 
Q 6163 2841 6163 2131 
L 6163 0 
L 5038 0 
L 5038 1825 
Q 5041 1866 5042 1909 
Q 5044 1953 5044 2034 
Q 5044 2406 4934 2573 
Q 4825 2741 4581 2741 
Q 4263 2741 4089 2478 
Q 3916 2216 3909 1719 
L 3909 0 
L 2784 0 
L 2784 1825 
Q 2784 2406 2684 2573 
Q 2584 2741 2328 2741 
Q 2006 2741 1831 2477 
Q 1656 2213 1656 1722 
L 1656 0 
L 531 0 
L 531 3500 
L 1656 3500 
L 1656 2988 
Q 1863 3284 2130 3434 
Q 2397 3584 2719 3584 
Q 3081 3584 3359 3409 
Q 3638 3234 3781 2919 
z
" transform="scale(0.015625)"/>
      <path id="DejaVuSans-Bold-3" transform="scale(0.015625)"/>
      <path id="DejaVuSans-Bold-45" d="M 2400 722 
Q 2759 722 2948 984 
Q 3138 1247 3138 1747 
Q 3138 2247 2948 2509 
Q 2759 2772 2400 2772 
Q 2041 2772 1848 2508 
Q 1656 2244 1656 1747 
Q 1656 1250 1848 986 
Q 2041 722 2400 722 
z
M 1656 2988 
Q 1888 3294 2169 3439 
Q 2450 3584 2816 3584 
Q 3463 3584 3878 3070 
Q 4294 2556 4294 1747 
Q 4294 938 3878 423 
Q 3463 -91 2816 -91 
Q 2450 -91 2169 54 
Q 1888 200 1656 506 
L 1656 0 
L 538 0 
L 538 4863 
L 1656 4863 
L 1656 2988 
z
" transform="scale(0.015625)"/>
      <path id="DejaVuSans-Bold-4f" d="M 538 4863 
L 1656 4863 
L 1656 0 
L 538 0 
L 538 4863 
z
" transform="scale(0.015625)"/>
      <path id="DejaVuSans-Bold-52" d="M 2203 2784 
Q 1831 2784 1636 2517 
Q 1441 2250 1441 1747 
Q 1441 1244 1636 976 
Q 1831 709 2203 709 
Q 2569 709 2762 976 
Q 2956 1244 2956 1747 
Q 2956 2250 2762 2517 
Q 2569 2784 2203 2784 
z
M 2203 3584 
Q 3106 3584 3614 3096 
Q 4122 2609 4122 1747 
Q 4122 884 3614 396 
Q 3106 -91 2203 -91 
Q 1297 -91 786 396 
Q 275 884 275 1747 
Q 275 2609 786 3096 
Q 1297 3584 2203 3584 
z
" transform="scale(0.015625)"/>
      <path id="DejaVuSans-Bold-e1" d="M 2919 594 
Q 2688 288 2409 144 
Q 2131 0 1766 0 
Q 1125 0 706 504 
Q 288 1009 288 1791 
Q 288 2575 706 3076 
Q 1125 3578 1766 3578 
Q 2131 3578 2409 3434 
Q 2688 3291 2919 2981 
L 2919 3500 
L 4044 3500 
L 4044 353 
Q 4044 -491 3511 -936 
Q 2978 -1381 1966 -1381 
Q 1638 -1381 1331 -1331 
Q 1025 -1281 716 -1178 
L 716 -306 
Q 1009 -475 1290 -558 
Q 1572 -641 1856 -641 
Q 2406 -641 2662 -400 
Q 2919 -159 2919 353 
L 2919 594 
z
M 2181 2772 
Q 1834 2772 1640 2515 
Q 1447 2259 1447 1791 
Q 1447 1309 1634 1061 
Q 1822 813 2181 813 
Q 2531 813 2725 1069 
Q 2919 1325 2919 1791 
Q 2919 2259 2725 2515 
Q 2531 2772 2181 2772 
z
M 1241 5019 
L 1688 5019 
Q 1722 4800 1877 4684 
Q 2032 4569 2291 4569 
Q 2550 4569 2705 4684 
Q 2860 4800 2894 5019 
L 3341 5019 
Q 3322 4569 3050 4330 
Q 2779 4091 2291 4091 
Q 1804 4091 1532 4330 
Q 1260 4569 1241 5019 
z
" transform="scale(0.015625)"/>
      <path id="DejaVuSans-Bold-58" d="M 500 1363 
L 500 3500 
L 1625 3500 
L 1625 3150 
Q 1625 2866 1622 2436 
Q 1619 2006 1619 1863 
Q 1619 1441 1641 1255 
Q 1663 1069 1716 984 
Q 1784 875 1895 815 
Q 2006 756 2150 756 
Q 2500 756 2700 1025 
Q 2900 1294 2900 1772 
L 2900 3500 
L 4019 3500 
L 4019 0 
L 2900 0 
L 2900 506 
Q 2647 200 2364 54 
Q 2081 -91 1741 -91 
Q 1134 -91 817 281 
Q 500 653 500 1363 
z
" transform="scale(0.015625)"/>
      <path id="DejaVuSans-Bold-44" d="M 2106 1575 
Q 1756 1575 1579 1456 
Q 1403 1338 1403 1106 
Q 1403 894 1545 773 
Q 1688 653 1941 653 
Q 2256 653 2472 879 
Q 2688 1106 2688 1447 
L 2688 1575 
L 2106 1575 
z
M 3816 1997 
L 3816 0 
L 2688 0 
L 2688 519 
Q 2463 200 2181 54 
Q 1900 -91 1497 -91 
Q 953 -91 614 226 
Q 275 544 275 1050 
Q 275 1666 698 1953 
Q 1122 2241 2028 2241 
L 2688 2241 
L 2688 2328 
Q 2688 2594 2478 2717 
Q 2269 2841 1825 2841 
Q 1466 2841 1156 2769 
Q 847 2697 581 2553 
L 581 3406 
Q 941 3494 1303 3539 
Q 1666 3584 2028 3584 
Q 2975 3584 3395 3211 
Q 3816 2838 3816 1997 
z
" transform="scale(0.015625)"/>
      <path id="DejaVuSans-Bold-f3" d="M 538 3500 
L 1656 3500 
L 1656 0 
L 538 0 
L 538 3500 
z
" transform="scale(0.015625)"/>
     </defs>
     <use xlink:href="#DejaVuSans-Bold-2a"/>
     <use xlink:href="#DejaVuSans-Bold-48" transform="translate(82.078125 0)"/>
     <use xlink:href="#DejaVuSans-Bold-55" transform="translate(149.90625 0)"/>
     <use xlink:href="#DejaVuSans-Bold-48" transform="translate(199.21875 0)"/>
     <use xlink:href="#DejaVuSans-Bold-4e" transform="translate(267.046875 0)"/>
     <use xlink:href="#DejaVuSans-Bold-56" transform="translate(333.546875 0)"/>
     <use xlink:href="#DejaVuSans-Bold-4c" transform="translate(393.0625 0)"/>
     <use xlink:href="#DejaVuSans-Bold-51" transform="translate(427.34375 0)"/>
     <use xlink:href="#DejaVuSans-Bold-4c" transform="translate(498.53125 0)"/>
     <use xlink:href="#DejaVuSans-Bold-50" transform="translate(532.8125 0)"/>
     <use xlink:href="#DejaVuSans-Bold-3" transform="translate(637.015625 0)"/>
     <use xlink:href="#DejaVuSans-Bold-45" transform="translate(671.828125 0)"/>
     <use xlink:href="#DejaVuSans-Bold-4f" transform="translate(743.40625 0)"/>
     <use xlink:href="#DejaVuSans-Bold-52" transform="translate(777.6875 0)"/>
     <use xlink:href="#DejaVuSans-Bold-e1" transform="translate(846.390625 0)"/>
     <use xlink:href="#DejaVuSans-Bold-58" transform="translate(917.96875 0)"/>
     <use xlink:href="#DejaVuSans-Bold-51" transform="translate(989.15625 0)"/>
     <use xlink:href="#DejaVuSans-Bold-58" transform="translate(1060.34375 0)"/>
     <use xlink:href="#DejaVuSans-Bold-51" transform="translate(1131.53125 0)"/>
     <use xlink:href="#DejaVuSans-Bold-3" transform="translate(1202.71875 0)"/>
     <use xlink:href="#DejaVuSans-Bold-44" transform="translate(1237.53125 0)"/>
     <use xlink:href="#DejaVuSans-Bold-4f" transform="translate(1305.015625 0)"/>
     <use xlink:href="#DejaVuSans-Bold-44" transform="translate(1339.296875 0)"/>
     <use xlink:href="#DejaVuSans-Bold-51" transform="translate(1406.78125 0)"/>
     <use xlink:href="#DejaVuSans-Bold-4f" transform="translate(1477.96875 0)"/>
     <use xlink:href="#DejaVuSans-Bold-44" transform="translate(1512.25 0)"/>
     <use xlink:href="#DejaVuSans-Bold-55" transform="translate(1579.734375 0)"/>
     <use xlink:href="#DejaVuSans-Bold-f3" transform="translate(1629.046875 0)"/>
    </g>
   </g>
   <g id="text_2">
    <!-- her gereksinim bu altı alanla yazılır -->
    <g style="fill: #6b7280" transform="translate(209.95125 55.479501) scale(0.12 -0.12)">
     <defs>
      <path id="DejaVuSans-4b" d="M 3513 2113 
L 3513 0 
L 2938 0 
L 2938 2094 
Q 2938 2591 2744 2837 
Q 2550 3084 2163 3084 
Q 1697 3084 1428 2787 
Q 1159 2491 1159 1978 
L 1159 0 
L 581 0 
L 581 4863 
L 1159 4863 
L 1159 2956 
Q 1366 3272 1645 3428 
Q 1925 3584 2291 3584 
Q 2894 3584 3203 3211 
Q 3513 2838 3513 2113 
z
" transform="scale(0.015625)"/>
      <path id="DejaVuSans-48" d="M 3597 1894 
L 3597 1613 
L 953 1613 
Q 991 1019 1311 708 
Q 1631 397 2203 397 
Q 2534 397 2845 478 
Q 3156 559 3463 722 
L 3463 178 
Q 3153 47 2828 -22 
Q 2503 -91 2169 -91 
Q 1331 -91 842 396 
Q 353 884 353 1716 
Q 353 2575 817 3079 
Q 1281 3584 2069 3584 
Q 2775 3584 3186 3129 
Q 3597 2675 3597 1894 
z
M 3022 2063 
Q 3016 2534 2758 2815 
Q 2500 3097 2075 3097 
Q 1594 3097 1305 2825 
Q 1016 2553 972 2059 
L 3022 2063 
z
" transform="scale(0.015625)"/>
      <path id="DejaVuSans-55" d="M 2631 2963 
Q 2534 3019 2420 3045 
Q 2306 3072 2169 3072 
Q 1681 3072 1420 2755 
Q 1159 2438 1159 1844 
L 1159 0 
L 581 0 
L 581 3500 
L 1159 3500 
L 1159 2956 
Q 1341 3275 1631 3429 
Q 1922 3584 2338 3584 
Q 2397 3584 2469 3576 
Q 2541 3569 2628 3553 
L 2631 2963 
z
" transform="scale(0.015625)"/>
      <path id="DejaVuSans-3" transform="scale(0.015625)"/>
      <path id="DejaVuSans-4a" d="M 2906 1791 
Q 2906 2416 2648 2759 
Q 2391 3103 1925 3103 
Q 1463 3103 1205 2759 
Q 947 2416 947 1791 
Q 947 1169 1205 825 
Q 1463 481 1925 481 
Q 2391 481 2648 825 
Q 2906 1169 2906 1791 
z
M 3481 434 
Q 3481 -459 3084 -895 
Q 2688 -1331 1869 -1331 
Q 1566 -1331 1297 -1286 
Q 1028 -1241 775 -1147 
L 775 -588 
Q 1028 -725 1275 -790 
Q 1522 -856 1778 -856 
Q 2344 -856 2625 -561 
Q 2906 -266 2906 331 
L 2906 616 
Q 2728 306 2450 153 
Q 2172 0 1784 0 
Q 1141 0 747 490 
Q 353 981 353 1791 
Q 353 2603 747 3093 
Q 1141 3584 1784 3584 
Q 2172 3584 2450 3431 
Q 2728 3278 2906 2969 
L 2906 3500 
L 3481 3500 
L 3481 434 
z
" transform="scale(0.015625)"/>
      <path id="DejaVuSans-4e" d="M 581 4863 
L 1159 4863 
L 1159 1991 
L 2875 3500 
L 3609 3500 
L 1753 1863 
L 3688 0 
L 2938 0 
L 1159 1709 
L 1159 0 
L 581 0 
L 581 4863 
z
" transform="scale(0.015625)"/>
      <path id="DejaVuSans-56" d="M 2834 3397 
L 2834 2853 
Q 2591 2978 2328 3040 
Q 2066 3103 1784 3103 
Q 1356 3103 1142 2972 
Q 928 2841 928 2578 
Q 928 2378 1081 2264 
Q 1234 2150 1697 2047 
L 1894 2003 
Q 2506 1872 2764 1633 
Q 3022 1394 3022 966 
Q 3022 478 2636 193 
Q 2250 -91 1575 -91 
Q 1294 -91 989 -36 
Q 684 19 347 128 
L 347 722 
Q 666 556 975 473 
Q 1284 391 1588 391 
Q 1994 391 2212 530 
Q 2431 669 2431 922 
Q 2431 1156 2273 1281 
Q 2116 1406 1581 1522 
L 1381 1569 
Q 847 1681 609 1914 
Q 372 2147 372 2553 
Q 372 3047 722 3315 
Q 1072 3584 1716 3584 
Q 2034 3584 2315 3537 
Q 2597 3491 2834 3397 
z
" transform="scale(0.015625)"/>
      <path id="DejaVuSans-4c" d="M 603 3500 
L 1178 3500 
L 1178 0 
L 603 0 
L 603 3500 
z
M 603 4863 
L 1178 4863 
L 1178 4134 
L 603 4134 
L 603 4863 
z
" transform="scale(0.015625)"/>
      <path id="DejaVuSans-51" d="M 3513 2113 
L 3513 0 
L 2938 0 
L 2938 2094 
Q 2938 2591 2744 2837 
Q 2550 3084 2163 3084 
Q 1697 3084 1428 2787 
Q 1159 2491 1159 1978 
L 1159 0 
L 581 0 
L 581 3500 
L 1159 3500 
L 1159 2956 
Q 1366 3272 1645 3428 
Q 1925 3584 2291 3584 
Q 2894 3584 3203 3211 
Q 3513 2838 3513 2113 
z
" transform="scale(0.015625)"/>
      <path id="DejaVuSans-50" d="M 3328 2828 
Q 3544 3216 3844 3400 
Q 4144 3584 4550 3584 
Q 5097 3584 5394 3201 
Q 5691 2819 5691 2113 
L 5691 0 
L 5113 0 
L 5113 2094 
Q 5113 2597 4934 2840 
Q 4756 3084 4391 3084 
Q 3944 3084 3684 2787 
Q 3425 2491 3425 1978 
L 3425 0 
L 2847 0 
L 2847 2094 
Q 2847 2600 2669 2842 
Q 2491 3084 2119 3084 
Q 1678 3084 1418 2786 
Q 1159 2488 1159 1978 
L 1159 0 
L 581 0 
L 581 3500 
L 1159 3500 
L 1159 2956 
Q 1356 3278 1631 3431 
Q 1906 3584 2284 3584 
Q 2666 3584 2933 3390 
Q 3200 3197 3328 2828 
z
" transform="scale(0.015625)"/>
      <path id="DejaVuSans-45" d="M 3116 1747 
Q 3116 2381 2855 2742 
Q 2594 3103 2138 3103 
Q 1681 3103 1420 2742 
Q 1159 2381 1159 1747 
Q 1159 1113 1420 752 
Q 1681 391 2138 391 
Q 2594 391 2855 752 
Q 3116 1113 3116 1747 
z
M 1159 2969 
Q 1341 3281 1617 3432 
Q 1894 3584 2278 3584 
Q 2916 3584 3314 3078 
Q 3713 2572 3713 1747 
Q 3713 922 3314 415 
Q 2916 -91 2278 -91 
Q 1894 -91 1617 61 
Q 1341 213 1159 525 
L 1159 0 
L 581 0 
L 581 4863 
L 1159 4863 
L 1159 2969 
z
" transform="scale(0.015625)"/>
      <path id="DejaVuSans-58" d="M 544 1381 
L 544 3500 
L 1119 3500 
L 1119 1403 
Q 1119 906 1312 657 
Q 1506 409 1894 409 
Q 2359 409 2629 706 
Q 2900 1003 2900 1516 
L 2900 3500 
L 3475 3500 
L 3475 0 
L 2900 0 
L 2900 538 
Q 2691 219 2414 64 
Q 2138 -91 1772 -91 
Q 1169 -91 856 284 
Q 544 659 544 1381 
z
M 1991 3584 
L 1991 3584 
z
" transform="scale(0.015625)"/>
      <path id="DejaVuSans-44" d="M 2194 1759 
Q 1497 1759 1228 1600 
Q 959 1441 959 1056 
Q 959 750 1161 570 
Q 1363 391 1709 391 
Q 2188 391 2477 730 
Q 2766 1069 2766 1631 
L 2766 1759 
L 2194 1759 
z
M 3341 1997 
L 3341 0 
L 2766 0 
L 2766 531 
Q 2569 213 2275 61 
Q 1981 -91 1556 -91 
Q 1019 -91 701 211 
Q 384 513 384 1019 
Q 384 1609 779 1909 
Q 1175 2209 1959 2209 
L 2766 2209 
L 2766 2266 
Q 2766 2663 2505 2880 
Q 2244 3097 1772 3097 
Q 1472 3097 1187 3025 
Q 903 2953 641 2809 
L 641 3341 
Q 956 3463 1253 3523 
Q 1550 3584 1831 3584 
Q 2591 3584 2966 3190 
Q 3341 2797 3341 1997 
z
" transform="scale(0.015625)"/>
      <path id="DejaVuSans-4f" d="M 603 4863 
L 1178 4863 
L 1178 0 
L 603 0 
L 603 4863 
z
" transform="scale(0.015625)"/>
      <path id="DejaVuSans-57" d="M 1172 4494 
L 1172 3500 
L 2356 3500 
L 2356 3053 
L 1172 3053 
L 1172 1153 
Q 1172 725 1289 603 
Q 1406 481 1766 481 
L 2356 481 
L 2356 0 
L 1766 0 
Q 1100 0 847 248 
Q 594 497 594 1153 
L 594 3053 
L 172 3053 
L 172 3500 
L 594 3500 
L 594 4494 
L 1172 4494 
z
" transform="scale(0.015625)"/>
      <path id="DejaVuSans-f3" d="M 603 3500 
L 1178 3500 
L 1178 0 
L 603 0 
L 603 3500 
z
M 891 3584 
L 891 3584 
z
" transform="scale(0.015625)"/>
      <path id="DejaVuSans-5c" d="M 2059 -325 
Q 1816 -950 1584 -1140 
Q 1353 -1331 966 -1331 
L 506 -1331 
L 506 -850 
L 844 -850 
Q 1081 -850 1212 -737 
Q 1344 -625 1503 -206 
L 1606 56 
L 191 3500 
L 800 3500 
L 1894 763 
L 2988 3500 
L 3597 3500 
L 2059 -325 
z
" transform="scale(0.015625)"/>
      <path id="DejaVuSans-5d" d="M 353 3500 
L 3084 3500 
L 3084 2975 
L 922 459 
L 3084 459 
L 3084 0 
L 275 0 
L 275 525 
L 2438 3041 
L 353 3041 
L 353 3500 
z
" transform="scale(0.015625)"/>
     </defs>
     <use xlink:href="#DejaVuSans-4b"/>
     <use xlink:href="#DejaVuSans-48" transform="translate(63.375 0)"/>
     <use xlink:href="#DejaVuSans-55" transform="translate(124.90625 0)"/>
     <use xlink:href="#DejaVuSans-3" transform="translate(166.015625 0)"/>
     <use xlink:href="#DejaVuSans-4a" transform="translate(197.796875 0)"/>
     <use xlink:href="#DejaVuSans-48" transform="translate(261.28125 0)"/>
     <use xlink:href="#DejaVuSans-55" transform="translate(322.8125 0)"/>
     <use xlink:href="#DejaVuSans-48" transform="translate(361.71875 0)"/>
     <use xlink:href="#DejaVuSans-4e" transform="translate(423.25 0)"/>
     <use xlink:href="#DejaVuSans-56" transform="translate(481.15625 0)"/>
     <use xlink:href="#DejaVuSans-4c" transform="translate(533.25 0)"/>
     <use xlink:href="#DejaVuSans-51" transform="translate(561.03125 0)"/>
     <use xlink:href="#DejaVuSans-4c" transform="translate(624.40625 0)"/>
     <use xlink:href="#DejaVuSans-50" transform="translate(652.1875 0)"/>
     <use xlink:href="#DejaVuSans-3" transform="translate(749.59375 0)"/>
     <use xlink:href="#DejaVuSans-45" transform="translate(781.375 0)"/>
     <use xlink:href="#DejaVuSans-58" transform="translate(844.859375 0)"/>
     <use xlink:href="#DejaVuSans-3" transform="translate(908.234375 0)"/>
     <use xlink:href="#DejaVuSans-44" transform="translate(940.015625 0)"/>
     <use xlink:href="#DejaVuSans-4f" transform="translate(1001.296875 0)"/>
     <use xlink:href="#DejaVuSans-57" transform="translate(1029.078125 0)"/>
     <use xlink:href="#DejaVuSans-f3" transform="translate(1068.28125 0)"/>
     <use xlink:href="#DejaVuSans-3" transform="translate(1096.0625 0)"/>
     <use xlink:href="#DejaVuSans-44" transform="translate(1127.84375 0)"/>
     <use xlink:href="#DejaVuSans-4f" transform="translate(1189.125 0)"/>
     <use xlink:href="#DejaVuSans-44" transform="translate(1216.90625 0)"/>
     <use xlink:href="#DejaVuSans-51" transform="translate(1278.1875 0)"/>
     <use xlink:href="#DejaVuSans-4f" transform="translate(1341.5625 0)"/>
     <use xlink:href="#DejaVuSans-44" transform="translate(1369.34375 0)"/>
     <use xlink:href="#DejaVuSans-3" transform="translate(1430.625 0)"/>
     <use xlink:href="#DejaVuSans-5c" transform="translate(1462.40625 0)"/>
     <use xlink:href="#DejaVuSans-44" transform="translate(1521.59375 0)"/>
     <use xlink:href="#DejaVuSans-5d" transform="translate(1582.875 0)"/>
     <use xlink:href="#DejaVuSans-f3" transform="translate(1635.359375 0)"/>
     <use xlink:href="#DejaVuSans-4f" transform="translate(1663.140625 0)"/>
     <use xlink:href="#DejaVuSans-f3" transform="translate(1690.921875 0)"/>
     <use xlink:href="#DejaVuSans-55" transform="translate(1718.703125 0)"/>
    </g>
   </g>
   <g id="patch_15">
    <path d="M 292.8294 73.903968 
L 338.2506 73.903968 
Q 340.092 73.903968 340.092 73.00584 
L 340.092 73.00584 
Q 340.092 72.107712 338.2506 72.107712 
L 292.8294 72.107712 
Q 290.988 72.107712 290.988 73.00584 
L 290.988 73.00584 
Q 290.988 73.903968 292.8294 73.903968 
z
" clip-path="url(#p0005d8a24c)" style="fill: #9ed6d7"/>
   </g>
   <g id="text_3">
    <!-- Kimlik (ID) -->
    <g style="fill: #1f2933" transform="translate(132.977344 94.233679) scale(0.118 -0.118)">
     <defs>
      <path id="DejaVuSans-Bold-2e" d="M 588 4666 
L 1791 4666 
L 1791 2963 
L 3525 4666 
L 4922 4666 
L 2675 2456 
L 5153 0 
L 3647 0 
L 1791 1838 
L 1791 0 
L 588 0 
L 588 4666 
z
" transform="scale(0.015625)"/>
      <path id="DejaVuSans-Bold-b" d="M 2413 -844 
L 1484 -844 
Q 1006 -72 778 623 
Q 550 1319 550 2003 
Q 550 2688 779 3389 
Q 1009 4091 1484 4856 
L 2413 4856 
Q 2013 4116 1813 3408 
Q 1613 2700 1613 2009 
Q 1613 1319 1811 609 
Q 2009 -100 2413 -844 
z
" transform="scale(0.015625)"/>
      <path id="DejaVuSans-Bold-2c" d="M 588 4666 
L 1791 4666 
L 1791 0 
L 588 0 
L 588 4666 
z
" transform="scale(0.015625)"/>
      <path id="DejaVuSans-Bold-27" d="M 1791 3756 
L 1791 909 
L 2222 909 
Q 2959 909 3348 1275 
Q 3738 1641 3738 2338 
Q 3738 3031 3350 3393 
Q 2963 3756 2222 3756 
L 1791 3756 
z
M 588 4666 
L 1856 4666 
Q 2919 4666 3439 4514 
Q 3959 4363 4331 4000 
Q 4659 3684 4818 3271 
Q 4978 2859 4978 2338 
Q 4978 1809 4818 1395 
Q 4659 981 4331 666 
Q 3956 303 3431 151 
Q 2906 0 1856 0 
L 588 0 
L 588 4666 
z
" transform="scale(0.015625)"/>
      <path id="DejaVuSans-Bold-c" d="M 513 -844 
Q 913 -100 1113 609 
Q 1313 1319 1313 2009 
Q 1313 2700 1113 3408 
Q 913 4116 513 4856 
L 1441 4856 
Q 1916 4091 2145 3389 
Q 2375 2688 2375 2003 
Q 2375 1319 2147 623 
Q 1919 -72 1441 -844 
L 513 -844 
z
" transform="scale(0.015625)"/>
     </defs>
     <use xlink:href="#DejaVuSans-Bold-2e"/>
     <use xlink:href="#DejaVuSans-Bold-4c" transform="translate(77.484375 0)"/>
     <use xlink:href="#DejaVuSans-Bold-50" transform="translate(111.765625 0)"/>
     <use xlink:href="#DejaVuSans-Bold-4f" transform="translate(215.96875 0)"/>
     <use xlink:href="#DejaVuSans-Bold-4c" transform="translate(250.25 0)"/>
     <use xlink:href="#DejaVuSans-Bold-4e" transform="translate(284.53125 0)"/>
     <use xlink:href="#DejaVuSans-Bold-3" transform="translate(351.03125 0)"/>
     <use xlink:href="#DejaVuSans-Bold-b" transform="translate(385.84375 0)"/>
     <use xlink:href="#DejaVuSans-Bold-2c" transform="translate(431.546875 0)"/>
     <use xlink:href="#DejaVuSans-Bold-27" transform="translate(468.75 0)"/>
     <use xlink:href="#DejaVuSans-Bold-c" transform="translate(551.765625 0)"/>
    </g>
   </g>
   <g id="text_4">
    <!-- CEN429-DR-01 gibi benzersiz -->
    <g style="fill: #6b7280" transform="translate(321.678 93.817992) scale(0.102 -0.102)">
     <defs>
      <path id="DejaVuSans-26" d="M 4122 4306 
L 4122 3641 
Q 3803 3938 3442 4084 
Q 3081 4231 2675 4231 
Q 1875 4231 1450 3742 
Q 1025 3253 1025 2328 
Q 1025 1406 1450 917 
Q 1875 428 2675 428 
Q 3081 428 3442 575 
Q 3803 722 4122 1019 
L 4122 359 
Q 3791 134 3420 21 
Q 3050 -91 2638 -91 
Q 1578 -91 968 557 
Q 359 1206 359 2328 
Q 359 3453 968 4101 
Q 1578 4750 2638 4750 
Q 3056 4750 3426 4639 
Q 3797 4528 4122 4306 
z
" transform="scale(0.015625)"/>
      <path id="DejaVuSans-28" d="M 628 4666 
L 3578 4666 
L 3578 4134 
L 1259 4134 
L 1259 2753 
L 3481 2753 
L 3481 2222 
L 1259 2222 
L 1259 531 
L 3634 531 
L 3634 0 
L 628 0 
L 628 4666 
z
" transform="scale(0.015625)"/>
      <path id="DejaVuSans-31" d="M 628 4666 
L 1478 4666 
L 3547 763 
L 3547 4666 
L 4159 4666 
L 4159 0 
L 3309 0 
L 1241 3903 
L 1241 0 
L 628 0 
L 628 4666 
z
" transform="scale(0.015625)"/>
      <path id="DejaVuSans-17" d="M 2419 4116 
L 825 1625 
L 2419 1625 
L 2419 4116 
z
M 2253 4666 
L 3047 4666 
L 3047 1625 
L 3713 1625 
L 3713 1100 
L 3047 1100 
L 3047 0 
L 2419 0 
L 2419 1100 
L 313 1100 
L 313 1709 
L 2253 4666 
z
" transform="scale(0.015625)"/>
      <path id="DejaVuSans-15" d="M 1228 531 
L 3431 531 
L 3431 0 
L 469 0 
L 469 531 
Q 828 903 1448 1529 
Q 2069 2156 2228 2338 
Q 2531 2678 2651 2914 
Q 2772 3150 2772 3378 
Q 2772 3750 2511 3984 
Q 2250 4219 1831 4219 
Q 1534 4219 1204 4116 
Q 875 4013 500 3803 
L 500 4441 
Q 881 4594 1212 4672 
Q 1544 4750 1819 4750 
Q 2544 4750 2975 4387 
Q 3406 4025 3406 3419 
Q 3406 3131 3298 2873 
Q 3191 2616 2906 2266 
Q 2828 2175 2409 1742 
Q 1991 1309 1228 531 
z
" transform="scale(0.015625)"/>
      <path id="DejaVuSans-1c" d="M 703 97 
L 703 672 
Q 941 559 1184 500 
Q 1428 441 1663 441 
Q 2288 441 2617 861 
Q 2947 1281 2994 2138 
Q 2813 1869 2534 1725 
Q 2256 1581 1919 1581 
Q 1219 1581 811 2004 
Q 403 2428 403 3163 
Q 403 3881 828 4315 
Q 1253 4750 1959 4750 
Q 2769 4750 3195 4129 
Q 3622 3509 3622 2328 
Q 3622 1225 3098 567 
Q 2575 -91 1691 -91 
Q 1453 -91 1209 -44 
Q 966 3 703 97 
z
M 1959 2075 
Q 2384 2075 2632 2365 
Q 2881 2656 2881 3163 
Q 2881 3666 2632 3958 
Q 2384 4250 1959 4250 
Q 1534 4250 1286 3958 
Q 1038 3666 1038 3163 
Q 1038 2656 1286 2365 
Q 1534 2075 1959 2075 
z
" transform="scale(0.015625)"/>
      <path id="DejaVuSans-10" d="M 313 2009 
L 1997 2009 
L 1997 1497 
L 313 1497 
L 313 2009 
z
" transform="scale(0.015625)"/>
      <path id="DejaVuSans-27" d="M 1259 4147 
L 1259 519 
L 2022 519 
Q 2988 519 3436 956 
Q 3884 1394 3884 2338 
Q 3884 3275 3436 3711 
Q 2988 4147 2022 4147 
L 1259 4147 
z
M 628 4666 
L 1925 4666 
Q 3281 4666 3915 4102 
Q 4550 3538 4550 2338 
Q 4550 1131 3912 565 
Q 3275 0 1925 0 
L 628 0 
L 628 4666 
z
" transform="scale(0.015625)"/>
      <path id="DejaVuSans-35" d="M 2841 2188 
Q 3044 2119 3236 1894 
Q 3428 1669 3622 1275 
L 4263 0 
L 3584 0 
L 2988 1197 
Q 2756 1666 2539 1819 
Q 2322 1972 1947 1972 
L 1259 1972 
L 1259 0 
L 628 0 
L 628 4666 
L 2053 4666 
Q 2853 4666 3247 4331 
Q 3641 3997 3641 3322 
Q 3641 2881 3436 2590 
Q 3231 2300 2841 2188 
z
M 1259 4147 
L 1259 2491 
L 2053 2491 
Q 2509 2491 2742 2702 
Q 2975 2913 2975 3322 
Q 2975 3731 2742 3939 
Q 2509 4147 2053 4147 
L 1259 4147 
z
" transform="scale(0.015625)"/>
      <path id="DejaVuSans-13" d="M 2034 4250 
Q 1547 4250 1301 3770 
Q 1056 3291 1056 2328 
Q 1056 1369 1301 889 
Q 1547 409 2034 409 
Q 2525 409 2770 889 
Q 3016 1369 3016 2328 
Q 3016 3291 2770 3770 
Q 2525 4250 2034 4250 
z
M 2034 4750 
Q 2819 4750 3233 4129 
Q 3647 3509 3647 2328 
Q 3647 1150 3233 529 
Q 2819 -91 2034 -91 
Q 1250 -91 836 529 
Q 422 1150 422 2328 
Q 422 3509 836 4129 
Q 1250 4750 2034 4750 
z
" transform="scale(0.015625)"/>
      <path id="DejaVuSans-14" d="M 794 531 
L 1825 531 
L 1825 4091 
L 703 3866 
L 703 4441 
L 1819 4666 
L 2450 4666 
L 2450 531 
L 3481 531 
L 3481 0 
L 794 0 
L 794 531 
z
" transform="scale(0.015625)"/>
     </defs>
     <use xlink:href="#DejaVuSans-26"/>
     <use xlink:href="#DejaVuSans-28" transform="translate(69.828125 0)"/>
     <use xlink:href="#DejaVuSans-31" transform="translate(133.015625 0)"/>
     <use xlink:href="#DejaVuSans-17" transform="translate(207.828125 0)"/>
     <use xlink:href="#DejaVuSans-15" transform="translate(271.453125 0)"/>
     <use xlink:href="#DejaVuSans-1c" transform="translate(335.078125 0)"/>
     <use xlink:href="#DejaVuSans-10" transform="translate(398.703125 0)"/>
     <use xlink:href="#DejaVuSans-27" transform="translate(434.78125 0)"/>
     <use xlink:href="#DejaVuSans-35" transform="translate(511.78125 0)"/>
     <use xlink:href="#DejaVuSans-10" transform="translate(577.21875 0)"/>
     <use xlink:href="#DejaVuSans-13" transform="translate(613.296875 0)"/>
     <use xlink:href="#DejaVuSans-14" transform="translate(676.921875 0)"/>
     <use xlink:href="#DejaVuSans-3" transform="translate(740.546875 0)"/>
     <use xlink:href="#DejaVuSans-4a" transform="translate(772.328125 0)"/>
     <use xlink:href="#DejaVuSans-4c" transform="translate(835.8125 0)"/>
     <use xlink:href="#DejaVuSans-45" transform="translate(863.59375 0)"/>
     <use xlink:href="#DejaVuSans-4c" transform="translate(927.078125 0)"/>
     <use xlink:href="#DejaVuSans-3" transform="translate(954.859375 0)"/>
     <use xlink:href="#DejaVuSans-45" transform="translate(986.640625 0)"/>
     <use xlink:href="#DejaVuSans-48" transform="translate(1050.125 0)"/>
     <use xlink:href="#DejaVuSans-51" transform="translate(1111.65625 0)"/>
     <use xlink:href="#DejaVuSans-5d" transform="translate(1175.03125 0)"/>
     <use xlink:href="#DejaVuSans-48" transform="translate(1227.515625 0)"/>
     <use xlink:href="#DejaVuSans-55" transform="translate(1289.046875 0)"/>
     <use xlink:href="#DejaVuSans-56" transform="translate(1330.15625 0)"/>
     <use xlink:href="#DejaVuSans-4c" transform="translate(1382.25 0)"/>
     <use xlink:href="#DejaVuSans-5d" transform="translate(1410.03125 0)"/>
    </g>
   </g>
   <g id="text_5">
    <!-- Ölçülebilir ifade -->
    <g style="fill: #1f2933" transform="translate(115.417469 123.163689) scale(0.118 -0.118)">
     <defs>
      <path id="DejaVuSans-Bold-98" d="M 2719 3878 
Q 2169 3878 1866 3472 
Q 1563 3066 1563 2328 
Q 1563 1594 1866 1187 
Q 2169 781 2719 781 
Q 3272 781 3575 1187 
Q 3878 1594 3878 2328 
Q 3878 3066 3575 3472 
Q 3272 3878 2719 3878 
z
M 2719 4750 
Q 3844 4750 4481 4106 
Q 5119 3463 5119 2328 
Q 5119 1197 4481 553 
Q 3844 -91 2719 -91 
Q 1597 -91 958 553 
Q 319 1197 319 2328 
Q 319 3463 958 4106 
Q 1597 4750 2719 4750 
z
M 1735 5935 
L 2469 5935 
L 2469 5166 
L 1735 5166 
L 1735 5935 
z
M 2969 5935 
L 3703 5935 
L 3703 5166 
L 2969 5166 
L 2969 5935 
z
" transform="scale(0.015625)"/>
      <path id="DejaVuSans-Bold-a9" d="M 3366 3391 
L 3366 2478 
Q 3138 2634 2908 2709 
Q 2678 2784 2431 2784 
Q 1963 2784 1702 2511 
Q 1441 2238 1441 1747 
Q 1441 1256 1702 982 
Q 1963 709 2431 709 
Q 2694 709 2930 787 
Q 3166 866 3366 1019 
L 3366 103 
Q 3103 6 2833 -42 
Q 2563 -91 2291 -91 
Q 1344 -91 809 395 
Q 275 881 275 1747 
Q 275 2613 809 3098 
Q 1344 3584 2291 3584 
Q 2566 3584 2833 3536 
Q 3100 3488 3366 3391 
z
M 2456 0 
Q 2638 -194 2723 -359 
Q 2809 -525 2809 -672 
Q 2809 -969 2617 -1111 
Q 2425 -1253 2028 -1253 
Q 1878 -1253 1718 -1233 
Q 1559 -1213 1397 -1172 
L 1394 -697 
Q 1550 -747 1679 -770 
Q 1809 -794 1913 -794 
Q 2094 -794 2195 -722 
Q 2297 -650 2297 -525 
Q 2297 -444 2230 -316 
Q 2163 -188 2022 0 
L 2456 0 
z
" transform="scale(0.015625)"/>
      <path id="DejaVuSans-Bold-be" d="M 500 1363 
L 500 3500 
L 1625 3500 
L 1625 3150 
Q 1625 2866 1622 2436 
Q 1619 2006 1619 1863 
Q 1619 1441 1641 1255 
Q 1663 1069 1716 984 
Q 1784 875 1895 815 
Q 2006 756 2150 756 
Q 2500 756 2700 1025 
Q 2900 1294 2900 1772 
L 2900 3500 
L 4019 3500 
L 4019 0 
L 2900 0 
L 2900 506 
Q 2647 200 2364 54 
Q 2081 -91 1741 -91 
Q 1134 -91 817 281 
Q 500 653 500 1363 
z
M 1279 4953 
L 2013 4953 
L 2013 4184 
L 1279 4184 
L 1279 4953 
z
M 2513 4953 
L 3247 4953 
L 3247 4184 
L 2513 4184 
L 2513 4953 
z
" transform="scale(0.015625)"/>
      <path id="DejaVuSans-Bold-49" d="M 2841 4863 
L 2841 4128 
L 2222 4128 
Q 1984 4128 1890 4042 
Q 1797 3956 1797 3744 
L 1797 3500 
L 2753 3500 
L 2753 2700 
L 1797 2700 
L 1797 0 
L 678 0 
L 678 2700 
L 122 2700 
L 122 3500 
L 678 3500 
L 678 3744 
Q 678 4316 997 4589 
Q 1316 4863 1984 4863 
L 2841 4863 
z
" transform="scale(0.015625)"/>
      <path id="DejaVuSans-Bold-47" d="M 2919 2988 
L 2919 4863 
L 4044 4863 
L 4044 0 
L 2919 0 
L 2919 506 
Q 2688 197 2409 53 
Q 2131 -91 1766 -91 
Q 1119 -91 703 423 
Q 288 938 288 1747 
Q 288 2556 703 3070 
Q 1119 3584 1766 3584 
Q 2128 3584 2408 3439 
Q 2688 3294 2919 2988 
z
M 2181 722 
Q 2541 722 2730 984 
Q 2919 1247 2919 1747 
Q 2919 2247 2730 2509 
Q 2541 2772 2181 2772 
Q 1825 2772 1636 2509 
Q 1447 2247 1447 1747 
Q 1447 1247 1636 984 
Q 1825 722 2181 722 
z
" transform="scale(0.015625)"/>
     </defs>
     <use xlink:href="#DejaVuSans-Bold-98"/>
     <use xlink:href="#DejaVuSans-Bold-4f" transform="translate(85.015625 0)"/>
     <use xlink:href="#DejaVuSans-Bold-a9" transform="translate(119.296875 0)"/>
     <use xlink:href="#DejaVuSans-Bold-be" transform="translate(178.578125 0)"/>
     <use xlink:href="#DejaVuSans-Bold-4f" transform="translate(249.765625 0)"/>
     <use xlink:href="#DejaVuSans-Bold-48" transform="translate(284.046875 0)"/>
     <use xlink:href="#DejaVuSans-Bold-45" transform="translate(351.875 0)"/>
     <use xlink:href="#DejaVuSans-Bold-4c" transform="translate(423.453125 0)"/>
     <use xlink:href="#DejaVuSans-Bold-4f" transform="translate(457.734375 0)"/>
     <use xlink:href="#DejaVuSans-Bold-4c" transform="translate(492.015625 0)"/>
     <use xlink:href="#DejaVuSans-Bold-55" transform="translate(526.296875 0)"/>
     <use xlink:href="#DejaVuSans-Bold-3" transform="translate(575.609375 0)"/>
     <use xlink:href="#DejaVuSans-Bold-4c" transform="translate(610.421875 0)"/>
     <use xlink:href="#DejaVuSans-Bold-49" transform="translate(644.703125 0)"/>
     <use xlink:href="#DejaVuSans-Bold-44" transform="translate(688.203125 0)"/>
     <use xlink:href="#DejaVuSans-Bold-47" transform="translate(755.6875 0)"/>
     <use xlink:href="#DejaVuSans-Bold-48" transform="translate(827.265625 0)"/>
    </g>
   </g>
   <g id="text_6">
    <!-- ne yapılacak -->
    <g style="fill: #6b7280" transform="translate(321.678 121.759752) scale(0.102 -0.102)">
     <defs>
      <path id="DejaVuSans-53" d="M 1159 525 
L 1159 -1331 
L 581 -1331 
L 581 3500 
L 1159 3500 
L 1159 2969 
Q 1341 3281 1617 3432 
Q 1894 3584 2278 3584 
Q 2916 3584 3314 3078 
Q 3713 2572 3713 1747 
Q 3713 922 3314 415 
Q 2916 -91 2278 -91 
Q 1894 -91 1617 61 
Q 1341 213 1159 525 
z
M 3116 1747 
Q 3116 2381 2855 2742 
Q 2594 3103 2138 3103 
Q 1681 3103 1420 2742 
Q 1159 2381 1159 1747 
Q 1159 1113 1420 752 
Q 1681 391 2138 391 
Q 2594 391 2855 752 
Q 3116 1113 3116 1747 
z
" transform="scale(0.015625)"/>
      <path id="DejaVuSans-46" d="M 3122 3366 
L 3122 2828 
Q 2878 2963 2633 3030 
Q 2388 3097 2138 3097 
Q 1578 3097 1268 2742 
Q 959 2388 959 1747 
Q 959 1106 1268 751 
Q 1578 397 2138 397 
Q 2388 397 2633 464 
Q 2878 531 3122 666 
L 3122 134 
Q 2881 22 2623 -34 
Q 2366 -91 2075 -91 
Q 1284 -91 818 406 
Q 353 903 353 1747 
Q 353 2603 823 3093 
Q 1294 3584 2113 3584 
Q 2378 3584 2631 3529 
Q 2884 3475 3122 3366 
z
" transform="scale(0.015625)"/>
     </defs>
     <use xlink:href="#DejaVuSans-51"/>
     <use xlink:href="#DejaVuSans-48" transform="translate(63.375 0)"/>
     <use xlink:href="#DejaVuSans-3" transform="translate(124.90625 0)"/>
     <use xlink:href="#DejaVuSans-5c" transform="translate(156.6875 0)"/>
     <use xlink:href="#DejaVuSans-44" transform="translate(215.875 0)"/>
     <use xlink:href="#DejaVuSans-53" transform="translate(277.15625 0)"/>
     <use xlink:href="#DejaVuSans-f3" transform="translate(340.640625 0)"/>
     <use xlink:href="#DejaVuSans-4f" transform="translate(368.421875 0)"/>
     <use xlink:href="#DejaVuSans-44" transform="translate(396.203125 0)"/>
     <use xlink:href="#DejaVuSans-46" transform="translate(457.484375 0)"/>
     <use xlink:href="#DejaVuSans-44" transform="translate(512.46875 0)"/>
     <use xlink:href="#DejaVuSans-4e" transform="translate(573.75 0)"/>
    </g>
   </g>
   <g id="text_7">
    <!-- Kaynak / gerekçe -->
    <g style="fill: #1f2933" transform="translate(111.082813 150.117199) scale(0.118 -0.118)">
     <defs>
      <path id="DejaVuSans-Bold-5c" d="M 78 3500 
L 1197 3500 
L 2138 1125 
L 2938 3500 
L 4056 3500 
L 2584 -331 
Q 2363 -916 2067 -1148 
Q 1772 -1381 1288 -1381 
L 641 -1381 
L 641 -647 
L 991 -647 
Q 1275 -647 1404 -556 
Q 1534 -466 1606 -231 
L 1638 -134 
L 78 3500 
z
" transform="scale(0.015625)"/>
      <path id="DejaVuSans-Bold-12" d="M 1644 4666 
L 2338 4666 
L 691 -594 
L 0 -594 
L 1644 4666 
z
" transform="scale(0.015625)"/>
      <path id="DejaVuSans-Bold-4a" d="M 2919 594 
Q 2688 288 2409 144 
Q 2131 0 1766 0 
Q 1125 0 706 504 
Q 288 1009 288 1791 
Q 288 2575 706 3076 
Q 1125 3578 1766 3578 
Q 2131 3578 2409 3434 
Q 2688 3291 2919 2981 
L 2919 3500 
L 4044 3500 
L 4044 353 
Q 4044 -491 3511 -936 
Q 2978 -1381 1966 -1381 
Q 1638 -1381 1331 -1331 
Q 1025 -1281 716 -1178 
L 716 -306 
Q 1009 -475 1290 -558 
Q 1572 -641 1856 -641 
Q 2406 -641 2662 -400 
Q 2919 -159 2919 353 
L 2919 594 
z
M 2181 2772 
Q 1834 2772 1640 2515 
Q 1447 2259 1447 1791 
Q 1447 1309 1634 1061 
Q 1822 813 2181 813 
Q 2531 813 2725 1069 
Q 2919 1325 2919 1791 
Q 2919 2259 2725 2515 
Q 2531 2772 2181 2772 
z
" transform="scale(0.015625)"/>
     </defs>
     <use xlink:href="#DejaVuSans-Bold-2e"/>
     <use xlink:href="#DejaVuSans-Bold-44" transform="translate(77.484375 0)"/>
     <use xlink:href="#DejaVuSans-Bold-5c" transform="translate(141.890625 0)"/>
     <use xlink:href="#DejaVuSans-Bold-51" transform="translate(207.078125 0)"/>
     <use xlink:href="#DejaVuSans-Bold-44" transform="translate(278.265625 0)"/>
     <use xlink:href="#DejaVuSans-Bold-4e" transform="translate(345.75 0)"/>
     <use xlink:href="#DejaVuSans-Bold-3" transform="translate(412.25 0)"/>
     <use xlink:href="#DejaVuSans-Bold-12" transform="translate(447.0625 0)"/>
     <use xlink:href="#DejaVuSans-Bold-3" transform="translate(483.59375 0)"/>
     <use xlink:href="#DejaVuSans-Bold-4a" transform="translate(518.40625 0)"/>
     <use xlink:href="#DejaVuSans-Bold-48" transform="translate(589.984375 0)"/>
     <use xlink:href="#DejaVuSans-Bold-55" transform="translate(657.8125 0)"/>
     <use xlink:href="#DejaVuSans-Bold-48" transform="translate(707.125 0)"/>
     <use xlink:href="#DejaVuSans-Bold-4e" transform="translate(774.953125 0)"/>
     <use xlink:href="#DejaVuSans-Bold-a9" transform="translate(841.453125 0)"/>
     <use xlink:href="#DejaVuSans-Bold-48" transform="translate(900.734375 0)"/>
    </g>
   </g>
   <g id="text_8">
    <!-- hangi tehdit ya da standart -->
    <g style="fill: #6b7280" transform="translate(321.678 149.701512) scale(0.102 -0.102)">
     <defs>
      <path id="DejaVuSans-47" d="M 2906 2969 
L 2906 4863 
L 3481 4863 
L 3481 0 
L 2906 0 
L 2906 525 
Q 2725 213 2448 61 
Q 2172 -91 1784 -91 
Q 1150 -91 751 415 
Q 353 922 353 1747 
Q 353 2572 751 3078 
Q 1150 3584 1784 3584 
Q 2172 3584 2448 3432 
Q 2725 3281 2906 2969 
z
M 947 1747 
Q 947 1113 1208 752 
Q 1469 391 1925 391 
Q 2381 391 2643 752 
Q 2906 1113 2906 1747 
Q 2906 2381 2643 2742 
Q 2381 3103 1925 3103 
Q 1469 3103 1208 2742 
Q 947 2381 947 1747 
z
" transform="scale(0.015625)"/>
     </defs>
     <use xlink:href="#DejaVuSans-4b"/>
     <use xlink:href="#DejaVuSans-44" transform="translate(63.375 0)"/>
     <use xlink:href="#DejaVuSans-51" transform="translate(124.65625 0)"/>
     <use xlink:href="#DejaVuSans-4a" transform="translate(188.03125 0)"/>
     <use xlink:href="#DejaVuSans-4c" transform="translate(251.515625 0)"/>
     <use xlink:href="#DejaVuSans-3" transform="translate(279.296875 0)"/>
     <use xlink:href="#DejaVuSans-57" transform="translate(311.078125 0)"/>
     <use xlink:href="#DejaVuSans-48" transform="translate(350.28125 0)"/>
     <use xlink:href="#DejaVuSans-4b" transform="translate(411.8125 0)"/>
     <use xlink:href="#DejaVuSans-47" transform="translate(475.1875 0)"/>
     <use xlink:href="#DejaVuSans-4c" transform="translate(538.671875 0)"/>
     <use xlink:href="#DejaVuSans-57" transform="translate(566.453125 0)"/>
     <use xlink:href="#DejaVuSans-3" transform="translate(605.65625 0)"/>
     <use xlink:href="#DejaVuSans-5c" transform="translate(637.4375 0)"/>
     <use xlink:href="#DejaVuSans-44" transform="translate(696.625 0)"/>
     <use xlink:href="#DejaVuSans-3" transform="translate(757.90625 0)"/>
     <use xlink:href="#DejaVuSans-47" transform="translate(789.6875 0)"/>
     <use xlink:href="#DejaVuSans-44" transform="translate(853.171875 0)"/>
     <use xlink:href="#DejaVuSans-3" transform="translate(914.453125 0)"/>
     <use xlink:href="#DejaVuSans-56" transform="translate(946.234375 0)"/>
     <use xlink:href="#DejaVuSans-57" transform="translate(998.328125 0)"/>
     <use xlink:href="#DejaVuSans-44" transform="translate(1037.53125 0)"/>
     <use xlink:href="#DejaVuSans-51" transform="translate(1098.8125 0)"/>
     <use xlink:href="#DejaVuSans-47" transform="translate(1162.1875 0)"/>
     <use xlink:href="#DejaVuSans-44" transform="translate(1225.671875 0)"/>
     <use xlink:href="#DejaVuSans-55" transform="translate(1286.953125 0)"/>
     <use xlink:href="#DejaVuSans-57" transform="translate(1328.0625 0)"/>
    </g>
   </g>
   <g id="text_9">
    <!-- İlgili varlık -->
    <g style="fill: #1f2933" transform="translate(132.959828 179.047209) scale(0.118 -0.118)">
     <defs>
      <path id="DejaVuSans-Bold-f2" d="M 588 4666 
L 1791 4666 
L 1791 0 
L 588 0 
L 588 4666 
z
M 772 5935 
L 1628 5935 
L 1628 5166 
L 772 5166 
L 772 5935 
z
" transform="scale(0.015625)"/>
      <path id="DejaVuSans-Bold-59" d="M 97 3500 
L 1216 3500 
L 2088 1081 
L 2956 3500 
L 4078 3500 
L 2700 0 
L 1472 0 
L 97 3500 
z
" transform="scale(0.015625)"/>
     </defs>
     <use xlink:href="#DejaVuSans-Bold-f2"/>
     <use xlink:href="#DejaVuSans-Bold-4f" transform="translate(37.203125 0)"/>
     <use xlink:href="#DejaVuSans-Bold-4a" transform="translate(71.484375 0)"/>
     <use xlink:href="#DejaVuSans-Bold-4c" transform="translate(143.0625 0)"/>
     <use xlink:href="#DejaVuSans-Bold-4f" transform="translate(177.34375 0)"/>
     <use xlink:href="#DejaVuSans-Bold-4c" transform="translate(211.625 0)"/>
     <use xlink:href="#DejaVuSans-Bold-3" transform="translate(245.90625 0)"/>
     <use xlink:href="#DejaVuSans-Bold-59" transform="translate(280.71875 0)"/>
     <use xlink:href="#DejaVuSans-Bold-44" transform="translate(345.90625 0)"/>
     <use xlink:href="#DejaVuSans-Bold-55" transform="translate(413.390625 0)"/>
     <use xlink:href="#DejaVuSans-Bold-4f" transform="translate(462.703125 0)"/>
     <use xlink:href="#DejaVuSans-Bold-f3" transform="translate(496.984375 0)"/>
     <use xlink:href="#DejaVuSans-Bold-4e" transform="translate(531.265625 0)"/>
    </g>
   </g>
   <g id="text_10">
    <!-- neyi koruyor (S5) -->
    <g style="fill: #6b7280" transform="translate(321.678 177.643272) scale(0.102 -0.102)">
     <defs>
      <path id="DejaVuSans-52" d="M 1959 3097 
Q 1497 3097 1228 2736 
Q 959 2375 959 1747 
Q 959 1119 1226 758 
Q 1494 397 1959 397 
Q 2419 397 2687 759 
Q 2956 1122 2956 1747 
Q 2956 2369 2687 2733 
Q 2419 3097 1959 3097 
z
M 1959 3584 
Q 2709 3584 3137 3096 
Q 3566 2609 3566 1747 
Q 3566 888 3137 398 
Q 2709 -91 1959 -91 
Q 1206 -91 779 398 
Q 353 888 353 1747 
Q 353 2609 779 3096 
Q 1206 3584 1959 3584 
z
" transform="scale(0.015625)"/>
      <path id="DejaVuSans-b" d="M 1984 4856 
Q 1566 4138 1362 3434 
Q 1159 2731 1159 2009 
Q 1159 1288 1364 580 
Q 1569 -128 1984 -844 
L 1484 -844 
Q 1016 -109 783 600 
Q 550 1309 550 2009 
Q 550 2706 781 3412 
Q 1013 4119 1484 4856 
L 1984 4856 
z
" transform="scale(0.015625)"/>
      <path id="DejaVuSans-36" d="M 3425 4513 
L 3425 3897 
Q 3066 4069 2747 4153 
Q 2428 4238 2131 4238 
Q 1616 4238 1336 4038 
Q 1056 3838 1056 3469 
Q 1056 3159 1242 3001 
Q 1428 2844 1947 2747 
L 2328 2669 
Q 3034 2534 3370 2195 
Q 3706 1856 3706 1288 
Q 3706 609 3251 259 
Q 2797 -91 1919 -91 
Q 1588 -91 1214 -16 
Q 841 59 441 206 
L 441 856 
Q 825 641 1194 531 
Q 1563 422 1919 422 
Q 2459 422 2753 634 
Q 3047 847 3047 1241 
Q 3047 1584 2836 1778 
Q 2625 1972 2144 2069 
L 1759 2144 
Q 1053 2284 737 2584 
Q 422 2884 422 3419 
Q 422 4038 858 4394 
Q 1294 4750 2059 4750 
Q 2388 4750 2728 4690 
Q 3069 4631 3425 4513 
z
" transform="scale(0.015625)"/>
      <path id="DejaVuSans-18" d="M 691 4666 
L 3169 4666 
L 3169 4134 
L 1269 4134 
L 1269 2991 
Q 1406 3038 1543 3061 
Q 1681 3084 1819 3084 
Q 2600 3084 3056 2656 
Q 3513 2228 3513 1497 
Q 3513 744 3044 326 
Q 2575 -91 1722 -91 
Q 1428 -91 1123 -41 
Q 819 9 494 109 
L 494 744 
Q 775 591 1075 516 
Q 1375 441 1709 441 
Q 2250 441 2565 725 
Q 2881 1009 2881 1497 
Q 2881 1984 2565 2268 
Q 2250 2553 1709 2553 
Q 1456 2553 1204 2497 
Q 953 2441 691 2322 
L 691 4666 
z
" transform="scale(0.015625)"/>
      <path id="DejaVuSans-c" d="M 513 4856 
L 1013 4856 
Q 1481 4119 1714 3412 
Q 1947 2706 1947 2009 
Q 1947 1309 1714 600 
Q 1481 -109 1013 -844 
L 513 -844 
Q 928 -128 1133 580 
Q 1338 1288 1338 2009 
Q 1338 2731 1133 3434 
Q 928 4138 513 4856 
z
" transform="scale(0.015625)"/>
     </defs>
     <use xlink:href="#DejaVuSans-51"/>
     <use xlink:href="#DejaVuSans-48" transform="translate(63.375 0)"/>
     <use xlink:href="#DejaVuSans-5c" transform="translate(124.90625 0)"/>
     <use xlink:href="#DejaVuSans-4c" transform="translate(184.09375 0)"/>
     <use xlink:href="#DejaVuSans-3" transform="translate(211.875 0)"/>
     <use xlink:href="#DejaVuSans-4e" transform="translate(243.65625 0)"/>
     <use xlink:href="#DejaVuSans-52" transform="translate(298 0)"/>
     <use xlink:href="#DejaVuSans-55" transform="translate(359.1875 0)"/>
     <use xlink:href="#DejaVuSans-58" transform="translate(400.296875 0)"/>
     <use xlink:href="#DejaVuSans-5c" transform="translate(463.671875 0)"/>
     <use xlink:href="#DejaVuSans-52" transform="translate(522.859375 0)"/>
     <use xlink:href="#DejaVuSans-55" transform="translate(584.046875 0)"/>
     <use xlink:href="#DejaVuSans-3" transform="translate(625.15625 0)"/>
     <use xlink:href="#DejaVuSans-b" transform="translate(656.9375 0)"/>
     <use xlink:href="#DejaVuSans-36" transform="translate(695.953125 0)"/>
     <use xlink:href="#DejaVuSans-18" transform="translate(759.4375 0)"/>
     <use xlink:href="#DejaVuSans-c" transform="translate(823.0625 0)"/>
    </g>
   </g>
   <g id="text_11">
    <!-- Doğrulama yöntemi -->
    <g style="fill: #1f2933" transform="translate(102.66425 206.144532) scale(0.118 -0.118)">
     <defs>
      <path id="DejaVuSans-Bold-b8" d="M 2203 2784 
Q 1831 2784 1636 2517 
Q 1441 2250 1441 1747 
Q 1441 1244 1636 976 
Q 1831 709 2203 709 
Q 2569 709 2762 976 
Q 2956 1244 2956 1747 
Q 2956 2250 2762 2517 
Q 2569 2784 2203 2784 
z
M 2203 3584 
Q 3106 3584 3614 3096 
Q 4122 2609 4122 1747 
Q 4122 884 3614 396 
Q 3106 -91 2203 -91 
Q 1297 -91 786 396 
Q 275 884 275 1747 
Q 275 2609 786 3096 
Q 1297 3584 2203 3584 
z
M 1210 4953 
L 1944 4953 
L 1944 4184 
L 1210 4184 
L 1210 4953 
z
M 2444 4953 
L 3178 4953 
L 3178 4184 
L 2444 4184 
L 2444 4953 
z
" transform="scale(0.015625)"/>
      <path id="DejaVuSans-Bold-57" d="M 1759 4494 
L 1759 3500 
L 2913 3500 
L 2913 2700 
L 1759 2700 
L 1759 1216 
Q 1759 972 1856 886 
Q 1953 800 2241 800 
L 2816 800 
L 2816 0 
L 1856 0 
Q 1194 0 917 276 
Q 641 553 641 1216 
L 641 2700 
L 84 2700 
L 84 3500 
L 641 3500 
L 641 4494 
L 1759 4494 
z
" transform="scale(0.015625)"/>
     </defs>
     <use xlink:href="#DejaVuSans-Bold-27"/>
     <use xlink:href="#DejaVuSans-Bold-52" transform="translate(83.015625 0)"/>
     <use xlink:href="#DejaVuSans-Bold-e1" transform="translate(151.71875 0)"/>
     <use xlink:href="#DejaVuSans-Bold-55" transform="translate(223.296875 0)"/>
     <use xlink:href="#DejaVuSans-Bold-58" transform="translate(272.609375 0)"/>
     <use xlink:href="#DejaVuSans-Bold-4f" transform="translate(343.796875 0)"/>
     <use xlink:href="#DejaVuSans-Bold-44" transform="translate(378.078125 0)"/>
     <use xlink:href="#DejaVuSans-Bold-50" transform="translate(445.5625 0)"/>
     <use xlink:href="#DejaVuSans-Bold-44" transform="translate(549.765625 0)"/>
     <use xlink:href="#DejaVuSans-Bold-3" transform="translate(617.25 0)"/>
     <use xlink:href="#DejaVuSans-Bold-5c" transform="translate(652.0625 0)"/>
     <use xlink:href="#DejaVuSans-Bold-b8" transform="translate(717.25 0)"/>
     <use xlink:href="#DejaVuSans-Bold-51" transform="translate(785.953125 0)"/>
     <use xlink:href="#DejaVuSans-Bold-57" transform="translate(857.140625 0)"/>
     <use xlink:href="#DejaVuSans-Bold-48" transform="translate(904.9375 0)"/>
     <use xlink:href="#DejaVuSans-Bold-50" transform="translate(972.765625 0)"/>
     <use xlink:href="#DejaVuSans-Bold-4c" transform="translate(1076.96875 0)"/>
    </g>
   </g>
   <g id="text_12">
    <!-- hangi test kanıtlayacak (S16) -->
    <g style="fill: #6b7280" transform="translate(321.678 205.585032) scale(0.102 -0.102)">
     <defs>
      <path id="DejaVuSans-19" d="M 2113 2584 
Q 1688 2584 1439 2293 
Q 1191 2003 1191 1497 
Q 1191 994 1439 701 
Q 1688 409 2113 409 
Q 2538 409 2786 701 
Q 3034 994 3034 1497 
Q 3034 2003 2786 2293 
Q 2538 2584 2113 2584 
z
M 3366 4563 
L 3366 3988 
Q 3128 4100 2886 4159 
Q 2644 4219 2406 4219 
Q 1781 4219 1451 3797 
Q 1122 3375 1075 2522 
Q 1259 2794 1537 2939 
Q 1816 3084 2150 3084 
Q 2853 3084 3261 2657 
Q 3669 2231 3669 1497 
Q 3669 778 3244 343 
Q 2819 -91 2113 -91 
Q 1303 -91 875 529 
Q 447 1150 447 2328 
Q 447 3434 972 4092 
Q 1497 4750 2381 4750 
Q 2619 4750 2861 4703 
Q 3103 4656 3366 4563 
z
" transform="scale(0.015625)"/>
     </defs>
     <use xlink:href="#DejaVuSans-4b"/>
     <use xlink:href="#DejaVuSans-44" transform="translate(63.375 0)"/>
     <use xlink:href="#DejaVuSans-51" transform="translate(124.65625 0)"/>
     <use xlink:href="#DejaVuSans-4a" transform="translate(188.03125 0)"/>
     <use xlink:href="#DejaVuSans-4c" transform="translate(251.515625 0)"/>
     <use xlink:href="#DejaVuSans-3" transform="translate(279.296875 0)"/>
     <use xlink:href="#DejaVuSans-57" transform="translate(311.078125 0)"/>
     <use xlink:href="#DejaVuSans-48" transform="translate(350.28125 0)"/>
     <use xlink:href="#DejaVuSans-56" transform="translate(411.8125 0)"/>
     <use xlink:href="#DejaVuSans-57" transform="translate(463.90625 0)"/>
     <use xlink:href="#DejaVuSans-3" transform="translate(503.109375 0)"/>
     <use xlink:href="#DejaVuSans-4e" transform="translate(534.890625 0)"/>
     <use xlink:href="#DejaVuSans-44" transform="translate(591.046875 0)"/>
     <use xlink:href="#DejaVuSans-51" transform="translate(652.328125 0)"/>
     <use xlink:href="#DejaVuSans-f3" transform="translate(715.703125 0)"/>
     <use xlink:href="#DejaVuSans-57" transform="translate(743.484375 0)"/>
     <use xlink:href="#DejaVuSans-4f" transform="translate(782.6875 0)"/>
     <use xlink:href="#DejaVuSans-44" transform="translate(810.46875 0)"/>
     <use xlink:href="#DejaVuSans-5c" transform="translate(871.75 0)"/>
     <use xlink:href="#DejaVuSans-44" transform="translate(930.9375 0)"/>
     <use xlink:href="#DejaVuSans-46" transform="translate(992.21875 0)"/>
     <use xlink:href="#DejaVuSans-44" transform="translate(1047.203125 0)"/>
     <use xlink:href="#DejaVuSans-4e" transform="translate(1108.484375 0)"/>
     <use xlink:href="#DejaVuSans-3" transform="translate(1166.390625 0)"/>
     <use xlink:href="#DejaVuSans-b" transform="translate(1198.171875 0)"/>
     <use xlink:href="#DejaVuSans-36" transform="translate(1237.1875 0)"/>
     <use xlink:href="#DejaVuSans-14" transform="translate(1300.671875 0)"/>
     <use xlink:href="#DejaVuSans-19" transform="translate(1364.296875 0)"/>
     <use xlink:href="#DejaVuSans-c" transform="translate(1427.921875 0)"/>
    </g>
   </g>
   <g id="text_13">
    <!-- Durum -->
    <g style="fill: #1f2933" transform="translate(145.872531 233.942018) scale(0.118 -0.118)">
     <use xlink:href="#DejaVuSans-Bold-27"/>
     <use xlink:href="#DejaVuSans-Bold-58" transform="translate(83.015625 0)"/>
     <use xlink:href="#DejaVuSans-Bold-55" transform="translate(154.203125 0)"/>
     <use xlink:href="#DejaVuSans-Bold-58" transform="translate(203.515625 0)"/>
     <use xlink:href="#DejaVuSans-Bold-50" transform="translate(274.703125 0)"/>
    </g>
   </g>
   <g id="text_14">
    <!-- karşılandı / devredildi / karşılanmadı -->
    <g style="fill: #6b7280" transform="translate(321.678 233.526792) scale(0.102 -0.102)">
     <defs>
      <path id="DejaVuSans-121" d="M 2834 3397 
L 2834 2853 
Q 2591 2978 2328 3040 
Q 2066 3103 1784 3103 
Q 1356 3103 1142 2972 
Q 928 2841 928 2578 
Q 928 2378 1081 2264 
Q 1234 2150 1697 2047 
L 1894 2003 
Q 2506 1872 2764 1633 
Q 3022 1394 3022 966 
Q 3022 478 2636 193 
Q 2250 -91 1575 -91 
Q 1294 -91 989 -36 
Q 684 19 347 128 
L 347 722 
Q 666 556 975 473 
Q 1284 391 1588 391 
Q 1994 391 2212 530 
Q 2431 669 2431 922 
Q 2431 1156 2273 1281 
Q 2116 1406 1581 1522 
L 1381 1569 
Q 847 1681 609 1914 
Q 372 2147 372 2553 
Q 372 3047 722 3315 
Q 1072 3584 1716 3584 
Q 2034 3584 2315 3537 
Q 2597 3491 2834 3397 
z
M 1935 0 
Q 2106 -194 2190 -358 
Q 2275 -522 2275 -672 
Q 2275 -950 2087 -1092 
Q 1900 -1234 1531 -1234 
Q 1388 -1234 1252 -1215 
Q 1116 -1197 981 -1159 
L 981 -750 
Q 1088 -803 1203 -826 
Q 1319 -850 1466 -850 
Q 1650 -850 1744 -775 
Q 1838 -700 1838 -556 
Q 1838 -463 1770 -327 
Q 1703 -191 1563 0 
L 1935 0 
z
" transform="scale(0.015625)"/>
      <path id="DejaVuSans-12" d="M 1625 4666 
L 2156 4666 
L 531 -594 
L 0 -594 
L 1625 4666 
z
" transform="scale(0.015625)"/>
      <path id="DejaVuSans-59" d="M 191 3500 
L 800 3500 
L 1894 563 
L 2988 3500 
L 3597 3500 
L 2284 0 
L 1503 0 
L 191 3500 
z
" transform="scale(0.015625)"/>
     </defs>
     <use xlink:href="#DejaVuSans-4e"/>
     <use xlink:href="#DejaVuSans-44" transform="translate(56.15625 0)"/>
     <use xlink:href="#DejaVuSans-55" transform="translate(117.4375 0)"/>
     <use xlink:href="#DejaVuSans-121" transform="translate(158.546875 0)"/>
     <use xlink:href="#DejaVuSans-f3" transform="translate(210.640625 0)"/>
     <use xlink:href="#DejaVuSans-4f" transform="translate(238.421875 0)"/>
     <use xlink:href="#DejaVuSans-44" transform="translate(266.203125 0)"/>
     <use xlink:href="#DejaVuSans-51" transform="translate(327.484375 0)"/>
     <use xlink:href="#DejaVuSans-47" transform="translate(390.859375 0)"/>
     <use xlink:href="#DejaVuSans-f3" transform="translate(454.34375 0)"/>
     <use xlink:href="#DejaVuSans-3" transform="translate(482.125 0)"/>
     <use xlink:href="#DejaVuSans-12" transform="translate(513.90625 0)"/>
     <use xlink:href="#DejaVuSans-3" transform="translate(547.59375 0)"/>
     <use xlink:href="#DejaVuSans-47" transform="translate(579.375 0)"/>
     <use xlink:href="#DejaVuSans-48" transform="translate(642.859375 0)"/>
     <use xlink:href="#DejaVuSans-59" transform="translate(704.390625 0)"/>
     <use xlink:href="#DejaVuSans-55" transform="translate(763.578125 0)"/>
     <use xlink:href="#DejaVuSans-48" transform="translate(802.484375 0)"/>
     <use xlink:href="#DejaVuSans-47" transform="translate(864.015625 0)"/>
     <use xlink:href="#DejaVuSans-4c" transform="translate(927.5 0)"/>
     <use xlink:href="#DejaVuSans-4f" transform="translate(955.28125 0)"/>
     <use xlink:href="#DejaVuSans-47" transform="translate(983.0625 0)"/>
     <use xlink:href="#DejaVuSans-4c" transform="translate(1046.546875 0)"/>
     <use xlink:href="#DejaVuSans-3" transform="translate(1074.328125 0)"/>
     <use xlink:href="#DejaVuSans-12" transform="translate(1106.109375 0)"/>
     <use xlink:href="#DejaVuSans-3" transform="translate(1139.796875 0)"/>
     <use xlink:href="#DejaVuSans-4e" transform="translate(1171.578125 0)"/>
     <use xlink:href="#DejaVuSans-44" transform="translate(1227.734375 0)"/>
     <use xlink:href="#DejaVuSans-55" transform="translate(1289.015625 0)"/>
     <use xlink:href="#DejaVuSans-121" transform="translate(1330.125 0)"/>
     <use xlink:href="#DejaVuSans-f3" transform="translate(1382.21875 0)"/>
     <use xlink:href="#DejaVuSans-4f" transform="translate(1410 0)"/>
     <use xlink:href="#DejaVuSans-44" transform="translate(1437.78125 0)"/>
     <use xlink:href="#DejaVuSans-51" transform="translate(1499.0625 0)"/>
     <use xlink:href="#DejaVuSans-50" transform="translate(1562.4375 0)"/>
     <use xlink:href="#DejaVuSans-44" transform="translate(1659.84375 0)"/>
     <use xlink:href="#DejaVuSans-47" transform="translate(1721.125 0)"/>
     <use xlink:href="#DejaVuSans-f3" transform="translate(1784.609375 0)"/>
    </g>
   </g>
   <g id="text_15">
    <!-- Alanlardan biri boşsa gereksinim izlenebilir değildir. -->
    <g style="fill: #006d77" transform="translate(160.7475 275.360411) scale(0.12 -0.12)">
     <defs>
      <path id="DejaVuSans-24" d="M 2188 4044 
L 1331 1722 
L 3047 1722 
L 2188 4044 
z
M 1831 4666 
L 2547 4666 
L 4325 0 
L 3669 0 
L 3244 1197 
L 1141 1197 
L 716 0 
L 50 0 
L 1831 4666 
z
" transform="scale(0.015625)"/>
      <path id="DejaVuSans-e1" d="M 2906 1791 
Q 2906 2416 2648 2759 
Q 2391 3103 1925 3103 
Q 1463 3103 1205 2759 
Q 947 2416 947 1791 
Q 947 1169 1205 825 
Q 1463 481 1925 481 
Q 2391 481 2648 825 
Q 2906 1169 2906 1791 
z
M 3481 434 
Q 3481 -459 3084 -895 
Q 2688 -1331 1869 -1331 
Q 1566 -1331 1297 -1286 
Q 1028 -1241 775 -1147 
L 775 -588 
Q 1028 -725 1275 -790 
Q 1522 -856 1778 -856 
Q 2344 -856 2625 -561 
Q 2906 -266 2906 331 
L 2906 616 
Q 2728 306 2450 153 
Q 2172 0 1784 0 
Q 1141 0 747 490 
Q 353 981 353 1791 
Q 353 2603 747 3093 
Q 1141 3584 1784 3584 
Q 2172 3584 2450 3431 
Q 2728 3278 2906 2969 
L 2906 3500 
L 3481 3500 
L 3481 434 
z
M 1056 5025 
L 1425 5025 
Q 1459 4791 1610 4673 
Q 1762 4556 2034 4556 
Q 2303 4556 2453 4672 
Q 2603 4788 2643 5025 
L 3012 5025 
Q 2981 4578 2734 4353 
Q 2487 4128 2034 4128 
Q 1581 4128 1334 4353 
Q 1087 4578 1056 5025 
z
" transform="scale(0.015625)"/>
      <path id="DejaVuSans-11" d="M 684 794 
L 1344 794 
L 1344 0 
L 684 0 
L 684 794 
z
" transform="scale(0.015625)"/>
     </defs>
     <use xlink:href="#DejaVuSans-24"/>
     <use xlink:href="#DejaVuSans-4f" transform="translate(68.40625 0)"/>
     <use xlink:href="#DejaVuSans-44" transform="translate(96.1875 0)"/>
     <use xlink:href="#DejaVuSans-51" transform="translate(157.46875 0)"/>
     <use xlink:href="#DejaVuSans-4f" transform="translate(220.84375 0)"/>
     <use xlink:href="#DejaVuSans-44" transform="translate(248.625 0)"/>
     <use xlink:href="#DejaVuSans-55" transform="translate(309.90625 0)"/>
     <use xlink:href="#DejaVuSans-47" transform="translate(349.265625 0)"/>
     <use xlink:href="#DejaVuSans-44" transform="translate(412.75 0)"/>
     <use xlink:href="#DejaVuSans-51" transform="translate(474.03125 0)"/>
     <use xlink:href="#DejaVuSans-3" transform="translate(537.40625 0)"/>
     <use xlink:href="#DejaVuSans-45" transform="translate(569.1875 0)"/>
     <use xlink:href="#DejaVuSans-4c" transform="translate(632.671875 0)"/>
     <use xlink:href="#DejaVuSans-55" transform="translate(660.453125 0)"/>
     <use xlink:href="#DejaVuSans-4c" transform="translate(701.5625 0)"/>
     <use xlink:href="#DejaVuSans-3" transform="translate(729.34375 0)"/>
     <use xlink:href="#DejaVuSans-45" transform="translate(761.125 0)"/>
     <use xlink:href="#DejaVuSans-52" transform="translate(824.609375 0)"/>
     <use xlink:href="#DejaVuSans-121" transform="translate(885.796875 0)"/>
     <use xlink:href="#DejaVuSans-56" transform="translate(937.890625 0)"/>
     <use xlink:href="#DejaVuSans-44" transform="translate(989.984375 0)"/>
     <use xlink:href="#DejaVuSans-3" transform="translate(1051.265625 0)"/>
     <use xlink:href="#DejaVuSans-4a" transform="translate(1083.046875 0)"/>
     <use xlink:href="#DejaVuSans-48" transform="translate(1146.53125 0)"/>
     <use xlink:href="#DejaVuSans-55" transform="translate(1208.0625 0)"/>
     <use xlink:href="#DejaVuSans-48" transform="translate(1246.96875 0)"/>
     <use xlink:href="#DejaVuSans-4e" transform="translate(1308.5 0)"/>
     <use xlink:href="#DejaVuSans-56" transform="translate(1366.40625 0)"/>
     <use xlink:href="#DejaVuSans-4c" transform="translate(1418.5 0)"/>
     <use xlink:href="#DejaVuSans-51" transform="translate(1446.28125 0)"/>
     <use xlink:href="#DejaVuSans-4c" transform="translate(1509.65625 0)"/>
     <use xlink:href="#DejaVuSans-50" transform="translate(1537.4375 0)"/>
     <use xlink:href="#DejaVuSans-3" transform="translate(1634.84375 0)"/>
     <use xlink:href="#DejaVuSans-4c" transform="translate(1666.625 0)"/>
     <use xlink:href="#DejaVuSans-5d" transform="translate(1694.40625 0)"/>
     <use xlink:href="#DejaVuSans-4f" transform="translate(1746.890625 0)"/>
     <use xlink:href="#DejaVuSans-48" transform="translate(1774.671875 0)"/>
     <use xlink:href="#DejaVuSans-51" transform="translate(1836.203125 0)"/>
     <use xlink:href="#DejaVuSans-48" transform="translate(1899.578125 0)"/>
     <use xlink:href="#DejaVuSans-45" transform="translate(1961.109375 0)"/>
     <use xlink:href="#DejaVuSans-4c" transform="translate(2024.59375 0)"/>
     <use xlink:href="#DejaVuSans-4f" transform="translate(2052.375 0)"/>
     <use xlink:href="#DejaVuSans-4c" transform="translate(2080.15625 0)"/>
     <use xlink:href="#DejaVuSans-55" transform="translate(2107.9375 0)"/>
     <use xlink:href="#DejaVuSans-3" transform="translate(2149.046875 0)"/>
     <use xlink:href="#DejaVuSans-47" transform="translate(2180.828125 0)"/>
     <use xlink:href="#DejaVuSans-48" transform="translate(2244.3125 0)"/>
     <use xlink:href="#DejaVuSans-e1" transform="translate(2305.84375 0)"/>
     <use xlink:href="#DejaVuSans-4c" transform="translate(2369.328125 0)"/>
     <use xlink:href="#DejaVuSans-4f" transform="translate(2397.109375 0)"/>
     <use xlink:href="#DejaVuSans-47" transform="translate(2424.890625 0)"/>
     <use xlink:href="#DejaVuSans-4c" transform="translate(2488.375 0)"/>
     <use xlink:href="#DejaVuSans-55" transform="translate(2516.15625 0)"/>
     <use xlink:href="#DejaVuSans-11" transform="translate(2548.09375 0)"/>
    </g>
   </g>
  </g>
 </g>
 <defs>
  <clipPath id="p0005d8a24c">
   <rect x="8.64" y="8.64" width="613.8" height="299.376"/>
  </clipPath>
 </defs>
</svg>
