<?xml version="1.0" encoding="UTF-8"?>
<svg xmlns="http://www.w3.org/2000/svg" xmlns:xlink="http://www.w3.org/1999/xlink" width="769.207pt" height="220.173pt" viewBox="0 0 769.207 220.173" version="1.2">
<defs>
<g>
<symbol overflow="visible" id="glyph0-0">
<path style="stroke:none;" d=""/>
</symbol>
<symbol overflow="visible" id="glyph0-1">
<path style="stroke:none;" d="M 8.53125 0 L 4.703125 -4.9375 L 8.171875 -8.671875 L 6.0625 -8.671875 L 2.671875 -4.875 L 2.671875 -8.671875 L 0.875 -8.671875 L 0.875 0 L 2.671875 0 L 2.671875 -2.90625 L 3.5625 -3.828125 L 6.40625 0 Z M 8.53125 0 "/>
</symbol>
<symbol overflow="visible" id="glyph0-2">
<path style="stroke:none;" d="M 6.234375 0 L 6.234375 -0.203125 C 5.9375 -0.46875 5.859375 -0.65625 5.859375 -0.984375 L 5.859375 -4.5625 C 5.859375 -5.875 4.96875 -6.53125 3.234375 -6.53125 C 1.484375 -6.53125 0.578125 -5.796875 0.46875 -4.3125 L 2.078125 -4.3125 C 2.171875 -4.984375 2.4375 -5.1875 3.265625 -5.1875 C 3.90625 -5.1875 4.234375 -4.984375 4.234375 -4.546875 C 4.234375 -3.875 3.734375 -3.9375 2.890625 -3.796875 L 2.21875 -3.671875 C 0.953125 -3.453125 0.328125 -2.90625 0.328125 -1.734375 C 0.328125 -0.484375 1.21875 0.109375 2.28125 0.109375 C 3 0.109375 3.65625 -0.203125 4.234375 -0.8125 C 4.234375 -0.46875 4.28125 -0.1875 4.421875 0 Z M 4.234375 -2.75 C 4.234375 -1.78125 3.75 -1.234375 2.90625 -1.234375 C 2.34375 -1.234375 2 -1.453125 2 -1.921875 C 2 -2.421875 2.265625 -2.59375 2.953125 -2.71875 L 3.53125 -2.828125 C 3.96875 -2.921875 4.03125 -2.9375 4.234375 -3.03125 Z M 4.234375 -2.75 "/>
</symbol>
<symbol overflow="visible" id="glyph0-3">
<path style="stroke:none;" d="M 6.828125 -3.21875 C 6.828125 -5.125 5.828125 -6.53125 4.140625 -6.53125 C 3.328125 -6.53125 2.765625 -6.1875 2.359375 -5.484375 L 2.359375 -6.421875 L 0.6875 -6.421875 L 0.6875 2.59375 L 2.359375 2.59375 L 2.359375 -0.859375 C 2.765625 -0.140625 3.328125 0.109375 4.140625 0.109375 C 5.6875 0.109375 6.828125 -1.265625 6.828125 -3.21875 Z M 5.171875 -3.1875 C 5.171875 -2.03125 4.578125 -1.28125 3.765625 -1.28125 C 2.921875 -1.28125 2.359375 -2.015625 2.359375 -3.21875 C 2.359375 -4.421875 2.921875 -5.140625 3.765625 -5.140625 C 4.609375 -5.140625 5.171875 -4.421875 5.171875 -3.1875 Z M 5.171875 -3.1875 "/>
</symbol>
<symbol overflow="visible" id="glyph0-4">
<path style="stroke:none;" d="M 6.1875 -1.90625 L 6.1875 -1.984375 C 6.1875 -2.71875 5.78125 -3.28125 4.921875 -3.53125 L 2.828125 -4.125 C 2.359375 -4.265625 2.234375 -4.375 2.234375 -4.625 C 2.234375 -4.984375 2.625 -5.234375 3.203125 -5.234375 C 4 -5.234375 4.390625 -4.9375 4.40625 -4.359375 L 6.015625 -4.359375 C 5.984375 -5.71875 4.9375 -6.53125 3.21875 -6.53125 C 1.578125 -6.53125 0.578125 -5.71875 0.578125 -4.390625 C 0.578125 -3.609375 0.78125 -3.171875 1.96875 -2.8125 L 3.96875 -2.1875 C 4.375 -2.0625 4.53125 -1.921875 4.53125 -1.75 C 4.53125 -1.359375 4.0625 -1.203125 3.28125 -1.203125 C 2.53125 -1.203125 2.125 -1.34375 1.96875 -2.03125 L 0.34375 -2.03125 C 0.390625 -0.625 1.421875 0.109375 3.375 0.109375 C 5.1875 0.109375 6.1875 -0.609375 6.1875 -1.90625 Z M 6.1875 -1.90625 "/>
</symbol>
<symbol overflow="visible" id="glyph0-5">
<path style="stroke:none;" d="M 9.8125 0 L 9.8125 -4.546875 C 9.8125 -5.796875 9.046875 -6.53125 7.765625 -6.53125 C 6.953125 -6.53125 6.375 -6.25 5.875 -5.578125 C 5.578125 -6.1875 4.921875 -6.53125 4.125 -6.53125 C 3.390625 -6.53125 2.921875 -6.28125 2.375 -5.625 L 2.375 -6.421875 L 0.71875 -6.421875 L 0.71875 0 L 2.375 0 L 2.375 -3.859375 C 2.375 -4.640625 2.8125 -5.125 3.53125 -5.125 C 4.078125 -5.125 4.421875 -4.796875 4.421875 -4.28125 L 4.421875 0 L 6.09375 0 L 6.09375 -3.859375 C 6.09375 -4.640625 6.53125 -5.125 7.234375 -5.125 C 7.796875 -5.125 8.140625 -4.796875 8.140625 -4.28125 L 8.140625 0 Z M 9.8125 0 "/>
</symbol>
<symbol overflow="visible" id="glyph0-6">
<path style="stroke:none;" d="M 6.4375 0.21875 L 6.4375 -6.421875 L 4.859375 -6.421875 L 4.859375 -5.4375 C 4.359375 -6.203125 3.8125 -6.53125 3.078125 -6.53125 C 1.546875 -6.53125 0.40625 -5.125 0.40625 -3.140625 C 0.40625 -1.140625 1.453125 0.109375 3.03125 0.109375 C 3.78125 0.109375 4.234375 -0.125 4.859375 -0.734375 L 4.859375 0.21875 C 4.859375 0.984375 4.28125 1.53125 3.4375 1.53125 C 2.8125 1.53125 2.390625 1.265625 2.265625 0.78125 L 0.53125 0.78125 C 0.5625 1.828125 1.625 2.59375 3.375 2.59375 C 5.328125 2.59375 6.4375 1.71875 6.4375 0.21875 Z M 4.875 -3.171875 C 4.875 -2 4.28125 -1.28125 3.40625 -1.28125 C 2.625 -1.28125 2.078125 -2 2.078125 -3.171875 C 2.078125 -4.375 2.625 -5.140625 3.421875 -5.140625 C 4.265625 -5.140625 4.875 -4.359375 4.875 -3.171875 Z M 4.875 -3.171875 "/>
</symbol>
<symbol overflow="visible" id="glyph0-7">
<path style="stroke:none;" d="M 6.4375 0 L 6.4375 -6.421875 L 4.78125 -6.421875 L 4.78125 -2.578125 C 4.78125 -1.8125 4.234375 -1.3125 3.421875 -1.3125 C 2.71875 -1.3125 2.359375 -1.6875 2.359375 -2.46875 L 2.359375 -6.421875 L 0.6875 -6.421875 L 0.6875 -2.125 C 0.6875 -0.703125 1.46875 0.109375 2.84375 0.109375 C 3.71875 0.109375 4.296875 -0.21875 4.78125 -0.84375 L 4.78125 0 Z M 3.234375 -7.359375 L 3.234375 -8.734375 L 1.71875 -8.734375 L 1.71875 -7.359375 Z M 5.546875 -7.359375 L 5.546875 -8.734375 L 4.046875 -8.734375 L 4.046875 -7.359375 Z M 5.546875 -7.359375 "/>
</symbol>
<symbol overflow="visible" id="glyph0-8">
<path style="stroke:none;" d="M 6.484375 0 L 6.484375 -8.671875 L 4.828125 -8.671875 L 4.828125 -5.59375 C 4.40625 -6.234375 3.84375 -6.53125 3.046875 -6.53125 C 1.515625 -6.53125 0.34375 -5.140625 0.34375 -3.203125 C 0.34375 -1.375 1.34375 0.109375 3.046875 0.109375 C 3.84375 0.109375 4.40625 -0.1875 4.828125 -0.734375 L 4.828125 0 Z M 4.828125 -3.171875 C 4.828125 -2.015625 4.25 -1.28125 3.421875 -1.28125 C 2.578125 -1.28125 2.015625 -2.03125 2.015625 -3.203125 C 2.015625 -4.390625 2.578125 -5.140625 3.421875 -5.140625 C 4.265625 -5.140625 4.828125 -4.40625 4.828125 -3.171875 Z M 4.828125 -3.171875 "/>
</symbol>
<symbol overflow="visible" id="glyph0-9">
<path style="stroke:none;" d="M 2.46875 0 L 2.46875 -8.671875 L 0.796875 -8.671875 L 0.796875 0 Z M 2.46875 0 "/>
</symbol>
<symbol overflow="visible" id="glyph0-10">
<path style="stroke:none;" d="M 3.734375 -5.1875 L 3.734375 -6.296875 L 2.734375 -6.296875 L 2.734375 -6.921875 C 2.734375 -7.265625 2.875 -7.421875 3.1875 -7.421875 C 3.328125 -7.421875 3.53125 -7.421875 3.671875 -7.390625 L 3.671875 -8.640625 C 3.359375 -8.671875 2.9375 -8.671875 2.71875 -8.671875 C 1.609375 -8.671875 1.078125 -8.15625 1.078125 -7.078125 L 1.078125 -6.296875 L 0.171875 -6.296875 L 0.171875 -5.1875 L 1.078125 -5.1875 L 1.078125 0 L 2.734375 0 L 2.734375 -5.1875 Z M 3.734375 -5.1875 "/>
</symbol>
<symbol overflow="visible" id="glyph0-11">
<path style="stroke:none;" d="M 6.4375 0 L 6.4375 -6.421875 L 4.78125 -6.421875 L 4.78125 -2.578125 C 4.78125 -1.8125 4.234375 -1.3125 3.421875 -1.3125 C 2.71875 -1.3125 2.359375 -1.6875 2.359375 -2.46875 L 2.359375 -6.421875 L 0.6875 -6.421875 L 0.6875 -2.125 C 0.6875 -0.703125 1.46875 0.109375 2.84375 0.109375 C 3.71875 0.109375 4.296875 -0.21875 4.78125 -0.84375 L 4.78125 0 Z M 6.4375 0 "/>
</symbol>
<symbol overflow="visible" id="glyph0-12">
<path style="stroke:none;" d="M 5.578125 0 L 5.578125 -1.34375 L 2.3125 -1.34375 L 5.46875 -5.078125 L 5.46875 -6.421875 L 0.46875 -6.421875 L 0.46875 -5.078125 L 3.421875 -5.078125 L 0.25 -1.34375 L 0.25 0 Z M 5.578125 0 "/>
</symbol>
<symbol overflow="visible" id="glyph0-13">
<path style="stroke:none;" d="M 2.46875 0 L 2.46875 -6.421875 L 0.796875 -6.421875 L 0.796875 0 Z M 2.484375 -7.203125 L 2.484375 -8.875 L 0.828125 -8.875 L 0.828125 -7.203125 Z M 2.484375 -7.203125 "/>
</symbol>
<symbol overflow="visible" id="glyph0-14">
<path style="stroke:none;" d="M 6.5 0 L 6.5 -4.3125 C 6.5 -5.734375 5.71875 -6.53125 4.34375 -6.53125 C 3.484375 -6.53125 2.890625 -6.21875 2.421875 -5.5 L 2.421875 -6.421875 L 0.75 -6.421875 L 0.75 0 L 2.421875 0 L 2.421875 -3.859375 C 2.421875 -4.625 2.953125 -5.125 3.765625 -5.125 C 4.484375 -5.125 4.828125 -4.734375 4.828125 -3.96875 L 4.828125 0 Z M 6.5 0 "/>
</symbol>
<symbol overflow="visible" id="glyph0-15">
<path style="stroke:none;" d="M 6.78125 -3.171875 C 6.78125 -5.34375 5.59375 -6.53125 3.578125 -6.53125 C 1.625 -6.53125 0.421875 -5.328125 0.421875 -3.21875 C 0.421875 -1.09375 1.625 0.109375 3.59375 0.109375 C 5.546875 0.109375 6.78125 -1.109375 6.78125 -3.171875 Z M 5.109375 -3.1875 C 5.109375 -1.984375 4.484375 -1.234375 3.59375 -1.234375 C 2.6875 -1.234375 2.078125 -1.984375 2.078125 -3.21875 C 2.078125 -4.4375 2.6875 -5.1875 3.59375 -5.1875 C 4.515625 -5.1875 5.109375 -4.453125 5.109375 -3.1875 Z M 3.234375 -7.359375 L 3.234375 -8.734375 L 1.71875 -8.734375 L 1.71875 -7.359375 Z M 5.546875 -7.359375 L 5.546875 -8.734375 L 4.046875 -8.734375 L 4.046875 -7.359375 Z M 5.546875 -7.359375 "/>
</symbol>
<symbol overflow="visible" id="glyph1-0">
<path style="stroke:none;" d=""/>
</symbol>
<symbol overflow="visible" id="glyph1-1">
<path style="stroke:none;" d="M 2.875 -4.03125 L 2.875 -4.796875 C 2.75 -4.8125 2.6875 -4.8125 2.578125 -4.8125 C 2.09375 -4.8125 1.734375 -4.53125 1.3125 -3.828125 L 1.3125 -4.6875 L 0.625 -4.6875 L 0.625 0 L 1.375 0 L 1.375 -2.4375 C 1.375 -3.484375 1.71875 -4.015625 2.875 -4.03125 Z M 2.875 -4.03125 "/>
</symbol>
<symbol overflow="visible" id="glyph1-2">
<path style="stroke:none;" d="M 4.78125 -0.015625 L 4.78125 -0.578125 C 4.703125 -0.5625 4.671875 -0.5625 4.625 -0.5625 C 4.359375 -0.5625 4.21875 -0.703125 4.21875 -0.921875 L 4.21875 -3.546875 C 4.21875 -4.375 3.609375 -4.8125 2.453125 -4.8125 C 1.328125 -4.8125 0.625 -4.375 0.578125 -3.296875 L 1.328125 -3.296875 C 1.390625 -3.875 1.734375 -4.125 2.4375 -4.125 C 3.09375 -4.125 3.484375 -3.875 3.484375 -3.4375 L 3.484375 -3.234375 C 3.484375 -2.921875 3.28125 -2.78125 2.703125 -2.71875 C 1.640625 -2.578125 1.484375 -2.546875 1.203125 -2.4375 C 0.65625 -2.203125 0.375 -1.78125 0.375 -1.21875 C 0.375 -0.359375 0.96875 0.140625 1.90625 0.140625 C 2.515625 0.140625 3.09375 -0.109375 3.5 -0.546875 C 3.578125 -0.203125 3.90625 0.0625 4.265625 0.0625 C 4.421875 0.0625 4.546875 0.046875 4.78125 -0.015625 Z M 3.484375 -1.625 C 3.484375 -0.953125 2.796875 -0.515625 2.078125 -0.515625 C 1.5 -0.515625 1.15625 -0.71875 1.15625 -1.234375 C 1.15625 -1.71875 1.484375 -1.9375 2.28125 -2.0625 C 3.0625 -2.15625 3.21875 -2.203125 3.484375 -2.3125 Z M 3.484375 -1.625 "/>
</symbol>
<symbol overflow="visible" id="glyph1-3">
<path style="stroke:none;" d="M 4.109375 -1.3125 C 4.109375 -2.015625 3.703125 -2.359375 2.78125 -2.578125 L 2.0625 -2.75 C 1.453125 -2.890625 1.203125 -3.09375 1.203125 -3.421875 C 1.203125 -3.859375 1.578125 -4.125 2.1875 -4.125 C 2.78125 -4.125 3.109375 -3.875 3.125 -3.375 L 3.921875 -3.375 C 3.90625 -4.296875 3.296875 -4.8125 2.21875 -4.8125 C 1.125 -4.8125 0.421875 -4.25 0.421875 -3.390625 C 0.421875 -2.65625 0.796875 -2.3125 1.90625 -2.03125 L 2.59375 -1.875 C 3.125 -1.75 3.328125 -1.59375 3.328125 -1.25 C 3.328125 -0.8125 2.890625 -0.546875 2.234375 -0.546875 C 1.5625 -0.546875 1.1875 -0.71875 1.09375 -1.4375 L 0.296875 -1.4375 C 0.34375 -0.34375 0.953125 0.140625 2.171875 0.140625 C 3.359375 0.140625 4.109375 -0.40625 4.109375 -1.3125 Z M 4.109375 -1.3125 "/>
</symbol>
<symbol overflow="visible" id="glyph1-4">
<path style="stroke:none;" d="M 2.265625 0 L 2.265625 -0.625 C 2.171875 -0.59375 2.0625 -0.59375 1.90625 -0.59375 C 1.59375 -0.59375 1.5 -0.671875 1.5 -1.015625 L 1.5 -4.078125 L 2.265625 -4.078125 L 2.265625 -4.6875 L 1.5 -4.6875 L 1.5 -5.96875 L 0.765625 -5.96875 L 0.765625 -4.6875 L 0.125 -4.6875 L 0.125 -4.078125 L 0.765625 -4.078125 L 0.765625 -0.671875 C 0.765625 -0.203125 1.078125 0.0625 1.65625 0.0625 C 1.84375 0.0625 2.015625 0.046875 2.265625 0 Z M 2.265625 0 "/>
</symbol>
<symbol overflow="visible" id="glyph1-5">
<path style="stroke:none;" d="M 4.375 -0.765625 L 4.375 -4.6875 L 3.6875 -4.6875 L 3.6875 -4 C 3.3125 -4.5625 2.84375 -4.8125 2.25 -4.8125 C 1.0625 -4.8125 0.265625 -3.8125 0.265625 -2.296875 C 0.265625 -0.828125 1.09375 0.140625 2.1875 0.140625 C 2.78125 0.140625 3.1875 -0.109375 3.6875 -0.703125 L 3.6875 -0.390625 C 3.6875 0.84375 3.171875 1.328125 2.3125 1.328125 C 1.71875 1.328125 1.265625 1.109375 1.171875 0.53125 L 0.40625 0.53125 C 0.484375 1.421875 1.1875 1.953125 2.28125 1.953125 C 3.75 1.953125 4.375 1.296875 4.375 -0.765625 Z M 3.609375 -2.3125 C 3.609375 -1.203125 3.125 -0.546875 2.34375 -0.546875 C 1.53125 -0.546875 1.03125 -1.203125 1.03125 -2.34375 C 1.03125 -3.46875 1.53125 -4.125 2.328125 -4.125 C 3.140625 -4.125 3.609375 -3.453125 3.609375 -2.3125 Z M 3.609375 -2.3125 "/>
</symbol>
<symbol overflow="visible" id="glyph1-6">
<path style="stroke:none;" d="M 4.578125 -2.125 C 4.578125 -2.8125 4.53125 -3.234375 4.390625 -3.578125 C 4.09375 -4.359375 3.375 -4.8125 2.5 -4.8125 C 1.203125 -4.8125 0.359375 -3.859375 0.359375 -2.3125 C 0.359375 -0.78125 1.171875 0.140625 2.484375 0.140625 C 3.5625 0.140625 4.296875 -0.46875 4.484375 -1.421875 L 3.734375 -1.421875 C 3.53125 -0.796875 3.109375 -0.546875 2.515625 -0.546875 C 1.734375 -0.546875 1.15625 -1.046875 1.140625 -2.125 Z M 3.796875 -2.78125 C 3.796875 -2.78125 3.796875 -2.75 3.78125 -2.734375 L 1.15625 -2.734375 C 1.21875 -3.5625 1.75 -4.125 2.5 -4.125 C 3.21875 -4.125 3.796875 -3.515625 3.796875 -2.78125 Z M 3.796875 -2.78125 "/>
</symbol>
<symbol overflow="visible" id="glyph1-7">
<path style="stroke:none;" d="M 1.34375 0 L 1.34375 -6.515625 L 0.609375 -6.515625 L 0.609375 0 Z M 1.34375 0 "/>
</symbol>
<symbol overflow="visible" id="glyph1-8">
<path style="stroke:none;" d="M 4.421875 0 L 4.421875 -6.515625 L 3.6875 -6.515625 L 3.6875 -4.09375 C 3.375 -4.5625 2.875 -4.8125 2.25 -4.8125 C 1.03125 -4.8125 0.234375 -3.875 0.234375 -2.390625 C 0.234375 -0.796875 1.015625 0.140625 2.265625 0.140625 C 2.90625 0.140625 3.359375 -0.109375 3.765625 -0.6875 L 3.765625 0 Z M 3.6875 -2.328125 C 3.6875 -1.25 3.15625 -0.5625 2.375 -0.5625 C 1.5625 -0.5625 1.015625 -1.25 1.015625 -2.34375 C 1.015625 -3.4375 1.5625 -4.125 2.375 -4.125 C 3.171875 -4.125 3.6875 -3.40625 3.6875 -2.328125 Z M 3.6875 -2.328125 "/>
</symbol>
<symbol overflow="visible" id="glyph1-9">
<path style="stroke:none;" d="M 4.375 -0.765625 L 4.375 -4.6875 L 3.6875 -4.6875 L 3.6875 -4 C 3.3125 -4.5625 2.84375 -4.8125 2.25 -4.8125 C 1.0625 -4.8125 0.265625 -3.8125 0.265625 -2.296875 C 0.265625 -0.828125 1.09375 0.140625 2.1875 0.140625 C 2.78125 0.140625 3.1875 -0.109375 3.6875 -0.703125 L 3.6875 -0.390625 C 3.6875 0.84375 3.171875 1.328125 2.3125 1.328125 C 1.71875 1.328125 1.265625 1.109375 1.171875 0.53125 L 0.40625 0.53125 C 0.484375 1.421875 1.1875 1.953125 2.28125 1.953125 C 3.75 1.953125 4.375 1.296875 4.375 -0.765625 Z M 3.609375 -2.3125 C 3.609375 -1.203125 3.125 -0.546875 2.34375 -0.546875 C 1.53125 -0.546875 1.03125 -1.203125 1.03125 -2.34375 C 1.03125 -3.46875 1.53125 -4.125 2.328125 -4.125 C 3.140625 -4.125 3.609375 -3.453125 3.609375 -2.3125 Z M 3.8125 -6.46875 L 3.328125 -6.46875 C 3.1875 -6.109375 2.84375 -5.875 2.453125 -5.875 C 2.078125 -5.875 1.71875 -6.109375 1.578125 -6.46875 L 1.09375 -6.46875 C 1.09375 -5.765625 1.734375 -5.25 2.453125 -5.25 C 3.1875 -5.25 3.8125 -5.765625 3.8125 -6.46875 Z M 3.8125 -6.46875 "/>
</symbol>
<symbol overflow="visible" id="glyph1-10">
<path style="stroke:none;" d="M 1.375 0 L 1.375 -4.6875 L 0.625 -4.6875 L 0.625 0 Z M 1.46875 -5.390625 L 1.46875 -6.3125 L 0.53125 -6.3125 L 0.53125 -5.390625 Z M 1.46875 -5.390625 "/>
</symbol>
<symbol overflow="visible" id="glyph1-11">
<path style="stroke:none;" d="M 1.703125 0 L 1.703125 -0.921875 L 0.78125 -0.921875 L 0.78125 0 Z M 1.703125 -3.75 L 1.703125 -4.6875 L 0.78125 -4.6875 L 0.78125 -3.75 Z M 1.703125 -3.75 "/>
</symbol>
<symbol overflow="visible" id="glyph1-12">
<path style="stroke:none;" d="M 4.265625 -4.6875 L 3.46875 -4.6875 L 2.171875 -1.03125 L 0.96875 -4.6875 L 0.171875 -4.6875 L 1.765625 0.015625 L 1.46875 0.765625 C 1.34375 1.09375 1.203125 1.21875 0.875 1.21875 C 0.765625 1.21875 0.640625 1.203125 0.484375 1.15625 L 0.484375 1.828125 C 0.640625 1.90625 0.78125 1.953125 0.984375 1.953125 C 1.515625 1.953125 1.9375 1.65625 2.1875 0.984375 Z M 4.265625 -4.6875 "/>
</symbol>
<symbol overflow="visible" id="glyph1-13">
<path style="stroke:none;" d="M 4.359375 0 L 4.359375 -3.546875 C 4.359375 -4.3125 3.765625 -4.8125 2.875 -4.8125 C 2.171875 -4.8125 1.71875 -4.546875 1.3125 -3.890625 L 1.3125 -4.6875 L 0.625 -4.6875 L 0.625 0 L 1.375 0 L 1.375 -2.578125 C 1.375 -3.546875 1.890625 -4.171875 2.640625 -4.171875 C 3.234375 -4.171875 3.609375 -3.8125 3.609375 -3.25 L 3.609375 0 Z M 4.359375 0 "/>
</symbol>
<symbol overflow="visible" id="glyph1-14">
<path style="stroke:none;" d="M 4.484375 0 L 2.578125 -3.0625 L 4.203125 -4.6875 L 3.25 -4.6875 L 1.265625 -2.703125 L 1.265625 -6.515625 L 0.515625 -6.515625 L 0.515625 0 L 1.265625 0 L 1.265625 -1.828125 L 1.984375 -2.53125 L 3.5625 0 Z M 4.484375 0 "/>
</symbol>
<symbol overflow="visible" id="glyph1-15">
<path style="stroke:none;" d="M 4.5625 -2.3125 C 4.5625 -3.921875 3.78125 -4.8125 2.4375 -4.8125 C 1.125 -4.8125 0.328125 -3.921875 0.328125 -2.34375 C 0.328125 -0.765625 1.109375 0.140625 2.4375 0.140625 C 3.75 0.140625 4.5625 -0.765625 4.5625 -2.3125 Z M 3.78125 -2.3125 C 3.78125 -1.21875 3.265625 -0.546875 2.4375 -0.546875 C 1.609375 -0.546875 1.09375 -1.203125 1.09375 -2.34375 C 1.09375 -3.46875 1.609375 -4.125 2.4375 -4.125 C 3.28125 -4.125 3.78125 -3.484375 3.78125 -2.3125 Z M 3.78125 -2.3125 "/>
</symbol>
<symbol overflow="visible" id="glyph1-16">
<path style="stroke:none;" d="M 4.3125 0 L 4.3125 -4.6875 L 3.5625 -4.6875 L 3.5625 -2.09375 C 3.5625 -1.140625 3.0625 -0.515625 2.28125 -0.515625 C 1.703125 -0.515625 1.328125 -0.875 1.328125 -1.4375 L 1.328125 -4.6875 L 0.578125 -4.6875 L 0.578125 -1.140625 C 0.578125 -0.359375 1.15625 0.140625 2.078125 0.140625 C 2.765625 0.140625 3.203125 -0.109375 3.640625 -0.71875 L 3.640625 0 Z M 4.3125 0 "/>
</symbol>
<symbol overflow="visible" id="glyph1-17">
<path style="stroke:none;" d="M 4.671875 -2.390625 C 4.671875 -3.921875 3.90625 -4.8125 2.671875 -4.8125 C 2.03125 -4.8125 1.578125 -4.578125 1.21875 -4.046875 L 1.21875 -6.515625 L 0.484375 -6.515625 L 0.484375 0 L 1.15625 0 L 1.15625 -0.671875 C 1.515625 -0.125 1.984375 0.140625 2.640625 0.140625 C 3.875 0.140625 4.671875 -0.875 4.671875 -2.390625 Z M 3.890625 -2.34375 C 3.890625 -1.28125 3.34375 -0.5625 2.53125 -0.5625 C 1.75 -0.5625 1.21875 -1.28125 1.21875 -2.34375 C 1.21875 -3.4375 1.75 -4.15625 2.53125 -4.125 C 3.359375 -4.125 3.890625 -3.390625 3.890625 -2.34375 Z M 3.890625 -2.34375 "/>
</symbol>
<symbol overflow="visible" id="glyph1-18">
<path style="stroke:none;" d="M 2.59375 1.890625 C 1.8125 0.609375 1.375 -0.890625 1.375 -2.3125 C 1.375 -3.734375 1.8125 -5.25 2.59375 -6.515625 L 2.109375 -6.515625 C 1.21875 -5.34375 0.65625 -3.71875 0.65625 -2.3125 C 0.65625 -0.90625 1.21875 0.71875 2.109375 1.890625 Z M 2.59375 1.890625 "/>
</symbol>
<symbol overflow="visible" id="glyph1-19">
<path style="stroke:none;" d="M 4.265625 -1.609375 L 3.515625 -1.609375 C 3.390625 -0.859375 3 -0.546875 2.375 -0.546875 C 1.546875 -0.546875 1.046875 -1.1875 1.046875 -2.296875 C 1.046875 -3.46875 1.53125 -4.125 2.34375 -4.125 C 2.96875 -4.125 3.375 -3.765625 3.453125 -3.109375 L 4.203125 -3.109375 C 4.125 -4.25 3.40625 -4.8125 2.359375 -4.8125 C 1.09375 -4.8125 0.28125 -3.859375 0.28125 -2.296875 C 0.28125 -0.78125 1.078125 0.140625 2.34375 0.140625 C 3.46875 0.140625 4.171875 -0.53125 4.265625 -1.609375 Z M 4.265625 -1.609375 "/>
</symbol>
<symbol overflow="visible" id="glyph1-20">
<path style="stroke:none;" d="M 4.671875 -2.296875 C 4.671875 -3.875 3.90625 -4.8125 2.65625 -4.8125 C 2.03125 -4.8125 1.515625 -4.53125 1.171875 -3.984375 L 1.171875 -4.6875 L 0.484375 -4.6875 L 0.484375 1.953125 L 1.234375 1.953125 L 1.234375 -0.5625 C 1.625 -0.078125 2.0625 0.140625 2.671875 0.140625 C 3.875 0.140625 4.671875 -0.796875 4.671875 -2.296875 Z M 3.890625 -2.3125 C 3.890625 -1.25 3.359375 -0.5625 2.53125 -0.5625 C 1.75 -0.5625 1.234375 -1.203125 1.234375 -2.3125 C 1.234375 -3.40625 1.75 -4.125 2.53125 -4.125 C 3.359375 -4.125 3.890625 -3.4375 3.890625 -2.3125 Z M 3.890625 -2.3125 "/>
</symbol>
<symbol overflow="visible" id="glyph1-21">
<path style="stroke:none;" d="M 2.28125 -2.3125 C 2.28125 -3.71875 1.71875 -5.34375 0.828125 -6.515625 L 0.34375 -6.515625 C 1.125 -5.234375 1.5625 -3.734375 1.5625 -2.3125 C 1.5625 -0.890625 1.125 0.625 0.34375 1.890625 L 0.828125 1.890625 C 1.71875 0.71875 2.28125 -0.90625 2.28125 -2.3125 Z M 2.28125 -2.3125 "/>
</symbol>
<symbol overflow="visible" id="glyph1-22">
<path style="stroke:none;" d="M 4.265625 -1.609375 L 3.515625 -1.609375 C 3.390625 -0.859375 3 -0.546875 2.375 -0.546875 C 1.546875 -0.546875 1.046875 -1.1875 1.046875 -2.296875 C 1.046875 -3.46875 1.53125 -4.125 2.34375 -4.125 C 2.96875 -4.125 3.375 -3.765625 3.453125 -3.109375 L 4.203125 -3.109375 C 4.125 -4.25 3.40625 -4.8125 2.359375 -4.8125 C 1.09375 -4.8125 0.28125 -3.859375 0.28125 -2.296875 C 0.28125 -0.859375 1 0.03125 2.15625 0.125 L 1.859375 0.828125 L 2.015625 0.921875 C 2.125 0.90625 2.1875 0.890625 2.28125 0.890625 C 2.546875 0.890625 2.703125 1.078125 2.703125 1.28125 C 2.703125 1.515625 2.5 1.6875 2.21875 1.6875 C 1.984375 1.6875 1.828125 1.640625 1.421875 1.4375 L 1.34375 1.390625 L 1.15625 1.75 C 1.703125 2 1.921875 2.0625 2.265625 2.0625 C 2.953125 2.0625 3.375 1.734375 3.375 1.21875 C 3.375 0.84375 3.109375 0.484375 2.65625 0.484375 L 2.453125 0.484375 L 2.59375 0.125 C 3.578125 0.03125 4.1875 -0.609375 4.265625 -1.609375 Z M 4.265625 -1.609375 "/>
</symbol>
<symbol overflow="visible" id="glyph1-23">
<path style="stroke:none;" d="M 4.34375 -4.6875 L 3.5 -4.6875 L 2.1875 -0.890625 L 0.921875 -4.6875 L 0.09375 -4.6875 L 1.734375 0 L 2.546875 0 Z M 4.34375 -4.6875 "/>
</symbol>
<symbol overflow="visible" id="glyph1-24">
<path style="stroke:none;" d="M 4.109375 -1.3125 C 4.109375 -2.015625 3.703125 -2.359375 2.78125 -2.578125 L 2.0625 -2.75 C 1.453125 -2.890625 1.203125 -3.09375 1.203125 -3.421875 C 1.203125 -3.859375 1.578125 -4.125 2.1875 -4.125 C 2.78125 -4.125 3.109375 -3.875 3.125 -3.375 L 3.921875 -3.375 C 3.90625 -4.296875 3.296875 -4.8125 2.21875 -4.8125 C 1.125 -4.8125 0.421875 -4.25 0.421875 -3.390625 C 0.421875 -2.65625 0.796875 -2.3125 1.90625 -2.03125 L 2.59375 -1.875 C 3.125 -1.75 3.328125 -1.59375 3.328125 -1.25 C 3.328125 -0.8125 2.890625 -0.546875 2.234375 -0.546875 C 1.5625 -0.546875 1.1875 -0.71875 1.09375 -1.4375 L 0.296875 -1.4375 C 0.34375 -0.40625 0.890625 0.078125 1.984375 0.140625 L 1.6875 0.828125 L 1.828125 0.921875 C 1.953125 0.90625 2 0.890625 2.109375 0.890625 C 2.375 0.890625 2.515625 1.078125 2.515625 1.28125 C 2.515625 1.515625 2.3125 1.6875 2.03125 1.6875 C 1.8125 1.6875 1.65625 1.640625 1.25 1.4375 L 1.15625 1.390625 L 0.96875 1.75 C 1.53125 2 1.75 2.0625 2.09375 2.0625 C 2.765625 2.0625 3.1875 1.734375 3.1875 1.21875 C 3.1875 0.84375 2.9375 0.484375 2.484375 0.484375 L 2.28125 0.484375 L 2.421875 0.125 C 3.453125 0.046875 4.109375 -0.46875 4.109375 -1.3125 Z M 4.109375 -1.3125 "/>
</symbol>
<symbol overflow="visible" id="glyph1-25">
<path style="stroke:none;" d="M 1.71875 0.140625 L 1.71875 -0.921875 L 0.78125 -0.921875 L 0.78125 0 L 1.3125 0 L 1.3125 0.15625 C 1.3125 0.78125 1.203125 0.953125 0.78125 0.96875 L 0.78125 1.3125 C 1.40625 1.3125 1.71875 0.90625 1.71875 0.140625 Z M 1.71875 0.140625 "/>
</symbol>
<symbol overflow="visible" id="glyph1-26">
<path style="stroke:none;" d="M 4.3125 0 L 4.3125 -4.6875 L 3.5625 -4.6875 L 3.5625 -2.09375 C 3.5625 -1.140625 3.0625 -0.515625 2.28125 -0.515625 C 1.703125 -0.515625 1.328125 -0.875 1.328125 -1.4375 L 1.328125 -4.6875 L 0.578125 -4.6875 L 0.578125 -1.140625 C 0.578125 -0.359375 1.15625 0.140625 2.078125 0.140625 C 2.765625 0.140625 3.203125 -0.109375 3.640625 -0.71875 L 3.640625 0 Z M 2.15625 -5.390625 L 2.15625 -6.3125 L 1.34375 -6.3125 L 1.34375 -5.390625 Z M 3.609375 -5.390625 L 3.609375 -6.3125 L 2.796875 -6.3125 L 2.796875 -5.390625 Z M 3.609375 -5.390625 "/>
</symbol>
<symbol overflow="visible" id="glyph2-0">
<path style="stroke:none;" d=""/>
</symbol>
<symbol overflow="visible" id="glyph2-1">
<path style="stroke:none;" d="M 5.34375 -5.390625 L 5.34375 -6.515625 L 0.125 -6.515625 L 0.125 -5.390625 L 2.09375 -5.390625 L 2.09375 0 L 3.4375 0 L 3.4375 -5.390625 Z M 5.34375 -5.390625 "/>
</symbol>
<symbol overflow="visible" id="glyph2-2">
<path style="stroke:none;" d="M 5.078125 -2.375 C 5.078125 -4.015625 4.203125 -4.90625 2.6875 -4.90625 C 1.21875 -4.90625 0.3125 -4 0.3125 -2.40625 C 0.3125 -0.828125 1.21875 0.078125 2.703125 0.078125 C 4.171875 0.078125 5.078125 -0.828125 5.078125 -2.375 Z M 3.828125 -2.390625 C 3.828125 -1.5 3.375 -0.921875 2.703125 -0.921875 C 2.015625 -0.921875 1.5625 -1.5 1.5625 -2.40625 C 1.5625 -3.328125 2.015625 -3.890625 2.703125 -3.890625 C 3.390625 -3.890625 3.828125 -3.34375 3.828125 -2.390625 Z M 3.828125 -2.390625 "/>
</symbol>
<symbol overflow="visible" id="glyph2-3">
<path style="stroke:none;" d="M 4.828125 0 L 4.828125 -3.234375 C 4.828125 -4.359375 4.171875 -4.90625 3.265625 -4.90625 C 2.640625 -4.90625 2.203125 -4.65625 1.84375 -4.125 L 1.84375 -6.515625 L 0.59375 -6.515625 L 0.59375 0 L 1.84375 0 L 1.84375 -2.890625 C 1.84375 -3.453125 2.25 -3.84375 2.8125 -3.84375 C 3.265625 -3.84375 3.578125 -3.609375 3.578125 -2.953125 L 3.578125 0 Z M 4.828125 0 "/>
</symbol>
<symbol overflow="visible" id="glyph2-4">
<path style="stroke:none;" d="M 4.828125 0 L 4.828125 -4.828125 L 3.578125 -4.828125 L 3.578125 -1.9375 C 3.578125 -1.359375 3.1875 -0.984375 2.578125 -0.984375 C 2.03125 -0.984375 1.765625 -1.265625 1.765625 -1.84375 L 1.765625 -4.828125 L 0.515625 -4.828125 L 0.515625 -1.59375 C 0.515625 -0.53125 1.109375 0.078125 2.140625 0.078125 C 2.78125 0.078125 3.21875 -0.15625 3.578125 -0.640625 L 3.578125 0 Z M 4.828125 0 "/>
</symbol>
<symbol overflow="visible" id="glyph2-5">
<path style="stroke:none;" d="M 7.359375 0 L 7.359375 -3.421875 C 7.359375 -4.359375 6.796875 -4.90625 5.828125 -4.90625 C 5.21875 -4.90625 4.796875 -4.6875 4.421875 -4.1875 C 4.1875 -4.640625 3.703125 -4.90625 3.09375 -4.90625 C 2.546875 -4.90625 2.1875 -4.71875 1.78125 -4.234375 L 1.78125 -4.828125 L 0.53125 -4.828125 L 0.53125 0 L 1.78125 0 L 1.78125 -2.890625 C 1.78125 -3.484375 2.109375 -3.84375 2.640625 -3.84375 C 3.0625 -3.84375 3.328125 -3.609375 3.328125 -3.21875 L 3.328125 0 L 4.578125 0 L 4.578125 -2.890625 C 4.578125 -3.484375 4.890625 -3.84375 5.4375 -3.84375 C 5.859375 -3.84375 6.109375 -3.609375 6.109375 -3.21875 L 6.109375 0 Z M 7.359375 0 "/>
</symbol>
<symbol overflow="visible" id="glyph2-6">
<path style="stroke:none;" d="M 4.828125 0.15625 L 4.828125 -4.828125 L 3.640625 -4.828125 L 3.640625 -4.078125 C 3.265625 -4.65625 2.859375 -4.90625 2.3125 -4.90625 C 1.15625 -4.90625 0.296875 -3.859375 0.296875 -2.359375 C 0.296875 -0.859375 1.09375 0.078125 2.28125 0.078125 C 2.84375 0.078125 3.1875 -0.09375 3.640625 -0.546875 L 3.640625 0.15625 C 3.640625 0.734375 3.203125 1.140625 2.578125 1.140625 C 2.109375 1.140625 1.796875 0.953125 1.703125 0.578125 L 0.40625 0.578125 C 0.421875 1.375 1.21875 1.953125 2.53125 1.953125 C 4 1.953125 4.828125 1.296875 4.828125 0.15625 Z M 3.671875 -2.375 C 3.671875 -1.5 3.203125 -0.96875 2.5625 -0.96875 C 1.96875 -0.96875 1.5625 -1.5 1.5625 -2.375 C 1.5625 -3.28125 1.96875 -3.859375 2.578125 -3.859375 C 3.203125 -3.859375 3.671875 -3.265625 3.671875 -2.375 Z M 3.671875 -2.375 "/>
</symbol>
<symbol overflow="visible" id="glyph2-7">
<path style="stroke:none;" d="M 1.84375 0 L 1.84375 -4.828125 L 0.59375 -4.828125 L 0.59375 0 Z M 1.875 -5.40625 L 1.875 -6.65625 L 0.609375 -6.65625 L 0.609375 -5.40625 Z M 1.875 -5.40625 "/>
</symbol>
<symbol overflow="visible" id="glyph2-8">
<path style="stroke:none;" d="M 3.3125 -3.625 L 3.3125 -4.890625 C 3.234375 -4.90625 3.1875 -4.90625 3.15625 -4.90625 C 2.578125 -4.90625 2.078125 -4.53125 1.8125 -3.875 L 1.8125 -4.828125 L 0.5625 -4.828125 L 0.5625 0 L 1.8125 0 L 1.8125 -2.5625 C 1.8125 -3.296875 2.1875 -3.671875 2.90625 -3.671875 C 3.046875 -3.671875 3.140625 -3.65625 3.3125 -3.625 Z M 3.3125 -3.625 "/>
</symbol>
<symbol overflow="visible" id="glyph2-9">
<path style="stroke:none;" d="M 4.875 0 L 4.875 -6.515625 L 3.625 -6.515625 L 3.625 -4.203125 C 3.3125 -4.6875 2.890625 -4.90625 2.28125 -4.90625 C 1.140625 -4.90625 0.265625 -3.859375 0.265625 -2.40625 C 0.265625 -1.03125 1.015625 0.078125 2.28125 0.078125 C 2.890625 0.078125 3.3125 -0.140625 3.625 -0.546875 L 3.625 0 Z M 3.625 -2.390625 C 3.625 -1.515625 3.1875 -0.96875 2.5625 -0.96875 C 1.9375 -0.96875 1.515625 -1.515625 1.515625 -2.40625 C 1.515625 -3.296875 1.9375 -3.859375 2.5625 -3.859375 C 3.203125 -3.859375 3.625 -3.3125 3.625 -2.390625 Z M 3.625 -2.390625 "/>
</symbol>
<symbol overflow="visible" id="glyph2-10">
<path style="stroke:none;" d="M 1.84375 0 L 1.84375 -6.515625 L 0.59375 -6.515625 L 0.59375 0 Z M 1.84375 0 "/>
</symbol>
<symbol overflow="visible" id="glyph2-11">
<path style="stroke:none;" d="M 4.6875 -2.234375 C 4.6875 -3.890625 3.859375 -4.90625 2.4375 -4.90625 C 1.046875 -4.90625 0.203125 -3.96875 0.203125 -2.34375 C 0.203125 -0.796875 1.03125 0.078125 2.40625 0.078125 C 3.484375 0.078125 4.359375 -0.40625 4.640625 -1.359375 L 3.40625 -1.359375 C 3.296875 -1.015625 2.90625 -0.875 2.453125 -0.875 C 1.859375 -0.875 1.484375 -1.140625 1.453125 -2.078125 L 4.6875 -2.078125 Z M 3.390625 -2.90625 L 1.46875 -2.90625 C 1.546875 -3.578125 1.859375 -3.953125 2.40625 -3.953125 C 2.953125 -3.953125 3.328125 -3.609375 3.390625 -2.90625 Z M 3.390625 -2.90625 "/>
</symbol>
<symbol overflow="visible" id="glyph2-12">
<path style="stroke:none;" d="M 6.09375 -3.265625 C 6.09375 -4.265625 5.8125 -5.140625 5.296875 -5.765625 C 4.859375 -6.296875 4.234375 -6.515625 3.234375 -6.515625 L 0.6875 -6.515625 L 0.6875 0 L 3.234375 0 C 4.234375 0 4.84375 -0.234375 5.296875 -0.765625 C 5.796875 -1.375 6.09375 -2.25 6.09375 -3.265625 Z M 4.75 -3.25 C 4.75 -1.828125 4.25 -1.125 3.234375 -1.125 L 2.03125 -1.125 L 2.03125 -5.390625 L 3.234375 -5.390625 C 4.25 -5.390625 4.75 -4.6875 4.75 -3.25 Z M 4.75 -3.25 "/>
</symbol>
<symbol overflow="visible" id="glyph2-13">
<path style="stroke:none;" d="M 5.578125 0 L 5.578125 -1.125 L 2.046875 -1.125 L 2.046875 -2.8125 L 5.171875 -2.8125 L 5.171875 -3.921875 L 2.046875 -3.921875 L 2.046875 -5.390625 L 5.421875 -5.390625 L 5.421875 -6.515625 L 0.703125 -6.515625 L 0.703125 0 Z M 5.578125 0 "/>
</symbol>
<symbol overflow="visible" id="glyph2-14">
<path style="stroke:none;" d="M 6.359375 0 L 6.359375 -3.5 L 3.75 -3.5 L 3.75 -2.390625 L 5.234375 -2.390625 C 5.140625 -1.578125 4.375 -1.03125 3.578125 -1.03125 C 2.5 -1.03125 1.71875 -1.9375 1.71875 -3.28125 C 1.71875 -4.6875 2.40625 -5.484375 3.546875 -5.484375 C 4.265625 -5.484375 4.828125 -5.1875 5.09375 -4.4375 L 6.359375 -4.4375 C 6.1875 -5.78125 5.109375 -6.625 3.53125 -6.625 C 1.65625 -6.625 0.375 -5.296875 0.375 -3.265625 C 0.375 -1.28125 1.65625 0.109375 3.421875 0.109375 C 4.296875 0.109375 4.890625 -0.203125 5.390625 -0.890625 L 5.546875 0 Z M 5.140625 -8.171875 L 4.5 -8.171875 C 4.46875 -7.921875 4.109375 -7.828125 3.53125 -7.828125 C 2.921875 -7.828125 2.59375 -7.921875 2.546875 -8.171875 L 1.90625 -8.171875 C 1.9375 -7.40625 2.609375 -7.09375 3.515625 -7.09375 C 4.5 -7.09375 5.0625 -7.46875 5.140625 -8.171875 Z M 5.140625 -8.171875 "/>
</symbol>
<symbol overflow="visible" id="glyph2-15">
<path style="stroke:none;" d="M 1.90625 0 L 1.90625 -6.515625 L 0.5625 -6.515625 L 0.5625 0 Z M 1.875 -7 L 1.875 -8.265625 L 0.609375 -8.265625 L 0.609375 -7 Z M 1.875 -7 "/>
</symbol>
<symbol overflow="visible" id="glyph2-16">
<path style="stroke:none;" d="M 5.65625 -1.953125 C 5.65625 -2.984375 5.140625 -3.46875 3.9375 -3.703125 L 2.90625 -3.890625 C 1.953125 -4.078125 1.6875 -4.265625 1.6875 -4.75 C 1.6875 -5.234375 2.125 -5.546875 2.8125 -5.546875 C 3.65625 -5.546875 4.171875 -5.1875 4.171875 -4.53125 L 5.421875 -4.53125 C 5.421875 -5.90625 4.453125 -6.625 2.875 -6.625 C 1.3125 -6.625 0.40625 -5.890625 0.40625 -4.625 C 0.40625 -3.609375 0.90625 -3.125 2.234375 -2.875 L 3.140625 -2.6875 C 4.046875 -2.515625 4.375 -2.328125 4.375 -1.796875 C 4.375 -1.25 3.875 -0.96875 3.0625 -0.96875 C 2.140625 -0.96875 1.59375 -1.34375 1.59375 -2.046875 L 0.28125 -2.046875 C 0.28125 -0.734375 1.203125 0.015625 2.671875 0.09375 L 2.3125 0.875 L 2.875 0.875 C 3.15625 0.875 3.328125 0.96875 3.328125 1.15625 C 3.328125 1.359375 3.109375 1.515625 2.828125 1.515625 C 2.578125 1.515625 2.359375 1.453125 1.890625 1.25 L 1.71875 1.796875 C 2.296875 2 2.5625 2.046875 2.953125 2.046875 C 3.6875 2.046875 4.109375 1.671875 4.109375 1.140625 C 4.109375 0.734375 3.84375 0.453125 3.421875 0.453125 L 3.0625 0.453125 L 3.234375 0.09375 C 4.765625 0.03125 5.65625 -0.703125 5.65625 -1.953125 Z M 5.65625 -1.953125 "/>
</symbol>
<symbol overflow="visible" id="glyph2-17">
<path style="stroke:none;" d="M 6.046875 0 L 6.046875 -0.234375 C 5.84375 -0.359375 5.765625 -0.484375 5.765625 -0.78125 C 5.734375 -2.703125 5.6875 -2.78125 4.859375 -3.140625 C 5.59375 -3.4375 5.96875 -3.953125 5.96875 -4.75 C 5.96875 -5.765625 5.359375 -6.515625 4.203125 -6.515625 L 0.71875 -6.515625 L 0.71875 0 L 2.0625 0 L 2.0625 -2.578125 L 3.59375 -2.578125 C 4.171875 -2.578125 4.421875 -2.34375 4.421875 -1.8125 L 4.40625 -1.125 C 4.40625 -0.515625 4.4375 -0.3125 4.609375 0 Z M 4.625 -4.5625 C 4.625 -3.984375 4.4375 -3.703125 3.671875 -3.703125 L 2.0625 -3.703125 L 2.0625 -5.390625 L 3.671875 -5.390625 C 4.40625 -5.390625 4.625 -5.125 4.625 -4.5625 Z M 4.625 -4.5625 "/>
</symbol>
<symbol overflow="visible" id="glyph2-18">
<path style="stroke:none;" d="M 5.875 0 L 5.875 -6.515625 L 4.53125 -6.515625 L 4.53125 -4.078125 L 1.953125 -4.078125 L 1.953125 -6.515625 L 0.609375 -6.515625 L 0.609375 0 L 1.953125 0 L 1.953125 -2.953125 L 4.53125 -2.953125 L 4.53125 0 Z M 5.875 0 "/>
</symbol>
<symbol overflow="visible" id="glyph2-19">
<path style="stroke:none;" d="M 5.234375 -5.390625 L 5.234375 -6.515625 L 0.65625 -6.515625 L 0.65625 0 L 2 0 L 2 -2.8125 L 4.859375 -2.8125 L 4.859375 -3.921875 L 2 -3.921875 L 2 -5.390625 Z M 5.234375 -5.390625 "/>
</symbol>
<symbol overflow="visible" id="glyph2-20">
<path style="stroke:none;" d="M 6.125 -2.21875 L 4.8125 -2.21875 C 4.734375 -1.390625 4.203125 -1.015625 3.375 -1.015625 C 2.34375 -1.015625 1.734375 -1.8125 1.734375 -3.234375 C 1.734375 -4.671875 2.375 -5.484375 3.421875 -5.484375 C 4.140625 -5.484375 4.625 -5.140625 4.8125 -4.3125 L 6.09375 -4.3125 C 5.984375 -5.8125 4.84375 -6.625 3.375 -6.625 C 1.53125 -6.625 0.390625 -5.359375 0.390625 -3.25 C 0.390625 -1.296875 1.390625 -0.0625 3 0.09375 L 2.625 0.875 L 3.1875 0.875 C 3.46875 0.875 3.640625 0.96875 3.640625 1.15625 C 3.640625 1.359375 3.421875 1.515625 3.140625 1.515625 C 2.890625 1.515625 2.671875 1.453125 2.203125 1.25 L 2.03125 1.796875 C 2.609375 2 2.875 2.046875 3.265625 2.046875 C 4 2.046875 4.421875 1.671875 4.421875 1.140625 C 4.421875 0.734375 4.15625 0.453125 3.734375 0.453125 L 3.375 0.453125 L 3.546875 0.09375 C 5.046875 0.03125 6.046875 -0.796875 6.125 -2.21875 Z M 6.125 -2.21875 "/>
</symbol>
<symbol overflow="visible" id="glyph2-21">
<path style="stroke:none;" d="M 6.28125 0 L 4.03125 -6.515625 L 2.546875 -6.515625 L 0.234375 0 L 1.59375 0 L 2.03125 -1.3125 L 4.484375 -1.3125 L 4.90625 0 Z M 4.109375 -2.4375 L 2.40625 -2.4375 L 3.265625 -4.984375 Z M 4.109375 -2.4375 "/>
</symbol>
<symbol overflow="visible" id="glyph2-22">
<path style="stroke:none;" d="M 5.171875 0 L 5.171875 -1.125 L 2.0625 -1.125 L 2.0625 -6.515625 L 0.71875 -6.515625 L 0.71875 0 Z M 5.171875 0 "/>
</symbol>
<symbol overflow="visible" id="glyph2-23">
<path style="stroke:none;" d="M 1.90625 0 L 1.90625 -6.515625 L 0.5625 -6.515625 L 0.5625 0 Z M 1.90625 0 "/>
</symbol>
<symbol overflow="visible" id="glyph2-24">
<path style="stroke:none;" d="M 4.640625 -1.4375 L 4.640625 -1.5 C 4.640625 -2.046875 4.328125 -2.453125 3.703125 -2.640625 L 2.125 -3.09375 C 1.765625 -3.203125 1.6875 -3.28125 1.6875 -3.484375 C 1.6875 -3.75 1.96875 -3.921875 2.40625 -3.921875 C 3 -3.921875 3.296875 -3.703125 3.3125 -3.265625 L 4.515625 -3.265625 C 4.5 -4.296875 3.703125 -4.90625 2.40625 -4.90625 C 1.1875 -4.90625 0.421875 -4.296875 0.421875 -3.296875 C 0.421875 -2.703125 0.59375 -2.390625 1.484375 -2.109375 L 2.96875 -1.640625 C 3.28125 -1.546875 3.390625 -1.453125 3.390625 -1.3125 C 3.390625 -1.015625 3.046875 -0.90625 2.46875 -0.90625 C 1.890625 -0.90625 1.59375 -1.015625 1.484375 -1.53125 L 0.265625 -1.53125 C 0.296875 -0.46875 1.078125 0.078125 2.53125 0.078125 C 3.890625 0.078125 4.640625 -0.453125 4.640625 -1.4375 Z M 4.640625 -1.4375 "/>
</symbol>
<symbol overflow="visible" id="glyph2-25">
<path style="stroke:none;" d="M 4.6875 0 L 4.6875 -0.15625 C 4.453125 -0.359375 4.390625 -0.484375 4.390625 -0.734375 L 4.390625 -3.421875 C 4.390625 -4.40625 3.734375 -4.90625 2.421875 -4.90625 C 1.125 -4.90625 0.4375 -4.359375 0.359375 -3.234375 L 1.5625 -3.234375 C 1.625 -3.734375 1.828125 -3.890625 2.453125 -3.890625 C 2.9375 -3.890625 3.171875 -3.734375 3.171875 -3.421875 C 3.171875 -2.90625 2.796875 -2.953125 2.171875 -2.84375 L 1.671875 -2.765625 C 0.71875 -2.59375 0.25 -2.1875 0.25 -1.3125 C 0.25 -0.359375 0.90625 0.078125 1.71875 0.078125 C 2.25 0.078125 2.75 -0.15625 3.1875 -0.609375 C 3.1875 -0.359375 3.203125 -0.140625 3.328125 0 Z M 3.171875 -2.0625 C 3.171875 -1.34375 2.8125 -0.921875 2.1875 -0.921875 C 1.765625 -0.921875 1.5 -1.09375 1.5 -1.453125 C 1.5 -1.8125 1.703125 -1.953125 2.21875 -2.046875 L 2.640625 -2.125 C 2.96875 -2.1875 3.03125 -2.203125 3.171875 -2.28125 Z M 3.171875 -2.0625 "/>
</symbol>
<symbol overflow="visible" id="glyph2-26">
<path style="stroke:none;" d="M 4.875 0 L 4.875 -3.234375 C 4.875 -4.296875 4.296875 -4.90625 3.265625 -4.90625 C 2.609375 -4.90625 2.171875 -4.671875 1.8125 -4.125 L 1.8125 -4.828125 L 0.5625 -4.828125 L 0.5625 0 L 1.8125 0 L 1.8125 -2.890625 C 1.8125 -3.46875 2.21875 -3.84375 2.828125 -3.84375 C 3.359375 -3.84375 3.625 -3.546875 3.625 -2.96875 L 3.625 0 Z M 4.875 0 "/>
</symbol>
<symbol overflow="visible" id="glyph2-27">
<path style="stroke:none;" d="M 2.6875 0 L 2.6875 -0.875 C 2.5625 -0.859375 2.5 -0.84375 2.40625 -0.84375 C 2.078125 -0.84375 2 -0.953125 2 -1.375 L 2 -3.890625 L 2.6875 -3.890625 L 2.6875 -4.734375 L 2 -4.734375 L 2 -6.03125 L 0.734375 -6.03125 L 0.734375 -4.734375 L 0.125 -4.734375 L 0.125 -3.890625 L 0.734375 -3.890625 L 0.734375 -1.03125 C 0.734375 -0.28125 1.140625 0.03125 1.96875 0.03125 C 2.25 0.03125 2.46875 0.015625 2.6875 0 Z M 2.6875 0 "/>
</symbol>
<symbol overflow="visible" id="glyph2-28">
<path style="stroke:none;" d="M 4.1875 0 L 4.1875 -1.015625 L 1.734375 -1.015625 L 4.109375 -3.8125 L 4.109375 -4.828125 L 0.34375 -4.828125 L 0.34375 -3.8125 L 2.578125 -3.8125 L 0.1875 -1.015625 L 0.1875 0 Z M 4.1875 0 "/>
</symbol>
<symbol overflow="visible" id="glyph2-29">
<path style="stroke:none;" d="M 4.671875 -1.671875 L 3.46875 -1.671875 C 3.3125 -1.171875 3.0625 -0.921875 2.578125 -0.921875 C 1.9375 -0.921875 1.5625 -1.4375 1.5625 -2.375 C 1.5625 -3.265625 1.78125 -3.890625 2.578125 -3.890625 C 3.078125 -3.890625 3.328125 -3.65625 3.46875 -3.015625 L 4.671875 -3.015625 C 4.578125 -4.203125 3.796875 -4.90625 2.578125 -4.90625 C 1.140625 -4.90625 0.296875 -4.015625 0.296875 -2.375 C 0.296875 -0.921875 0.984375 -0.078125 2.203125 0.0625 L 1.8125 0.875 L 2.390625 0.875 C 2.65625 0.875 2.84375 0.96875 2.84375 1.15625 C 2.84375 1.359375 2.625 1.515625 2.328125 1.515625 C 2.078125 1.515625 1.875 1.453125 1.390625 1.25 L 1.21875 1.796875 C 1.8125 2 2.0625 2.046875 2.453125 2.046875 C 3.203125 2.046875 3.609375 1.671875 3.609375 1.140625 C 3.609375 0.734375 3.359375 0.453125 2.9375 0.453125 L 2.578125 0.453125 L 2.75 0.078125 C 3.828125 0 4.5625 -0.703125 4.671875 -1.671875 Z M 4.671875 -1.671875 "/>
</symbol>
<symbol overflow="visible" id="glyph2-30">
<path style="stroke:none;" d="M 1.84375 0 L 1.84375 -4.828125 L 0.59375 -4.828125 L 0.59375 0 Z M 1.84375 0 "/>
</symbol>
<symbol overflow="visible" id="glyph2-31">
<path style="stroke:none;" d="M 4.890625 0 L 3.140625 -3 L 4.78125 -4.828125 L 3.359375 -4.828125 L 1.78125 -2.953125 L 1.78125 -6.515625 L 0.53125 -6.515625 L 0.53125 0 L 1.78125 0 L 1.78125 -1.578125 L 2.28125 -2.125 L 3.4375 0 Z M 4.890625 0 "/>
</symbol>
<symbol overflow="visible" id="glyph2-32">
<path style="stroke:none;" d="M 5.8125 -6.515625 L 4.3125 -6.515625 L 3.0625 -3.640625 L 1.734375 -6.515625 L 0.234375 -6.515625 L 2.40625 -2.40625 L 2.40625 0 L 3.75 0 L 3.75 -2.40625 Z M 5.8125 -6.515625 "/>
</symbol>
<symbol overflow="visible" id="glyph2-33">
<path style="stroke:none;" d="M 4.8125 -4.828125 L 3.515625 -4.828125 L 2.515625 -1.3125 L 1.453125 -4.828125 L 0.078125 -4.828125 L 1.875 0.203125 L 1.875 0.234375 C 1.875 0.6875 1.53125 1.03125 1.09375 1.03125 C 1 1.03125 0.921875 1.03125 0.765625 0.984375 L 0.765625 1.921875 C 0.953125 1.953125 1.0625 1.953125 1.21875 1.953125 C 2.0625 1.953125 2.5 1.8125 2.828125 0.890625 Z M 4.8125 -4.828125 "/>
</symbol>
<symbol overflow="visible" id="glyph2-34">
<path style="stroke:none;" d="M 4.9375 -4.59375 C 4.9375 -5.8125 4.015625 -6.65625 2.703125 -6.65625 C 1.40625 -6.65625 0.53125 -5.921875 0.53125 -4.296875 L 1.75 -4.296875 L 1.75 -4.390625 C 1.75 -5.078125 2.15625 -5.59375 2.734375 -5.59375 C 3.265625 -5.59375 3.671875 -5.140625 3.671875 -4.5625 C 3.671875 -4.15625 3.5625 -4 3.03125 -3.5625 C 2.375 -3 2.15625 -2.59375 2.15625 -1.921875 L 2.15625 -1.796875 L 3.265625 -1.796875 C 3.265625 -2.390625 3.328125 -2.484375 3.859375 -2.859375 C 4.6875 -3.453125 4.9375 -3.84375 4.9375 -4.59375 Z M 3.40625 0 L 3.40625 -1.3125 L 2.0625 -1.3125 L 2.0625 0 Z M 3.40625 0 "/>
</symbol>
<symbol overflow="visible" id="glyph2-35">
<path style="stroke:none;" d="M 6.125 -2.21875 L 4.8125 -2.21875 C 4.734375 -1.390625 4.203125 -1.015625 3.375 -1.015625 C 2.34375 -1.015625 1.734375 -1.8125 1.734375 -3.234375 C 1.734375 -4.671875 2.375 -5.484375 3.421875 -5.484375 C 4.140625 -5.484375 4.625 -5.140625 4.8125 -4.3125 L 6.09375 -4.3125 C 5.984375 -5.8125 4.84375 -6.625 3.375 -6.625 C 1.53125 -6.625 0.390625 -5.359375 0.390625 -3.25 C 0.390625 -1.15625 1.53125 0.109375 3.34375 0.109375 C 4.953125 0.109375 6.046875 -0.734375 6.125 -2.21875 Z M 6.125 -2.21875 "/>
</symbol>
<symbol overflow="visible" id="glyph2-36">
<path style="stroke:none;" d="M 5.125 -2.40625 C 5.125 -3.84375 4.375 -4.90625 3.109375 -4.90625 C 2.5 -4.90625 2.078125 -4.640625 1.765625 -4.109375 L 1.765625 -4.828125 L 0.515625 -4.828125 L 0.515625 1.953125 L 1.765625 1.953125 L 1.765625 -0.640625 C 2.078125 -0.109375 2.5 0.078125 3.109375 0.078125 C 4.265625 0.078125 5.125 -0.953125 5.125 -2.40625 Z M 3.875 -2.390625 C 3.875 -1.515625 3.4375 -0.96875 2.828125 -0.96875 C 2.203125 -0.96875 1.765625 -1.515625 1.765625 -2.40625 C 1.765625 -3.3125 2.203125 -3.859375 2.828125 -3.859375 C 3.453125 -3.859375 3.875 -3.3125 3.875 -2.390625 Z M 3.875 -2.390625 "/>
</symbol>
<symbol overflow="visible" id="glyph2-37">
<path style="stroke:none;" d="M 1.796875 -5.546875 L 1.796875 -6.515625 L 0.59375 -6.515625 L 0.59375 -5.390625 L 1.3125 -5.390625 C 1.328125 -4.953125 1.09375 -4.6875 0.59375 -4.609375 L 0.59375 -4.1875 C 0.890625 -4.203125 1.1875 -4.3125 1.390625 -4.5 C 1.6875 -4.734375 1.796875 -5.03125 1.796875 -5.546875 Z M 1.796875 -5.546875 "/>
</symbol>
<symbol overflow="visible" id="glyph2-38">
<path style="stroke:none;" d="M 6.40625 0 L 3.53125 -3.703125 L 6.125 -6.515625 L 4.546875 -6.515625 L 2 -3.65625 L 2 -6.515625 L 0.65625 -6.515625 L 0.65625 0 L 2 0 L 2 -2.1875 L 2.671875 -2.875 L 4.8125 0 Z M 6.40625 0 "/>
</symbol>
<symbol overflow="visible" id="glyph2-39">
<path style="stroke:none;" d="M 6.625 -3.21875 C 6.625 -5.1875 5.390625 -6.625 3.484375 -6.625 C 1.578125 -6.625 0.359375 -5.125 0.359375 -3.265625 C 0.359375 -1.3125 1.578125 0.109375 3.5 0.109375 C 5.390625 0.109375 6.625 -1.3125 6.625 -3.21875 Z M 5.296875 -3.21875 C 5.296875 -1.890625 4.5625 -1.03125 3.5 -1.03125 C 2.40625 -1.03125 1.703125 -1.890625 1.703125 -3.265625 C 1.703125 -4.578125 2.40625 -5.484375 3.5 -5.484375 C 4.59375 -5.484375 5.296875 -4.578125 5.296875 -3.21875 Z M 3.1875 -7.125 L 3.1875 -8.15625 L 2.0625 -8.15625 L 2.0625 -7.125 Z M 4.921875 -7.125 L 4.921875 -8.15625 L 3.796875 -8.15625 L 3.796875 -7.125 Z M 4.921875 -7.125 "/>
</symbol>
<symbol overflow="visible" id="glyph2-40">
<path style="stroke:none;" d="M 6.9375 0 L 6.9375 -6.515625 L 4.921875 -6.515625 L 3.765625 -1.328125 L 2.59375 -6.515625 L 0.59375 -6.515625 L 0.59375 0 L 1.9375 0 L 1.9375 -5.078125 L 3.09375 0 L 4.4375 0 L 5.59375 -5.078125 L 5.59375 0 Z M 6.9375 0 "/>
</symbol>
<symbol overflow="visible" id="glyph2-41">
<path style="stroke:none;" d="M 2.59375 -6.375 L 1.734375 -6.375 L -0.109375 0.125 L 0.765625 0.125 Z M 2.59375 -6.375 "/>
</symbol>
<symbol overflow="visible" id="glyph2-42">
<path style="stroke:none;" d="M 2.796875 -3.890625 L 2.796875 -4.734375 L 2.0625 -4.734375 L 2.0625 -5.203125 C 2.0625 -5.453125 2.15625 -5.578125 2.390625 -5.578125 C 2.5 -5.578125 2.640625 -5.5625 2.75 -5.546875 L 2.75 -6.484375 C 2.515625 -6.5 2.203125 -6.515625 2.03125 -6.515625 C 1.203125 -6.515625 0.796875 -6.125 0.796875 -5.3125 L 0.796875 -4.734375 L 0.125 -4.734375 L 0.125 -3.890625 L 0.796875 -3.890625 L 0.796875 0 L 2.0625 0 L 2.0625 -3.890625 Z M 2.796875 -3.890625 "/>
</symbol>
<symbol overflow="visible" id="glyph2-43">
<path style="stroke:none;" d="M 2.796875 -3.890625 L 2.796875 -4.734375 L 2.0625 -4.734375 L 2.0625 -5.203125 C 2.0625 -5.453125 2.15625 -5.578125 2.390625 -5.578125 C 2.5 -5.578125 2.640625 -5.5625 2.75 -5.546875 L 2.75 -6.484375 C 2.515625 -6.5 2.203125 -6.515625 2.03125 -6.515625 C 1.203125 -6.515625 0.796875 -6.125 0.796875 -5.3125 L 0.796875 -4.734375 L 0.125 -4.734375 L 0.125 -3.890625 L 0.796875 -3.890625 L 0.796875 0 L 2.0625 0 L 2.0625 -3.890625 Z M 4.828125 0 L 4.828125 -4.828125 L 3.578125 -4.828125 L 3.578125 0 Z M 4.828125 -5.40625 L 4.828125 -6.65625 L 3.578125 -6.65625 L 3.578125 -5.40625 Z M 4.828125 -5.40625 "/>
</symbol>
<symbol overflow="visible" id="glyph2-44">
<path style="stroke:none;" d="M 2.15625 0 L 2.15625 -1.3125 L 0.828125 -1.3125 L 0.828125 0 Z M 2.15625 -3.34375 L 2.15625 -4.640625 L 0.828125 -4.640625 L 0.828125 -3.34375 Z M 2.15625 -3.34375 "/>
</symbol>
<symbol overflow="visible" id="glyph2-45">
<path style="stroke:none;" d="M 4.828125 0 L 4.828125 -4.828125 L 3.578125 -4.828125 L 3.578125 -1.9375 C 3.578125 -1.359375 3.1875 -0.984375 2.578125 -0.984375 C 2.03125 -0.984375 1.765625 -1.265625 1.765625 -1.84375 L 1.765625 -4.828125 L 0.515625 -4.828125 L 0.515625 -1.59375 C 0.515625 -0.53125 1.109375 0.078125 2.140625 0.078125 C 2.78125 0.078125 3.21875 -0.15625 3.578125 -0.640625 L 3.578125 0 Z M 2.421875 -5.515625 L 2.421875 -6.546875 L 1.296875 -6.546875 L 1.296875 -5.515625 Z M 4.171875 -5.515625 L 4.171875 -6.546875 L 3.03125 -6.546875 L 3.03125 -5.515625 Z M 4.171875 -5.515625 "/>
</symbol>
<symbol overflow="visible" id="glyph2-46">
<path style="stroke:none;" d="M 1.90625 0 L 1.90625 -1.3125 L 0.578125 -1.3125 L 0.578125 0 Z M 1.90625 0 "/>
</symbol>
<symbol overflow="visible" id="glyph3-0">
<path style="stroke:none;" d=""/>
</symbol>
<symbol overflow="visible" id="glyph3-1">
<path style="stroke:none;" d="M 1.703125 -2.234375 C 1.703125 -2.5 1.5 -2.703125 1.25 -2.703125 C 0.984375 -2.703125 0.78125 -2.5 0.78125 -2.234375 C 0.78125 -1.96875 0.984375 -1.765625 1.25 -1.765625 C 1.5 -1.765625 1.703125 -1.96875 1.703125 -2.234375 Z M 1.703125 -2.234375 "/>
</symbol>
<symbol overflow="visible" id="glyph4-0">
<path style="stroke:none;" d=""/>
</symbol>
<symbol overflow="visible" id="glyph4-1">
<path style="stroke:none;" d="M 4.078125 -1.890625 C 4.078125 -2.5 4.03125 -2.875 3.90625 -3.1875 C 3.640625 -3.859375 3 -4.28125 2.21875 -4.28125 C 1.0625 -4.28125 0.3125 -3.421875 0.3125 -2.0625 C 0.3125 -0.6875 1.046875 0.125 2.203125 0.125 C 3.15625 0.125 3.8125 -0.421875 3.984375 -1.265625 L 3.3125 -1.265625 C 3.140625 -0.71875 2.765625 -0.484375 2.234375 -0.484375 C 1.546875 -0.484375 1.03125 -0.9375 1.015625 -1.890625 Z M 3.359375 -2.46875 C 3.359375 -2.46875 3.359375 -2.4375 3.359375 -2.421875 L 1.03125 -2.421875 C 1.078125 -3.171875 1.546875 -3.671875 2.21875 -3.671875 C 2.859375 -3.671875 3.359375 -3.125 3.359375 -2.46875 Z M 3.359375 -2.46875 "/>
</symbol>
<symbol overflow="visible" id="glyph4-2">
<path style="stroke:none;" d="M 3.859375 -4.15625 L 3.109375 -4.15625 L 1.9375 -0.78125 L 0.828125 -4.15625 L 0.078125 -4.15625 L 1.546875 0 L 2.265625 0 Z M 3.859375 -4.15625 "/>
</symbol>
<symbol overflow="visible" id="glyph4-3">
<path style="stroke:none;" d="M 2.015625 0 L 2.015625 -0.5625 C 1.921875 -0.53125 1.828125 -0.53125 1.703125 -0.53125 C 1.40625 -0.53125 1.328125 -0.609375 1.328125 -0.890625 L 1.328125 -3.625 L 2.015625 -3.625 L 2.015625 -4.15625 L 1.328125 -4.15625 L 1.328125 -5.296875 L 0.671875 -5.296875 L 0.671875 -4.15625 L 0.109375 -4.15625 L 0.109375 -3.625 L 0.671875 -3.625 L 0.671875 -0.609375 C 0.671875 -0.1875 0.953125 0.0625 1.46875 0.0625 C 1.640625 0.0625 1.796875 0.046875 2.015625 0 Z M 2.015625 0 "/>
</symbol>
<symbol overflow="visible" id="glyph4-4">
<path style="stroke:none;" d="M 3.984375 0 L 2.28125 -2.71875 L 3.734375 -4.15625 L 2.875 -4.15625 L 1.125 -2.390625 L 1.125 -5.78125 L 0.453125 -5.78125 L 0.453125 0 L 1.125 0 L 1.125 -1.625 L 1.765625 -2.25 L 3.171875 0 Z M 3.984375 0 "/>
</symbol>
<symbol overflow="visible" id="glyph4-5">
<path style="stroke:none;" d="M 2.546875 -3.578125 L 2.546875 -4.25 C 2.4375 -4.265625 2.375 -4.28125 2.296875 -4.28125 C 1.859375 -4.28125 1.546875 -4.03125 1.15625 -3.40625 L 1.15625 -4.15625 L 0.5625 -4.15625 L 0.5625 0 L 1.21875 0 L 1.21875 -2.15625 C 1.21875 -3.09375 1.53125 -3.5625 2.546875 -3.578125 Z M 2.546875 -3.578125 "/>
</symbol>
<symbol overflow="visible" id="glyph4-6">
<path style="stroke:none;" d="M 4.25 -0.015625 L 4.25 -0.515625 C 4.171875 -0.5 4.140625 -0.5 4.109375 -0.5 C 3.875 -0.5 3.75 -0.625 3.75 -0.828125 L 3.75 -3.140625 C 3.75 -3.875 3.203125 -4.28125 2.1875 -4.28125 C 1.171875 -4.28125 0.5625 -3.890625 0.515625 -2.921875 L 1.1875 -2.921875 C 1.234375 -3.4375 1.546875 -3.671875 2.15625 -3.671875 C 2.75 -3.671875 3.09375 -3.4375 3.09375 -3.046875 L 3.09375 -2.875 C 3.09375 -2.59375 2.921875 -2.46875 2.390625 -2.40625 C 1.453125 -2.296875 1.3125 -2.265625 1.0625 -2.15625 C 0.578125 -1.953125 0.328125 -1.59375 0.328125 -1.078125 C 0.328125 -0.328125 0.859375 0.125 1.703125 0.125 C 2.234375 0.125 2.75 -0.109375 3.109375 -0.484375 C 3.1875 -0.171875 3.46875 0.0625 3.796875 0.0625 C 3.921875 0.0625 4.03125 0.046875 4.25 -0.015625 Z M 3.09375 -1.4375 C 3.09375 -0.84375 2.484375 -0.453125 1.84375 -0.453125 C 1.328125 -0.453125 1.03125 -0.640625 1.03125 -1.09375 C 1.03125 -1.53125 1.3125 -1.71875 2.03125 -1.828125 C 2.71875 -1.921875 2.859375 -1.953125 3.09375 -2.0625 Z M 3.09375 -1.4375 "/>
</symbol>
<symbol overflow="visible" id="glyph4-7">
<path style="stroke:none;" d="M 3.921875 0 L 3.921875 -5.78125 L 3.265625 -5.78125 L 3.265625 -3.640625 C 3 -4.0625 2.546875 -4.28125 2 -4.28125 C 0.90625 -4.28125 0.203125 -3.4375 0.203125 -2.125 C 0.203125 -0.71875 0.890625 0.125 2.015625 0.125 C 2.59375 0.125 2.984375 -0.09375 3.34375 -0.609375 L 3.34375 0 Z M 3.265625 -2.0625 C 3.265625 -1.109375 2.8125 -0.5 2.109375 -0.5 C 1.375 -0.5 0.890625 -1.109375 0.890625 -2.078125 C 0.890625 -3.046875 1.375 -3.65625 2.109375 -3.65625 C 2.8125 -3.65625 3.265625 -3.03125 3.265625 -2.0625 Z M 3.265625 -2.0625 "/>
</symbol>
<symbol overflow="visible" id="glyph4-8">
<path style="stroke:none;" d="M 3.859375 0 L 3.859375 -3.140625 C 3.859375 -3.828125 3.34375 -4.28125 2.546875 -4.28125 C 1.921875 -4.28125 1.53125 -4.046875 1.171875 -3.453125 L 1.171875 -4.15625 L 0.5625 -4.15625 L 0.5625 0 L 1.21875 0 L 1.21875 -2.296875 C 1.21875 -3.140625 1.671875 -3.703125 2.34375 -3.703125 C 2.875 -3.703125 3.203125 -3.375 3.203125 -2.875 L 3.203125 0 Z M 3.859375 0 "/>
</symbol>
<symbol overflow="visible" id="glyph4-9">
<path style="stroke:none;" d="M 3.78125 -1.421875 L 3.125 -1.421875 C 3.015625 -0.765625 2.671875 -0.484375 2.109375 -0.484375 C 1.375 -0.484375 0.9375 -1.0625 0.9375 -2.046875 C 0.9375 -3.078125 1.359375 -3.671875 2.09375 -3.671875 C 2.640625 -3.671875 3 -3.34375 3.078125 -2.765625 L 3.734375 -2.765625 C 3.65625 -3.78125 3.03125 -4.28125 2.09375 -4.28125 C 0.96875 -4.28125 0.25 -3.421875 0.25 -2.046875 C 0.25 -0.765625 0.890625 0.03125 1.921875 0.109375 L 1.65625 0.734375 L 1.78125 0.828125 C 1.890625 0.796875 1.9375 0.796875 2.03125 0.796875 C 2.265625 0.796875 2.390625 0.953125 2.390625 1.140625 C 2.390625 1.34375 2.21875 1.5 1.96875 1.5 C 1.765625 1.5 1.625 1.453125 1.265625 1.265625 L 1.1875 1.234375 L 1.03125 1.5625 C 1.515625 1.765625 1.703125 1.828125 2.015625 1.828125 C 2.625 1.828125 3 1.546875 3 1.09375 C 3 0.75 2.765625 0.421875 2.359375 0.421875 L 2.1875 0.421875 L 2.3125 0.109375 C 3.171875 0.03125 3.71875 -0.546875 3.78125 -1.421875 Z M 3.78125 -1.421875 "/>
</symbol>
<symbol overflow="visible" id="glyph4-10">
<path style="stroke:none;" d="M 4.046875 -2.046875 C 4.046875 -3.484375 3.359375 -4.28125 2.15625 -4.28125 C 0.984375 -4.28125 0.28125 -3.484375 0.28125 -2.078125 C 0.28125 -0.6875 0.984375 0.125 2.171875 0.125 C 3.328125 0.125 4.046875 -0.6875 4.046875 -2.046875 Z M 3.359375 -2.0625 C 3.359375 -1.078125 2.890625 -0.484375 2.171875 -0.484375 C 1.421875 -0.484375 0.96875 -1.078125 0.96875 -2.078125 C 0.96875 -3.078125 1.421875 -3.671875 2.171875 -3.671875 C 2.90625 -3.671875 3.359375 -3.09375 3.359375 -2.0625 Z M 1.921875 -4.796875 L 1.921875 -5.609375 L 1.203125 -5.609375 L 1.203125 -4.796875 Z M 3.203125 -4.796875 L 3.203125 -5.609375 L 2.484375 -5.609375 L 2.484375 -4.796875 Z M 3.203125 -4.796875 "/>
</symbol>
<symbol overflow="visible" id="glyph4-11">
<path style="stroke:none;" d="M 6.03125 0 L 6.03125 -3.125 C 6.03125 -3.859375 5.625 -4.28125 4.84375 -4.28125 C 4.28125 -4.28125 3.953125 -4.109375 3.5625 -3.640625 C 3.3125 -4.09375 2.984375 -4.28125 2.4375 -4.28125 C 1.890625 -4.28125 1.53125 -4.078125 1.171875 -3.578125 L 1.171875 -4.15625 L 0.5625 -4.15625 L 0.5625 0 L 1.21875 0 L 1.21875 -2.609375 C 1.21875 -3.21875 1.65625 -3.703125 2.203125 -3.703125 C 2.6875 -3.703125 2.96875 -3.390625 2.96875 -2.859375 L 2.96875 0 L 3.625 0 L 3.625 -2.609375 C 3.625 -3.21875 4.078125 -3.703125 4.609375 -3.703125 C 5.09375 -3.703125 5.375 -3.390625 5.375 -2.859375 L 5.375 0 Z M 6.03125 0 "/>
</symbol>
<symbol overflow="visible" id="glyph5-0">
<path style="stroke:none;" d=""/>
</symbol>
<symbol overflow="visible" id="glyph5-1">
<path style="stroke:none;" d="M 7.609375 -2.046875 C 6.546875 -1.28125 6.328125 -0.109375 6.328125 -0.015625 C 6.328125 0.109375 6.4375 0.109375 6.515625 0.109375 C 6.625 0.109375 6.6875 0.109375 6.71875 -0.015625 C 6.953125 -1.0625 7.5625 -1.765625 8.546875 -2.125 C 8.59375 -2.140625 8.671875 -2.15625 8.671875 -2.234375 C 8.671875 -2.3125 8.609375 -2.34375 8.546875 -2.359375 C 7.421875 -2.78125 6.921875 -3.578125 6.71875 -4.453125 C 6.6875 -4.578125 6.65625 -4.578125 6.515625 -4.578125 C 6.4375 -4.578125 6.328125 -4.578125 6.328125 -4.453125 C 6.328125 -4.359375 6.546875 -3.1875 7.609375 -2.4375 L 0.84375 -2.4375 C 0.6875 -2.4375 0.515625 -2.4375 0.515625 -2.25 C 0.515625 -2.046875 0.671875 -2.046875 0.84375 -2.046875 Z M 7.609375 -2.046875 "/>
</symbol>
<symbol overflow="visible" id="glyph6-0">
<path style="stroke:none;" d=""/>
</symbol>
<symbol overflow="visible" id="glyph6-1">
<path style="stroke:none;" d="M 1.90625 -2.234375 C 1.90625 -2.59375 1.609375 -2.90625 1.25 -2.90625 C 0.875 -2.90625 0.578125 -2.59375 0.578125 -2.234375 C 0.578125 -1.875 0.875 -1.5625 1.25 -1.5625 C 1.609375 -1.5625 1.90625 -1.875 1.90625 -2.234375 Z M 1.90625 -2.234375 "/>
</symbol>
</g>
</defs>
<g id="surface1">
<g style="fill:rgb(0%,42.74292%,46.665955%);fill-opacity:1;">
  <use xlink:href="#glyph0-1" x="205.689525" y="19.913203"/>
</g>
<g style="fill:rgb(0%,42.74292%,46.665955%);fill-opacity:1;">
  <use xlink:href="#glyph0-2" x="214.229327" y="19.913203"/>
  <use xlink:href="#glyph0-3" x="220.851544" y="19.913203"/>
  <use xlink:href="#glyph0-4" x="228.128837" y="19.913203"/>
  <use xlink:href="#glyph0-2" x="234.751054" y="19.913203"/>
  <use xlink:href="#glyph0-5" x="241.373272" y="19.913203"/>
</g>
<g style="fill:rgb(0%,42.74292%,46.665955%);fill-opacity:1;">
  <use xlink:href="#glyph0-6" x="255.272782" y="19.913203"/>
  <use xlink:href="#glyph0-7" x="262.550074" y="19.913203"/>
  <use xlink:href="#glyph0-8" x="269.827367" y="19.913203"/>
  <use xlink:href="#glyph0-7" x="277.10466" y="19.913203"/>
  <use xlink:href="#glyph0-5" x="284.381952" y="19.913203"/>
  <use xlink:href="#glyph0-9" x="294.970354" y="19.913203"/>
  <use xlink:href="#glyph0-7" x="298.281462" y="19.913203"/>
</g>
<g style="fill:rgb(0%,42.74292%,46.665955%);fill-opacity:1;">
  <use xlink:href="#glyph0-10" x="308.869864" y="19.913203"/>
  <use xlink:href="#glyph0-11" x="312.836048" y="19.913203"/>
  <use xlink:href="#glyph0-12" x="320.11334" y="19.913203"/>
  <use xlink:href="#glyph0-12" x="326.068572" y="19.913203"/>
  <use xlink:href="#glyph0-13" x="332.023803" y="19.913203"/>
  <use xlink:href="#glyph0-14" x="335.334912" y="19.913203"/>
  <use xlink:href="#glyph0-6" x="342.612204" y="19.913203"/>
</g>
<g style="fill:rgb(0%,42.74292%,46.665955%);fill-opacity:1;">
  <use xlink:href="#glyph0-8" x="353.200606" y="19.913203"/>
  <use xlink:href="#glyph0-15" x="360.477898" y="19.913203"/>
  <use xlink:href="#glyph0-14" x="367.755191" y="19.913203"/>
  <use xlink:href="#glyph0-6" x="375.032484" y="19.913203"/>
  <use xlink:href="#glyph0-7" x="382.309776" y="19.913203"/>
  <use xlink:href="#glyph0-4" x="389.587069" y="19.913203"/>
  <use xlink:href="#glyph0-7" x="396.209286" y="19.913203"/>
</g>
<g style="fill:rgb(41.96167%,44.706726%,50.193787%);fill-opacity:1;">
  <use xlink:href="#glyph1-1" x="205.689525" y="36.133278"/>
</g>
<g style="fill:rgb(41.96167%,44.706726%,50.193787%);fill-opacity:1;">
  <use xlink:href="#glyph1-2" x="208.619499" y="36.133278"/>
  <use xlink:href="#glyph1-3" x="213.586162" y="36.133278"/>
</g>
<g style="fill:rgb(41.96167%,44.706726%,50.193787%);fill-opacity:1;">
  <use xlink:href="#glyph1-4" x="218.007921" y="36.133278"/>
  <use xlink:href="#glyph1-5" x="220.491253" y="36.133278"/>
  <use xlink:href="#glyph1-6" x="225.457916" y="36.133278"/>
  <use xlink:href="#glyph1-7" x="230.424579" y="36.133278"/>
  <use xlink:href="#glyph1-6" x="232.407671" y="36.133278"/>
</g>
<g style="fill:rgb(41.96167%,44.706726%,50.193787%);fill-opacity:1;">
  <use xlink:href="#glyph1-8" x="239.857665" y="36.133278"/>
  <use xlink:href="#glyph1-6" x="244.824328" y="36.133278"/>
  <use xlink:href="#glyph1-9" x="249.790991" y="36.133278"/>
  <use xlink:href="#glyph1-10" x="254.757654" y="36.133278"/>
  <use xlink:href="#glyph1-7" x="256.740746" y="36.133278"/>
  <use xlink:href="#glyph1-11" x="258.723838" y="36.133278"/>
</g>
<g style="fill:rgb(41.96167%,44.706726%,50.193787%);fill-opacity:1;">
  <use xlink:href="#glyph1-12" x="264.521256" y="36.133278"/>
</g>
<g style="fill:rgb(41.96167%,44.706726%,50.193787%);fill-opacity:1;">
  <use xlink:href="#glyph1-6" x="268.764358" y="36.133278"/>
  <use xlink:href="#glyph1-13" x="273.731021" y="36.133278"/>
  <use xlink:href="#glyph1-10" x="278.697684" y="36.133278"/>
</g>
<g style="fill:rgb(41.96167%,44.706726%,50.193787%);fill-opacity:1;">
  <use xlink:href="#glyph1-14" x="283.164107" y="36.133278"/>
</g>
<g style="fill:rgb(41.96167%,44.706726%,50.193787%);fill-opacity:1;">
  <use xlink:href="#glyph1-15" x="287.451874" y="36.133278"/>
  <use xlink:href="#glyph1-8" x="292.418537" y="36.133278"/>
</g>
<g style="fill:rgb(41.96167%,44.706726%,50.193787%);fill-opacity:1;">
  <use xlink:href="#glyph1-12" x="299.868531" y="36.133278"/>
</g>
<g style="fill:rgb(41.96167%,44.706726%,50.193787%);fill-opacity:1;">
  <use xlink:href="#glyph1-15" x="304.156298" y="36.133278"/>
  <use xlink:href="#glyph1-7" x="309.122961" y="36.133278"/>
  <use xlink:href="#glyph1-16" x="311.106053" y="36.133278"/>
</g>
<g style="fill:rgb(41.96167%,44.706726%,50.193787%);fill-opacity:1;">
  <use xlink:href="#glyph1-17" x="318.556047" y="36.133278"/>
  <use xlink:href="#glyph1-16" x="323.52271" y="36.133278"/>
  <use xlink:href="#glyph1-7" x="328.489373" y="36.133278"/>
  <use xlink:href="#glyph1-2" x="330.472465" y="36.133278"/>
  <use xlink:href="#glyph1-13" x="335.439128" y="36.133278"/>
</g>
<g style="fill:rgb(41.96167%,44.706726%,50.193787%);fill-opacity:1;">
  <use xlink:href="#glyph1-5" x="342.889123" y="36.133278"/>
  <use xlink:href="#glyph1-10" x="347.855785" y="36.133278"/>
  <use xlink:href="#glyph1-1" x="349.838877" y="36.133278"/>
  <use xlink:href="#glyph1-8" x="352.813516" y="36.133278"/>
  <use xlink:href="#glyph1-10" x="357.780178" y="36.133278"/>
  <use xlink:href="#glyph1-12" x="359.763271" y="36.133278"/>
  <use xlink:href="#glyph1-10" x="364.229694" y="36.133278"/>
</g>
<g style="fill:rgb(41.96167%,44.706726%,50.193787%);fill-opacity:1;">
  <use xlink:href="#glyph1-3" x="368.696118" y="36.133278"/>
  <use xlink:href="#glyph1-2" x="373.162541" y="36.133278"/>
  <use xlink:href="#glyph1-14" x="378.129204" y="36.133278"/>
  <use xlink:href="#glyph1-7" x="382.595627" y="36.133278"/>
  <use xlink:href="#glyph1-2" x="384.578719" y="36.133278"/>
  <use xlink:href="#glyph1-1" x="389.545382" y="36.133278"/>
</g>
<path style="fill-rule:nonzero;fill:rgb(90.979004%,96.470642%,96.862793%);fill-opacity:1;stroke-width:0.89664;stroke-linecap:butt;stroke-linejoin:round;stroke:rgb(3.921509%,57.647705%,58.822632%);stroke-opacity:1;stroke-miterlimit:10;" d="M 86.794438 -40.133905 L 3.435628 -40.133905 C 1.784919 -40.133905 0.447885 -41.47094 0.447885 -43.121648 L 0.447885 -66.545238 C 0.447885 -68.195947 1.784919 -69.532981 3.435628 -69.532981 L 86.794438 -69.532981 C 88.445146 -69.532981 89.782181 -68.195947 89.782181 -66.545238 L 89.782181 -43.121648 C 89.782181 -41.47094 88.445146 -40.133905 86.794438 -40.133905 Z M 86.794438 -40.133905 " transform="matrix(0.996258,0,0,-0.996258,202.182698,26.016279)"/>
<g style="fill:rgb(12.156677%,16.07666%,19.999695%);fill-opacity:1;">
  <use xlink:href="#glyph2-1" x="215.907147" y="77.461046"/>
</g>
<g style="fill:rgb(12.156677%,16.07666%,19.999695%);fill-opacity:1;">
  <use xlink:href="#glyph2-2" x="220.695153" y="77.461046"/>
  <use xlink:href="#glyph2-3" x="226.153122" y="77.461046"/>
  <use xlink:href="#glyph2-4" x="231.611092" y="77.461046"/>
  <use xlink:href="#glyph2-5" x="237.069061" y="77.461046"/>
</g>
<g style="fill:rgb(12.156677%,16.07666%,19.999695%);fill-opacity:1;">
  <use xlink:href="#glyph2-6" x="247.985" y="77.461046"/>
  <use xlink:href="#glyph2-7" x="253.44297" y="77.461046"/>
  <use xlink:href="#glyph2-8" x="255.926301" y="77.461046"/>
  <use xlink:href="#glyph2-9" x="259.401179" y="77.461046"/>
  <use xlink:href="#glyph2-7" x="264.859148" y="77.461046"/>
  <use xlink:href="#glyph2-10" x="267.34248" y="77.461046"/>
  <use xlink:href="#glyph2-11" x="269.825811" y="77.461046"/>
  <use xlink:href="#glyph2-8" x="274.792474" y="77.461046"/>
</g>
<g style="fill:rgb(12.156677%,16.07666%,19.999695%);fill-opacity:1;">
  <use xlink:href="#glyph1-18" x="230.705562" y="88.379036"/>
  <use xlink:href="#glyph1-19" x="233.6802" y="88.379036"/>
  <use xlink:href="#glyph1-15" x="238.146623" y="88.379036"/>
  <use xlink:href="#glyph1-1" x="243.113286" y="88.379036"/>
</g>
<g style="fill:rgb(12.156677%,16.07666%,19.999695%);fill-opacity:1;">
  <use xlink:href="#glyph1-20" x="246.177253" y="88.379036"/>
  <use xlink:href="#glyph1-16" x="251.143916" y="88.379036"/>
  <use xlink:href="#glyph1-3" x="256.110579" y="88.379036"/>
  <use xlink:href="#glyph1-21" x="260.577002" y="88.379036"/>
</g>
<path style="fill-rule:nonzero;fill:rgb(93.331909%,94.900513%,100%);fill-opacity:1;stroke-width:0.89664;stroke-linecap:butt;stroke-linejoin:round;stroke:rgb(25.097656%,32.939148%,69.802856%);stroke-opacity:1;stroke-miterlimit:10;" d="M 233.719243 -33.617332 L 133.351471 -33.617332 C 131.700762 -33.617332 130.363728 -34.958287 130.363728 -36.608996 L 130.363728 -73.057891 C 130.363728 -74.708599 131.700762 -76.049554 133.351471 -76.049554 L 233.719243 -76.049554 C 235.369951 -76.049554 236.706986 -74.708599 236.706986 -73.057891 L 236.706986 -36.608996 C 236.706986 -34.958287 235.369951 -33.617332 233.719243 -33.617332 Z M 233.719243 -33.617332 " transform="matrix(0.996258,0,0,-0.996258,202.182698,26.016279)"/>
<g style="fill:rgb(12.156677%,16.07666%,19.999695%);fill-opacity:1;">
  <use xlink:href="#glyph2-12" x="363.957051" y="72.747749"/>
  <use xlink:href="#glyph2-13" x="370.406566" y="72.747749"/>
  <use xlink:href="#glyph2-14" x="376.364775" y="72.747749"/>
  <use xlink:href="#glyph2-15" x="383.31453" y="72.747749"/>
  <use xlink:href="#glyph2-16" x="385.797862" y="72.747749"/>
</g>
<g style="fill:rgb(12.156677%,16.07666%,19.999695%);fill-opacity:1;">
  <use xlink:href="#glyph2-1" x="391.711407" y="72.747749"/>
  <use xlink:href="#glyph2-15" x="397.169376" y="72.747749"/>
  <use xlink:href="#glyph2-17" x="399.652708" y="72.747749"/>
</g>
<g style="fill:rgb(12.156677%,16.07666%,19.999695%);fill-opacity:1;">
  <use xlink:href="#glyph1-17" x="351.208935" y="83.66574"/>
  <use xlink:href="#glyph1-10" x="356.175598" y="83.66574"/>
  <use xlink:href="#glyph1-4" x="358.15869" y="83.66574"/>
</g>
<g style="fill:rgb(12.156677%,16.07666%,19.999695%);fill-opacity:1;">
  <use xlink:href="#glyph1-22" x="363.616659" y="83.66574"/>
  <use xlink:href="#glyph1-6" x="368.083083" y="83.66574"/>
</g>
<g style="fill:rgb(12.156677%,16.07666%,19.999695%);fill-opacity:1;">
  <use xlink:href="#glyph1-23" x="372.915753" y="83.66574"/>
  <use xlink:href="#glyph1-10" x="377.382176" y="83.66574"/>
  <use xlink:href="#glyph1-1" x="379.365268" y="83.66574"/>
</g>
<g style="fill:rgb(12.156677%,16.07666%,19.999695%);fill-opacity:1;">
  <use xlink:href="#glyph3-1" x="385.319809" y="83.66574"/>
</g>
<g style="fill:rgb(12.156677%,16.07666%,19.999695%);fill-opacity:1;">
  <use xlink:href="#glyph1-17" x="390.780299" y="83.66574"/>
  <use xlink:href="#glyph1-2" x="395.746962" y="83.66574"/>
</g>
<g style="fill:rgb(12.156677%,16.07666%,19.999695%);fill-opacity:1;">
  <use xlink:href="#glyph1-12" x="400.490304" y="83.66574"/>
  <use xlink:href="#glyph1-4" x="404.956727" y="83.66574"/>
</g>
<g style="fill:rgb(12.156677%,16.07666%,19.999695%);fill-opacity:1;">
  <use xlink:href="#glyph1-3" x="410.414697" y="83.66574"/>
  <use xlink:href="#glyph1-10" x="414.88112" y="83.66574"/>
  <use xlink:href="#glyph1-7" x="416.864212" y="83.66574"/>
</g>
<g style="fill:rgb(12.156677%,16.07666%,19.999695%);fill-opacity:1;">
  <use xlink:href="#glyph1-20" x="345.61395" y="94.583731"/>
  <use xlink:href="#glyph1-2" x="350.580613" y="94.583731"/>
  <use xlink:href="#glyph1-1" x="355.547276" y="94.583731"/>
</g>
<g style="fill:rgb(12.156677%,16.07666%,19.999695%);fill-opacity:1;">
  <use xlink:href="#glyph1-22" x="358.47725" y="94.583731"/>
  <use xlink:href="#glyph1-2" x="362.943673" y="94.583731"/>
</g>
<g style="fill:rgb(12.156677%,16.07666%,19.999695%);fill-opacity:1;">
  <use xlink:href="#glyph1-6" x="370.884974" y="94.583731"/>
  <use xlink:href="#glyph1-14" x="375.851637" y="94.583731"/>
  <use xlink:href="#glyph1-7" x="380.318061" y="94.583731"/>
  <use xlink:href="#glyph1-6" x="382.301153" y="94.583731"/>
</g>
<g style="fill:rgb(12.156677%,16.07666%,19.999695%);fill-opacity:1;">
  <use xlink:href="#glyph3-1" x="390.247301" y="94.583731"/>
</g>
<g style="fill:rgb(12.156677%,16.07666%,19.999695%);fill-opacity:1;">
  <use xlink:href="#glyph1-17" x="395.707791" y="94.583731"/>
  <use xlink:href="#glyph1-10" x="400.674454" y="94.583731"/>
  <use xlink:href="#glyph1-1" x="402.657546" y="94.583731"/>
  <use xlink:href="#glyph1-7" x="405.632184" y="94.583731"/>
  <use xlink:href="#glyph1-6" x="407.615276" y="94.583731"/>
  <use xlink:href="#glyph1-24" x="412.581939" y="94.583731"/>
</g>
<g style="fill:rgb(12.156677%,16.07666%,19.999695%);fill-opacity:1;">
  <use xlink:href="#glyph1-4" x="417.003698" y="94.583731"/>
  <use xlink:href="#glyph1-10" x="419.487029" y="94.583731"/>
  <use xlink:href="#glyph1-1" x="421.470122" y="94.583731"/>
</g>
<path style="fill-rule:nonzero;fill:rgb(0%,42.74292%,46.665955%);fill-opacity:1;stroke-width:0.89664;stroke-linecap:butt;stroke-linejoin:round;stroke:rgb(0%,42.74292%,46.665955%);stroke-opacity:1;stroke-miterlimit:10;" d="M 374.970472 -39.098782 L 280.276275 -39.098782 C 278.625567 -39.098782 277.288532 -40.435816 277.288532 -42.086524 L 277.288532 -67.580362 C 277.288532 -69.23107 278.625567 -70.568105 280.276275 -70.568105 L 374.970472 -70.568105 C 376.621181 -70.568105 377.962136 -69.23107 377.962136 -67.580362 L 377.962136 -42.086524 C 377.962136 -40.435816 376.621181 -39.098782 374.970472 -39.098782 Z M 374.970472 -39.098782 " transform="matrix(0.996258,0,0,-0.996258,202.182698,26.016279)"/>
<g style="fill:rgb(100%,100%,100%);fill-opacity:1;">
  <use xlink:href="#glyph2-18" x="490.272592" y="78.207243"/>
  <use xlink:href="#glyph2-13" x="496.722108" y="78.207243"/>
  <use xlink:href="#glyph2-12" x="502.680317" y="78.207243"/>
  <use xlink:href="#glyph2-13" x="509.129832" y="78.207243"/>
  <use xlink:href="#glyph2-19" x="515.088041" y="78.207243"/>
  <use xlink:href="#glyph2-15" x="520.546011" y="78.207243"/>
</g>
<g style="fill:rgb(100%,100%,100%);fill-opacity:1;">
  <use xlink:href="#glyph2-20" x="526.00398" y="78.207243"/>
</g>
<g style="fill:rgb(100%,100%,100%);fill-opacity:1;">
  <use xlink:href="#glyph2-21" x="532.185511" y="78.207243"/>
  <use xlink:href="#glyph2-22" x="538.635026" y="78.207243"/>
  <use xlink:href="#glyph2-23" x="544.092996" y="78.207243"/>
  <use xlink:href="#glyph2-16" x="546.576327" y="78.207243"/>
</g>
<g style="fill:rgb(100%,100%,100%);fill-opacity:1;">
  <use xlink:href="#glyph2-1" x="552.489872" y="78.207243"/>
  <use xlink:href="#glyph2-23" x="557.947841" y="78.207243"/>
  <use xlink:href="#glyph2-17" x="560.431173" y="78.207243"/>
</g>
<g style="fill:rgb(100%,100%,100%);fill-opacity:1;">
  <use xlink:href="#glyph2-24" x="500.277014" y="89.125233"/>
  <use xlink:href="#glyph2-25" x="505.243677" y="89.125233"/>
  <use xlink:href="#glyph2-26" x="510.21034" y="89.125233"/>
  <use xlink:href="#glyph2-7" x="515.66831" y="89.125233"/>
  <use xlink:href="#glyph2-27" x="518.151641" y="89.125233"/>
  <use xlink:href="#glyph2-7" x="521.126279" y="89.125233"/>
  <use xlink:href="#glyph2-28" x="523.609611" y="89.125233"/>
  <use xlink:href="#glyph2-11" x="528.076034" y="89.125233"/>
  <use xlink:href="#glyph2-8" x="533.042697" y="89.125233"/>
</g>
<g style="fill:rgb(100%,100%,100%);fill-opacity:1;">
  <use xlink:href="#glyph2-25" x="539.492213" y="89.125233"/>
  <use xlink:href="#glyph2-29" x="544.458876" y="89.125233"/>
  <use xlink:href="#glyph2-30" x="549.425539" y="89.125233"/>
  <use xlink:href="#glyph2-31" x="551.90887" y="89.125233"/>
</g>
<path style="fill:none;stroke-width:1.0959;stroke-linecap:butt;stroke-linejoin:round;stroke:rgb(12.156677%,16.07666%,19.999695%);stroke-opacity:1;stroke-miterlimit:10;" d="M 90.229166 -54.833443 L 125.391998 -54.833443 " transform="matrix(0.996258,0,0,-0.996258,202.182698,26.016279)"/>
<path style="fill-rule:nonzero;fill:rgb(12.156677%,16.07666%,19.999695%);fill-opacity:1;stroke-width:1.0959;stroke-linecap:butt;stroke-linejoin:miter;stroke:rgb(12.156677%,16.07666%,19.999695%);stroke-opacity:1;stroke-miterlimit:10;" d="M 5.810366 0.000206825 L 1.767895 1.533287 L 3.120613 0.000206825 L 1.767895 -1.532874 Z M 5.810366 0.000206825 " transform="matrix(0.996258,0,0,-0.996258,324.269971,80.644737)"/>
<path style="fill:none;stroke-width:1.0959;stroke-linecap:butt;stroke-linejoin:round;stroke:rgb(12.156677%,16.07666%,19.999695%);stroke-opacity:1;stroke-miterlimit:10;" d="M 237.153971 -54.833443 L 272.316803 -54.833443 " transform="matrix(0.996258,0,0,-0.996258,202.182698,26.016279)"/>
<path style="fill-rule:nonzero;fill:rgb(12.156677%,16.07666%,19.999695%);fill-opacity:1;stroke-width:1.0959;stroke-linecap:butt;stroke-linejoin:miter;stroke:rgb(12.156677%,16.07666%,19.999695%);stroke-opacity:1;stroke-miterlimit:10;" d="M 5.81105 0.000206825 L 1.768579 1.533287 L 3.121297 0.000206825 L 1.768579 -1.532874 Z M 5.81105 0.000206825 " transform="matrix(0.996258,0,0,-0.996258,470.644289,80.644737)"/>
<path style="fill-rule:nonzero;fill:rgb(99.215698%,94.509888%,90.586853%);fill-opacity:1;stroke-width:0.89664;stroke-linecap:butt;stroke-linejoin:round;stroke:rgb(70.979309%,39.608765%,11.373901%);stroke-opacity:1;stroke-miterlimit:10;" d="M 374.970472 -116.819306 L 280.276275 -116.819306 C 278.625567 -116.819306 277.288532 -118.160261 277.288532 -119.810969 L 277.288532 -139.345005 C 277.288532 -140.995713 278.625567 -142.332748 280.276275 -142.332748 L 374.970472 -142.332748 C 376.621181 -142.332748 377.962136 -140.995713 377.962136 -139.345005 L 377.962136 -119.810969 C 377.962136 -118.160261 376.621181 -116.819306 374.970472 -116.819306 Z M 374.970472 -116.819306 " transform="matrix(0.996258,0,0,-0.996258,202.182698,26.016279)"/>
<g style="fill:rgb(12.156677%,16.07666%,19.999695%);fill-opacity:1;">
  <use xlink:href="#glyph2-32" x="496.783138" y="157.377867"/>
</g>
<g style="fill:rgb(12.156677%,16.07666%,19.999695%);fill-opacity:1;">
  <use xlink:href="#glyph2-11" x="502.160712" y="157.377867"/>
  <use xlink:href="#glyph2-26" x="507.127375" y="157.377867"/>
  <use xlink:href="#glyph2-7" x="512.585344" y="157.377867"/>
</g>
<g style="fill:rgb(12.156677%,16.07666%,19.999695%);fill-opacity:1;">
  <use xlink:href="#glyph2-31" x="518.043314" y="157.377867"/>
</g>
<g style="fill:rgb(12.156677%,16.07666%,19.999695%);fill-opacity:1;">
  <use xlink:href="#glyph2-2" x="522.83132" y="157.377867"/>
  <use xlink:href="#glyph2-9" x="528.289289" y="157.377867"/>
</g>
<g style="fill:rgb(12.156677%,16.07666%,19.999695%);fill-opacity:1;">
  <use xlink:href="#glyph2-33" x="536.73083" y="157.377867"/>
</g>
<g style="fill:rgb(12.156677%,16.07666%,19.999695%);fill-opacity:1;">
  <use xlink:href="#glyph2-2" x="541.518836" y="157.377867"/>
  <use xlink:href="#glyph2-10" x="546.976805" y="157.377867"/>
  <use xlink:href="#glyph2-4" x="549.460137" y="157.377867"/>
  <use xlink:href="#glyph2-34" x="554.918106" y="157.377867"/>
</g>
<path style="fill:none;stroke-width:1.0959;stroke-linecap:butt;stroke-linejoin:round;stroke:rgb(12.156677%,16.07666%,19.999695%);stroke-opacity:1;stroke-miterlimit:10;" d="M 327.625334 -71.019011 L 327.625334 -111.847576 " transform="matrix(0.996258,0,0,-0.996258,202.182698,26.016279)"/>
<path style="fill-rule:nonzero;fill:rgb(12.156677%,16.07666%,19.999695%);fill-opacity:1;stroke-width:1.0959;stroke-linecap:butt;stroke-linejoin:miter;stroke:rgb(12.156677%,16.07666%,19.999695%);stroke-opacity:1;stroke-miterlimit:10;" d="M 5.809643 0.00057437 L 1.771093 1.533655 L 3.119891 0.00057437 L 1.771093 -1.532506 Z M 5.809643 0.00057437 " transform="matrix(0,0.996258,0.996258,0,528.581459,134.610534)"/>
<path style="fill-rule:nonzero;fill:rgb(91.764832%,95.684814%,91.764832%);fill-opacity:1;stroke-width:0.89664;stroke-linecap:butt;stroke-linejoin:round;stroke:rgb(18.03894%,49.01886%,19.607544%);stroke-opacity:1;stroke-miterlimit:10;" d="M 225.214762 -122.300755 L 141.855951 -122.300755 C 140.205243 -122.300755 138.868209 -123.63779 138.868209 -125.288498 L 138.868209 -144.822533 C 138.868209 -146.473242 140.205243 -147.814197 141.855951 -147.814197 L 225.214762 -147.814197 C 226.86547 -147.814197 228.202505 -146.473242 228.202505 -144.822533 L 228.202505 -125.288498 C 228.202505 -123.63779 226.86547 -122.300755 225.214762 -122.300755 Z M 225.214762 -122.300755 " transform="matrix(0.996258,0,0,-0.996258,202.182698,26.016279)"/>
<g style="fill:rgb(12.156677%,16.07666%,19.999695%);fill-opacity:1;">
  <use xlink:href="#glyph2-35" x="352.315777" y="162.841346"/>
  <use xlink:href="#glyph2-2" x="358.765293" y="162.841346"/>
  <use xlink:href="#glyph2-8" x="364.223262" y="162.841346"/>
  <use xlink:href="#glyph2-36" x="367.69814" y="162.841346"/>
  <use xlink:href="#glyph2-4" x="373.156109" y="162.841346"/>
  <use xlink:href="#glyph2-24" x="378.614079" y="162.841346"/>
</g>
<g style="fill:rgb(12.156677%,16.07666%,19.999695%);fill-opacity:1;">
  <use xlink:href="#glyph2-37" x="383.491413" y="162.841346"/>
  <use xlink:href="#glyph2-25" x="385.974745" y="162.841346"/>
</g>
<g style="fill:rgb(12.156677%,16.07666%,19.999695%);fill-opacity:1;">
  <use xlink:href="#glyph2-13" x="393.916046" y="162.841346"/>
  <use xlink:href="#glyph2-38" x="399.874255" y="162.841346"/>
  <use xlink:href="#glyph2-22" x="406.32377" y="162.841346"/>
  <use xlink:href="#glyph2-13" x="411.78174" y="162.841346"/>
</g>
<path style="fill:none;stroke-width:1.0959;stroke-linecap:butt;stroke-linejoin:round;stroke:rgb(18.03894%,49.01886%,19.607544%);stroke-opacity:1;stroke-miterlimit:10;" d="M 276.841547 -131.507081 L 233.170313 -133.169552 " transform="matrix(0.996258,0,0,-0.996258,202.182698,26.016279)"/>
<path style="fill-rule:nonzero;fill:rgb(18.03894%,49.01886%,19.607544%);fill-opacity:1;stroke-width:1.0959;stroke-linecap:butt;stroke-linejoin:miter;stroke:rgb(18.03894%,49.01886%,19.607544%);stroke-opacity:1;stroke-miterlimit:10;" d="M 5.809564 0.00121387 L 1.771292 1.532237 L 3.121701 0.00151643 L 1.768425 -1.532223 Z M 5.809564 0.00121387 " transform="matrix(-0.995501,0.0378977,0.0378977,0.995501,437.31463,158.579404)"/>
<path style=" stroke:none;fill-rule:nonzero;fill:rgb(100%,100%,100%);fill-opacity:1;" d="M 445.167969 157.398438 L 462.796875 157.398438 L 462.796875 149.117188 L 445.167969 149.117188 Z M 445.167969 157.398438 "/>
<g style="fill:rgb(41.96167%,44.706726%,50.193787%);fill-opacity:1;">
  <use xlink:href="#glyph4-1" x="446.654428" y="155.908387"/>
</g>
<g style="fill:rgb(41.96167%,44.706726%,50.193787%);fill-opacity:1;">
  <use xlink:href="#glyph4-2" x="450.950117" y="155.908387"/>
</g>
<g style="fill:rgb(41.96167%,44.706726%,50.193787%);fill-opacity:1;">
  <use xlink:href="#glyph4-1" x="454.761449" y="155.908387"/>
</g>
<g style="fill:rgb(41.96167%,44.706726%,50.193787%);fill-opacity:1;">
  <use xlink:href="#glyph4-3" x="459.096839" y="155.908387"/>
</g>
<path style="fill:none;stroke-width:1.0959;stroke-linecap:butt;stroke-linejoin:round;stroke:rgb(18.03894%,49.01886%,19.607544%);stroke-opacity:1;stroke-miterlimit:10;" d="M 183.535357 -121.85377 L 183.535357 -81.021284 " transform="matrix(0.996258,0,0,-0.996258,202.182698,26.016279)"/>
<path style="fill-rule:nonzero;fill:rgb(18.03894%,49.01886%,19.607544%);fill-opacity:1;stroke-width:1.0959;stroke-linecap:butt;stroke-linejoin:miter;stroke:rgb(18.03894%,49.01886%,19.607544%);stroke-opacity:1;stroke-miterlimit:10;" d="M 5.810043 -0.0000366877 L 1.767572 1.533044 L 3.120291 -0.0000366877 L 1.767572 -1.533117 Z M 5.810043 -0.0000366877 " transform="matrix(0,-0.996258,-0.996258,0,385.031213,109.569552)"/>
<path style=" stroke:none;fill-rule:nonzero;fill:rgb(100%,100%,100%);fill-opacity:1;" d="M 385.578125 129.246094 L 428.558594 129.246094 L 428.558594 120.394531 L 385.578125 120.394531 Z M 385.578125 129.246094 "/>
<g style="fill:rgb(41.96167%,44.706726%,50.193787%);fill-opacity:1;">
  <use xlink:href="#glyph4-3" x="387.063261" y="127.75613"/>
</g>
<g style="fill:rgb(41.96167%,44.706726%,50.193787%);fill-opacity:1;">
  <use xlink:href="#glyph4-1" x="389.151553" y="127.75613"/>
  <use xlink:href="#glyph4-4" x="393.566346" y="127.75613"/>
  <use xlink:href="#glyph4-5" x="397.536484" y="127.75613"/>
</g>
<g style="fill:rgb(41.96167%,44.706726%,50.193787%);fill-opacity:1;">
  <use xlink:href="#glyph4-6" x="400.140894" y="127.75613"/>
  <use xlink:href="#glyph4-5" x="404.555687" y="127.75613"/>
</g>
<g style="fill:rgb(41.96167%,44.706726%,50.193787%);fill-opacity:1;">
  <use xlink:href="#glyph4-7" x="409.407195" y="127.75613"/>
  <use xlink:href="#glyph4-1" x="413.821988" y="127.75613"/>
  <use xlink:href="#glyph4-8" x="418.236781" y="127.75613"/>
  <use xlink:href="#glyph4-1" x="422.651574" y="127.75613"/>
</g>
<path style="fill-rule:nonzero;fill:rgb(99.215698%,91.764832%,91.764832%);fill-opacity:1;stroke-width:0.89664;stroke-linecap:butt;stroke-linejoin:round;stroke:rgb(75.292969%,22.3526%,16.862488%);stroke-opacity:1;stroke-miterlimit:10;" d="M 555.9132 -113.839405 L 432.870734 -113.839405 C 431.220025 -113.839405 429.882991 -115.18036 429.882991 -116.831068 L 429.882991 -142.324906 C 429.882991 -143.975614 431.220025 -145.312649 432.870734 -145.312649 L 555.9132 -145.312649 C 557.563908 -145.312649 558.900943 -143.975614 558.900943 -142.324906 L 558.900943 -116.831068 C 558.900943 -115.18036 557.563908 -113.839405 555.9132 -113.839405 Z M 555.9132 -113.839405 " transform="matrix(0.996258,0,0,-0.996258,202.182698,26.016279)"/>
<g style="fill:rgb(12.156677%,16.07666%,19.999695%);fill-opacity:1;">
  <use xlink:href="#glyph2-20" x="641.358095" y="152.669552"/>
</g>
<g style="fill:rgb(12.156677%,16.07666%,19.999695%);fill-opacity:1;">
  <use xlink:href="#glyph2-39" x="647.762946" y="152.669552"/>
  <use xlink:href="#glyph2-38" x="654.712701" y="152.669552"/>
  <use xlink:href="#glyph2-40" x="661.162216" y="152.669552"/>
  <use xlink:href="#glyph2-13" x="668.603278" y="152.669552"/>
</g>
<g style="fill:rgb(12.156677%,16.07666%,19.999695%);fill-opacity:1;">
  <use xlink:href="#glyph2-41" x="677.536125" y="152.669552"/>
</g>
<g style="fill:rgb(12.156677%,16.07666%,19.999695%);fill-opacity:1;">
  <use xlink:href="#glyph2-24" x="683.003027" y="152.669552"/>
  <use xlink:href="#glyph2-25" x="687.96969" y="152.669552"/>
  <use xlink:href="#glyph2-26" x="692.936353" y="152.669552"/>
  <use xlink:href="#glyph2-7" x="698.394323" y="152.669552"/>
  <use xlink:href="#glyph2-27" x="700.877654" y="152.669552"/>
  <use xlink:href="#glyph2-7" x="703.852292" y="152.669552"/>
  <use xlink:href="#glyph2-28" x="706.335624" y="152.669552"/>
  <use xlink:href="#glyph2-11" x="710.802047" y="152.669552"/>
  <use xlink:href="#glyph2-8" x="715.76871" y="152.669552"/>
</g>
<g style="fill:rgb(12.156677%,16.07666%,19.999695%);fill-opacity:1;">
  <use xlink:href="#glyph2-3" x="722.218226" y="152.669552"/>
  <use xlink:href="#glyph2-25" x="727.676195" y="152.669552"/>
  <use xlink:href="#glyph2-27" x="732.642858" y="152.669552"/>
</g>
<g style="fill:rgb(12.156677%,16.07666%,19.999695%);fill-opacity:1;">
  <use xlink:href="#glyph2-25" x="735.66216" y="152.669552"/>
  <use xlink:href="#glyph2-24" x="740.628823" y="152.669552"/>
  <use xlink:href="#glyph2-30" x="745.595486" y="152.669552"/>
</g>
<g style="fill:rgb(12.156677%,16.07666%,19.999695%);fill-opacity:1;">
  <use xlink:href="#glyph5-1" x="660.410531" y="163.587543"/>
</g>
<g style="fill:rgb(12.156677%,16.07666%,19.999695%);fill-opacity:1;">
  <use xlink:href="#glyph1-1" x="672.567866" y="163.587543"/>
</g>
<g style="fill:rgb(12.156677%,16.07666%,19.999695%);fill-opacity:1;">
  <use xlink:href="#glyph1-2" x="675.49784" y="163.587543"/>
  <use xlink:href="#glyph1-20" x="680.464503" y="163.587543"/>
  <use xlink:href="#glyph1-15" x="685.431166" y="163.587543"/>
  <use xlink:href="#glyph1-1" x="690.397829" y="163.587543"/>
  <use xlink:href="#glyph1-7" x="693.372467" y="163.587543"/>
  <use xlink:href="#glyph1-2" x="695.355559" y="163.587543"/>
  <use xlink:href="#glyph1-25" x="700.322222" y="163.587543"/>
</g>
<g style="fill:rgb(12.156677%,16.07666%,19.999695%);fill-opacity:1;">
  <use xlink:href="#glyph1-14" x="705.780191" y="163.587543"/>
</g>
<g style="fill:rgb(12.156677%,16.07666%,19.999695%);fill-opacity:1;">
  <use xlink:href="#glyph1-26" x="710.157287" y="163.587543"/>
  <use xlink:href="#glyph1-22" x="715.123949" y="163.587543"/>
  <use xlink:href="#glyph1-26" x="719.590373" y="163.587543"/>
  <use xlink:href="#glyph1-7" x="724.557036" y="163.587543"/>
  <use xlink:href="#glyph1-4" x="726.540128" y="163.587543"/>
</g>
<path style="fill:none;stroke-width:1.0959;stroke-linecap:butt;stroke-linejoin:round;stroke:rgb(75.292969%,22.3526%,16.862488%);stroke-opacity:1;stroke-miterlimit:10;" d="M 378.409121 -71.019011 C 426.640388 -71.077825 457.482364 -82.346556 490.931753 -110.479174 " transform="matrix(0.996258,0,0,-0.996258,202.182698,26.016279)"/>
<path style="fill-rule:nonzero;fill:rgb(75.292969%,22.3526%,16.862488%);fill-opacity:1;stroke-width:1.0959;stroke-linecap:butt;stroke-linejoin:miter;stroke:rgb(75.292969%,22.3526%,16.862488%);stroke-opacity:1;stroke-miterlimit:10;" d="M 5.810241 0.000116446 L 1.768212 1.534288 L 3.119267 0.0012503 L 1.770822 -1.532701 Z M 5.810241 0.000116446 " transform="matrix(0.762366,0.641291,0.641291,-0.762366,689.105549,134.258407)"/>
<path style=" stroke:none;fill-rule:nonzero;fill:rgb(100%,100%,100%);fill-opacity:1;" d="M 641.726562 111.71875 L 668.089844 111.71875 L 668.089844 100.878906 L 641.726562 100.878906 Z M 641.726562 111.71875 "/>
<g style="fill:rgb(41.96167%,44.706726%,50.193787%);fill-opacity:1;">
  <use xlink:href="#glyph4-9" x="643.209142" y="108.243423"/>
  <use xlink:href="#glyph4-10" x="647.179279" y="108.243423"/>
  <use xlink:href="#glyph4-4" x="651.594072" y="108.243423"/>
  <use xlink:href="#glyph4-11" x="655.56421" y="108.243423"/>
  <use xlink:href="#glyph4-1" x="662.178459" y="108.243423"/>
</g>
<path style="fill-rule:nonzero;fill:rgb(90.979004%,96.470642%,96.862793%);fill-opacity:1;stroke-width:0.3985;stroke-linecap:butt;stroke-linejoin:round;stroke:rgb(0%,42.74292%,46.665955%);stroke-opacity:1;stroke-miterlimit:10;" d="M 281.966193 -165.658315 L -191.736127 -165.658315 C -192.833986 -165.658315 -193.727956 -166.548365 -193.727956 -167.650144 L -193.727956 -183.898446 C -193.727956 -185.000225 -192.833986 -185.890275 -191.736127 -185.890275 L 281.966193 -185.890275 C 283.064051 -185.890275 283.958021 -185.000225 283.958021 -183.898446 L 283.958021 -167.650144 C 283.958021 -166.548365 283.064051 -165.658315 281.966193 -165.658315 Z M 281.966193 -165.658315 " transform="matrix(0.996258,0,0,-0.996258,202.182698,26.016279)"/>
<g style="fill:rgb(0%,42.74292%,46.665955%);fill-opacity:1;">
  <use xlink:href="#glyph2-15" x="98.771126" y="204.291653"/>
  <use xlink:href="#glyph2-33" x="101.254457" y="204.291653"/>
  <use xlink:href="#glyph2-7" x="106.22112" y="204.291653"/>
</g>
<g style="fill:rgb(0%,42.74292%,46.665955%);fill-opacity:1;">
  <use xlink:href="#glyph2-42" x="111.67909" y="204.291653"/>
  <use xlink:href="#glyph2-4" x="114.653728" y="204.291653"/>
  <use xlink:href="#glyph2-28" x="120.111697" y="204.291653"/>
  <use xlink:href="#glyph2-28" x="124.578121" y="204.291653"/>
</g>
<g style="fill:rgb(0%,42.74292%,46.665955%);fill-opacity:1;">
  <use xlink:href="#glyph2-3" x="132.028115" y="204.291653"/>
  <use xlink:href="#glyph2-11" x="137.486085" y="204.291653"/>
  <use xlink:href="#glyph2-9" x="142.452747" y="204.291653"/>
  <use xlink:href="#glyph2-11" x="147.910717" y="204.291653"/>
  <use xlink:href="#glyph2-43" x="152.87738" y="204.291653"/>
  <use xlink:href="#glyph2-44" x="158.335349" y="204.291653"/>
</g>
<g style="fill:rgb(0%,42.74292%,46.665955%);fill-opacity:1;">
  <use xlink:href="#glyph2-3" x="165.776411" y="204.291653"/>
  <use xlink:href="#glyph2-30" x="171.23438" y="204.291653"/>
  <use xlink:href="#glyph2-28" x="173.717712" y="204.291653"/>
  <use xlink:href="#glyph2-10" x="178.184135" y="204.291653"/>
  <use xlink:href="#glyph2-30" x="180.667467" y="204.291653"/>
</g>
<g style="fill:rgb(0%,42.74292%,46.665955%);fill-opacity:1;">
  <use xlink:href="#glyph6-1" x="186.124016" y="204.291653"/>
</g>
<g style="fill:rgb(0%,42.74292%,46.665955%);fill-opacity:1;">
  <use xlink:href="#glyph2-9" x="191.584506" y="204.291653"/>
  <use xlink:href="#glyph2-11" x="197.042475" y="204.291653"/>
</g>
<g style="fill:rgb(0%,42.74292%,46.665955%);fill-opacity:1;">
  <use xlink:href="#glyph2-27" x="201.964474" y="204.291653"/>
</g>
<g style="fill:rgb(0%,42.74292%,46.665955%);fill-opacity:1;">
  <use xlink:href="#glyph2-11" x="204.894448" y="204.291653"/>
  <use xlink:href="#glyph2-8" x="209.861111" y="204.291653"/>
  <use xlink:href="#glyph2-5" x="213.335988" y="204.291653"/>
  <use xlink:href="#glyph2-7" x="221.277289" y="204.291653"/>
  <use xlink:href="#glyph2-26" x="223.760621" y="204.291653"/>
  <use xlink:href="#glyph2-7" x="229.21859" y="204.291653"/>
  <use xlink:href="#glyph2-24" x="231.701922" y="204.291653"/>
  <use xlink:href="#glyph2-27" x="236.668585" y="204.291653"/>
  <use xlink:href="#glyph2-7" x="239.643223" y="204.291653"/>
  <use xlink:href="#glyph2-31" x="242.126554" y="204.291653"/>
</g>
<g style="fill:rgb(0%,42.74292%,46.665955%);fill-opacity:1;">
  <use xlink:href="#glyph6-1" x="250.070823" y="204.291653"/>
</g>
<g style="fill:rgb(0%,42.74292%,46.665955%);fill-opacity:1;">
  <use xlink:href="#glyph2-31" x="255.531313" y="204.291653"/>
</g>
<g style="fill:rgb(0%,42.74292%,46.665955%);fill-opacity:1;">
  <use xlink:href="#glyph2-11" x="260.363983" y="204.291653"/>
  <use xlink:href="#glyph2-26" x="265.330646" y="204.291653"/>
  <use xlink:href="#glyph2-9" x="270.788616" y="204.291653"/>
  <use xlink:href="#glyph2-7" x="276.246585" y="204.291653"/>
  <use xlink:href="#glyph2-26" x="278.729917" y="204.291653"/>
  <use xlink:href="#glyph2-11" x="284.187886" y="204.291653"/>
</g>
<g style="fill:rgb(0%,42.74292%,46.665955%);fill-opacity:1;">
  <use xlink:href="#glyph2-33" x="292.129187" y="204.291653"/>
</g>
<g style="fill:rgb(0%,42.74292%,46.665955%);fill-opacity:1;">
  <use xlink:href="#glyph2-11" x="296.961857" y="204.291653"/>
</g>
<g style="fill:rgb(0%,42.74292%,46.665955%);fill-opacity:1;">
  <use xlink:href="#glyph2-27" x="301.883856" y="204.291653"/>
</g>
<g style="fill:rgb(0%,42.74292%,46.665955%);fill-opacity:1;">
  <use xlink:href="#glyph2-11" x="304.81383" y="204.291653"/>
  <use xlink:href="#glyph2-8" x="309.780493" y="204.291653"/>
</g>
<g style="fill:rgb(0%,42.74292%,46.665955%);fill-opacity:1;">
  <use xlink:href="#glyph2-10" x="313.210706" y="204.291653"/>
  <use xlink:href="#glyph2-7" x="315.694037" y="204.291653"/>
</g>
<g style="fill:rgb(0%,42.74292%,46.665955%);fill-opacity:1;">
  <use xlink:href="#glyph6-1" x="321.156814" y="204.291653"/>
</g>
<g style="fill:rgb(0%,42.74292%,46.665955%);fill-opacity:1;">
  <use xlink:href="#glyph2-9" x="326.617304" y="204.291653"/>
  <use xlink:href="#glyph2-25" x="332.075274" y="204.291653"/>
  <use xlink:href="#glyph2-8" x="337.041937" y="204.291653"/>
</g>
<g style="fill:rgb(0%,42.74292%,46.665955%);fill-opacity:1;">
  <use xlink:href="#glyph2-6" x="343.491452" y="204.291653"/>
  <use xlink:href="#glyph2-7" x="348.949422" y="204.291653"/>
  <use xlink:href="#glyph2-8" x="351.432753" y="204.291653"/>
  <use xlink:href="#glyph2-9" x="354.907631" y="204.291653"/>
  <use xlink:href="#glyph2-7" x="360.3656" y="204.291653"/>
</g>
<g style="fill:rgb(0%,42.74292%,46.665955%);fill-opacity:1;">
  <use xlink:href="#glyph2-33" x="365.832502" y="204.291653"/>
  <use xlink:href="#glyph2-45" x="370.799165" y="204.291653"/>
  <use xlink:href="#glyph2-28" x="376.257135" y="204.291653"/>
  <use xlink:href="#glyph2-11" x="380.723558" y="204.291653"/>
</g>
<g style="fill:rgb(0%,42.74292%,46.665955%);fill-opacity:1;">
  <use xlink:href="#glyph2-33" x="385.556229" y="204.291653"/>
  <use xlink:href="#glyph2-7" x="390.522892" y="204.291653"/>
  <use xlink:href="#glyph2-46" x="393.006223" y="204.291653"/>
</g>
</g>
</svg>
